<svg width="60" height="60" viewBox="0 0 60 60" fill="none" xmlns="http://www.w3.org/2000/svg">
<circle cx="30" cy="30" r="29" fill="#BDC6CA" stroke="#BDC6CA" stroke-width="2"/>
<path d="M22.9648 42.6191C23.611 42.6191 24.1348 42.0257 24.1348 41.2938C24.1348 40.5619 23.611 39.9686 22.9648 39.9686C22.3187 39.9686 21.7949 40.5619 21.7949 41.2938C21.7949 42.0257 22.3187 42.6191 22.9648 42.6191Z" fill="white"/>
<path d="M18.2773 42.6191C18.9235 42.6191 19.4473 42.0257 19.4473 41.2938C19.4473 40.5619 18.9235 39.9686 18.2773 39.9686C17.6312 39.9686 17.1074 40.5619 17.1074 41.2938C17.1074 42.0257 17.6312 42.6191 18.2773 42.6191Z" fill="white"/>
<path d="M33.4294 41.809C33.6769 41.1328 33.3935 40.3573 32.7965 40.077C32.1995 39.7967 31.5149 40.1177 31.2674 40.7939C31.0199 41.4702 31.3033 42.2457 31.9003 42.526C32.4974 42.8063 33.182 42.4853 33.4294 41.809Z" fill="white"/>
<path d="M42.8171 41.8077C43.0646 41.1314 42.7812 40.356 42.1842 40.0756C41.5872 39.7953 40.9026 40.1163 40.6551 40.7926C40.4076 41.4689 40.691 42.2443 41.288 42.5246C41.8851 42.805 42.5697 42.484 42.8171 41.8077Z" fill="white"/>
<path d="M48.8281 28.0587H47.5352V18.667C47.5352 17.9339 47.0105 17.3396 46.3633 17.3396C45.7161 17.3396 45.1914 17.9339 45.1914 18.667V28.0586H42.8555V18.6781C42.8555 17.945 42.3308 17.3507 41.6836 17.3507C41.0364 17.3507 40.5117 17.945 40.5117 18.6781V28.0586H38.1758V18.6781C38.1758 17.945 37.6511 17.3507 37.0039 17.3507C36.3567 17.3507 35.832 17.945 35.832 18.6781V28.0586H33.4961V18.6781C33.4961 17.945 32.9714 17.3507 32.3242 17.3507C31.677 17.3507 31.1523 17.945 31.1523 18.6781V28.0586H28.8164V18.6781C28.8164 17.945 28.2917 17.3507 27.6445 17.3507C26.9973 17.3507 26.4727 17.945 26.4727 18.6781V28.0586H24.1367V18.6781C24.1367 17.945 23.612 17.3507 22.9648 17.3507C22.3177 17.3507 21.793 17.945 21.793 18.6781V28.0586H19.457V18.6781C19.457 17.945 18.9323 17.3507 18.2852 17.3507C17.638 17.3507 17.1133 17.945 17.1133 18.6781V28.0586H14.7617V18.6781C14.7617 17.945 14.237 17.3507 13.5898 17.3507C12.9427 17.3507 12.418 17.945 12.418 18.6781V28.0586H11.1719C10.5247 28.0586 10 28.653 10 29.3861C10 30.1192 10.5247 30.7135 11.1719 30.7135H12.418V41.2938C12.418 42.0269 12.9427 42.6213 13.5898 42.6213C14.237 42.6213 14.7617 42.0269 14.7617 41.2938V30.7136H17.1133V36.0277C17.1133 36.7608 17.638 37.3552 18.2852 37.3552C18.9323 37.3552 19.457 36.7608 19.457 36.0277V30.7136H21.793V35.9864C21.793 36.7195 22.3177 37.3138 22.9648 37.3138C23.612 37.3138 24.1367 36.7195 24.1367 35.9864V30.7136H26.4727V41.2938C26.4727 42.0269 26.9973 42.6213 27.6445 42.6213C28.2917 42.6213 28.8164 42.0269 28.8164 41.2938V30.7136H31.1523V35.9864C31.1523 36.7195 31.677 37.3138 32.3242 37.3138C32.9714 37.3138 33.4961 36.7195 33.4961 35.9864V30.7136H35.832V41.333C35.832 42.0661 36.3567 42.6605 37.0039 42.6605C37.6511 42.6605 38.1758 42.0661 38.1758 41.333V30.7136H40.5117V35.9864C40.5117 36.7195 41.0364 37.3138 41.6836 37.3138C42.3308 37.3138 42.8555 36.7195 42.8555 35.9864V30.7136H45.1914V41.2961C45.1914 42.0292 45.7161 42.6236 46.3633 42.6236C47.0105 42.6236 47.5352 42.0292 47.5352 41.2961V30.7136H48.8281C49.4753 30.7136 50 30.1192 50 29.3861C50 28.653 49.4753 28.0587 48.8281 28.0587Z" fill="white"/>
<path d="M14.7617 47.3451H12.3438V44.5973C12.3438 43.8642 11.8191 43.2699 11.1719 43.2699C10.5247 43.2699 10 43.8642 10 44.5973V48.6726C10 49.4056 10.5247 50 11.1719 50H14.7617C15.4089 50 15.9336 49.4056 15.9336 48.6726C15.9336 47.9395 15.4089 47.3451 14.7617 47.3451Z" fill="white"/>
<path d="M48.8281 43.2699C48.1809 43.2699 47.6563 43.8642 47.6563 44.5973V47.3451H45.2383C44.5911 47.3451 44.0664 47.9395 44.0664 48.6726C44.0664 49.4056 44.5911 50 45.2383 50H48.8281C49.4753 50 50 49.4056 50 48.6726V44.5973C50 43.8642 49.4753 43.2699 48.8281 43.2699Z" fill="white"/>
<path d="M11.1719 16.7301C11.8191 16.7301 12.3438 16.1358 12.3438 15.4027V12.6549H14.7617C15.4089 12.6549 15.9336 12.0605 15.9336 11.3274C15.9336 10.5943 15.4089 10 14.7617 10H11.1719C10.5247 10 10 10.5943 10 11.3274V15.4027C10 16.1358 10.5247 16.7301 11.1719 16.7301Z" fill="white"/>
<path d="M48.8281 10H45.2383C44.5911 10 44.0664 10.5943 44.0664 11.3274C44.0664 12.0605 44.5911 12.6549 45.2383 12.6549H47.6563V15.4027C47.6563 16.1358 48.1809 16.7301 48.8281 16.7301C49.4753 16.7301 50 16.1358 50 15.4027V11.3274C50 10.5943 49.4753 10 48.8281 10Z" fill="white"/>
</svg>
