<svg width="62" height="62" viewBox="0 0 62 62" fill="none" xmlns="http://www.w3.org/2000/svg">
<circle cx="31" cy="31" r="30" fill="#BDC6CA" stroke="#BDC6CA" stroke-width="2"/>
<path d="M11 11V24.2812H24.2812V11H11ZM21.1562 21.1562H14.125V14.125H21.1562V21.1562Z" fill="white"/>
<path d="M19.2031 16.0781H16.0781V19.2031H19.2031V16.0781Z" fill="white"/>
<path d="M37.7188 11V24.2812H51V11H37.7188ZM47.875 21.1562H40.8438V14.125H47.875V21.1562Z" fill="white"/>
<path d="M45.9219 16.0781H42.7969V19.2031H45.9219V16.0781Z" fill="white"/>
<path d="M11 37.7188V51H24.2812V37.7188H11ZM21.1562 47.875H14.125V40.8438H21.1562V47.875Z" fill="white"/>
<path d="M19.2031 42.7969H16.0781V45.9219H19.2031V42.7969Z" fill="white"/>
<path d="M17.25 26.3906H14.125V29.5156H17.25V26.3906Z" fill="white"/>
<path d="M20.375 32.6406V29.5156H17.25V32.6406H20.2969V35.7656H23.4219V32.6406H20.375Z" fill="white"/>
<path d="M36 17.0156H32.875V20.1406H36V17.0156Z" fill="white"/>
<path d="M29.75 14.125H26.625V20.1406H29.75V14.125Z" fill="white"/>
<path d="M32.875 11H29.75V14.125H32.875V11Z" fill="white"/>
<path d="M29.75 20.1406V23.2656H26.625V26.3906H32.875V20.1406H29.75Z" fill="white"/>
<path d="M32.875 38.7344V35.6875H29.75V29.5156H26.625V35.7656H29.75V38.8125H32.875V41.8594H39.125V38.7344H32.875Z" fill="white"/>
<path d="M36 26.3906H32.875V32.6406H36V26.3906Z" fill="white"/>
<path d="M47.875 29.4375V26.3906H42.1719V29.5156H39.125V32.6406H42.25V35.6875H51V29.4375H47.875ZM47.875 32.5625H42.25V29.5156H47.875V32.5625Z" fill="white"/>
<path d="M51 38.7344H47.875V44.9844H51V38.7344Z" fill="white"/>
<path d="M39.125 32.6406H36V35.7656H39.125V32.6406Z" fill="white"/>
<path d="M42.25 41.8594H39.125V44.9844H42.25V41.8594Z" fill="white"/>
<path d="M45.375 38.7344H42.25V41.8594H45.375V38.7344Z" fill="white"/>
<path d="M42.25 44.9844V51H45.375V48.1094H47.875V44.9844H42.25Z" fill="white"/>
<path d="M29.75 38.8125H26.625V44.75H29.75V38.8125Z" fill="white"/>
<path d="M36 47.875V44.75H29.75V51H32.875V47.875H35.9219V51H39.0469V47.875H36Z" fill="white"/>
<path d="M26.625 26.3906H20.375V29.5156H26.625V26.3906Z" fill="white"/>
<path d="M14.125 29.5156H11V35.7656H14.125V29.5156Z" fill="white"/>
</svg>
