<svg width="60" height="60" viewBox="0 0 60 60" fill="none" xmlns="http://www.w3.org/2000/svg">
<circle cx="30" cy="30" r="29" fill="#F3969A" stroke="#F3969A" stroke-width="2"/>
<path d="M49.6304 17.1853C49.6304 15.1586 47.9875 13.5159 45.961 13.5159H13.6695C11.6429 13.5159 10 15.1586 10 17.1853V20.3985H49.6305L49.6304 17.1853Z" fill="white"/>
<path d="M48.8381 38.4947L48.4584 38.115C49.1791 37.445 49.6303 36.4892 49.6303 35.4279V24.2957H10V35.4279C10 37.4544 11.6429 39.0972 13.6695 39.0972H35.8011L39.1581 42.4542L42.0182 45.3144C42.6549 45.9512 43.4749 46.3576 44.3265 46.4587C44.4673 46.4756 44.6096 46.4841 44.7493 46.4841C44.7493 46.4841 44.7493 46.4841 44.7495 46.4841C45.6302 46.4841 46.4473 46.1521 47.0499 45.5493L49.0734 43.5262C50.3956 42.2039 50.29 39.9468 48.8381 38.4947ZM23.9619 34.1265C23.9619 34.4001 23.7401 34.6218 23.4665 34.6218H15.8291C15.5555 34.6218 15.3336 34.4001 15.3336 34.1265V32.6197C15.3336 32.3459 15.5555 32.1242 15.8291 32.1242H23.4665C23.7401 32.1242 23.9619 32.3459 23.9619 32.6197V34.1265ZM41.0259 41.2602L30.8222 31.0564C30.6352 30.8694 30.5059 30.6366 30.4573 30.3987L29.8388 27.3878C29.7714 27.0575 29.8503 26.7514 30.0553 26.5466C30.2603 26.3416 30.5671 26.2625 30.8966 26.3302L33.9073 26.9485C34.1445 26.9973 34.3768 27.126 34.5638 27.3124L44.7812 37.5052L41.0259 41.2602ZM47.5421 41.9956C47.5421 41.9956 47.5421 41.9956 47.542 41.9956L45.519 44.0186C45.2872 44.2504 44.955 44.3534 44.5827 44.3089C44.2107 44.2647 43.8438 44.0779 43.5491 43.7834L42.2201 42.4544L45.9777 38.6967L47.3069 40.0258C47.9149 40.6336 48.0205 41.5171 47.5421 41.9956Z" fill="white"/>
</svg>
