<svg width="60" height="60" viewBox="0 0 60 60" fill="none" xmlns="http://www.w3.org/2000/svg">
<circle cx="30" cy="30" r="29" fill="#BDC6CA" stroke="#BDC6CA" stroke-width="2"/>
<path d="M45.0241 27.0558L44.0814 26.0458L42.6667 27.5615L41.2521 26.0458L40.3334 27.0308L39.4147 26.0458L38.0001 27.5615L36.5854 26.0458L35.6667 27.0308L34.7481 26.0458L33.3334 27.5615L31.9187 26.0458L30.9761 27.0558L32.3907 28.5715L30.9761 30.0872L31.9187 31.0972L33.3334 29.5815L34.7481 31.0972L35.6667 30.1122L36.5854 31.0972L38.0001 29.5815L39.4147 31.0972L40.3334 30.1122L41.2521 31.0972L42.6667 29.5815L44.0814 31.0972L45.0241 30.0872L43.6094 28.5715L45.0241 27.0558ZM35.6667 30.0615L34.2761 28.5715L35.6667 27.0815L37.0574 28.5715L35.6667 30.0615ZM40.3334 30.0615L38.9427 28.5715L40.3334 27.0815L41.7241 28.5715L40.3334 30.0615Z" fill="white"/>
<path d="M48 10H12C11.4696 10 10.9609 10.2258 10.5858 10.6276C10.2107 11.0295 10 11.5745 10 12.1429V34.2857C10 34.854 10.2107 35.3991 10.5858 35.8009C10.9609 36.2028 11.4696 36.4286 12 36.4286H32.2453C33.3467 37.3591 34.6303 38.0107 36 38.3343V39.2857C35.8232 39.2857 35.6536 39.361 35.5286 39.4949C35.4036 39.6289 35.3333 39.8106 35.3333 40V47.1429C35.3333 47.9006 35.6143 48.6273 36.1144 49.1632C36.6145 49.699 37.2928 50 38 50C38.7072 50 39.3855 49.699 39.8856 49.1632C40.3857 48.6273 40.6667 47.9006 40.6667 47.1429V40C40.6667 39.8106 40.5964 39.6289 40.4714 39.4949C40.3464 39.361 40.1768 39.2857 40 39.2857V38.3343C41.3697 38.0107 42.6533 37.3591 43.7547 36.4286H48C48.5304 36.4286 49.0391 36.2028 49.4142 35.8009C49.7893 35.3991 50 34.854 50 34.2857V12.1429C50 11.5745 49.7893 11.0295 49.4142 10.6276C49.0391 10.2258 48.5304 10 48 10ZM12 11.4286H48C48.1768 11.4286 48.3464 11.5038 48.4714 11.6378C48.5964 11.7717 48.6667 11.9534 48.6667 12.1429V15.7143H11.3333V12.1429C11.3333 11.9534 11.4036 11.7717 11.5286 11.6378C11.6536 11.5038 11.8232 11.4286 12 11.4286ZM38 37.1429C36.4177 37.1429 34.871 36.6402 33.5554 35.6983C32.2398 34.7565 31.2145 33.4178 30.609 31.8516C30.0035 30.2853 29.845 28.5619 30.1537 26.8992C30.4624 25.2365 31.2243 23.7092 32.3431 22.5105C33.462 21.3118 34.8874 20.4954 36.4393 20.1647C37.9911 19.834 39.5997 20.0037 41.0615 20.6525C42.5233 21.3012 43.7727 22.3998 44.6518 23.8094C45.5308 25.219 46 26.8762 46 28.5714C45.9977 30.844 45.1541 33.0227 43.6543 34.6296C42.1545 36.2366 40.121 37.1404 38 37.1429ZM38 18.5714C36.3141 18.5724 34.6605 19.0664 33.2173 20H11.3333V17.1429H48.6667V20H42.7827C41.3395 19.0664 39.6859 18.5724 38 18.5714ZM11.3333 34.2857V21.4286H31.4807C29.7943 23.1872 28.7928 25.5653 28.6779 28.0837C28.5629 30.602 29.3432 33.0735 30.8613 35H12C11.8232 35 11.6536 34.9247 11.5286 34.7908C11.4036 34.6568 11.3333 34.4752 11.3333 34.2857ZM39.3333 47.1429C39.3333 47.5217 39.1929 47.8851 38.9428 48.153C38.6928 48.4209 38.3536 48.5714 38 48.5714C37.6464 48.5714 37.3072 48.4209 37.0572 48.153C36.8071 47.8851 36.6667 47.5217 36.6667 47.1429V40.7143H39.3333V47.1429ZM38.6667 39.2857H37.3333V38.535C37.5547 38.5521 37.7747 38.5714 38 38.5714C38.2253 38.5714 38.4453 38.5521 38.6667 38.535V39.2857ZM48 35H45.1387C46.6568 33.0735 47.4371 30.602 47.3221 28.0837C47.2072 25.5653 46.2057 23.1872 44.5193 21.4286H48.6667V34.2857C48.6667 34.4752 48.5964 34.6568 48.4714 34.7908C48.3464 34.9247 48.1768 35 48 35Z" fill="white"/>
<path d="M21.3333 25C20.4952 25.0003 19.6785 25.2843 19 25.8114C18.4027 25.3493 17.698 25.0728 16.9634 25.0125C16.2288 24.9522 15.493 25.1105 14.837 25.4699C14.181 25.8292 13.6304 26.3757 13.2459 27.049C12.8614 27.7223 12.658 28.4964 12.658 29.2857C12.658 30.0751 12.8614 30.8491 13.2459 31.5224C13.6304 32.1958 14.181 32.7423 14.837 33.1016C15.493 33.461 16.2288 33.6192 16.9634 33.5589C17.698 33.4987 18.4027 33.2222 19 32.76C19.5116 33.156 20.1035 33.4165 20.7271 33.5205C21.3507 33.6245 21.9885 33.5688 22.5882 33.3582C23.1879 33.1475 23.7326 32.7878 24.1777 32.3084C24.6228 31.829 24.9558 31.2436 25.1493 30.5999C25.3428 29.9563 25.3915 29.2727 25.2912 28.6051C25.191 27.9374 24.9447 27.3047 24.5726 26.7586C24.2004 26.2124 23.7129 25.7684 23.1499 25.4627C22.587 25.1571 21.9645 24.9985 21.3333 25ZM18.6667 29.2857C18.6691 28.8105 18.7838 28.3436 19 27.9286C19.2185 28.3416 19.3333 28.8082 19.3333 29.2829C19.3333 29.7576 19.2185 30.2242 19 30.6372C18.7847 30.2239 18.67 29.7591 18.6667 29.2857ZM14 29.2857C14 28.528 14.2809 27.8012 14.781 27.2654C15.2811 26.7296 15.9594 26.4286 16.6667 26.4286C17.1537 26.4307 17.6307 26.5773 18.0447 26.8522C17.5815 27.5667 17.3333 28.4158 17.3333 29.2857C17.3333 30.1557 17.5815 31.0048 18.0447 31.7193C17.6307 31.9942 17.1537 32.1408 16.6667 32.1429C15.9594 32.1429 15.2811 31.8419 14.781 31.306C14.2809 30.7702 14 30.0435 14 29.2857ZM21.3333 32.1429C20.8463 32.1408 20.3693 31.9942 19.9553 31.7193C20.4184 31.0048 20.6666 30.1557 20.6666 29.2857C20.6666 28.4158 20.4184 27.5667 19.9553 26.8522C20.3693 26.5773 20.8463 26.4307 21.3333 26.4286C22.0406 26.4286 22.7188 26.7296 23.2189 27.2654C23.719 27.8012 24 28.528 24 29.2857C24 30.0435 23.719 30.7702 23.2189 31.306C22.7188 31.8419 22.0406 32.1429 21.3333 32.1429Z" fill="white"/>
</svg>
