<svg width="304" height="186" viewBox="0 0 304 186" fill="none" xmlns="http://www.w3.org/2000/svg">
<path d="M45.7151 59.2185C46.479 59.2249 47.2428 59.2335 48.0067 59.2377C47.9093 61.1319 47.9159 63.0325 48.1152 64.9202C47.3137 64.9202 46.5144 64.9202 45.7151 64.9181C45.7173 63.0175 45.7151 61.1191 45.7151 59.2185Z" fill="white"/>
<path d="M70.1657 59.2232C70.8898 59.2189 71.6138 59.2125 72.34 59.2125C72.5592 61.1045 72.5991 63.0179 72.3644 64.9121C71.6271 64.9228 70.892 64.9228 70.1547 64.9185C70.1591 63.02 70.1613 61.1216 70.1657 59.2232Z" fill="white"/>
<path d="M15.9683 59.6567C16.5484 59.5264 17.1329 59.4196 17.7219 59.3321C18.4525 61.1686 19.0393 63.0521 19.6415 64.9313C19.0636 64.9249 18.4835 64.9185 17.9034 64.9057C17.651 64.1454 16.8982 63.808 16.1321 63.7013C16.0059 64.1049 15.8841 64.5127 15.7579 64.9185C15.262 64.9185 14.766 64.9163 14.2678 64.9185C14.8059 63.1567 15.273 61.3693 15.9683 59.6567ZM16.5904 61.8712C16.5351 62.1146 16.4731 62.3559 16.4022 62.5972C16.6812 62.5588 16.9912 62.5246 17.1661 62.2833C17.175 61.9865 16.7764 61.9972 16.5904 61.8712Z" fill="white"/>
<path d="M36.1766 59.4688C37.6534 58.9392 39.4137 59.9983 39.6373 61.4804C39.7347 62.4371 39.7214 63.5454 38.9398 64.2544C37.7996 65.478 35.4282 65.2089 34.6799 63.7119C33.8651 62.2534 34.3677 59.9514 36.1766 59.4688ZM36.4689 63.5432C36.8364 63.5838 37.2881 63.6735 37.5073 63.2934C38.0188 62.4413 37.7841 61.3202 37.1287 60.5963C35.9375 61.1259 36.1766 62.5524 36.4689 63.5432Z" fill="white"/>
<path d="M48.3742 59.473C51.4165 59.4816 54.4587 59.3833 57.5009 59.4773C57.5297 59.9321 57.5584 60.387 57.5828 60.844C56.7326 60.8483 55.8823 60.8589 55.0343 60.8653C55.0299 61.0234 55.0255 61.3394 55.021 61.4974C55.7274 61.4974 56.4359 61.4953 57.1422 61.4953C57.1488 61.8776 57.1577 62.2598 57.1665 62.6421C56.3141 62.6848 55.4639 62.7531 54.6181 62.8599C55.2247 63.9063 56.5842 63.6628 57.6204 63.7013C57.6138 64.107 57.6094 64.5127 57.6049 64.9185C56.1525 64.9206 54.7 64.9228 53.2497 64.9228C53.201 63.2742 53.2962 61.6277 53.3494 59.9834C53.2962 59.8745 53.19 59.6545 53.1368 59.5456C52.3973 61.017 51.4386 62.3666 50.3758 63.6372C51.1928 63.6372 52.0121 63.6372 52.8313 63.6393C52.8313 64.0664 52.8313 64.4914 52.8335 64.9206C51.2991 64.9249 49.7669 64.9185 48.2325 64.9206C48.2303 64.5063 48.2215 64.0963 48.217 63.6842C48.9455 62.7488 49.6607 61.8071 50.3758 60.8653C49.7005 60.8632 49.0252 60.8568 48.3499 60.844C48.3587 60.387 48.3654 59.93 48.3742 59.473Z" fill="white"/>
<path d="M65.1574 62.0591C64.3514 61.0084 65.3744 59.4773 66.6298 59.3919C67.8852 59.078 69.021 59.8553 69.8225 60.7031C68.959 61.0298 68.038 61.1558 67.1324 60.9337L66.7981 61.1494C67.6416 61.4526 68.6026 61.5487 69.3222 62.1146C69.8535 62.5118 69.6299 63.272 69.4528 63.7952C68.9812 65.0936 67.2099 65.2516 66.0519 64.8224C65.3478 64.5597 64.843 63.996 64.4156 63.4215C64.9227 63.2891 65.4319 63.1738 65.9434 63.0628C66.5943 63.4108 67.3117 63.65 68.069 63.6287C67.159 62.9987 66.0231 62.7446 65.1574 62.0591Z" fill="white"/>
<path d="M73.0972 60.2503C74.3305 58.6914 77.3063 59.3 77.6672 61.2796C77.1225 61.365 76.5801 61.4462 76.0354 61.5295C75.8118 61.254 75.5903 60.9807 75.3667 60.7073L74.5342 60.8525C74.3659 61.931 74.1667 63.4023 75.4619 63.9212C75.2139 63.2571 74.9837 62.5823 74.8907 61.8797C75.8007 61.8114 76.7129 61.8135 77.6229 61.8242C77.6185 62.8727 77.6296 63.9234 77.603 64.974C76.9232 64.8138 76.2258 64.7135 75.5306 64.8501C74.7025 64.9697 73.6264 64.974 73.1061 64.2223C72.4618 63.0051 72.4352 61.4654 73.0972 60.2503Z" fill="white"/>
<path d="M92.3801 59.4709C92.9536 59.4709 93.527 59.4752 94.1027 59.4794C94.1802 60.5771 93.8547 61.6811 94.0606 62.7723C94.1492 63.2635 94.6009 63.5411 94.9883 63.808C95.9958 62.5524 95.4024 60.9145 95.5131 59.4709C96.0002 59.473 96.4917 59.4794 96.9811 59.488C96.9146 61.1067 97.28 62.8236 96.6091 64.3633C95.4976 65.3691 93.2968 65.3349 92.4709 64.0088C92.2384 62.5075 92.358 60.9828 92.3801 59.4709Z" fill="white"/>
<path d="M19.9692 64.2778C19.2629 62.7702 19.6769 61.0682 19.595 59.473H21.4792C21.4903 60.8547 21.384 62.247 21.6121 63.618C21.9553 63.6201 22.2985 63.6222 22.6417 63.6265C22.9162 62.262 22.7878 60.8696 22.8033 59.4901C23.2838 59.4837 23.762 59.4752 24.2425 59.4688C24.2225 60.8547 24.3155 62.247 24.196 63.6286C24.1938 64.3931 23.3679 64.7989 22.7059 64.9783C21.7693 65.1662 20.6091 65.0253 19.9692 64.2778Z" fill="white"/>
<path d="M24.5192 59.4773C25.985 59.4602 27.4485 59.473 28.9121 59.5328C28.7726 60.2482 28.3829 60.9508 27.5814 61.1152C27.5614 62.3815 27.5703 63.6479 27.5747 64.9163C26.9437 64.9185 26.3149 64.9185 25.6839 64.9185C25.6794 63.6756 25.6905 62.4328 25.6839 61.1899C24.9399 60.9145 24.486 60.2482 24.5192 59.4773Z" fill="white"/>
<path d="M29.118 59.4645C29.6693 59.4687 30.2206 59.473 30.7742 59.4752C30.7786 60.1457 30.7897 60.8184 30.803 61.491C31.1771 61.491 31.5491 61.4932 31.9211 61.4953C31.9477 60.8205 31.9654 60.1457 31.9809 59.4709C32.5809 59.473 33.1787 59.4794 33.7787 59.488C33.7987 61.2989 33.8031 63.1097 33.7987 64.9185C33.1876 64.9228 32.5787 64.9185 31.9676 64.9099C31.9388 64.2907 31.9897 63.6564 31.8237 63.0499C31.682 62.7232 31.2701 62.8193 30.9845 62.7488C30.8118 63.4578 30.7631 64.186 30.7542 64.9142C30.1431 64.9185 29.532 64.9228 28.9209 64.9206C28.8745 63.1012 28.8944 61.2732 29.118 59.4645Z" fill="white"/>
<path d="M40.275 59.4752C41.7341 59.5221 43.284 59.2702 44.6589 59.8553C45.3055 60.3016 45.1106 61.1899 45.2213 61.8541C44.9379 62.1274 44.6567 62.405 44.3777 62.6826C44.67 63.4279 44.9623 64.1732 45.2479 64.9206C44.639 64.9206 44.0301 64.9206 43.4235 64.9185C43.0382 64.2074 42.6529 63.4963 42.219 62.8108C42.1703 63.5133 42.1193 64.2159 42.0684 64.9185H40.2418C40.244 63.1033 40.2573 61.2903 40.275 59.4752ZM41.6367 61.207C41.9488 61.6875 42.498 61.7452 43.0338 61.7558C43.0426 61.3736 43.0404 60.9913 43.0338 60.6091C42.4847 60.607 41.9134 60.6838 41.6367 61.207Z" fill="white"/>
<path d="M58.2316 59.4709C59.5313 59.5072 60.9284 59.3 62.1329 59.8852C63.6208 60.8718 63.6761 63.255 62.3321 64.3761C61.1343 65.1897 59.591 64.8566 58.2227 64.9206C58.2227 63.1033 58.2294 61.2882 58.2316 59.4709ZM60.2641 60.4767C60.0914 61.5871 60.1003 62.7125 60.1291 63.8315C60.5808 63.4429 61.1166 63.1076 61.4221 62.5908C61.5816 61.7089 60.8841 61.0148 60.2641 60.4767Z" fill="white"/>
<path d="M78.1588 59.4709C78.7212 59.4645 79.2858 59.4794 79.8482 59.4922C80.3751 60.3464 80.9575 61.1686 81.5398 61.9907C81.4866 61.16 81.4246 60.3315 81.3494 59.5029C81.8719 59.488 82.3944 59.4752 82.9192 59.4666C82.9236 61.2946 82.9258 63.1225 82.9192 64.9527C82.3989 64.9121 81.8785 64.8715 81.3582 64.8224C80.7693 63.8273 80.1692 62.8385 79.5426 61.8669C79.6024 62.8834 79.6157 63.9041 79.6976 64.9228C79.1839 64.9206 78.668 64.9206 78.1544 64.9185C78.1566 63.1033 78.1588 61.2882 78.1588 59.4709Z" fill="white"/>
<path d="M84.8344 59.4837C85.4853 59.4858 86.1385 59.488 86.7895 59.488C87.3718 61.3202 87.9718 63.146 88.5254 64.9847C87.9342 64.927 87.3076 64.9825 86.7496 64.7562C86.3201 64.5896 86.2559 64.1091 86.1053 63.7482C85.3525 63.7867 84.717 64.2095 84.4912 64.9142C84.0395 64.9185 83.59 64.9227 83.1406 64.9292C83.7162 63.1161 84.2764 61.301 84.8344 59.4837ZM85.2263 62.6293C85.5119 62.531 85.7975 62.4349 86.0809 62.3281C85.9326 62.1659 85.7842 62.0057 85.6315 61.8498C85.3724 62.042 85.2351 62.3089 85.2263 62.6293Z" fill="white"/>
<path d="M87.819 59.4944C89.2781 59.4666 90.7395 59.4666 92.1986 59.4944C92.1078 59.8724 92.1344 60.308 91.8753 60.6304C91.6317 60.9465 91.1845 60.9294 90.8302 61.0298C90.8192 62.3281 90.817 63.6244 90.8103 64.9206C90.2457 64.9185 89.6811 64.9185 89.1165 64.9163C89.1165 63.6479 89.1254 62.3773 89.1121 61.1088C88.3106 60.9401 87.777 60.293 87.819 59.4944Z" fill="white"/>
<path d="M97.8423 59.4794C99.3701 59.5584 101.119 59.1463 102.448 60.0902C103.127 60.9721 102.421 62.0484 101.91 62.83C102.197 63.5326 102.505 64.2244 102.802 64.9227C102.144 64.9227 101.487 64.9163 100.831 64.8971C100.475 64.1369 100.092 63.3895 99.6778 62.6592C99.5937 63.413 99.5339 64.1689 99.5007 64.927C98.945 64.9249 98.3915 64.9206 97.8379 64.9206C97.8291 63.1076 97.8313 61.2924 97.8423 59.4794ZM99.5229 60.7586C98.8675 61.333 100.092 62.2299 100.594 61.585C101.259 61.0148 100.012 60.1158 99.5229 60.7586Z" fill="white"/>
<path d="M103.178 59.488C104.589 59.4944 105.999 59.4645 107.41 59.473C107.414 59.9044 107.421 60.3358 107.427 60.7671C106.46 60.8568 105.483 60.9123 104.531 61.1109C105.297 61.3565 106.103 61.4334 106.889 61.6021C107.082 61.9075 106.916 62.3431 106.953 62.6997C106.218 62.6805 105.483 62.6741 104.75 62.6976C104.914 64.0066 106.489 63.6543 107.438 63.6949C107.432 64.1006 107.427 64.5106 107.423 64.9185H103.178V59.488Z" fill="white"/>
<path d="M14.3586 67.2312C20.3456 67.449 26.3348 67.1308 32.324 67.3102C35.9441 67.3337 39.5642 67.1885 43.1843 67.2782C47.5417 67.3999 51.8991 67.1693 56.2566 67.2739C60.6804 67.3786 65.102 67.1778 69.5236 67.2803C72.4728 67.3551 75.4221 67.2654 78.3713 67.2611C81.1766 67.2077 83.9797 67.3401 86.785 67.3059C90.1859 67.2761 93.589 67.2013 96.9899 67.3102C101.489 67.3294 105.99 67.1821 110.489 67.3038C118.015 67.2312 125.543 67.2825 133.071 67.2675C139.049 67.2953 145.028 67.2034 151.004 67.3188C154.106 67.3081 157.208 67.2376 160.31 67.259C165.843 67.3615 171.378 67.2547 176.911 67.2675C209.018 67.2632 241.119 67.2782 273.224 67.259C279.467 67.1842 285.711 67.4362 291.933 67.2099C291.8 78.1563 291.844 89.1049 291.955 100.054C266.293 100.054 240.654 100.026 214.999 100.009C170.342 99.9958 125.687 100.034 81.0304 100.032C58.8117 100.034 36.5951 99.9916 14.3763 99.9873C14.4604 98.4818 14.5025 96.9763 14.4649 95.4708C14.239 90.0531 14.4959 84.6332 14.3674 79.2155C14.4316 76.5077 14.2899 73.8021 14.4228 71.0964C14.5003 69.8066 14.4294 68.5189 14.3586 67.2312ZM275.272 69.2407C272.703 69.4948 270.334 70.8039 268.74 72.7343C267.921 73.6312 267.544 74.8356 267.544 76.0123C267.522 78.0538 268.585 80.0334 270.179 81.3424C271.596 82.4935 273.456 82.9163 275.227 83.243C277.796 83.6872 280.475 83.1768 282.777 82.0215C284.549 81.0734 285.988 79.4632 286.431 77.5242C286.652 76.4714 286.785 75.3311 286.298 74.3189C285.7 73.0077 284.814 71.7776 283.53 71.0046C281.161 69.4179 278.128 68.8221 275.272 69.2407ZM260.725 72.8902C259.596 73.5181 258.666 74.4278 257.559 75.0791C257.182 74.4214 256.761 73.7807 256.319 73.1486C255.544 73.1401 254.791 73.1401 254.016 73.1465C252.865 74.8292 252.577 77.1291 253.617 78.9229C254.082 79.6277 255.079 79.6042 255.809 79.8433C256.23 79.4824 256.673 79.1557 257.027 78.7286C257.514 77.8275 257.182 76.7512 257.536 75.8137C258.179 75.361 258.976 75.1517 259.706 74.8186C259.706 76.3903 259.684 77.9599 259.596 79.5294C259.972 79.5017 260.348 79.476 260.725 79.4525C260.658 77.2637 260.902 75.0748 260.725 72.8902ZM263.559 73.1358C262.585 73.5415 262.098 74.6029 261.987 75.5767C261.854 76.6401 262.075 77.7292 262.496 78.7137C263.182 79.9672 265.463 80.0099 266.017 78.6219C266.725 77.0288 266.725 75.0086 265.596 73.6056C265.131 72.9885 264.245 73.0077 263.559 73.1358ZM247.949 73.8982C247.905 74.9211 247.639 76.2109 248.569 76.9476C249.388 77.6908 250.54 77.2295 251.492 77.095C251.16 77.8488 250.872 78.7265 250.031 79.066C249.543 78.75 249.101 78.4211 248.658 78.0602L247.772 78.0773C248.171 78.8311 248.813 79.5999 249.743 79.7131C250.65 79.822 251.448 79.1792 251.868 78.4638C252.532 77.3277 252.488 75.9525 252.223 74.7182C252.09 74.0626 251.492 73.6419 251.093 73.1422C249.986 73.0461 248.835 73.2276 247.949 73.8982ZM129.965 74.2334C124.817 76.2237 120.11 80.0099 118.285 85.1906C117.767 86.5381 118.584 87.8877 119.423 88.9234C118.626 89.4936 117.831 90.0701 117.099 90.7172C116.846 90.8859 116.747 91.1165 116.8 91.4134C119.689 92.2483 122.66 91.1229 125.209 89.8438C126.214 89.4146 127.385 88.6202 128.493 89.2138C130.618 90.5036 132.817 91.676 134.911 93.0128C136.24 92.7245 137.331 91.9173 138.485 91.2724C138.934 91.0461 139.408 90.7257 139.944 90.8517C141.695 91.0824 143.298 91.9088 145.056 92.1159C145.98 92.227 146.954 92.1245 147.775 91.6803C149.817 90.6489 151.296 88.8807 153.2 87.6592C157.163 90.2858 161.629 92.1971 166.297 93.3075C167.459 93.5745 168.63 93.8563 169.83 93.8991C172.193 94.0272 174.597 93.6385 176.927 94.1745C178.005 94.482 179.139 94.3112 180.243 94.3518C180.994 94.3069 181.791 94.4927 182.5 94.1788C181.944 93.8862 181.304 93.8606 180.695 93.7603C171.898 92.3765 163.002 90.0445 155.616 85.0539C154.298 84.1549 152.624 83.9734 151.057 84.1015C149.668 85.8419 148.71 87.9902 146.764 89.2459C145.809 89.6559 144.715 89.4252 143.704 89.4445C143.075 88.3596 142.335 87.3431 141.602 86.3245C138.983 85.9807 136.614 87.3068 134.327 88.3212C133.262 88.8188 132.128 88.24 131.076 87.9987C131.114 87.6592 131.156 87.3218 131.196 86.9844C132.296 86.1579 133.534 85.3422 134.083 84.0524C134.697 82.5511 135.277 81.0328 135.779 79.491C136.054 78.656 136.322 77.7634 136.078 76.89C135.75 75.6621 134.891 74.5452 133.756 73.911C132.493 73.9217 131.143 73.6739 129.965 74.2334Z" fill="white"/>
<path d="M275.261 70.7313C276.368 70.6501 277.475 70.6416 278.56 70.7398C279.777 71.0388 280.995 71.3975 282.102 71.957C283.785 72.8197 285.069 74.5538 285.003 76.4372C285.025 77.8445 283.984 78.9849 282.988 79.8946C279.822 82.5084 274.906 82.4102 271.519 80.2555C270.367 79.4141 269.415 78.2396 269.105 76.8665C268.84 75.5062 269.548 74.1502 270.478 73.1742C271.762 71.8994 273.489 71.1498 275.261 70.7313ZM269.814 75.566C270.389 75.299 270.965 75.0043 271.563 74.7139C271.585 76.3113 271.607 77.9107 271.474 79.5038C271.807 79.5166 272.139 79.5316 272.471 79.5486C272.382 77.3192 272.515 75.0898 272.404 72.8603C271.408 73.6248 270.168 74.2996 269.814 75.566ZM274.995 73.6825C274.508 74.0775 274.419 74.7289 274.419 75.3097C275.327 74.904 275.925 73.8896 277.01 73.8789C277.585 73.8725 277.63 74.5708 277.895 74.9403C276.921 76.6401 275.061 77.6694 274.176 79.4226C275.836 79.4739 277.519 79.523 279.202 79.3415C278.228 78.3699 276.722 78.7969 275.504 78.7094C276.611 77.7698 277.851 76.9199 278.759 75.7731C279.069 74.8549 278.715 73.911 278.117 73.1785C277.076 73.0034 275.858 72.9714 274.995 73.6825ZM280.663 73.0781C280.242 73.6547 279.467 74.353 280.11 75.0492C280.685 74.3466 281.527 73.8704 282.479 73.9024C282.545 74.3402 282.589 74.778 282.656 75.2179C282.058 75.5617 281.504 75.9397 280.973 76.3561C281.593 76.48 282.235 76.6017 282.855 76.7255C283.165 77.6673 282.634 78.5663 281.837 79.098C281.062 78.5898 280.397 77.9257 279.556 77.5114C279.512 79.0148 281.084 79.7857 282.434 79.8818C283.01 79.35 283.807 78.9293 284.029 78.1307C284.184 77.3064 283.541 76.6444 283.099 76.0336C283.497 75.3738 283.962 74.4384 283.32 73.7658C282.722 72.9201 281.549 73.1337 280.663 73.0781Z" fill="white"/>
<path d="M249.09 74.306C249.665 73.58 250.994 73.8918 251.215 74.7502C251.237 75.1581 251.348 75.6407 251.06 75.9931C250.595 76.4308 249.887 76.3945 249.289 76.4821C249.112 75.7923 248.558 74.9659 249.09 74.306Z" fill="white"/>
<path d="M263.814 74.0092C264.566 73.7615 265.363 74.4085 265.408 75.1389C265.474 76.2579 265.718 77.5584 264.965 78.5215C264.279 79.3308 262.839 78.4681 263.061 77.5178C263.216 76.3753 262.552 74.7225 263.814 74.0092Z" fill="white"/>
<path d="M254.404 74.0925C255.023 73.9622 255.887 73.8768 256.197 74.5516C256.728 75.8201 256.374 77.2039 256.175 78.5022C255.577 78.5279 254.824 78.9358 254.315 78.451C253.606 77.0992 253.717 75.4357 254.404 74.0925Z" fill="white"/>
<path d="M127.664 78.2802C129.243 77.2786 131.143 76.9797 132.941 76.5397C133.04 78.0303 133.122 79.6661 132.252 80.9815C131.716 81.8336 130.724 82.2329 129.98 82.88C128.26 84.2915 126.861 86.2113 124.642 86.9395C123.757 87.1915 122.731 87.514 121.87 87.0207C121.241 86.7067 120.652 85.8696 121.117 85.2205C122.758 82.4999 124.946 80.0462 127.664 78.2802Z" fill="white"/>
<path d="M93.7064 104.564C94.0872 104.594 94.4658 104.621 94.8489 104.649C94.8112 106.436 94.8001 108.224 94.7913 110.009C93.7241 109.939 92.5971 110.056 91.5852 109.672C90.4295 108.965 90.5557 107.209 91.4214 106.328C92.0369 105.721 92.9447 106.169 93.6732 106.287C93.682 105.71 93.6975 105.136 93.7064 104.564ZM92.0436 108.055C92.017 108.745 92.7875 108.988 93.2591 109.33C93.3565 108.58 93.8414 107.622 93.1728 107C92.5107 106.601 91.9528 107.487 92.0436 108.055Z" fill="white"/>
<path d="M14.8236 104.561C15.2044 104.594 15.5874 104.623 15.9705 104.655C16.5993 105.64 17.1661 106.665 17.8547 107.615C17.8857 107.609 17.9433 107.598 17.9743 107.592C18.065 106.594 18.0274 105.591 18.0473 104.591C18.4171 104.591 18.7891 104.589 19.1588 104.589C19.161 106.466 19.1721 108.343 19.1389 110.218C17.2702 109.917 16.8008 107.936 15.8421 106.656C15.8221 107.76 15.8642 108.867 15.7557 109.968C15.4502 109.973 15.1446 109.977 14.8368 109.986C14.7682 108.179 14.8081 106.37 14.8236 104.561Z" fill="white"/>
<path d="M27.9976 104.602C28.4493 104.604 28.9032 104.623 29.3549 104.634C29.7667 105.845 30.2118 107.047 30.6524 108.249C31.1063 107.049 31.5092 105.83 31.9299 104.619C32.3683 104.613 32.8067 104.608 33.2451 104.606C32.5875 106.398 31.9255 108.185 31.2745 109.977C30.8494 109.954 30.3667 110.094 29.9771 109.945C29.2575 108.185 28.6596 106.381 27.9976 104.602Z" fill="white"/>
<path d="M36.9538 104.6C37.3767 104.6 37.8018 104.6 38.2269 104.602C38.2247 106.5 38.2313 108.401 38.2291 110.304C37.7819 110.3 37.3368 110.297 36.8918 110.295C36.9427 108.397 36.9538 106.498 36.9538 104.6Z" fill="white"/>
<path d="M38.7827 104.589C39.2144 104.591 39.6484 104.598 40.0824 104.602V110.302C39.6417 110.299 39.2033 110.297 38.765 110.297C38.7716 108.395 38.7738 106.492 38.7827 104.589Z" fill="white"/>
<path d="M43.4036 104.493C43.7667 104.559 44.132 104.626 44.4952 104.694C44.5704 106.451 44.5195 108.213 44.5195 109.973C43.6383 109.945 42.7482 110.082 41.8759 109.954C40.6913 109.646 40.2507 108.243 40.6049 107.205C40.7887 106.661 41.174 106.016 41.8515 106.016C42.374 106.024 42.8811 106.187 43.3881 106.3C43.3925 105.695 43.3992 105.093 43.4036 104.493ZM41.9511 108.576C42.1216 109.01 42.6043 109.174 42.9896 109.381C43.1379 108.756 43.3748 108.081 43.098 107.455C42.9431 107.054 42.5091 106.861 42.1836 106.614C41.9246 107.224 41.681 107.927 41.9511 108.576Z" fill="white"/>
<path d="M46.707 104.6H47.8695C47.8894 105.892 47.6835 107.22 48.0577 108.482C48.1462 109.02 48.93 109.046 49.3662 108.931C49.8688 108.781 49.8578 108.226 49.9065 107.814C49.9596 106.733 49.9153 105.651 49.9286 104.57C50.3139 104.587 50.7013 104.608 51.0866 104.628C51.0755 106.024 51.1796 107.432 50.998 108.822C50.4334 110.494 47.4532 110.56 46.8222 108.903C46.5764 107.483 46.7425 106.033 46.707 104.6Z" fill="white"/>
<path d="M56.323 104.613C56.7393 104.6 57.1577 104.589 57.5762 104.579C57.6404 106.486 57.7644 108.399 57.5917 110.304C57.1644 110.302 56.7393 110.297 56.3141 110.297C56.3141 108.401 56.3208 106.507 56.323 104.613Z" fill="white"/>
<path d="M72.309 104.749C73.0973 104.51 73.9763 104.504 74.7711 104.715C75.3092 105.038 75.4797 105.683 75.7697 106.193C75.3911 106.182 75.0147 106.172 74.6405 106.157C74.005 105.627 73.0508 105.418 72.4264 106.088C73.3607 106.471 74.4434 106.586 75.245 107.224C76.0664 107.91 75.7985 109.347 74.8398 109.791C73.8833 110.261 72.7762 110.041 71.8042 109.746C71.5673 109.247 71.3237 108.753 71.0824 108.258C71.4632 108.228 71.8441 108.196 72.2271 108.166C72.6345 108.489 73.0596 108.79 73.4803 109.095C73.9276 108.85 74.3704 108.589 74.7844 108.294C73.9253 107.889 72.9489 107.728 72.1452 107.216C71.2795 106.669 71.2307 105.093 72.309 104.749Z" fill="white"/>
<path d="M76.1638 104.6H77.4524C77.4702 106.5 77.4724 108.399 77.4613 110.299C77.0273 110.299 76.5934 110.3 76.1594 110.302C76.1594 108.401 76.1616 106.5 76.1638 104.6Z" fill="white"/>
<path d="M24.579 105.1C24.8868 104.965 25.1901 104.826 25.4957 104.69C25.7326 105.296 26.0603 105.898 26.0758 106.562C26.0558 107.088 25.6994 107.534 25.6374 108.055C25.7259 108.751 26.1555 109.345 26.4345 109.977C25.8366 109.964 25.241 109.949 24.6432 109.939C24.6322 108.326 23.7664 106.648 24.579 105.1Z" fill="white"/>
<path d="M21.5213 105.967C22.3627 105.847 23.3037 106.227 23.7089 106.968C24.1295 107.848 23.99 109.035 23.1376 109.633C22.3582 110.27 21.1604 110.109 20.401 109.533C19.1854 108.465 19.7766 106.099 21.5213 105.967ZM21.5036 107.039C20.722 107.427 20.9102 108.625 21.5412 109.074C21.9575 109.272 22.2763 108.884 22.5221 108.617C23.0402 107.982 22.4224 106.658 21.5036 107.039Z" fill="white"/>
<path d="M33.4931 106.007C34.2592 106.035 35.074 105.888 35.8002 106.189C36.1633 106.293 36.1567 106.691 36.2253 106.985C36.3737 107.991 36.3338 109.01 36.4025 110.022C35.2113 109.988 34.02 109.907 32.8377 109.746C32.8532 109.223 32.8731 108.7 32.8842 108.179C33.6171 107.724 34.4651 107.511 35.271 107.218C34.4739 106.827 33.5839 107.126 32.758 107.231C33.0015 106.821 33.2473 106.415 33.4931 106.007ZM34.2658 108.439C33.8761 108.662 34.3012 109.052 34.5116 109.234C34.7286 109.044 34.9433 108.852 35.1559 108.659C34.8991 108.457 34.5647 108.053 34.2658 108.439Z" fill="white"/>
<path d="M51.8704 105.977C52.7317 106.086 53.5996 106.054 54.4653 106.029C54.9369 106.007 55.4506 106.293 55.5347 106.767C55.6632 107.833 55.5901 108.911 55.5967 109.986C55.2181 109.994 54.8395 110.005 54.4631 110.018C54.4144 109.005 54.6579 107.929 54.2417 106.968C53.8011 106.716 53.221 107.192 53.128 107.632C52.942 108.437 53.0173 109.274 52.9265 110.092C52.5789 110.052 52.2335 110.013 51.8881 109.977C51.8814 108.644 51.8792 107.31 51.8704 105.977Z" fill="white"/>
<path d="M58.5349 106.413C59.0774 105.851 59.9896 105.847 60.6848 106.114C61.4886 106.539 61.6679 107.485 61.9203 108.258C60.9195 108.348 59.9143 108.363 58.9135 108.459C59.5866 109.198 60.6494 108.798 61.4952 108.679C61.4487 110.218 59.1947 110.468 58.3179 109.45C57.6958 108.54 57.7467 107.218 58.5349 106.413ZM59.042 107.167C59.2346 107.515 59.4671 108.017 59.983 107.863C60.5144 107.876 60.6937 107.212 60.262 106.943C59.8856 106.565 59.3785 106.936 59.042 107.167Z" fill="white"/>
<path d="M61.7056 107.231C62.1462 106.345 63.1735 105.732 64.2009 105.992C64.8828 106.101 65.3478 106.631 65.6777 107.177C64.7721 107.103 63.8798 106.934 62.9743 106.861C63.8909 107.434 65.2991 107.575 65.7109 108.683C65.5714 109.994 63.6828 110.455 62.6532 109.802C62.1484 109.494 62.144 108.845 62.4163 108.388C62.8857 108.634 63.3329 108.92 63.7581 109.234C64.0304 109.087 64.3072 108.941 64.5817 108.798C63.4879 108.555 62.434 108.076 61.7056 107.231Z" fill="white"/>
<path d="M66.0917 107.523C65.7264 106.558 66.86 105.779 67.7745 105.911C68.6823 105.8 69.1893 106.616 69.6853 107.194C68.7974 107.094 67.9162 106.953 67.0239 106.887C67.7856 107.359 68.7886 107.481 69.4019 108.158C70.0108 108.899 69.2137 109.838 68.4166 110.005C67.3117 110.336 66.0962 109.65 65.7862 108.589C66.7383 108.753 67.6881 109.05 68.669 108.943C67.8298 108.457 66.5855 108.448 66.0917 107.523Z" fill="white"/>
<path d="M79.2193 106.065C80.136 105.917 81.0725 106.054 81.998 106.029C81.987 107.538 82.1575 109.072 81.8408 110.564C81.0349 112.149 78.2318 111.769 77.8842 110.026C78.6414 110.167 79.3699 110.479 80.1493 110.507C80.6762 110.513 80.922 110.03 81.1412 109.652C80.4814 109.806 79.826 109.986 79.1728 110.165C78.6127 109.661 78.1123 109.044 78.006 108.292C77.8289 107.412 78.1986 106.261 79.2193 106.065ZM79.2304 107.628C79.0422 108.397 79.7551 108.882 80.2732 109.315C80.4526 108.657 80.9795 107.923 80.5633 107.263C80.2887 106.626 79.1197 106.947 79.2304 107.628Z" fill="white"/>
<path d="M82.6822 106.029C83.8203 106.088 85.0602 105.768 86.0964 106.368C86.3621 107.562 86.413 108.783 86.3665 110.001C86.0233 109.975 85.6823 109.956 85.3414 109.936C85.162 108.803 85.0668 107.656 84.8476 106.526C83.5413 107.237 83.8291 108.815 83.807 110.024C83.4372 110.022 83.0675 110.022 82.6999 110.024C82.6911 108.694 82.6866 107.361 82.6822 106.029Z" fill="white"/>
<path d="M86.4971 107.528C87.0374 106.87 87.5732 105.982 88.5408 105.922C89.0567 105.952 89.6567 106.024 89.9977 106.451C90.4051 106.975 90.4626 107.656 90.5955 108.279C89.6124 108.35 88.3526 108.104 87.7326 109.055C88.6404 108.973 89.5172 108.73 90.4051 108.54C90.3696 109.928 88.5164 110.408 87.4558 109.761C86.8049 109.193 86.7562 108.286 86.4971 107.528ZM87.9031 107.436C88.233 107.788 88.9482 108.111 89.2714 107.59C89.6301 107.18 89.0234 106.716 88.5828 106.795C88.2064 106.808 88.0891 107.19 87.9031 107.436Z" fill="white"/>
<path d="M3.23261 11.0917C4.02749 6.037 9.07127 1.92834 14.3896 2.13121C106.203 2.13975 198.016 2.13335 289.827 2.13548C291.377 2.15043 292.971 2.0223 294.499 2.45794C298.241 3.3826 301.407 6.24841 302.448 9.84455C303.422 13.1246 302.647 16.5542 302.979 19.8941C297.2 20.46 291.399 19.687 285.621 20.0457C280.174 20.1226 274.705 20.0116 269.236 19.9411C263.258 20.161 257.28 20.0222 251.302 19.9518C248.578 19.9454 245.833 19.9048 243.109 20.0799C238.393 20.2721 233.655 19.9325 228.939 19.9176C226.437 19.8856 223.935 20.0585 221.411 20.0863C216.396 20.2037 211.374 20.0158 206.352 20.0906C201.039 20.1183 195.725 20.0393 190.413 20.0222C184.289 19.9582 178.167 20.082 172.042 20.0521C166.361 20.0842 160.679 19.8856 154.998 20.0009C148.792 20.0756 142.583 20.1098 136.377 19.9688C133.942 19.8834 131.508 20.0927 129.073 20.1098C126.27 20.1824 123.464 20.0906 120.663 20.0308C100.366 20.144 80.0718 20.0543 59.7748 19.9753C52.1007 20.2059 44.4199 20.0521 36.7435 20.0201C32.7603 19.7638 28.7748 20.176 24.7894 20.0585C21.1759 20.0585 17.5602 20.1781 13.949 20.0222C10.351 20.0585 6.74865 20.2208 3.15512 19.9688C3.13076 17.0112 2.98242 14.045 3.2304 11.0917H3.23261Z" fill="#6CC3D5"/>
<path d="M3.11152 56.4684C6.72498 56.3211 10.3407 56.4065 13.9541 56.383H227.832C252.896 56.4449 277.938 56.289 303.002 56.4705C302.98 62.3474 302.803 68.2221 302.936 74.0968C302.914 97.871 302.936 121.643 302.914 145.417C302.958 151.185 302.847 156.958 302.98 162.725C302.803 165.638 302.936 168.562 302.891 171.481C302.847 173.221 303.069 175.002 302.559 176.7C301.319 181.313 296.603 184.907 291.599 184.723C199.202 184.717 106.795 184.717 14.3903 184.723C8.53835 184.96 3.06723 179.925 3.10709 174.263C3.1093 134.998 3.10709 95.7334 3.11152 56.4684ZM45.7136 59.2189C45.7136 61.1195 45.7158 63.0179 45.7136 64.9185C46.5129 64.9206 47.3122 64.9206 48.1137 64.9206C47.9144 63.0329 47.9078 61.1323 48.0052 59.2381C47.2414 59.2339 46.4775 59.2253 45.7136 59.2189ZM70.1642 59.2232C70.1598 61.1216 70.1576 63.0201 70.1532 64.9185C70.8905 64.9228 71.6256 64.9228 72.3629 64.9121C72.5976 63.0179 72.5577 61.1045 72.3385 59.2125C71.6123 59.2125 70.8883 59.2189 70.1642 59.2232ZM15.9668 59.6567C15.2715 61.3693 14.8043 63.1567 14.2663 64.9185C14.7645 64.9164 15.2604 64.9185 15.7564 64.9185C15.8826 64.5127 16.0044 64.1049 16.1306 63.7013C16.8967 63.808 17.6495 64.1454 17.9019 64.9057C18.482 64.9185 19.0621 64.9249 19.64 64.9313C19.0378 63.0521 18.451 61.1686 17.7203 59.3321C17.1314 59.4196 16.5469 59.5264 15.9668 59.6567ZM36.1751 59.4688C34.3662 59.9514 33.8636 62.2534 34.6784 63.7119C35.4268 65.2089 37.7981 65.478 38.9384 64.2544C39.7199 63.5454 39.7332 62.4371 39.6358 61.4804C39.4122 59.9984 37.652 58.9392 36.1751 59.4688ZM48.3728 59.473C48.3639 59.93 48.3573 60.387 48.3484 60.844C49.0237 60.8568 49.699 60.8632 50.3743 60.8654C49.6592 61.8071 48.944 62.7488 48.2156 63.6842C48.22 64.0963 48.2289 64.5063 48.2311 64.9206C49.7655 64.9185 51.2976 64.9249 52.832 64.9206C52.8298 64.4914 52.8298 64.0664 52.8298 63.6393C52.0106 63.6372 51.1914 63.6372 50.3743 63.6372C51.4371 62.3666 52.3958 61.017 53.1354 59.5456C53.1885 59.6545 53.2948 59.8745 53.3479 59.9834C53.2948 61.6277 53.1996 63.2742 53.2483 64.9228C54.6985 64.9228 56.151 64.9206 57.6035 64.9185C57.6079 64.5127 57.6123 64.107 57.619 63.7013C56.5828 63.6628 55.2233 63.9063 54.6166 62.8599C55.4624 62.7531 56.3126 62.6848 57.1651 62.6421C57.1562 62.2598 57.1474 61.8776 57.1407 61.4953C56.4344 61.4953 55.7259 61.4975 55.0196 61.4975C55.024 61.3394 55.0284 61.0234 55.0329 60.8654C55.8809 60.8589 56.7311 60.8483 57.5813 60.844C57.557 60.387 57.5282 59.9322 57.4994 59.4773C54.4572 59.3833 51.415 59.4816 48.3728 59.473ZM65.1559 62.0591C66.0216 62.7446 67.1574 62.9987 68.0675 63.6287C67.3102 63.65 66.5928 63.4108 65.9419 63.0628C65.4304 63.1738 64.9212 63.2891 64.4141 63.4215C64.8415 63.996 65.3463 64.5597 66.0504 64.8224C67.2084 65.2516 68.9797 65.0936 69.4513 63.7952C69.6284 63.272 69.852 62.5118 69.3207 62.1146C68.6011 61.5487 67.6401 61.4526 66.7965 61.1494L67.1309 60.9337C68.0365 61.1558 68.9575 61.0298 69.821 60.7031C69.0195 59.8553 67.8837 59.078 66.6283 59.3919C65.3729 59.4773 64.3499 61.0084 65.1559 62.0591ZM73.0957 60.2503C72.4337 61.4654 72.4603 63.0051 73.1046 64.2223C73.6249 64.974 74.701 64.9697 75.5291 64.8502C76.2243 64.7135 76.9218 64.8139 77.6015 64.974C77.6281 63.9234 77.617 62.8727 77.6214 61.8242C76.7114 61.8135 75.7992 61.8114 74.8892 61.8797C74.9822 62.5823 75.2125 63.2571 75.4604 63.9212C74.1652 63.4023 74.3644 61.931 74.5327 60.8525L75.3652 60.7073C75.5889 60.9807 75.8103 61.254 76.0339 61.5295C76.5786 61.4462 77.121 61.3651 77.6657 61.2796C77.3048 59.3001 74.329 58.6914 73.0957 60.2503ZM92.3786 59.4709C92.3565 60.9828 92.2369 62.5075 92.4694 64.0088C93.2953 65.3349 95.4961 65.3691 96.6076 64.3633C97.2785 62.8236 96.9131 61.1067 96.9796 59.488C96.4902 59.4794 95.9987 59.473 95.5116 59.4709C95.4009 60.9145 95.9943 62.5524 94.9869 63.808C94.5994 63.5411 94.1477 63.2635 94.0591 62.7723C93.8532 61.6811 94.1787 60.5771 94.1012 59.4794C93.5255 59.4752 92.9521 59.4709 92.3786 59.4709ZM19.9677 64.2778C20.6076 65.0253 21.7678 65.1662 22.7044 64.9783C23.3664 64.7989 24.1923 64.3932 24.1945 63.6287C24.314 62.247 24.221 60.8547 24.241 59.4688C23.7605 59.4752 23.2822 59.4837 22.8018 59.4901C22.7863 60.8696 22.9147 62.262 22.6401 63.6265C22.297 63.6223 21.9538 63.6201 21.6106 63.618C21.3825 62.247 21.4888 60.8547 21.4777 59.473H19.5935C19.6754 61.0682 19.2614 62.7702 19.9677 64.2778ZM24.5177 59.4773C24.4845 60.2482 24.9384 60.9145 25.6824 61.1899C25.689 62.4328 25.6779 63.6756 25.6824 64.9185C26.3134 64.9185 26.9422 64.9185 27.5732 64.9164C27.5688 63.6479 27.5599 62.3815 27.5799 61.1152C28.3814 60.9508 28.7711 60.2482 28.9106 59.5328C27.447 59.473 25.9835 59.4602 24.5177 59.4773ZM29.1165 59.4645C28.8928 61.2732 28.8729 63.1012 28.9194 64.9206C29.5305 64.9228 30.1416 64.9185 30.7527 64.9142C30.7616 64.186 30.8103 63.4578 30.983 62.7488C31.2686 62.8193 31.6804 62.7232 31.8221 63.0499C31.9882 63.6564 31.9373 64.2907 31.9661 64.9099C32.5772 64.9185 33.186 64.9228 33.7971 64.9185C33.8016 63.1097 33.7971 61.2989 33.7772 59.488C33.1772 59.4794 32.5794 59.473 31.9793 59.4709C31.9639 60.1457 31.9461 60.8205 31.9196 61.4953C31.5476 61.4932 31.1756 61.4911 30.8014 61.4911C30.7881 60.8184 30.7771 60.1457 30.7726 59.4752C30.2191 59.473 29.6678 59.4688 29.1165 59.4645ZM40.2735 59.4752C40.2558 61.2903 40.2425 63.1033 40.2403 64.9185H42.0669C42.1179 64.2159 42.1688 63.5133 42.2175 62.8108C42.6515 63.4963 43.0367 64.2074 43.422 64.9185C44.0286 64.9206 44.6375 64.9206 45.2464 64.9206C44.9608 64.1732 44.6685 63.4279 44.3763 62.6826C44.6552 62.405 44.9364 62.1274 45.2198 61.8541C45.1091 61.1899 45.304 60.3016 44.6575 59.8553C43.2825 59.2702 41.7326 59.5221 40.2735 59.4752ZM58.2301 59.4709C58.2279 61.2882 58.2212 63.1033 58.2212 64.9206C59.5896 64.8566 61.1328 65.1897 62.3306 64.3761C63.6746 63.255 63.6193 60.8718 62.1314 59.8852C60.9269 59.3001 59.5298 59.5072 58.2301 59.4709ZM78.1572 59.4709C78.1572 61.2882 78.155 63.1033 78.1528 64.9185C78.6665 64.9206 79.1824 64.9206 79.6961 64.9228C79.6142 63.9041 79.6009 62.8834 79.5411 61.8669C80.1677 62.8385 80.7677 63.8273 81.3567 64.8224C81.877 64.8715 82.3973 64.9121 82.9176 64.9527C82.9243 63.1226 82.9221 61.2946 82.9176 59.4666C82.3929 59.4752 81.8703 59.488 81.3478 59.5029C81.4231 60.3315 81.4851 61.1601 81.5382 61.9908C80.9559 61.1686 80.3736 60.3464 79.8466 59.4922C79.2842 59.4794 78.7196 59.4645 78.1572 59.4709ZM84.8328 59.4837C84.2749 61.301 83.7147 63.1161 83.139 64.9292C83.5885 64.9228 84.038 64.9185 84.4897 64.9142C84.7155 64.2095 85.351 63.7867 86.1038 63.7482C86.2543 64.1091 86.3185 64.5896 86.7481 64.7562C87.306 64.9826 87.9326 64.927 88.5238 64.9847C87.9703 63.146 87.3702 61.3202 86.7879 59.488C86.137 59.488 85.4838 59.4858 84.8328 59.4837ZM87.8175 59.4944C87.7754 60.293 88.309 60.9401 89.1105 61.1088C89.1238 62.3773 89.115 63.6479 89.115 64.9164C89.6796 64.9185 90.2442 64.9185 90.8088 64.9206C90.8154 63.6244 90.8176 62.3282 90.8287 61.0298C91.183 60.9294 91.6302 60.9465 91.8738 60.6305C92.1328 60.308 92.1063 59.8724 92.1971 59.4944C90.7379 59.4666 89.2766 59.4666 87.8175 59.4944ZM97.8409 59.4794C97.8298 61.2925 97.8276 63.1076 97.8364 64.9206C98.39 64.9206 98.9435 64.9249 99.4993 64.927C99.5325 64.1689 99.5922 63.413 99.6764 62.6592C100.09 63.3895 100.473 64.1369 100.83 64.8971C101.485 64.9164 102.143 64.9228 102.801 64.9228C102.504 64.2245 102.196 63.5326 101.908 62.83C102.42 62.0484 103.126 60.9721 102.446 60.0902C101.118 59.1463 99.3686 59.5584 97.8409 59.4794ZM103.177 59.488V64.9185H107.421C107.426 64.5106 107.43 64.1006 107.437 63.6949C106.487 63.6543 104.913 64.0066 104.749 62.6976C105.482 62.6741 106.217 62.6805 106.952 62.6997C106.914 62.3431 107.08 61.9075 106.888 61.6021C106.102 61.4334 105.296 61.3565 104.53 61.1109C105.482 60.9123 106.458 60.8568 107.426 60.7671C107.419 60.3358 107.413 59.9044 107.408 59.473C105.998 59.4645 104.587 59.4944 103.177 59.488ZM14.3571 67.2312C14.4279 68.5189 14.4988 69.8066 14.4213 71.0964C14.2884 73.8021 14.4302 76.5077 14.3659 79.2155C14.4944 84.6332 14.2375 90.053 14.4634 95.4707C14.501 96.9763 14.4589 98.4818 14.3748 99.9873C36.5936 99.9916 58.8102 100.034 81.029 100.032C125.686 100.034 170.34 99.9958 214.997 100.009C240.652 100.026 266.292 100.053 291.954 100.053C291.843 89.1049 291.799 78.1563 291.932 67.2099C285.71 67.4362 279.466 67.1842 273.222 67.259C241.117 67.2782 209.017 67.2632 176.91 67.2675C171.377 67.2547 165.841 67.3615 160.308 67.259C157.206 67.2376 154.104 67.3081 151.002 67.3188C145.026 67.2034 139.048 67.2953 133.07 67.2675C125.542 67.2825 118.014 67.2312 110.488 67.3038C105.989 67.1821 101.488 67.3294 96.9884 67.3102C93.5875 67.2013 90.1844 67.2761 86.7835 67.306C83.9782 67.3401 81.1751 67.2077 78.3698 67.2611C75.4206 67.2654 72.4714 67.3551 69.5221 67.2803C65.1005 67.1778 60.6789 67.3786 56.2551 67.2739C51.8977 67.1693 47.5403 67.3999 43.1828 67.2782C39.5627 67.1885 35.9426 67.3337 32.3225 67.3102C26.3333 67.1308 20.3441 67.449 14.3571 67.2312ZM93.7049 104.564C93.696 105.136 93.6805 105.71 93.6717 106.287C92.9432 106.169 92.0354 105.721 91.4199 106.328C90.5542 107.209 90.428 108.965 91.5837 109.672C92.5956 110.056 93.7226 109.939 94.7898 110.009C94.7987 108.224 94.8097 106.436 94.8474 104.649C94.4643 104.621 94.0857 104.594 93.7049 104.564ZM14.8221 104.561C14.8066 106.37 14.7667 108.179 14.8353 109.986C15.1431 109.977 15.4487 109.973 15.7542 109.968C15.8627 108.867 15.8206 107.76 15.8406 106.656C16.7993 107.936 17.2687 109.917 19.1374 110.218C19.1706 108.343 19.1595 106.466 19.1573 104.589C18.7876 104.589 18.4156 104.591 18.0458 104.591C18.0259 105.591 18.0635 106.594 17.9728 107.592C17.9418 107.598 17.8842 107.609 17.8532 107.615C17.1646 106.665 16.5978 105.64 15.969 104.655C15.5859 104.623 15.2029 104.594 14.8221 104.561ZM27.9961 104.602C28.6582 106.381 29.256 108.185 29.9756 109.945C30.3652 110.094 30.8479 109.954 31.273 109.977C31.924 108.185 32.586 106.398 33.2436 104.606C32.8052 104.608 32.3668 104.613 31.9284 104.619C31.5077 105.83 31.1048 107.049 30.6509 108.249C30.2103 107.047 29.7652 105.845 29.3534 104.634C28.9017 104.623 28.4478 104.604 27.9961 104.602ZM36.9523 104.6C36.9523 106.498 36.9412 108.397 36.8903 110.295C37.3353 110.297 37.7804 110.299 38.2276 110.304C38.2298 108.401 38.2232 106.5 38.2254 104.602C37.8003 104.6 37.3752 104.6 36.9523 104.6ZM38.7812 104.589C38.7723 106.492 38.7701 108.395 38.7634 110.297C39.2018 110.297 39.6402 110.299 40.0809 110.302V104.602C39.6469 104.598 39.2129 104.591 38.7812 104.589ZM43.402 104.493C43.3976 105.093 43.391 105.695 43.3866 106.3C42.8795 106.187 42.3725 106.024 41.8499 106.016C41.1724 106.016 40.7872 106.661 40.6034 107.205C40.2491 108.243 40.6897 109.646 41.8743 109.954C42.7467 110.082 43.6367 109.945 44.518 109.973C44.518 108.213 44.5689 106.451 44.4936 104.694C44.1305 104.626 43.7652 104.559 43.402 104.493ZM46.7055 104.6C46.741 106.033 46.5749 107.483 46.8207 108.903C47.4517 110.56 50.4319 110.494 50.9965 108.822C51.1781 107.432 51.074 106.024 51.0851 104.628C50.6998 104.608 50.3123 104.587 49.9271 104.57C49.9138 105.651 49.9581 106.733 49.9049 107.814C49.8562 108.226 49.8673 108.781 49.3647 108.931C48.9285 109.046 48.1447 109.02 48.0561 108.482C47.682 107.22 47.8879 105.892 47.8679 104.6H46.7055ZM56.3215 104.613C56.3193 106.507 56.3126 108.401 56.3126 110.297C56.7378 110.297 57.1629 110.302 57.5902 110.304C57.7629 108.399 57.6389 106.486 57.5747 104.579C57.1562 104.589 56.7378 104.6 56.3215 104.613ZM72.3075 104.749C71.2292 105.093 71.2779 106.669 72.1437 107.216C72.9474 107.728 73.9238 107.889 74.7829 108.294C74.3689 108.589 73.926 108.85 73.4788 109.095C73.0581 108.79 72.633 108.489 72.2256 108.166C71.8425 108.196 71.4617 108.228 71.0809 108.258C71.3222 108.753 71.5658 109.247 71.8027 109.746C72.7747 110.041 73.8818 110.261 74.8383 109.791C75.797 109.347 76.0649 107.91 75.2435 107.224C74.4419 106.586 73.3592 106.471 72.4249 106.088C73.0492 105.418 74.0035 105.627 74.639 106.157C75.0132 106.172 75.3896 106.182 75.7682 106.193C75.4781 105.683 75.3077 105.038 74.7696 104.715C73.9748 104.504 73.0957 104.51 72.3075 104.749ZM76.1623 104.6C76.1601 106.5 76.1579 108.401 76.1579 110.302C76.5919 110.299 77.0258 110.299 77.4598 110.299C77.4709 108.399 77.4687 106.5 77.4509 104.6H76.1623ZM24.5775 105.1C23.7649 106.648 24.6306 108.326 24.6417 109.939C25.2395 109.949 25.8351 109.964 26.433 109.977C26.154 109.345 25.7244 108.751 25.6359 108.055C25.6979 107.534 26.0543 107.088 26.0743 106.562C26.0588 105.898 25.7311 105.296 25.4942 104.69C25.1886 104.826 24.8853 104.965 24.5775 105.1ZM21.5198 105.967C19.7751 106.099 19.1839 108.465 20.3994 109.533C21.1589 110.109 22.3567 110.27 23.1361 109.633C23.9886 109.035 24.128 107.848 23.7074 106.968C23.3022 106.227 22.3612 105.847 21.5198 105.967ZM33.4916 106.007C33.2458 106.415 33.0001 106.821 32.7565 107.231C33.5824 107.126 34.4725 106.827 35.2695 107.218C34.4636 107.511 33.6156 107.724 32.8827 108.179C32.8716 108.7 32.8517 109.223 32.8362 109.746C34.0186 109.907 35.2098 109.988 36.401 110.022C36.3323 109.01 36.3722 107.991 36.2238 106.985C36.1552 106.691 36.1618 106.293 35.7987 106.189C35.0725 105.888 34.2577 106.035 33.4916 106.007ZM51.8689 105.977C51.8777 107.31 51.88 108.645 51.8866 109.977C52.232 110.013 52.5774 110.052 52.925 110.092C53.0158 109.274 52.9405 108.437 53.1265 107.632C53.2195 107.192 53.7996 106.716 54.2402 106.968C54.6565 107.929 54.4129 109.005 54.4616 110.018C54.838 110.005 55.2166 109.994 55.5953 109.986C55.5886 108.911 55.6617 107.833 55.5333 106.767C55.4491 106.293 54.9355 106.007 54.4638 106.029C53.5981 106.054 52.7302 106.086 51.8689 105.977ZM58.5334 106.413C57.7452 107.218 57.6943 108.54 58.3164 109.45C59.1932 110.468 61.4472 110.218 61.4937 108.679C60.6479 108.798 59.5851 109.198 58.912 108.459C59.9128 108.363 60.918 108.348 61.9188 108.258C61.6664 107.485 61.4871 106.539 60.6833 106.114C59.9881 105.847 59.0759 105.851 58.5334 106.413ZM61.704 107.231C62.4325 108.076 63.4864 108.555 64.5802 108.798C64.3056 108.941 64.0289 109.087 63.7565 109.234C63.3314 108.92 62.8842 108.634 62.4148 108.388C62.1424 108.845 62.1469 109.494 62.6517 109.802C63.6813 110.455 65.5699 109.994 65.7094 108.683C65.2976 107.575 63.8894 107.434 62.9727 106.861C63.8783 106.934 64.7706 107.103 65.6762 107.177C65.3463 106.631 64.8813 106.101 64.1994 105.992C63.172 105.732 62.1447 106.345 61.704 107.231ZM66.0902 107.523C66.584 108.448 67.8283 108.457 68.6675 108.943C67.6866 109.05 66.7368 108.753 65.7847 108.589C66.0947 109.65 67.3102 110.336 68.4151 110.005C69.2122 109.838 70.0093 108.899 69.4004 108.158C68.787 107.481 67.784 107.359 67.0224 106.887C67.9147 106.953 68.7959 107.094 69.6838 107.195C69.1878 106.616 68.6808 105.8 67.773 105.911C66.8585 105.779 65.7249 106.558 66.0902 107.523ZM79.2178 106.065C78.1971 106.261 77.8273 107.412 78.0045 108.292C78.1107 109.044 78.6111 109.661 79.1713 110.165C79.8245 109.986 80.4799 109.806 81.1397 109.652C80.9205 110.03 80.6747 110.513 80.1478 110.507C79.3684 110.479 78.6399 110.167 77.8827 110.026C78.2303 111.769 81.0334 112.149 81.8393 110.564C82.156 109.072 81.9855 107.538 81.9966 106.029C81.071 106.054 80.1345 105.917 79.2178 106.065ZM82.6807 106.029C82.6851 107.361 82.6896 108.694 82.6984 110.024C83.066 110.022 83.4357 110.022 83.8055 110.024C83.8276 108.815 83.5398 107.237 84.8461 106.526C85.0653 107.656 85.1605 108.803 85.3399 109.936C85.6809 109.956 86.0218 109.975 86.365 110.001C86.4115 108.783 86.3606 107.562 86.0949 106.368C85.0587 105.768 83.8188 106.088 82.6807 106.029ZM86.4957 107.528C86.7547 108.286 86.8034 109.193 87.4544 109.761C88.5149 110.408 90.3682 109.928 90.4036 108.54C89.5157 108.73 88.6389 108.973 87.7311 109.055C88.3511 108.104 89.6109 108.35 90.594 108.279C90.4612 107.656 90.4036 106.975 89.9962 106.451C89.6552 106.024 89.0552 105.952 88.5393 105.922C87.5717 105.982 87.0359 106.87 86.4957 107.528Z" fill="#6CC3D5"/>
<path d="M36.4689 63.5432C36.1766 62.5524 35.9375 61.1259 37.1287 60.5963C37.7841 61.3202 38.0188 62.4413 37.5073 63.2934C37.2881 63.6735 36.8364 63.5838 36.4689 63.5432Z" fill="#6CC3D5"/>
<path d="M41.6367 61.207C41.9135 60.6838 42.4847 60.607 43.0338 60.6091C43.0405 60.9914 43.0427 61.3736 43.0338 61.7559C42.498 61.7452 41.9489 61.6875 41.6367 61.207Z" fill="#6CC3D5"/>
<path d="M60.2642 60.4767C60.8842 61.0148 61.5816 61.7089 61.4222 62.5908C61.1166 63.1076 60.5808 63.4429 60.1291 63.8315C60.1003 62.7125 60.0915 61.5871 60.2642 60.4767Z" fill="#6CC3D5"/>
<path d="M99.5229 60.7586C100.012 60.1158 101.259 61.0148 100.595 61.585C100.092 62.2299 98.8675 61.333 99.5229 60.7586Z" fill="#6CC3D5"/>
<path d="M16.5905 61.8712C16.7765 61.9972 17.175 61.9865 17.1662 62.2833C16.9912 62.5246 16.6813 62.5588 16.4023 62.5972C16.4731 62.3559 16.5351 62.1146 16.5905 61.8712Z" fill="#6CC3D5"/>
<path d="M85.2263 62.6293C85.2351 62.3089 85.3724 62.042 85.6314 61.8498C85.7842 62.0057 85.9325 62.1659 86.0809 62.3282C85.7975 62.4349 85.5119 62.531 85.2263 62.6293Z" fill="#6CC3D5"/>
<path d="M41.9511 108.576C41.681 107.927 41.9245 107.224 42.1836 106.614C42.5091 106.861 42.943 107.054 43.098 107.455C43.3748 108.081 43.1379 108.756 42.9895 109.381C42.6043 109.174 42.1216 109.01 41.9511 108.576Z" fill="#6CC3D5"/>
<path d="M59.0419 107.167C59.3785 106.936 59.8855 106.565 60.2619 106.943C60.6937 107.212 60.5143 107.876 59.9829 107.863C59.467 108.017 59.2346 107.515 59.0419 107.167Z" fill="#6CC3D5"/>
<path d="M87.9031 107.436C88.0891 107.19 88.2065 106.808 88.5829 106.795C89.0235 106.716 89.6302 107.18 89.2715 107.59C88.9482 108.111 88.233 107.788 87.9031 107.436Z" fill="#6CC3D5"/>
<path d="M21.5036 107.039C22.4224 106.658 23.0402 107.983 22.5221 108.617C22.2763 108.884 21.9575 109.272 21.5412 109.074C20.9102 108.625 20.722 107.427 21.5036 107.039Z" fill="#6CC3D5"/>
<path d="M79.2303 107.628C79.1196 106.947 80.2887 106.626 80.5632 107.263C80.9795 107.923 80.4525 108.657 80.2732 109.315C79.7551 108.882 79.0421 108.397 79.2303 107.628Z" fill="#6CC3D5"/>
<path d="M92.0436 108.055C91.9528 107.487 92.5108 106.601 93.1728 107C93.8414 107.622 93.3566 108.58 93.2591 109.33C92.7875 108.988 92.017 108.745 92.0436 108.055Z" fill="#6CC3D5"/>
<path d="M34.2659 108.439C34.5648 108.053 34.8991 108.457 35.156 108.659C34.9434 108.852 34.7286 109.044 34.5117 109.234C34.3013 109.052 33.8762 108.662 34.2659 108.439Z" fill="#6CC3D5"/>
<path d="M24.7916 20.0585C28.7771 20.176 32.7625 19.7638 36.7457 20.0201C44.4221 20.0521 52.1029 20.2059 59.7771 19.9752C80.074 20.0543 100.369 20.144 120.666 20.0308C123.467 20.0906 126.272 20.1824 129.075 20.1098C131.51 20.0927 133.944 19.8834 136.379 19.9688C142.586 20.1098 148.794 20.0756 155 20.0009C160.682 19.8856 166.363 20.0842 172.045 20.0521C178.169 20.082 184.291 19.9582 190.415 20.0222C195.727 20.0393 201.041 20.1183 206.355 20.0906C211.376 20.0158 216.398 20.2037 221.413 20.0863C223.937 20.0585 226.439 19.8856 228.941 19.9176C233.657 19.9325 238.395 20.2721 243.112 20.0799C245.835 19.9048 248.58 19.9454 251.304 19.9518C257.282 20.0222 263.26 20.161 269.238 19.9411C274.707 20.0116 280.176 20.1226 285.623 20.0457C291.402 19.687 297.203 20.46 302.982 19.8941C303.137 32.0855 303.114 44.2791 303.004 56.4705C277.94 56.289 252.898 56.4449 227.834 56.383H13.9557C10.3422 56.4065 6.72654 56.3211 3.11308 56.4684C3.02673 56.4727 2.85624 56.4791 2.76989 56.4834C2.75439 44.3026 2.78761 32.124 2.75439 19.9432L3.15737 19.9688C6.7509 20.2208 10.3533 20.0585 13.9513 20.0222C17.5625 20.1781 21.1782 20.0585 24.7916 20.0585Z" fill="#231F20"/>
<path d="M260.714 72.8902C260.891 75.0748 260.647 77.2637 260.714 79.4525C260.337 79.476 259.961 79.5017 259.585 79.5294C259.673 77.9598 259.695 76.3903 259.695 74.8185C258.965 75.1517 258.168 75.361 257.525 75.8137C257.171 76.7512 257.503 77.8274 257.016 78.7286C256.662 79.1557 256.219 79.4824 255.798 79.8433C255.068 79.6042 254.071 79.6276 253.606 78.9229C252.566 77.1291 252.854 74.8292 254.005 73.1465C254.78 73.1401 255.533 73.1401 256.308 73.1486C256.75 73.7807 257.171 74.4213 257.548 75.0791C258.655 74.4278 259.585 73.518 260.714 72.8902ZM254.403 74.0925C253.717 75.4357 253.606 77.0992 254.315 78.451C254.824 78.9357 255.577 78.5279 256.175 78.5022C256.374 77.2039 256.728 75.8201 256.197 74.5516C255.887 73.8768 255.023 73.9622 254.403 74.0925Z" fill="#231F20"/>
<path d="M263.548 73.1358C264.234 73.0077 265.12 72.9884 265.585 73.6056C266.714 75.0086 266.714 77.0288 266.006 78.6218C265.452 80.0099 263.171 79.9672 262.485 78.7137C262.064 77.7292 261.843 76.6401 261.976 75.5766C262.087 74.6029 262.574 73.5415 263.548 73.1358ZM263.814 74.0092C262.552 74.7225 263.216 76.3753 263.061 77.5178C262.839 78.4681 264.279 79.3308 264.965 78.5215C265.718 77.5584 265.474 76.2579 265.408 75.1389C265.363 74.4085 264.566 73.7615 263.814 74.0092Z" fill="#231F20"/>
<path d="M269.814 75.566C270.168 74.2996 271.408 73.6248 272.404 72.8603C272.515 75.0898 272.382 77.3192 272.471 79.5486C272.139 79.5316 271.807 79.5166 271.474 79.5038C271.607 77.9107 271.585 76.3113 271.563 74.7139C270.965 75.0043 270.39 75.299 269.814 75.566Z" fill="#231F20"/>
<path d="M274.995 73.6825C275.858 72.9714 277.076 73.0034 278.117 73.1785C278.715 73.911 279.069 74.8549 278.759 75.7731C277.851 76.9199 276.611 77.7698 275.504 78.7094C276.722 78.7969 278.228 78.3699 279.202 79.3415C277.519 79.523 275.836 79.4739 274.176 79.4226C275.061 77.6694 276.921 76.6401 277.895 74.9403C277.63 74.5708 277.585 73.8725 277.01 73.8789C275.925 73.8896 275.327 74.904 274.419 75.3097C274.419 74.7289 274.508 74.0775 274.995 73.6825Z" fill="#231F20"/>
<path d="M280.663 73.0781C281.549 73.1337 282.722 72.9201 283.32 73.7658C283.962 74.4384 283.497 75.3738 283.099 76.0336C283.541 76.6444 284.184 77.3064 284.029 78.1307C283.807 78.9293 283.01 79.35 282.434 79.8818C281.084 79.7857 279.512 79.0148 279.556 77.5114C280.397 77.9257 281.062 78.5898 281.837 79.098C282.634 78.5663 283.165 77.6673 282.855 76.7255C282.235 76.6017 281.593 76.48 280.973 76.3561C281.504 75.9397 282.058 75.5617 282.656 75.2179C282.589 74.778 282.545 74.3402 282.479 73.9024C281.527 73.8704 280.685 74.3466 280.11 75.0492C279.467 74.353 280.242 73.6547 280.663 73.0781Z" fill="#231F20"/>
<path d="M247.938 73.8982C248.824 73.2276 249.975 73.0461 251.082 73.1422C251.481 73.6419 252.079 74.0626 252.211 74.7182C252.477 75.9525 252.521 77.3277 251.857 78.4638C251.437 79.1792 250.639 79.822 249.732 79.7131C248.802 79.5999 248.16 78.8311 247.761 78.0773L248.647 78.0602C249.09 78.4211 249.532 78.75 250.019 79.066C250.861 78.7265 251.149 77.8488 251.481 77.095C250.529 77.2295 249.377 77.6908 248.558 76.9476C247.628 76.2109 247.894 74.9211 247.938 73.8982ZM249.09 74.306C248.558 74.9659 249.112 75.7923 249.289 76.4821C249.887 76.3945 250.595 76.4308 251.06 75.9931C251.348 75.6407 251.237 75.1581 251.215 74.7502C250.994 73.8918 249.665 73.58 249.09 74.306Z" fill="#231F20"/>
<path d="M129.954 74.2334C131.132 73.6739 132.482 73.9217 133.745 73.911C134.88 74.5452 135.739 75.6621 136.067 76.89C136.311 77.7634 136.043 78.656 135.768 79.491C135.266 81.0328 134.686 82.5511 134.072 84.0524C133.523 85.3422 132.285 86.1579 131.185 86.9844C131.145 87.3218 131.103 87.6592 131.065 87.9987C132.117 88.24 133.251 88.8187 134.316 88.3212C136.603 87.3068 138.972 85.9807 141.591 86.3245C142.324 87.3431 143.064 88.3596 143.693 89.4444C144.704 89.4252 145.798 89.6558 146.753 89.2458C148.699 87.9902 149.657 85.8419 151.046 84.1015C152.613 83.9733 154.287 84.1549 155.605 85.0539C162.991 90.0445 171.887 92.3764 180.684 93.7602C181.293 93.8606 181.933 93.8862 182.489 94.1788C181.78 94.4927 180.983 94.3069 180.232 94.3517C179.128 94.3112 177.994 94.482 176.916 94.1745C174.586 93.6385 172.182 94.0272 169.819 93.899C168.619 93.8563 167.448 93.5744 166.286 93.3075C161.618 92.1971 157.152 90.2858 153.189 87.6592C151.285 88.8807 149.806 90.6488 147.764 91.6803C146.943 92.1245 145.969 92.2269 145.045 92.1159C143.287 91.9088 141.684 91.0823 139.933 90.8517C139.397 90.7257 138.923 91.046 138.474 91.2724C137.32 91.9173 136.229 92.7245 134.9 93.0128C132.806 91.676 130.607 90.5036 128.482 89.2138C127.374 88.6201 126.203 89.4145 125.198 89.8438C122.65 91.1229 119.678 92.2483 116.789 91.4133C116.736 91.1165 116.835 90.8859 117.088 90.7172C117.82 90.0701 118.615 89.4935 119.412 88.9234C118.573 87.8877 117.756 86.538 118.274 85.1906C120.099 80.0099 124.806 76.2237 129.954 74.2334ZM127.665 78.2802C124.946 80.0462 122.758 82.4999 121.117 85.2205C120.652 85.8696 121.241 86.7067 121.87 87.0207C122.731 87.514 123.757 87.1915 124.642 86.9395C126.861 86.2113 128.26 84.2915 129.98 82.88C130.724 82.2329 131.716 81.8336 132.252 80.9815C133.122 79.6661 133.04 78.0303 132.941 76.5397C131.143 76.9797 129.243 77.2786 127.665 78.2802Z" fill="#231F20"/>
<path d="M275.261 69.2407C278.117 68.8221 281.15 69.4179 283.519 71.0046C284.804 71.7776 285.689 73.0077 286.287 74.3188C286.774 75.3311 286.641 76.4714 286.42 77.5242C285.977 79.4632 284.538 81.0734 282.767 82.0215C280.464 83.1768 277.785 83.6872 275.216 83.243C273.445 82.9163 271.585 82.4935 270.168 81.3424C268.574 80.0334 267.511 78.0538 267.533 76.0123C267.533 74.8356 267.91 73.6312 268.729 72.7343C270.323 70.8039 272.692 69.4948 275.261 69.2407ZM275.261 70.7312C273.489 71.1498 271.762 71.8994 270.478 73.1742C269.548 74.1501 268.84 75.5062 269.105 76.8665C269.415 78.2396 270.367 79.4141 271.519 80.2555C274.906 82.4102 279.822 82.5084 282.988 79.8946C283.984 78.9849 285.025 77.8445 285.003 76.4372C285.069 74.5538 283.785 72.8197 282.102 71.957C280.995 71.3975 279.777 71.0388 278.56 70.7398C277.475 70.6416 276.368 70.6501 275.261 70.7312Z" fill="#D34852"/>
</svg>
