<svg width="60" height="60" viewBox="0 0 60 60" fill="none" xmlns="http://www.w3.org/2000/svg">
<circle cx="30" cy="30" r="29" fill="#BDC6CA" stroke="#BDC6CA" stroke-width="2"/>
<path d="M49.6304 17.1853C49.6304 15.1586 47.9875 13.5159 45.961 13.5159H13.6695C11.6429 13.5159 10 15.1586 10 17.1853V20.3985H49.6305L49.6304 17.1853Z" fill="white"/>
<path d="M48.8381 38.4948L48.4584 38.115C49.1791 37.4451 49.6303 36.4893 49.6303 35.4279V24.2958H10V35.4279C10 37.4545 11.6429 39.0973 13.6695 39.0973H35.8011L39.1581 42.4543L42.0182 45.3144C42.6549 45.9512 43.4749 46.3576 44.3265 46.4588C44.4673 46.4756 44.6096 46.4841 44.7493 46.4841C44.7493 46.4841 44.7493 46.4841 44.7495 46.4841C45.6302 46.4841 46.4473 46.1521 47.0499 45.5494L49.0734 43.5263C50.3956 42.204 50.29 39.9469 48.8381 38.4948ZM23.9619 34.1266C23.9619 34.4001 23.7401 34.6219 23.4665 34.6219H15.8291C15.5555 34.6219 15.3336 34.4001 15.3336 34.1266V32.6197C15.3336 32.346 15.5555 32.1243 15.8291 32.1243H23.4665C23.7401 32.1243 23.9619 32.346 23.9619 32.6197V34.1266ZM41.0259 41.2603L30.8222 31.0564C30.6352 30.8694 30.5059 30.6366 30.4573 30.3988L29.8388 27.3879C29.7714 27.0576 29.8503 26.7515 30.0553 26.5466C30.2603 26.3416 30.5671 26.2626 30.8966 26.3303L33.9073 26.9486C34.1445 26.9974 34.3768 27.126 34.5638 27.3125L44.7812 37.5053L41.0259 41.2603ZM47.5421 41.9957C47.5421 41.9957 47.5421 41.9957 47.542 41.9957L45.519 44.0187C45.2872 44.2505 44.955 44.3534 44.5827 44.309C44.2107 44.2648 43.8438 44.078 43.5491 43.7835L42.2201 42.4545L45.9777 38.6967L47.3069 40.0259C47.9149 40.6337 48.0205 41.5172 47.5421 41.9957Z" fill="white"/>
</svg>
