<svg width="60" height="60" viewBox="0 0 60 60" fill="none" xmlns="http://www.w3.org/2000/svg">
<circle cx="30" cy="30" r="29" fill="#BDC6CA" stroke="#BDC6CA" stroke-width="2"/>
<g clip-path="url(#clip0)">
<path d="M45.4166 46.6929H14.5834C12.0551 46.6929 10 44.6378 10 42.1094V21.276C10 18.7476 12.0551 16.6929 14.5834 16.6929H24.5834C25.2734 16.6929 25.8334 17.2529 25.8334 17.9429C25.8334 18.6329 25.2734 19.1929 24.5834 19.1929H14.5834C13.4351 19.1929 12.5 20.1276 12.5 21.276V42.1094C12.5 43.2578 13.4351 44.1929 14.5834 44.1929H45.4166C46.5649 44.1929 47.5 43.2578 47.5 42.1094V21.276C47.5 20.1276 46.5649 19.1929 45.4166 19.1929H35.4166C34.7266 19.1929 34.1666 18.6329 34.1666 17.9429C34.1666 17.2529 34.7266 16.6929 35.4166 16.6929H45.4166C47.9449 16.6929 50 18.7476 50 21.276V42.1094C50 44.6378 47.9449 46.6929 45.4166 46.6929Z" fill="white"/>
<path d="M33.7501 22.5259H26.2501C24.6418 22.5259 23.3335 21.2177 23.3335 19.6094V16.2759C23.3335 14.6677 24.6418 13.3594 26.2501 13.3594H33.7501C35.3583 13.3594 36.6666 14.6677 36.6666 16.2759V19.6094C36.6666 21.2177 35.3583 22.5259 33.7501 22.5259ZM26.2501 15.8594C26.02 15.8594 25.8335 16.0461 25.8335 16.2759V19.6094C25.8335 19.8395 26.02 20.0259 26.2501 20.0259H33.7501C33.9802 20.0259 34.1666 19.8395 34.1666 19.6094V16.2759C34.1666 16.0461 33.9802 15.8594 33.7501 15.8594H26.2501Z" fill="white"/>
<path d="M22.5001 33.3593C20.2033 33.3593 18.3335 31.4892 18.3335 29.1927C18.3335 26.896 20.2033 25.0259 22.5001 25.0259C24.7968 25.0259 26.6666 26.896 26.6666 29.1927C26.6666 31.4892 24.7968 33.3593 22.5001 33.3593ZM22.5001 27.5259C21.5818 27.5259 20.8335 28.2742 20.8335 29.1927C20.8335 30.111 21.5818 30.8593 22.5001 30.8593C23.4183 30.8593 24.1666 30.111 24.1666 29.1927C24.1666 28.2742 23.4183 27.5259 22.5001 27.5259Z" fill="white"/>
<path d="M28.75 41.6927C28.06 41.6927 27.5 41.1328 27.5 40.4427V39.6093C27.5 38.4609 26.5649 37.5259 25.4166 37.5259H19.5834C18.4351 37.5259 17.5 38.4609 17.5 39.6093V40.4427C17.5 41.1328 16.94 41.6927 16.25 41.6927C15.56 41.6927 15 41.1328 15 40.4427V39.6093C15 37.0809 17.0551 35.0259 19.5834 35.0259H25.4166C27.9449 35.0259 30 37.0809 30 39.6093V40.4427C30 41.1328 29.44 41.6927 28.75 41.6927Z" fill="white"/>
<path d="M43.7501 28.3594H34.5835C33.8935 28.3594 33.3335 27.7994 33.3335 27.1094C33.3335 26.4194 33.8935 25.8594 34.5835 25.8594H43.7501C44.4401 25.8594 45.0001 26.4194 45.0001 27.1094C45.0001 27.7994 44.4401 28.3594 43.7501 28.3594Z" fill="white"/>
<path d="M43.7501 35.0259H34.5835C33.8935 35.0259 33.3335 34.4659 33.3335 33.7759C33.3335 33.0859 33.8935 32.5259 34.5835 32.5259H43.7501C44.4401 32.5259 45.0001 33.0859 45.0001 33.7759C45.0001 34.4659 44.4401 35.0259 43.7501 35.0259Z" fill="white"/>
<path d="M43.7501 41.6929H34.5835C33.8935 41.6929 33.3335 41.1329 33.3335 40.4429C33.3335 39.7529 33.8935 39.1929 34.5835 39.1929H43.7501C44.4401 39.1929 45.0001 39.7529 45.0001 40.4429C45.0001 41.1329 44.4401 41.6929 43.7501 41.6929Z" fill="white"/>
</g>
<defs>
<clipPath id="clip0">
<rect width="40" height="40" fill="white" transform="translate(10 10)"/>
</clipPath>
</defs>
</svg>
