<svg width="60" height="60" viewBox="0 0 60 60" fill="none" xmlns="http://www.w3.org/2000/svg">
<circle cx="30" cy="30" r="29" fill="#F3969A" stroke="#F3969A" stroke-width="2"/>
<g clip-path="url(#clip0)">
<path d="M45.4166 46.6928H14.5834C12.0551 46.6928 10 44.6378 10 42.1094V21.2759C10 18.7476 12.0551 16.6928 14.5834 16.6928H24.5834C25.2734 16.6928 25.8334 17.2528 25.8334 17.9428C25.8334 18.6328 25.2734 19.1928 24.5834 19.1928H14.5834C13.4351 19.1928 12.5 20.1276 12.5 21.2759V42.1094C12.5 43.2578 13.4351 44.1928 14.5834 44.1928H45.4166C46.5649 44.1928 47.5 43.2578 47.5 42.1094V21.2759C47.5 20.1276 46.5649 19.1928 45.4166 19.1928H35.4166C34.7266 19.1928 34.1666 18.6328 34.1666 17.9428C34.1666 17.2528 34.7266 16.6928 35.4166 16.6928H45.4166C47.9449 16.6928 50 18.7476 50 21.2759V42.1094C50 44.6378 47.9449 46.6928 45.4166 46.6928Z" fill="white"/>
<path d="M33.75 22.5259H26.25C24.6417 22.5259 23.3334 21.2177 23.3334 19.6094V16.2759C23.3334 14.6677 24.6417 13.3594 26.25 13.3594H33.75C35.3583 13.3594 36.6666 14.6677 36.6666 16.2759V19.6094C36.6666 21.2177 35.3583 22.5259 33.75 22.5259ZM26.25 15.8594C26.0199 15.8594 25.8334 16.0461 25.8334 16.2759V19.6094C25.8334 19.8395 26.0199 20.0259 26.25 20.0259H33.75C33.9801 20.0259 34.1666 19.8395 34.1666 19.6094V16.2759C34.1666 16.0461 33.9801 15.8594 33.75 15.8594H26.25Z" fill="white"/>
<path d="M22.5 33.3594C20.2032 33.3594 18.3334 31.4893 18.3334 29.1928C18.3334 26.8961 20.2032 25.0259 22.5 25.0259C24.7968 25.0259 26.6666 26.8961 26.6666 29.1928C26.6666 31.4893 24.7968 33.3594 22.5 33.3594ZM22.5 27.5259C21.5817 27.5259 20.8334 28.2742 20.8334 29.1928C20.8334 30.1111 21.5817 30.8594 22.5 30.8594C23.4183 30.8594 24.1666 30.1111 24.1666 29.1928C24.1666 28.2742 23.4183 27.5259 22.5 27.5259Z" fill="white"/>
<path d="M28.75 41.6928C28.06 41.6928 27.5 41.1328 27.5 40.4428V39.6094C27.5 38.461 26.5649 37.5259 25.4166 37.5259H19.5834C18.4351 37.5259 17.5 38.461 17.5 39.6094V40.4428C17.5 41.1328 16.94 41.6928 16.25 41.6928C15.56 41.6928 15 41.1328 15 40.4428V39.6094C15 37.081 17.0551 35.0259 19.5834 35.0259H25.4166C27.9449 35.0259 30 37.081 30 39.6094V40.4428C30 41.1328 29.44 41.6928 28.75 41.6928Z" fill="white"/>
<path d="M43.75 28.3594H34.5834C33.8934 28.3594 33.3334 27.7994 33.3334 27.1094C33.3334 26.4194 33.8934 25.8594 34.5834 25.8594H43.75C44.44 25.8594 45 26.4194 45 27.1094C45 27.7994 44.44 28.3594 43.75 28.3594Z" fill="white"/>
<path d="M43.75 35.0259H34.5834C33.8934 35.0259 33.3334 34.4659 33.3334 33.7759C33.3334 33.0859 33.8934 32.5259 34.5834 32.5259H43.75C44.44 32.5259 45 33.0859 45 33.7759C45 34.4659 44.44 35.0259 43.75 35.0259Z" fill="white"/>
<path d="M43.75 41.6928H34.5834C33.8934 41.6928 33.3334 41.1328 33.3334 40.4428C33.3334 39.7528 33.8934 39.1928 34.5834 39.1928H43.75C44.44 39.1928 45 39.7528 45 40.4428C45 41.1328 44.44 41.6928 43.75 41.6928Z" fill="white"/>
</g>
<defs>
<clipPath id="clip0">
<rect x="10" y="10" width="40" height="40" fill="white"/>
</clipPath>
</defs>
</svg>
