<svg width="60" height="60" viewBox="0 0 60 60" fill="none" xmlns="http://www.w3.org/2000/svg">
<circle cx="30" cy="30" r="29" fill="#BDC6CA" stroke="#BDC6CA" stroke-width="2"/>
<path d="M21.2437 23.4V36H18.9037V25.362H16.2397V23.4H21.2437ZM32.8692 34.02V36H23.5812V34.434L28.5852 29.682C29.1492 29.142 29.5272 28.674 29.7192 28.278C29.9232 27.87 30.0252 27.468 30.0252 27.072C30.0252 26.484 29.8272 26.034 29.4312 25.722C29.0352 25.41 28.4532 25.254 27.6852 25.254C26.4012 25.254 25.4172 25.692 24.7332 26.568L23.0952 25.308C23.5872 24.648 24.2472 24.138 25.0752 23.778C25.9152 23.406 26.8512 23.22 27.8832 23.22C29.2512 23.22 30.3432 23.544 31.1592 24.192C31.9752 24.84 32.3832 25.722 32.3832 26.838C32.3832 27.522 32.2392 28.164 31.9512 28.764C31.6632 29.364 31.1112 30.048 30.2952 30.816L26.9292 34.02H32.8692ZM39.5837 28.602C40.7477 28.746 41.6357 29.142 42.2477 29.79C42.8597 30.438 43.1657 31.248 43.1657 32.22C43.1657 32.952 42.9797 33.618 42.6077 34.218C42.2357 34.818 41.6717 35.298 40.9157 35.658C40.1717 36.006 39.2597 36.18 38.1797 36.18C37.2797 36.18 36.4097 36.054 35.5697 35.802C34.7417 35.538 34.0337 35.178 33.4457 34.722L34.4537 32.904C34.9097 33.288 35.4617 33.594 36.1097 33.822C36.7697 34.038 37.4477 34.146 38.1437 34.146C38.9717 34.146 39.6197 33.978 40.0877 33.642C40.5677 33.294 40.8077 32.826 40.8077 32.238C40.8077 31.65 40.5797 31.194 40.1237 30.87C39.6797 30.534 38.9957 30.366 38.0717 30.366H36.9197V28.764L39.7817 25.362H34.0577V23.4H42.6437V24.966L39.5837 28.602Z" fill="white"/>
</svg>
