<svg width="45" height="45" viewBox="0 0 45 45" fill="none" xmlns="http://www.w3.org/2000/svg">
<path d="M23.7587 21.0605H20.9526C19.3539 21.0605 18.0533 19.759 18.0533 18.1593C18.0533 16.5595 19.354 15.258 20.9526 15.258H26.5648C27.2882 15.258 27.8747 14.6711 27.8747 13.9472C27.8747 13.2233 27.2882 12.6364 26.5648 12.6364H23.6656V9.73513C23.6656 9.01121 23.0791 8.42432 22.3557 8.42432C21.6322 8.42432 21.0457 9.01121 21.0457 9.73513V12.6364H20.9527C17.9094 12.6364 15.4336 15.114 15.4336 18.1593C15.4336 21.2046 17.9095 23.6821 20.9527 23.6821H23.7588C25.3574 23.6821 26.658 24.9836 26.658 26.5834C26.658 28.1831 25.3574 29.4846 23.7588 29.4846H18.1466C17.4232 29.4846 16.8367 30.0715 16.8367 30.7954C16.8367 31.5194 17.4232 32.1063 18.1466 32.1063H21.0457V35.0076C21.0457 35.7315 21.6322 36.3184 22.3557 36.3184C23.0791 36.3184 23.6656 35.7315 23.6656 35.0076V32.1063H23.7587C26.8019 32.1063 29.2777 29.6286 29.2777 26.5834C29.2777 23.5381 26.8019 21.0605 23.7587 21.0605Z" fill="black" fill-opacity="0.75"/>
<path d="M38.1636 6.55232C33.9412 2.32696 28.3271 0 22.3557 0C16.3843 0 10.7702 2.32696 6.54777 6.55232C2.32543 10.7777 0 16.3957 0 22.3712C0 28.3468 2.32543 33.9647 6.54777 38.1901C10.7702 42.4155 16.3843 44.7424 22.3557 44.7424C28.3271 44.7424 33.9412 42.4155 38.1636 38.1901C42.3859 33.9647 44.7114 28.3468 44.7114 22.3712C44.7114 16.3957 42.3859 10.7777 38.1636 6.55232ZM22.3557 43.4737C11.4733 43.4737 1.61043 33.2612 1.61043 22.3712C1.61043 11.4812 11.4733 1.2076 22.3557 1.2076C33.2381 1.2076 43.0714 11.4812 43.0714 22.3712C43.0714 33.2612 33.2381 43.4737 22.3557 43.4737Z" fill="black"/>
</svg>
