<svg width="25" height="25" viewBox="0 0 25 25" fill="none" xmlns="http://www.w3.org/2000/svg">
<path d="M16.7355 -0.000244141H7.60704C3.40643 -0.000244141 0 3.49819 0 7.81226V17.1873C0 21.5013 3.40643 24.9998 7.60704 24.9998H16.7355C20.9361 24.9998 24.3425 21.5013 24.3425 17.1873V7.81226C24.3425 3.49819 20.9361 -0.000244141 16.7355 -0.000244141ZM22.0604 17.1873C22.0604 20.2029 19.6718 22.656 16.7355 22.656H7.60704C4.67072 22.656 2.28211 20.2029 2.28211 17.1873V7.81226C2.28211 4.79663 4.67072 2.34351 7.60704 2.34351H16.7355C19.6718 2.34351 22.0604 4.79663 22.0604 7.81226V17.1873Z" fill="#939393"/>
<path d="M12.1716 6.24976C8.81078 6.24976 6.08594 9.04819 6.08594 12.4998C6.08594 15.9513 8.81078 18.7498 12.1716 18.7498C15.5324 18.7498 18.2572 15.9513 18.2572 12.4998C18.2572 9.04819 15.5324 6.24976 12.1716 6.24976ZM12.1716 16.406C10.0751 16.406 8.36805 14.6529 8.36805 12.4998C8.36805 10.3451 10.0751 8.59351 12.1716 8.59351C14.2681 8.59351 15.9751 10.3451 15.9751 12.4998C15.9751 14.6529 14.2681 16.406 12.1716 16.406Z" fill="#939393"/>
<path d="M18.7133 6.61337C19.1611 6.61337 19.5242 6.24051 19.5242 5.78056C19.5242 5.32062 19.1611 4.94775 18.7133 4.94775C18.2654 4.94775 17.9023 5.32062 17.9023 5.78056C17.9023 6.24051 18.2654 6.61337 18.7133 6.61337Z" fill="#939393"/>
</svg>
