<svg width="28" height="28" viewBox="0 0 28 28" fill="none" xmlns="http://www.w3.org/2000/svg">
<path d="M19.2445 0.848511H8.94914C4.21153 0.848511 0.369629 4.64803 0.369629 9.33336V19.5152C0.369629 24.2005 4.21153 28 8.94914 28H19.2445C23.9822 28 27.8241 24.2005 27.8241 19.5152V9.33336C27.8241 4.64803 23.9822 0.848511 19.2445 0.848511ZM25.2502 19.5152C25.2502 22.7903 22.5562 25.4546 19.2445 25.4546H8.94914C5.63745 25.4546 2.94348 22.7903 2.94348 19.5152V9.33336C2.94348 6.05821 5.63745 3.39397 8.94914 3.39397H19.2445C22.5562 3.39397 25.2502 6.05821 25.2502 9.33336V19.5152Z" fill="white"/>
<path d="M14.0968 7.63641C10.3064 7.63641 7.23322 10.6757 7.23322 14.4243C7.23322 18.1729 10.3064 21.2122 14.0968 21.2122C17.8872 21.2122 20.9604 18.1729 20.9604 14.4243C20.9604 10.6757 17.8872 7.63641 14.0968 7.63641ZM14.0968 18.6667C11.7323 18.6667 9.80707 16.7627 9.80707 14.4243C9.80707 12.0842 11.7323 10.1819 14.0968 10.1819C16.4613 10.1819 18.3866 12.0842 18.3866 14.4243C18.3866 16.7627 16.4613 18.6667 14.0968 18.6667Z" fill="white"/>
<path d="M21.4752 8.0318C21.9803 8.0318 22.3898 7.62685 22.3898 7.12732C22.3898 6.62779 21.9803 6.22284 21.4752 6.22284C20.9701 6.22284 20.5606 6.62779 20.5606 7.12732C20.5606 7.62685 20.9701 8.0318 21.4752 8.0318Z" fill="white"/>
</svg>
