<svg width="24" height="18" viewBox="0 0 24 18" fill="none" xmlns="http://www.w3.org/2000/svg">
<path d="M0.50098 1.46044C3.79489 4.25002 9.57467 9.15773 11.2734 10.688C11.5015 10.8945 11.7461 10.9995 12 10.9995C12.2534 10.9995 12.4976 10.8955 12.7251 10.6899C14.4253 9.1582 20.2051 4.25002 23.499 1.46044C23.7041 1.28709 23.7354 0.982406 23.5693 0.770484C23.1855 0.280781 22.6133 0 22 0H2C1.38673 0 0.814433 0.280781 0.430667 0.770531C0.264636 0.982406 0.295902 1.28709 0.50098 1.46044Z" fill="#AAAAAA"/>
<path d="M23.71 2.97215C23.5328 2.88965 23.3243 2.91843 23.1768 3.04443C21.0196 4.87303 18.1773 7.28906 16.0337 9.13279C15.921 9.2295 15.8575 9.37157 15.8599 9.5205C15.8624 9.66895 15.9312 9.80906 16.0474 9.90182C18.0391 11.497 21.0406 13.6914 23.2081 15.251C23.2945 15.3134 23.397 15.3452 23.5 15.3452C23.5782 15.3452 23.6563 15.3271 23.7281 15.29C23.8951 15.2046 24.0001 15.0327 24.0001 14.8452V3.42576C24 3.23095 23.8867 3.05371 23.71 2.97215Z" fill="#AAAAAA"/>
<path d="M0.792 15.2509C2.95997 13.6914 5.96194 11.4971 7.95314 9.9018C8.06934 9.80904 8.1382 9.66888 8.14064 9.52048C8.14308 9.37155 8.07961 9.22948 7.96683 9.13277C5.82323 7.28904 2.98045 4.87301 0.823266 3.04441C0.674812 2.91841 0.465844 2.89062 0.290063 2.97213C0.113297 3.05369 0 3.23093 0 3.42574V14.8452C0 15.0327 0.105 15.2046 0.271969 15.29C0.343734 15.3272 0.421875 15.3452 0.500016 15.3452C0.603047 15.3452 0.705562 15.3135 0.792 15.2509Z" fill="#AAAAAA"/>
<path d="M23.3872 16.6113C21.2939 15.1138 17.4379 12.3218 15.1362 10.4536C14.9487 10.3008 14.6772 10.3057 14.4927 10.4648C14.041 10.8589 13.6631 11.1909 13.395 11.4321C12.5717 12.1753 11.4291 12.1753 10.6039 11.4311C10.3369 11.1904 9.95895 10.8574 9.50726 10.4648C9.32417 10.3046 9.0522 10.2997 8.86418 10.4535C6.57021 12.3154 2.70987 15.1108 0.613197 16.6113C0.496478 16.6953 0.421291 16.8247 0.406666 16.9677C0.39251 17.1108 0.439853 17.2529 0.53801 17.3583C0.916478 17.7661 1.44968 18 1.99999 18H22C22.5503 18 23.083 17.7661 23.4624 17.3584C23.5601 17.2534 23.6079 17.1113 23.5938 16.9682C23.5791 16.8252 23.5039 16.6953 23.3872 16.6113Z" fill="#AAAAAA"/>
</svg>
