<svg width="300" height="192" viewBox="0 0 300 192" fill="none" xmlns="http://www.w3.org/2000/svg">
<g clip-path="url(#clip0)">
<path d="M300 0H0V191.667H300V0Z" fill="#2B2A29"/>
<path fill-rule="evenodd" clip-rule="evenodd" d="M197.067 173.167L196.967 173.067C196.967 173.067 197.1 173.133 197.067 173.167Z" fill="#FEFEFE"/>
<path fill-rule="evenodd" clip-rule="evenodd" d="M219.533 186.7L219.433 186.6C219.433 186.6 219.567 186.667 219.533 186.7Z" fill="#FEFEFE"/>
<path fill-rule="evenodd" clip-rule="evenodd" d="M176.933 147.733L176.833 147.633C176.833 147.633 176.967 147.7 176.933 147.733Z" fill="#FEFEFE"/>
<path fill-rule="evenodd" clip-rule="evenodd" d="M234.9 55.1C234.833 56 234.967 55.7667 234.8 56.5C234.133 56.3 231.5 55.8333 231.367 55.2C231.1 54.0667 231.4 54.8 231.967 54.4667C232.1 54.4 234.3 54.8333 234.9 55.0667V55.1Z" fill="#FEFEFE"/>
<path fill-rule="evenodd" clip-rule="evenodd" d="M203.033 173.833L202.933 173.733C202.933 173.733 203.067 173.8 203.033 173.833Z" fill="#FEFEFE"/>
<path fill-rule="evenodd" clip-rule="evenodd" d="M290.567 157.033V157.567L289.667 157.3L289.9 156.433C290.367 156.833 290.033 156.233 290.567 157V157.033Z" fill="#FEFEFE"/>
<path fill-rule="evenodd" clip-rule="evenodd" d="M239.6 57.6C239.667 57.6667 239.1 58.3333 238.767 58.2333C237.867 58 235.8 56.3 235.567 56.4C235.633 55.4667 235.4 56.1 235.767 55.4667C236.767 55.6 238.867 57.1667 239.633 57.6333L239.6 57.6Z" fill="#FEFEFE"/>
<path fill-rule="evenodd" clip-rule="evenodd" d="M246.2 65.5667C247.833 68.8667 247.333 67.6333 246.833 68.8333C246.2 68.1 242.367 60.9 239.7 58.9C239.2 58.5333 240.367 58.0667 240.167 57.7667C241.967 59.4 245.033 63.5 246.2 65.5667Z" fill="#FEFEFE"/>
<path fill-rule="evenodd" clip-rule="evenodd" d="M203.467 92.3667C202.633 92.6 203.3 92.3667 202.667 92.8333C202.6 92.8667 202.533 92.9667 202.5 93C202.433 93.0333 202.367 93.1333 202.3 93.1667C201.767 93.5 202.167 93.2667 201.5 93.5C200.233 93.4667 201.167 93.6 200.467 92.6333C201.967 91.9333 201.5 92.3333 202.733 91.4667C203 91.3 202.567 91.7 203.2 91.1333L204.6 89.7667L205.333 89.9667C204.933 90.6 204.833 90.7667 204.4 91.3C203.733 92.1667 204.2 91.8333 203.467 92.3667Z" fill="#FEFEFE"/>
<path fill-rule="evenodd" clip-rule="evenodd" d="M243 187.7L243.7 187.9L243 187.7Z" fill="#FEFEFE"/>
<path fill-rule="evenodd" clip-rule="evenodd" d="M135.633 101.6C136.233 103.433 136.367 101.533 135.967 103.467H134.633C134.133 101.333 133.133 102 132.1 100.4C131.767 99.9 131.633 99.6 131.333 99.1667H131.967C132.567 100.067 131.933 99.3333 132.7 99.6667C133.2 99.8667 133.133 99.8 133.567 100.2C134.433 100.967 134.467 101.2 135.6 101.6H135.633Z" fill="#FEFEFE"/>
<path fill-rule="evenodd" clip-rule="evenodd" d="M227.033 79.9C225.333 79.9 224.033 78.7333 223.8 77.2333L225.7 75.1C227.567 76.3 227.3 76.9333 227.033 79.9Z" fill="#FEFEFE"/>
<path fill-rule="evenodd" clip-rule="evenodd" d="M247.733 71.6667C247.567 73.4 248.5 76.1667 247.433 79.5333C246.333 79.8333 245.233 79.0333 245.033 78C247 78.2333 247.067 72.4 246.367 70L247.167 69.3C247.7 68.8333 247.8 70.9 247.733 71.7V71.6667Z" fill="#FEFEFE"/>
<path fill-rule="evenodd" clip-rule="evenodd" d="M222.4 55.8667L222.733 56.9C222.1 57.3333 222.733 56.9333 221.933 57.2667C221.3 57.5333 218 58.9333 217.267 59.3333C216.3 60.2 215.5 59.2667 216.133 58.9333C216.933 58.2667 217.467 58.0667 218.4 57.6333L222.433 55.8667H222.4Z" fill="#FEFEFE"/>
<path fill-rule="evenodd" clip-rule="evenodd" d="M126.1 99.1333L124.933 98.3667C125.6 98.2333 126.867 97.8667 127.3 97.6L165.033 88.3667C165.233 88.3667 167.933 86.5667 168.6 86.4667C169.033 86.4 167.533 87.8667 167.533 88.2333C166.933 88.5667 165.9 88.9 165.167 89.2C164.633 89.4 126.633 98.9333 126.067 99.1667L126.1 99.1333Z" fill="#FEFEFE"/>
<path fill-rule="evenodd" clip-rule="evenodd" d="M185.133 182.433H183.933C184.033 181.533 183.933 181.767 184.3 181.2C185.133 181.567 184.833 181.333 185.133 182.433Z" fill="#FEFEFE"/>
<path fill-rule="evenodd" clip-rule="evenodd" d="M239.367 63.2C239 63.7333 238.433 64.5 237.967 65.0667C237.5 65.6333 236.233 67.1333 235.8 67.5L235.567 66.9333C236.933 65.3667 238.267 62.6333 239.367 63.2Z" fill="#FEFEFE"/>
<path fill-rule="evenodd" clip-rule="evenodd" d="M274.033 124.267H273.7L274 123.9L274.033 124.267Z" fill="#FEFEFE"/>
<path fill-rule="evenodd" clip-rule="evenodd" d="M299.467 186.067V187.267C298.567 187.433 298.567 187.533 297.8 187.7C297.933 188.167 298 188.133 298.1 188.367C299.1 190.367 297.767 187.333 298.4 188.967C297.567 188.767 297.567 188.867 297.2 188.1C297.2 188.067 297.167 187.967 297.133 187.933L295.133 188.067C295.067 185.633 294.5 186.333 293.533 185.1C294.933 184.667 294.167 184.833 295.6 185.267C298.1 186.033 297 185.267 296.467 187.033C298.567 186.867 298.5 186.6 298.733 186.2C298.733 186.167 298.767 186.067 298.767 186.067C298.767 186.033 298.767 185.933 298.8 185.933C298.8 185.933 298.8 185.833 298.8 185.8L299.467 186.1V186.067Z" fill="#FEFEFE"/>
<path fill-rule="evenodd" clip-rule="evenodd" d="M205.567 184.067C204.033 184.067 200.433 184.267 199.367 183.733L199.667 183.4C200.967 183.4 206.1 182.9 205.567 184.067Z" fill="#FEFEFE"/>
<path fill-rule="evenodd" clip-rule="evenodd" d="M130.333 176.8C129.933 177.167 130 176.167 129.9 177.8C128.867 177.5 129.133 177.467 127.7 177.467C127.767 176.033 127.467 176 126.4 175.8C125.567 173.3 125.3 175.6 124.733 173.467L125.733 173.2C127.3 174.167 125.533 174.467 128.367 174.467C128.767 173.467 128.1 173.967 129.133 173.967C129.233 173.967 130.2 174.133 130.667 174.133V174.8C128.3 175.433 130.633 175.367 127.7 175.133C127.867 177.2 128.8 176.467 130.333 176.133V176.8Z" fill="#FEFEFE"/>
<path fill-rule="evenodd" clip-rule="evenodd" d="M183.467 75.7333L183.533 75.0667C184.033 74.1 184.3 74.1667 185.2 73.8333L186.533 73.7333L185.833 74.3333C184.967 75.0333 184.433 75.6 183.5 75.7L183.467 75.7333Z" fill="#FEFEFE"/>
<path fill-rule="evenodd" clip-rule="evenodd" d="M298.2 75.6333C296.233 75.6333 284.267 77.4667 282.3 77.4667C281.7 77.2 250.433 80.7333 250.533 80.3333L250.367 79.8333C250.467 78.9 295.8 74.6667 297.933 74.6667L298.167 75.6L298.2 75.6333Z" fill="#FEFEFE"/>
<path fill-rule="evenodd" clip-rule="evenodd" d="M130.333 100.833C130.367 102.667 130.933 102.733 131.667 103.8C131.167 104 130.4 104.167 129.733 103.8C128.5 103.133 129.567 103.967 128.733 102.433C128 101.067 128.167 102.667 128.7 100.5C129.567 100.933 129.067 100.8 130.367 100.833H130.333Z" fill="#FEFEFE"/>
<path fill-rule="evenodd" clip-rule="evenodd" d="M192.133 135.167L192.033 134.9C192.033 134.867 191.967 134.8 191.967 134.767L192.133 135.167Z" fill="#FEFEFE"/>
<path fill-rule="evenodd" clip-rule="evenodd" d="M148.833 118.667C147.367 117.7 147.5 118 145.2 118C144.7 116.6 144.2 117.867 144.2 116.033C145.067 115.333 148.267 115.867 149.1 116.1C151 116.633 149.367 117.833 149.367 117.833C149.033 118.267 149.033 118.267 148.833 118.633V118.667Z" fill="#FEFEFE"/>
<path fill-rule="evenodd" clip-rule="evenodd" d="M191.6 181.7C191.933 181.9 191.033 182.4 192.433 181.867C193.133 182.6 193.833 182.433 195 182.733L194.667 183.4C193.9 182.967 190.433 182.733 189.1 182.733L188.433 182.167L189.233 181.533C190.367 182.033 190.267 182.1 191.567 181.7H191.6Z" fill="#FEFEFE"/>
<path fill-rule="evenodd" clip-rule="evenodd" d="M140.367 110.733C140.767 111.5 139.967 111.067 140.767 111.4C140.5 111.5 140.3 111.1 139.5 111.733C139.433 113.133 139.367 112.067 139.967 112.5C139.133 112.867 138.533 112.8 137.4 112.633C136.3 112.5 135.967 112.6 135.1 112.533C132.8 112.4 133.2 111.7 130.7 112.067L130.867 112.033L130.733 110.733C132.167 110.867 131.533 111.133 133.2 110.933C136.467 110.533 135.467 111.567 138.333 110.8C139.6 110.467 139 110.733 140.367 110.733Z" fill="#FEFEFE"/>
<path fill-rule="evenodd" clip-rule="evenodd" d="M276.033 135.5C274.733 135.167 275.267 135.633 274.367 131.867C275.233 131.633 274.633 131.9 275.367 131.533C276.367 133.033 276.033 133.167 276.033 135.5Z" fill="#FEFEFE"/>
<path fill-rule="evenodd" clip-rule="evenodd" d="M244 70.5C243.667 69.9 242.533 66.9333 242.333 66.2L243.333 66.4667C243.867 67.6333 244.267 68.7667 244.6 69.9333L244 70.5333V70.5Z" fill="#FEFEFE"/>
<path fill-rule="evenodd" clip-rule="evenodd" d="M174.6 82.6667C173.5 82.1667 172.967 82.6667 171.967 83.3L171.733 82.6667L171.967 82.4333L173.367 82.0667L173.7 81.0333C174.133 80.3333 177.933 77.8 179.933 77.2C180.633 76.9667 180.167 78.0333 180.6 78.0667C178.933 79.4333 177.4 80.6 176.067 81.4667L174.667 82.7333L174.6 82.6667Z" fill="#FEFEFE"/>
<path fill-rule="evenodd" clip-rule="evenodd" d="M212.633 62.1333L213.5 60.7667L214.967 59.5333C215.167 59.6667 215.2 59.7333 215.733 60.1667C216.233 60.5667 213.733 61.3667 214.067 61.9C212.2 63.8 213.333 62.3 212.633 62.1333Z" fill="#FEFEFE"/>
<path fill-rule="evenodd" clip-rule="evenodd" d="M171.066 99.7667L169.467 99.4333C170 98.7667 168.633 98.9 170.466 98.9V98.2333C169.167 98.2 169.7 98.3333 168.8 97.9V95.9333H168.167L168.2 95.2667L168.133 94.9333C168.1 93.7667 167.967 93.2 168.467 92.3667L169.067 93.6333C169.133 94.2 169.067 94.7 169.067 95.2667C169.1 97.1333 169.167 97.6 170.1 97.9333C171.333 96.1 169.2 93.2333 171.433 92.3C172.966 94.3333 173.933 95.2333 171.4 94.2C170.933 96.8 171.633 96.4333 171.766 96.6333C173.066 96.3333 172.3 96.3333 173.333 95.9667C173.333 98.0333 174.033 99.3 173.1 100.167C172.4 98.7667 172.733 98.3 171.333 97.1667C170.8 98.5 171.466 98.2667 171.066 99.7333V99.7667Z" fill="#FEFEFE"/>
<path fill-rule="evenodd" clip-rule="evenodd" d="M280.933 132.867C280.733 134.4 281.5 133.667 281 135.833C279.633 134.833 280.9 135.267 280.033 134.5C279.033 133.6 279.967 134.733 278.7 134.2C278.7 130.833 278.6 131.833 280.667 131.9L280.933 132.867Z" fill="#FEFEFE"/>
<path fill-rule="evenodd" clip-rule="evenodd" d="M211.267 184.4L208.967 184.3L209 183.633C209.867 184.067 209.967 184 211.267 183.733V184.4Z" fill="#FEFEFE"/>
<path fill-rule="evenodd" clip-rule="evenodd" d="M155.9 130.567C155.667 132.1 156 132.733 155.433 133.867C153.8 132.667 154.933 130.167 154.5 127.833C154.467 127.733 154.367 127.133 154.367 127.1C154.333 126.733 154.367 126.733 154.433 126.433C154.9 123.6 153.867 124.767 154.8 123.933C155.533 123.5 155.7 124.7 155.3 122.933L155.933 130.533L155.9 130.567Z" fill="#FEFEFE"/>
<path fill-rule="evenodd" clip-rule="evenodd" d="M195.833 183.4L195.767 182.733H197.067V183.4H195.833Z" fill="#FEFEFE"/>
<path fill-rule="evenodd" clip-rule="evenodd" d="M144.533 169.867C144.233 170.467 144.267 170.267 144.2 171.2C142.567 171.2 143 171.2 141.867 170.867C139.867 170.233 136.667 172.3 135.933 169.567C139.267 169.567 141.467 169.9 144.533 169.9V169.867Z" fill="#FEFEFE"/>
<path fill-rule="evenodd" clip-rule="evenodd" d="M210.067 69.3333C209.467 69 209.733 68.8 209.133 68.5333C209.333 65.5 210.233 64.7 211.5 65.2667C211.367 66.7667 210.2 67.3 210.067 69.3333Z" fill="#FEFEFE"/>
<path fill-rule="evenodd" clip-rule="evenodd" d="M230.367 55.5667C230.167 55.2667 224.933 55.6333 223.667 56.4C222.967 56.4333 223.167 55.5 223.767 55.1333C226.1 54.8 228.333 54.3333 230.667 54.4333L230.367 55.6V55.5667Z" fill="#FEFEFE"/>
<path fill-rule="evenodd" clip-rule="evenodd" d="M242.167 65.9L238.6 61.6333L238.767 60.6333C239.6 61.5667 242.667 64.2333 242.8 65.5667L242.2 65.8667L242.167 65.9Z" fill="#FEFEFE"/>
<path fill-rule="evenodd" clip-rule="evenodd" d="M126.367 175.8L125.333 177.133H124.833C125.233 175.833 124.433 176.733 125.5 175.6L126.4 175.833L126.367 175.8Z" fill="#FEFEFE"/>
<path fill-rule="evenodd" clip-rule="evenodd" d="M269.967 82.4L271.467 84.1667C267.433 84.6667 268 82.0667 264.433 83.8667C267.167 86.1667 269.433 84.7 272.1 85.8667C272.2 85.7 273.4 86.0333 272.267 84L274.6 83.3333C273.767 81.5333 274.767 82.4333 273.067 81.8333L276.733 81.1667C281.533 80.6667 275.933 81.9333 281.9 82.2667C282.6 82.3 282.033 82.1667 282.833 82.4C286.633 83.4 285.833 82.6333 287.733 83.5667C287.8 83.6 287.933 83.7 288 83.7333C289.733 84.5 289.367 83.2667 292.367 84.2333C295.533 85.2333 293.767 84.5 296.067 84.9C298.467 85.3333 296.567 85.7667 300 85.7667L298.567 87.2C297.067 86.2 297.767 85.8 295.8 85.9C294.433 85.9667 294.5 86.7 292.167 85.9333L283 83.9667C278.5 82.5333 280.9 84.3667 278.5 83.1C277.033 82.3333 275.767 81.5333 274.5 86.2333H276.433V87.6667C271.067 87.6667 269.633 86.3333 266.267 85.9333L264.767 85.7C262.567 84.9 264.167 84.7667 260.567 84.7667C261.367 84.0667 261.633 83.7667 262.633 83.4667C270.6 80.8667 267.6 83.9 269.967 82.3667V82.4Z" fill="#FEFEFE"/>
<path fill-rule="evenodd" clip-rule="evenodd" d="M242.233 187.033L241.933 187.7C242 188.133 242.1 188.033 241.667 188.033C241 187.6 240.8 187.7 239.7 187.7L240.733 187.167C240.233 187.033 236.933 187.8 235.667 187.333L235.067 187C235.5 186.2 235.1 186.867 235.467 186.367C235.5 186.333 235.633 186.3 235.633 186.167C235.667 186.033 235.767 186.033 235.833 186C236.567 186.467 235.8 186.233 237.033 186.333V185.333C238.133 186.067 237.2 185.8 238.2 185.767C241.733 185.7 239.167 186.267 241.433 186.5C242.6 186.6 241.133 186.533 242.233 186.967V187.033Z" fill="#FEFEFE"/>
<path fill-rule="evenodd" clip-rule="evenodd" d="M289.467 188.033C289.567 188.1 289.867 188.933 290.9 188.367L289.467 188.033ZM292.2 190.333H289.9L289.933 189.033C288.9 188.667 289.3 189.733 289.333 188.033C288.8 187.267 289.167 188.333 289.233 187.7C289.4 186.4 289.667 186.467 290.233 186.467C291.467 186.833 290.267 186.333 291.2 187.367C291.8 188.033 291.6 187.867 292.567 188C292.367 188.767 292.633 188.267 292.267 188.7C292.233 188.733 292.167 188.833 292.1 188.867L291.733 189.167C291.7 189.2 291.6 189.267 291.533 189.3C293.133 190.4 292.3 190.033 292.2 190.3V190.333Z" fill="#FEFEFE"/>
<path fill-rule="evenodd" clip-rule="evenodd" d="M126.7 98.8333C122.467 99.9333 118.467 101.033 114 102.333C112.1 102.867 111.267 101.667 114.067 100.667C115 100.333 123.2 98.7667 126.233 97.9C127.2 97.6333 126.7 98.3333 126.7 98.8333Z" fill="#FEFEFE"/>
<path fill-rule="evenodd" clip-rule="evenodd" d="M208.633 67.4667L207.533 68C207.5 68.0333 207.4 68.0667 207.3 68.1C206.167 68.1 206.9 68 206.633 68.4667C200.267 68.5333 192.633 71.9333 189.333 71.8V71.0667C192.967 70.3333 198.3 68.1333 203.467 67.5667C205.367 67.3667 204.567 67.8 205.967 67.7333C208.433 67.6 205.367 67.1667 208.267 67.1L208.6 67.4333L208.633 67.4667Z" fill="#FEFEFE"/>
<path fill-rule="evenodd" clip-rule="evenodd" d="M244.7 74.9C244.167 75 242.733 75 241.833 75.2333C238.2 76.2 240.633 75.5333 239.2 75.2667L235.133 76.1333C234.467 76.4333 234.567 76.6333 234.033 76.3333L234.067 74.3667C237.933 74.3667 240.233 73.5333 243.967 73.7667L244.7 73.7V74.9Z" fill="#FEFEFE"/>
<path fill-rule="evenodd" clip-rule="evenodd" d="M156.767 130.233L155.9 130.567L155.267 122.967C155.567 121.733 155.033 122 156.133 121.3C157.6 122.5 156.833 123.333 156.733 125.3C156.667 126.9 156.733 128.667 156.733 130.267L156.767 130.233Z" fill="#FEFEFE"/>
<path fill-rule="evenodd" clip-rule="evenodd" d="M176.3 103.8C176.567 104.467 176.6 104.7 176.6 105.767L172.933 104.8C170.967 103.933 174.067 105.067 172.3 104.467C171.533 103.767 172.7 103.433 173.3 103.133C173.6 103.633 173.333 103.633 173.633 103.133L176.067 103.667C176.1 103.6 176.233 103.733 176.3 103.767V103.8Z" fill="#FEFEFE"/>
<path fill-rule="evenodd" clip-rule="evenodd" d="M174.6 82.6667L176.567 82.9667L176.9 83.4333C174.433 84.3333 175.7 83.3 173.3 83.6333C171.5 83.9 172.067 85.0333 170.3 84.3667L171.167 83.1333C171.5 82.7667 171.4 82.9 171.733 82.6L171.967 83.2333C173 82.6 173.533 82.1333 174.6 82.6V82.6667Z" fill="#FEFEFE"/>
<path fill-rule="evenodd" clip-rule="evenodd" d="M232.767 76.3C232.833 77.4667 233.7 77.2667 234.033 77.4C234.667 77.6667 234.4 77.5 234.833 77.8C233.933 78.1 231.8 78.2333 230.9 77.8667L230.3 77.4C230.633 76.6667 230.267 77.1667 230.733 76.7C230.867 76.5667 231.1 76.4 231.333 76.3C231.967 76.0333 231.967 76.2 232.733 76.3H232.767Z" fill="#FEFEFE"/>
<path fill-rule="evenodd" clip-rule="evenodd" d="M165.034 181.1L164.7 181.467C163.834 181.933 163.934 182 162.734 182.1L163.367 181.733C163.167 180.9 163.4 181.5 163.067 180.8L162.734 180.133H159.767L160.134 179.5C161.834 179.467 161.734 179.467 163.034 179.833C164.567 180.3 164.667 179.7 165.067 181.133L165.034 181.1Z" fill="#FEFEFE"/>
<path fill-rule="evenodd" clip-rule="evenodd" d="M187.5 74.0667C186.867 73.9667 186.967 74 186.5 73.7333L185.167 73.8333C185.533 73.4333 185.233 73.6667 185.733 73.3C186.133 73 185.933 73.1667 186.367 72.9333C187.1 72.4667 187.167 72.4333 187.9 72.1L188.867 72.6667C188.4 73.6 188.433 73.5667 187.5 74.1V74.0667Z" fill="#FEFEFE"/>
<path fill-rule="evenodd" clip-rule="evenodd" d="M180 90.0333C179.233 89.6667 178.933 89.7667 178.2 87.6333C178.167 87.5333 178.067 87.2333 178.067 87.1667C178.033 86.9333 178.133 86.5667 178.133 86.5333H178.467C179.4 87.1 179.933 88.6667 180 90.0333Z" fill="#FEFEFE"/>
<path fill-rule="evenodd" clip-rule="evenodd" d="M121.767 167.833L121.833 168.9L121.733 169.6C120.267 169.533 120 169.133 120.133 167.533L121.767 167.867V167.833Z" fill="#FEFEFE"/>
<path fill-rule="evenodd" clip-rule="evenodd" d="M201.5 93.5C202.167 93.2667 201.767 93.4667 202.3 93.1667C202.367 93.1333 202.433 93.0667 202.5 93C202.567 92.9667 202.633 92.8667 202.667 92.8333C203.3 92.3667 202.633 92.6 203.467 92.3667C202.767 94.2 202.267 94.8 200.267 95.2333L200.967 94.4333C201.9 93.4667 201.367 94.2 201.5 93.5Z" fill="#FEFEFE"/>
<path fill-rule="evenodd" clip-rule="evenodd" d="M162.067 103.733C161.633 105 161.833 105.2 160.367 104.567C160.6 103.633 161 102.767 162.067 103.733Z" fill="#FEFEFE"/>
<path fill-rule="evenodd" clip-rule="evenodd" d="M297.167 191C296.9 191.233 297.067 191.233 296.6 191.433C295.933 191.733 296.433 191.533 295.833 191.667L295.167 190.667L295.467 190.033L297.133 191.033L297.167 191Z" fill="#FEFEFE"/>
<path fill-rule="evenodd" clip-rule="evenodd" d="M180.233 181.1L179.9 181.8L178.567 182.1C178.267 181.5 178.3 181.7 178.233 180.767C179 180.933 179.2 181.067 180.2 181.1H180.233Z" fill="#FEFEFE"/>
<path fill-rule="evenodd" clip-rule="evenodd" d="M171.967 82.4333L171.633 81.6667C172.333 81.3333 172.833 81.2 173.667 81L173.333 82.0333L171.933 82.4L171.967 82.4333Z" fill="#FEFEFE"/>
<path fill-rule="evenodd" clip-rule="evenodd" d="M219.2 63.8333C219.1 63.8667 219.1 64.6333 218.667 63.7333C218.433 63.2 218.533 63.1 218.533 62.5333L217.867 62.8667C218.133 61.8667 217.867 62.1333 218.867 61.8667L219.2 63.8333Z" fill="#FEFEFE"/>
<path fill-rule="evenodd" clip-rule="evenodd" d="M209.3 67.1333H208.967H208.633H208.3C207.767 65.9667 207.9 65.9333 209.4 65.8C209.033 66.5 209.133 66.1333 209.3 67.1333Z" fill="#FEFEFE"/>
<path fill-rule="evenodd" clip-rule="evenodd" d="M293.9 174.833L292.133 174.667C292.467 174 292 173.133 293.367 174.233C294.2 174.9 293.3 174.2 293.9 174.833Z" fill="#FEFEFE"/>
<path fill-rule="evenodd" clip-rule="evenodd" d="M134.1 178.133L133.233 177.8L133.333 177.133C134.667 177.133 134 177.033 134.767 177.467C134.7 177.533 134.633 177.633 134.567 177.667C134.533 177.7 134.433 177.8 134.4 177.867C134.367 177.9 134.2 178.067 134.1 178.133Z" fill="#FEFEFE"/>
<path fill-rule="evenodd" clip-rule="evenodd" d="M131.367 177.467V177.8H129.9C130 176.167 129.933 177.167 130.333 176.8C130.4 176.867 130.467 176.867 130.5 176.967C130.533 177.067 130.633 177.1 130.667 177.133C131.067 177.367 130.4 177.133 131.367 177.467Z" fill="#FEFEFE"/>
<path fill-rule="evenodd" clip-rule="evenodd" d="M269.733 189.367C269.1 189.5 269.167 189.433 268.733 189.7L268.4 189.033C268.767 188.7 267.867 188.7 269.4 188.7L269.7 189.367H269.733Z" fill="#FEFEFE"/>
<path fill-rule="evenodd" clip-rule="evenodd" d="M243 187.7H241.933L242.233 187.033H243.333L243 187.7Z" fill="#FEFEFE"/>
<path fill-rule="evenodd" clip-rule="evenodd" d="M241 58.5333C239.933 58.3 239.967 58.5333 239.633 57.6C240.6 57.5333 240.6 58 241 58.5333Z" fill="#FEFEFE"/>
<path fill-rule="evenodd" clip-rule="evenodd" d="M256.234 188.367V188.7H254.767V188.367C255.867 188.167 255.4 188.033 256.234 188.367Z" fill="#FEFEFE"/>
<path fill-rule="evenodd" clip-rule="evenodd" d="M252.567 188.367H251.167L251.533 187.7H251.933C252.4 188.067 252.233 187.967 252.533 188.367H252.567Z" fill="#FEFEFE"/>
<path fill-rule="evenodd" clip-rule="evenodd" d="M145.2 168C144.667 166.833 144.933 167.5 145.2 167.233C145.467 167.367 146.7 168 145.2 168Z" fill="#FEFEFE"/>
<path fill-rule="evenodd" clip-rule="evenodd" d="M205.333 89.9667L204.6 89.7667L204.9 89.1333C205.433 89.7667 205.433 88.3 205.333 89.9333V89.9667Z" fill="#FEFEFE"/>
<path fill-rule="evenodd" clip-rule="evenodd" d="M194.8 173.867C194.133 173.6 194.033 174.433 194.267 173.5C194.467 172.7 193.967 173.467 194.8 173.1V173.867Z" fill="#FEFEFE"/>
<path fill-rule="evenodd" clip-rule="evenodd" d="M274.7 189.367L274 189.033L274.767 188.367L274.7 189.367Z" fill="#FEFEFE"/>
<path fill-rule="evenodd" clip-rule="evenodd" d="M249.933 100.2L249.267 100.167V99.5H249.6L249.933 100.2Z" fill="#FEFEFE"/>
<path fill-rule="evenodd" clip-rule="evenodd" d="M209.633 64.8C209.633 65.6333 209.1 64.9 209.433 64.8C209.433 64.8 209.633 63.8667 209.633 64.8Z" fill="#FEFEFE"/>
<path fill-rule="evenodd" clip-rule="evenodd" d="M208.633 67.4667V67.1333H208.967L208.633 67.4667Z" fill="#FEFEFE"/>
<path fill-rule="evenodd" clip-rule="evenodd" d="M186.833 75.4C186.8 75.4333 186.733 75.2667 186.733 75.3C186.733 75.3 186.867 75.3667 186.833 75.4Z" fill="#FEFEFE"/>
<path fill-rule="evenodd" clip-rule="evenodd" d="M216.233 65.4667L216.133 65.3667C216.133 65.3667 216.267 65.4333 216.233 65.4667Z" fill="#FEFEFE"/>
<path fill-rule="evenodd" clip-rule="evenodd" d="M217.9 53.9L217.8 53.8C217.8 53.8 217.933 53.8667 217.9 53.9Z" fill="#FEFEFE"/>
<path fill-rule="evenodd" clip-rule="evenodd" d="M140.9 181.1L140.8 181C140.8 181 140.933 181.067 140.9 181.1Z" fill="#FEFEFE"/>
<path fill-rule="evenodd" clip-rule="evenodd" d="M208.633 185.067L208.533 184.967C208.533 184.967 208.667 185.033 208.633 185.067Z" fill="#FEFEFE"/>
<path fill-rule="evenodd" clip-rule="evenodd" d="M186.167 165.2C185.933 166.433 185.867 165.9 185.2 166.867C185.333 167.133 185.4 167.367 185.5 167.567C185.567 167.667 185.8 168.233 185.833 168.233C185.367 169.9 186 171.3 185.2 172.467C185.133 172.433 185.033 172.267 185.033 172.333L184.467 171.9C183.6 171.367 185.467 171.7 183.567 171.5C183.567 173.967 184.067 174.267 184.233 176.133H185.233C185 173.367 183.7 174.033 186.867 173.133C191.7 171.8 191.767 169.9 190.9 174.133H186.567C186.833 177.233 188.033 175.433 189.1 175.9C189.733 176.167 191.4 176.9 192.4 176.567C194 176.067 192.1 177.367 197.433 176.8C198.433 176.6 198.1 176.967 198.433 176.1H199.433C199.833 177.2 199.2 176.267 200.1 177.1C201.067 176.467 200.533 176.433 201.767 176.1C202.033 176.3 202.6 176.833 202.667 176.867C203.733 177.433 205.633 178 206.833 177.533C209.033 177.867 209.167 177.9 211.3 178.4C215.5 177.367 213.267 178.667 215.433 179.267C216.733 179.667 216.333 179.733 217.967 179.733C216.2 177.1 223.1 176.9 213.267 175.867C209.1 175.433 208.633 175.233 205.3 175.533C200.5 174.8 195.7 174.067 190.933 173.4C190.933 168.867 199.167 174.167 208.767 174.167C211.6 174.167 220.167 175.167 218.067 171.333C219.2 165.9 219.433 150.567 218 147.033C216.4 145.667 219.967 146.667 218.6 140.833C219.333 136.133 213.967 123.967 212.3 124L210.933 122.733C209.867 121.667 208.6 120.7 207.3 120.1C207.233 120.067 207.167 120 207.1 119.967C206.333 119.4 206.633 118.7 204.667 119.167C201.733 119.833 204.833 118.233 199.367 119.633L198.567 119.8C198.5 119.833 198.4 119.833 198.367 119.867C180.167 125.767 188.7 151.833 186.267 165.2H186.167ZM220.567 185.033V186.033L212.067 184.633C211.067 184.433 211.767 184.667 211.333 184.367H213C213.467 183.367 213.567 182.3 214 181.4C216.367 182.667 213.7 182.3 215.333 184.7C215.467 184.633 217.067 184 217.2 183.967C217.8 183.867 217.3 183.833 217.967 184.1L218.267 184.267C218.3 184.267 218.9 185.1 219.167 183.633C219.5 181.8 219.2 183.567 218.833 182.3L218.633 181.067C215.8 180.4 216.867 181.167 214.167 180.6C207.6 179.267 205.833 179.967 204.467 179.7C202.267 179.267 206 179.233 198.833 178.367L185.6 177.4C182.533 177.4 183.1 177.467 183 174.733C182.767 169.367 183.667 172.333 183.633 166.8V144.333C183.633 142.2 184.067 140.867 184.267 139.033C184.833 134 186.267 129.6 186.267 129.467C184.767 129.5 184.967 129.8 183.3 129.8C183.367 128.8 183.133 129.133 184.433 127.6C185.2 126.7 185.8 125.7 185.967 127.5H187.633C187.833 125.067 191.133 121.367 193.233 120.9C192.933 119.767 193.067 119.9 191.9 119.567C192 118.433 191.867 118.567 192.8 118.167C193.333 117.933 194.233 117.933 195.2 117.933V119.267C199.033 116.7 201.167 117.833 201.133 116.633C201.133 116.4 201 116.7 201.133 116.3C202.067 116.367 204.967 116.833 205.933 117.1C208.3 117.767 211.367 120.2 213.133 121.8C213.367 122.033 213.633 122.233 213.833 122.433L215.867 125.033C218.667 129.3 220.9 138.267 221 143.4C221.067 147.467 220.133 146.233 220.067 148L220.567 179.467C220.567 181 220.167 183.9 220.633 185.033H220.567Z" fill="#FEFEFE"/>
<path fill-rule="evenodd" clip-rule="evenodd" d="M191.8 180.767L191.467 180.433C188.9 180.433 187.467 180.167 185.233 180.233L182.2 180.167C180.733 180.533 182.067 181.167 182.733 182.1C182.267 182.1 181.6 182.133 181.2 182.1C180.433 182.033 181.267 182.167 180.633 182.033C179.9 181.9 180.333 182.033 179.9 181.8L180.233 181.1C180.7 180.067 180.233 180.2 180.233 178.467C181.267 178.5 182.233 178.733 183.433 178.9C184.567 179.067 185.3 179.1 186.833 179.133L203.867 180.6C205.6 180.833 206.233 180.433 207 181.433L204.4 181.333C204.3 181.333 204.033 181.333 203.9 181.333L191.767 180.733L191.8 180.767Z" fill="#FEFEFE"/>
<path fill-rule="evenodd" clip-rule="evenodd" d="M181.867 158.3C181.367 157.267 180.733 142.767 181.6 137.833C182.033 135.267 180.6 137.267 180.6 134.3C180.6 131.833 181.167 131.833 181.567 130.233C182.767 131.133 182.533 131.4 182.2 132.833C181.867 134.233 182.233 134.1 182.667 135.767C183.2 137.8 182.233 140.467 182.233 143.1V155C182.233 155.7 182.3 156.3 182.3 156.967C182.367 158.467 183 157.5 181.9 158.3H181.867Z" fill="#FEFEFE"/>
<path fill-rule="evenodd" clip-rule="evenodd" d="M286.333 186.733C285.567 184.467 283 183.667 284.6 187.033H285.267C285.9 187.033 285.867 186.933 286.333 186.733ZM288.567 190H285.367C285.833 189.2 285.7 189.6 285.933 188.6C285.333 188.233 284.133 187.067 282 187.367L280.633 188C281.6 189.333 282.967 187.5 283.2 189.967C281.867 189.633 281.7 189.633 279.967 189.633V187.667L278.8 187.567C277.933 187.333 278.367 187.9 278.067 187C278.767 186.533 282.133 186.667 282.933 186.667C282.433 184.733 282.533 186.333 281.6 185.367C281.433 185.2 280.9 184.067 280.633 183.7C281.9 184.033 281.4 184.067 282.233 185.033C283.833 184.667 283.067 184.2 284.233 184.167C284.867 184.167 285.5 184.667 286.9 184.7C286.933 185.167 286.967 186.2 287 186.3C287.2 187.167 286.1 186.833 287.9 187.033C287.533 189.633 287.1 186.433 286.9 189C288.333 189 288.2 188.833 289.133 189.4L288.533 190H288.567Z" fill="#FEFEFE"/>
<path fill-rule="evenodd" clip-rule="evenodd" d="M268.433 189.033L268.767 189.7H266.467H265.8L258.733 189.067C257.533 188.767 257.967 188.7 256.233 188.7V188.367L256.2 187.367C258.833 187.6 255.5 187.867 260.633 187.933C261.167 187.933 263.567 188.867 264.4 188.567C265.233 188.267 264.833 188.7 265.1 187.7H266.1C266.4 188.867 266.967 188.9 268.4 189.033H268.433Z" fill="#FEFEFE"/>
<path fill-rule="evenodd" clip-rule="evenodd" d="M219.767 63.5L220.4 63.4667C220.133 66.1 225.167 70.4333 225.8 73.3667C225.167 73.6667 224.8 73.6667 224.133 73.9667C222.8 73.2333 219.467 65.3 219.233 63.6333L219.733 63.4667L219.767 63.5Z" fill="#FEFEFE"/>
<path fill-rule="evenodd" clip-rule="evenodd" d="M298.167 191H297.167L295.5 190L295.2 190.633C293.967 190.933 294.8 190.933 293.6 190.667C293.933 189.3 293.633 189.7 295.167 189.667L295.467 188.433C296.9 189.7 296.033 189.8 298.433 190.133L298.167 191Z" fill="#FEFEFE"/>
<path fill-rule="evenodd" clip-rule="evenodd" d="M289.234 186.367H288.567C288.367 185.5 288.434 185.633 287.934 185C287.134 184.033 287.4 185.533 287.267 183.733C288.834 184.1 289.234 184.467 289.234 186.367Z" fill="#FEFEFE"/>
<path fill-rule="evenodd" clip-rule="evenodd" d="M217.9 156L217.8 155.9C217.8 155.9 217.933 155.967 217.9 156Z" fill="#FEFEFE"/>
<path fill-rule="evenodd" clip-rule="evenodd" d="M217.9 167.567L217.8 167.467C217.8 167.467 217.933 167.533 217.9 167.567Z" fill="#FEFEFE"/>
<path fill-rule="evenodd" clip-rule="evenodd" d="M217.9 161.933L217.8 161.833C217.8 161.833 217.933 161.9 217.9 161.933Z" fill="#FEFEFE"/>
<path fill-rule="evenodd" clip-rule="evenodd" d="M216.233 135.5L216.133 135.4C216.133 135.4 216.267 135.467 216.233 135.5Z" fill="#FEFEFE"/>
<path fill-rule="evenodd" clip-rule="evenodd" d="M276.133 180C274.5 178.967 274.5 179.7 271.967 179.733C272.833 180.5 274.6 180.7 275.133 180.667C276.833 180.533 275.733 180.5 276.167 180H276.133ZM278.667 178.467V179.033C276.933 179.1 278.2 178.967 277.7 179.433C276.933 180.133 277.133 179.667 276.933 180.833L279.1 181H279.667L280.3 181.133L280.6 181.8C281.567 181.533 281.6 181.6 282.7 181.967C284.233 181.767 283.1 181.867 283.833 181.9C284.8 181.933 284.933 181.833 285.367 181.8C286.233 181.7 286.367 181.967 287.867 181.667C288.933 181.633 289 181.9 290.033 182.067C290.633 182.167 290.467 182.233 291.1 182.033C292.467 181.633 291.533 181.833 291.9 181.5C293.467 182.5 298.133 182.433 299.5 182.533V184.133L294.167 183.833C291.2 183 289.333 183.467 286.533 183.233C285.467 183.133 285.433 183.167 284.4 183.267C282.2 183.5 283.2 182.833 281.167 183C278.433 183.233 279.767 182.567 277.7 182.5C275.767 182.433 276.567 182.9 274.167 182.4C272.9 182.133 271.633 181.567 270.433 182.167L270.067 182.5C271.533 184.167 271.733 182.167 273.067 183.833C270.3 183.9 272.8 184.567 270.433 184.833C270.967 186.2 274.033 186.367 275.367 186.6C275.433 185.733 275.5 185.6 275.5 185.167C275.5 184.867 275.433 184.367 275.433 183.9C278.6 185.567 280.167 183.733 280.3 186.433C279.167 185.667 278.867 185.867 276.367 185.8L276.733 187.1C275.233 187.1 271.433 186.033 270.967 189.433C270.133 189 271.067 189.167 269.767 189.433L269.467 188.767C270.233 187.467 269.433 185 269.5 183.833C269.6 181.967 269.6 181.1 269.567 179C269.5 176.133 272.133 180.033 278.7 178.5L278.667 178.467Z" fill="#FEFEFE"/>
<path fill-rule="evenodd" clip-rule="evenodd" d="M192.133 74C192.1 73.9333 192.067 73.7667 192.067 73.8L191.5 72.7667C190 73.0667 190.1 72.8667 189.2 74.0667L190.733 73.8333C190.8 74.7667 190.967 74.1333 190.567 74.7333C187.8 78.8 186.867 77.5667 186.433 83.9667L186.633 85.3C185.8 85.8 185.6 85.5 184.867 85.6333C184.867 83.4333 184.367 82.6 185.767 79.2333C186.867 76.5667 188 76.6 189.167 74.4C186.7 74.6667 189.467 74.8 187.7 75.1333C186.833 75.3 187.3 75.0667 187.533 74.0667C192.867 70.3667 197.6 68.4333 206.7 68.4667L207.367 68.1H208.367C208.333 69.1667 208.067 70.3667 207.7 71.0667C199.733 69.5333 196.1 72.0667 192.167 74H192.133Z" fill="#FEFEFE"/>
<path fill-rule="evenodd" clip-rule="evenodd" d="M145.2 102.467L144.5 103.433C143.933 103.067 143.1 102.6 142.567 102.133C141.3 101.033 141.733 100.6 141.9 99.8333C142.9 100.1 142.133 99.7333 142.833 100.2C143.9 100.9 143.533 101.267 144.333 102C144.4 102.033 144.467 102.1 144.533 102.133C144.867 102.367 144.633 102.267 145.2 102.467Z" fill="#FEFEFE"/>
<path fill-rule="evenodd" clip-rule="evenodd" d="M208.9 75.5C208.033 75.7333 208.533 75.3667 208.233 76.1667C207.367 75.6 208.167 73.4 207.867 72.2333C208.633 72.0667 208.3 72.0667 208.833 72.1C209.7 72.1667 208.733 74.2333 208.9 75.5Z" fill="#FEFEFE"/>
<path fill-rule="evenodd" clip-rule="evenodd" d="M274.7 176.467C274.633 176.067 275.033 175.167 272.4 175.167C271.733 175.167 271.833 175.267 271.4 175.433C271.6 176.033 270.5 176.5 274.7 176.5V176.467ZM299.467 98.0667V96.6333C299.4 96.3667 299.3 96.1667 299.1 96.1667L298.5 96.6C297.3 97.0333 297.1 96.8667 295.833 96.5667C294.633 96.5667 290.7 96.9 289.567 97.1667C288.867 96.6667 289.133 97.1333 288.9 96.1667H287.233C287.033 97.9333 287.667 96.7667 286.3 97.2L281.3 97.5V96.5H279.633C279.467 98.4 278.8 97.8333 276.667 97.8333C276.333 96.9667 276.667 97.3333 275.667 97.1667L272.267 97.7333C270.167 98.5667 270.2 98.4333 267.733 98.5333C267 99 267.8 98.6333 266.633 98.8667C267.1 97.8333 265.8 98.2667 267.733 98.2333L268.067 97.5C266.9 97.2333 266.9 97.1667 265.333 97.1667C264.9 97.8333 264.8 98.0667 264.433 98.8333C260.633 98.8333 255.567 100.067 249.9 100.2L249.233 100.167H247.9C247.967 102.9 248.8 101.533 250.867 101.5C251.5 104.133 249.6 103.167 252.833 105.833L253.767 106.533C253.833 106.567 253.9 106.633 253.933 106.7C254.833 107.6 254.2 107.6 254.967 108.633C255.867 109.833 255.567 108.333 256.267 110.3L257.467 115.033C258.133 118.067 258.633 118.633 258.767 122.667C258.8 123.9 259.133 126.967 259.433 127.933C259.833 129.2 263.167 133.733 264.167 135.1C265.333 136.667 266.5 136.3 267.7 137.5C270.333 140.067 269.3 149.133 269.3 153.733C269.3 161.567 269.633 169.033 269.633 177.2C276.367 177.2 275.333 179.433 275.5 175.133L275.767 141.7C275.633 139.933 276.1 138.6 275.567 136.267C274.767 136.7 274.8 136.5 274.5 137.233L274.4 137.6C274.167 138.1 274.433 137.833 273.9 138.2C273.833 138.267 273.067 138.533 272.9 138.6L273.267 140.567C271.9 140.2 272.267 140.333 272.267 138.6C269.6 138.833 271.833 139.033 271.367 140.267C272.1 141.1 271.833 140.567 272.3 141.7C271 142.6 271.9 142.4 271.033 142.333L270.867 140.267C270.367 138.933 270.7 138.1 269.433 136.833C269.4 136.8 269.3 136.733 269.267 136.667C265.7 133.167 268.067 136.5 265.6 133.4C263.733 131.067 265.133 131.6 263.333 130.4C262.333 129.733 261.367 127.8 261.2 126.533C261 125.067 261.333 125.8 261.1 124.633C260.1 120.133 261.067 121.4 260.2 118.333L259.833 116.967C259.233 115.333 258.467 115.167 260.967 114.7C262.633 114.4 272.567 114.167 274.567 115.133C273.367 117.367 274 117.467 274.2 119.833C274.333 121.4 273.967 121.067 274.033 122.367L273.9 124.4C274.133 125.467 274.5 125.433 274.433 126.333C274.333 127.733 273.033 130.533 275.233 131.333C275.667 129.533 275.9 122.8 275.8 120.6C275.667 117.567 275.333 118.367 275.1 115.9C274.933 114.2 275.133 115.367 275.433 113.667C275.633 112.533 275.667 112.333 274.6 112.233C270.833 111.833 270.1 114.033 265.067 111.4C261.833 109.7 260.867 108.333 260.533 109.333C260.133 110.533 260.233 108.767 261.233 111.233C261.433 111.733 261.167 111.433 261.867 111.567C261.9 111.567 262 111.6 262.033 111.6L263.333 113.167C259.867 113.167 260.067 114.7 259 113.3C258.267 112.3 259.267 113.6 258.733 112L258.033 109.867C259.467 110.4 258.4 110.433 259 110.2L259.367 108.9C258.2 109.367 256.9 109.167 256.4 107.233C263.7 107.233 259.267 106.967 261.933 108.3L272.2 108.167C274.6 107.867 275.9 106.933 275.233 109.867H276.233C276.267 108.533 276.4 108.633 276.9 107.9H278.567C278.8 108 279.067 110.967 278.833 111.167C279.8 112.4 279.7 112.2 280.2 110.867C281.233 108.5 279.433 107.533 282.5 107.533C288.833 107.467 293.333 106.9 299.4 106.9V103.267C296.867 103.267 295.233 103.6 293.133 103.6L257.1 105.567C253.033 105.567 254.6 104.8 252.133 104.233C252.133 102.667 252.2 102.767 252.467 101.6C254.067 101.633 253.833 102.067 255.633 101.8C256.933 101.633 257.633 101.567 259.1 101.6L269 100.933C271.033 101 269.8 101.367 271.6 100.9L296.567 99.2C297.233 99.2 296.867 99.2 297.3 99.2333C297.533 99.2333 297.8 99.3333 298.1 99.3C299.3 99.2333 298.733 99.6 299.233 98.8C299.3 98.7 299.333 98.4667 299.4 98.2L299.467 98.0667ZM272.2 170.9C273.1 173.633 272 173.7 273.367 173.6L273.6 172.333C273.633 171.7 273.567 171.733 273.733 171.167C273.6 170.133 273.867 170.8 273.467 170.133C272.067 170.333 272.9 169.933 272.2 170.9ZM274.4 156.6C274 156.367 271.333 155.533 271.167 156.933C271.067 157.667 271.433 157.133 271.267 158.167C271.067 159.333 271.233 158.567 271.333 159.933C272.733 160.033 273.833 160.867 274.333 159.533C274.833 158.2 274.1 158.167 273.733 157.9C275.067 156.433 274.367 156.667 274.367 156.6H274.4ZM273 153.733C273.133 153.567 273.8 154.1 273.3 153.067C272.933 152.3 273.6 152.967 272.667 152.633C272.9 153.6 272.633 152.933 273 153.733ZM272.567 151.8C272.433 151.7 271.867 151.033 271.8 150.967C271.233 150.4 271.6 150.7 271.033 150.333L271.067 153.133L272.567 151.8ZM273.433 151.1L273.333 148.4C273.233 147.833 273.167 147.867 273.033 147.633L272.633 147.967C272.6 148.033 272.4 148.267 272.333 148.333C271.533 149.133 272.433 148.667 271.333 148.933L272.3 150.133C273.067 151.133 272.133 150.5 273.433 151.1ZM271.067 145.4V147.5C273.367 146.967 272.433 145.967 271.067 145.4ZM273.4 145.8L273.333 142.633C271.667 142.567 273 143.167 271.367 143.633L271.933 144.533C273.233 146.233 271.567 145.333 273.4 145.767V145.8ZM274.633 143.767V145C274.633 145.033 274.667 145.133 274.7 145.2C274.9 144.933 275.067 145.333 275.267 143.967C275.467 142.567 275.3 144.133 275.167 142.733C275.033 141.2 275.367 140.433 274.667 139.367C274.2 141.733 274.667 141.9 274.667 143.767H274.633ZM276.333 97.5333L276.233 97.6333C276.233 97.6333 276.367 97.5667 276.333 97.5333Z" fill="#FEFEFE"/>
<path fill-rule="evenodd" clip-rule="evenodd" d="M211.267 168.867L211.167 168.767C211.167 168.767 211.3 168.833 211.267 168.867Z" fill="#FEFEFE"/>
<path fill-rule="evenodd" clip-rule="evenodd" d="M115.1 173.767C115.967 174.367 115.367 174.2 117.8 174.167C117.8 173.1 117.967 172.833 117.033 173.033C117.033 173.033 115.167 173.767 115.1 173.767ZM135.667 167.633L136.3 167.9C135.933 167.4 136.367 167.733 135.667 167.633ZM139.933 160.933C139.733 159.8 139.367 159.367 138.5 159.5L138.267 161.9C139.6 161.8 139.333 161.767 139.967 160.9L139.933 160.933ZM135.667 167.633C135.767 166.267 135.833 166.433 136.8 165.733C137.4 165.3 137.933 164.833 138.5 164.467C139.3 163.967 141.267 164.167 142.9 163.6C141.3 161.3 140.767 162.733 139.533 162.933L139.2 162.9C138.667 162.867 139.3 162.833 138.867 162.833C137.367 162.867 138 163.8 136.333 164.233L136.367 161.567C134.6 160.567 134.733 160.367 135 158.233C133.433 158.367 133.033 158.667 132.7 159.933C133.367 160.833 133.967 160.9 134.933 161.6C134.967 163.1 135.433 164.133 134.9 165.133C134.5 164.833 134.067 164.767 133.967 164.1C133.8 162.6 134.333 164.967 134.767 162.6C132.9 162.467 130.533 159.933 129 159.633C129.867 162.533 132.5 162.267 132.567 164.467L131.133 164.133C130.333 162.8 131.2 163.033 130.033 162.267C128.9 162.967 129.4 163.067 128.4 163.933C127.433 164.8 127.433 164.5 126.733 165.6C131.233 165.7 132.767 163.6 134.533 167.6L135.667 167.633ZM146.933 160.7C146.9 159.067 146.767 158.767 146.267 157.6L144.533 157.833C144.9 159.5 144.833 158.8 145.5 159.3C145.567 159.333 145.667 159.367 145.7 159.433L146.933 160.7ZM141.367 159.6L142.2 158.6C141.533 157.5 141.533 157.8 140.533 157.033C139.5 156.2 139.8 155.733 138.3 155.633C138.3 157.467 138.167 157.1 139.2 158.067C140.133 158.933 140.133 159.333 141.4 159.633L141.367 159.6ZM137.967 158.333C137.667 156.967 137.567 156.567 136.267 156.3C136.367 156.933 136.267 157 136.667 157.633C137.167 158.433 136.933 158.233 137.967 158.333ZM126.067 157.633C125.367 159.1 125.733 162.433 126.067 163.933L128.767 161.333C128.167 159.433 127.133 160.233 126.867 158.067C126.733 157.033 127.3 157.8 126.2 156.533C125.467 155.733 125.4 155.5 124.633 155.567C124.6 155.667 123.7 155.5 124.833 156.833C125.1 157.133 125.767 157.467 126.067 157.667V157.633ZM145.233 155C144.1 155.033 143.9 155.233 143.233 155.233C142.533 155.233 142.133 155 140.867 155C141 155.633 140.7 156.3 143.233 157.3C145.133 156.233 145.1 156.133 145.233 155ZM131.667 158.967C132.033 157.533 133.467 156.333 134.967 156C134.5 154.3 133.567 155 131.333 155.033C129 155.067 128.2 154.7 126.033 154.7V155.7C128.733 156.333 129.433 158.5 131.633 159L131.667 158.967ZM127.667 151C126.7 150.5 127.3 150.567 126.267 150.9C125.567 153.4 126.967 152.4 128.8 153.033C128.233 151.9 129.1 152.8 127.733 152L127.7 151H127.667ZM127.667 151C128.933 151.9 128.967 152.3 129.667 150.667L127.967 150.3C127.833 150.5 127.667 151 127.667 151ZM129.933 149.6C130.233 150.533 129.867 150.033 130.667 150.433C130.4 149.367 131.1 149.9 129.933 149.6ZM122.633 150.133C123.667 148.933 123.167 145.1 123.133 143.4C123.133 143.333 123.133 142.433 123.1 142.4C122.4 138.2 122.4 149.467 122.6 150.133H122.633ZM122.4 131.233C122.2 131.6 121.433 134.233 122.2 134.1C122.167 135.7 121.667 135.833 122.8 137.233C122.8 135.733 122.633 135.9 123.233 134.767C123.167 133.167 122.767 133.667 123.167 131.8C124.367 132.367 122.867 132.467 124.567 132.033L124 127.9C123.3 129.233 124.133 129.367 123.033 130.2L122.767 126.433C121.367 127.433 122.233 128.633 122.367 131.2L122.4 131.233ZM141.567 118.967C141.567 118.467 141.033 117.467 140.733 117.133C139.967 116.367 135.633 115.967 134.633 115.967L127.1 123.633C125.667 124.9 125.033 124.333 125.033 126.867C127.233 127.333 126.3 126.533 127.667 125.533C130.4 125.533 134.967 125.8 137.5 125.433C143.333 124.6 140.267 127.3 145.533 126.2C145.367 124.3 145.033 125.433 143.167 122.633C142.5 121.633 142.433 121.8 141.8 121C140.567 119.467 141.6 120.2 141.6 118.933L141.567 118.967ZM147.5 125.233L146.367 125.567L146.3 126.567C145.567 127.4 145.167 127.367 144.867 128.533C142.933 126.5 125.6 130.367 125.5 131.667C125.3 134.767 124.867 133.2 125.7 136.767C122.567 137.5 124.1 143.933 124.2 147.167C123.933 148.167 123.467 147.7 123.833 149.5C124 150.367 124.3 150.6 124.367 151.5C123.433 151.033 123.7 151.067 123.267 152.2C123 152.933 122.967 153.367 123 154.333C124.833 154.367 124.633 154.367 125.8 153.733C125.333 152.067 125.233 153.133 124.7 151.633L125.033 148.667C126.4 149.167 125.133 148.6 125.933 149.433C126.5 150.033 125.8 149.667 127.033 150.333L127.367 147.033C128.967 147.6 128.367 148.667 128.367 149.667L129.7 148.333C130.6 148.833 132.433 149.667 133.333 149.667V150.333C131.8 150.467 132.767 149.967 132 151C132.567 151.267 133.067 151.367 133.7 151.567C133.767 151.6 133.867 151.6 133.9 151.633L134.4 151.833C134.633 151.967 134.4 151.533 134.967 152.3C134.233 152.7 134.1 152.867 133.067 152.967C132.1 151.733 132.033 151.5 130.567 150.633L129.6 151.567C130.567 152.9 130.467 151.733 131.2 153.3H132.967C134.867 153.3 135.867 153.067 136.267 154.633C137.333 154.533 136.633 154.533 137.067 154.433L144.2 153.667V152.667C142.2 152.667 143.467 152.267 141.267 152.7C139.433 153.067 140.533 152.5 138.6 152.333L139.633 151.067C137.733 150.133 138.733 151.433 137.767 149.533C136.233 146.433 135.167 147.3 134.533 146.133C133.833 144.867 134.633 145.033 134.967 143.767H135.967C136.5 146.2 135.7 143.133 135.633 146.067C137.133 146.867 136.267 146.533 137.933 146.4C137.9 148.033 137.267 147.867 138.033 148.633C139.167 149.767 138.467 148.133 139.733 149.567C140.367 150.267 139.8 149.6 140.267 150.367C141.033 151.533 142.333 152.833 142.867 150.733H143.867C144.267 152.233 144.133 151.4 145.533 152.067C145.167 153.167 145.3 152.633 144.467 153.4L148.733 155.467C149.633 155.567 149.967 155.667 150.9 155.7C151.667 154.933 151.7 155.933 151.233 154.833L152.333 154.8C152.167 155.333 152.267 155.133 152.767 155.733C150.267 155.733 152.867 157.767 151.767 160.033C150.9 159.467 150.3 158.367 149.367 157.467C148.8 156.9 146.8 154.867 146.567 156.4C146.433 157.267 146.933 157.267 147.567 157.9C147.633 157.967 147.7 158 147.733 158.067C147.8 158.133 147.967 158.333 148.033 158.433C148.333 158.767 148.333 158.833 148.6 159.167C149.6 160.4 150.2 161.333 151.4 161.667C151.267 163.167 151.567 162.2 150.767 163L149.233 164.1C148.2 164.733 147.8 164.567 147.767 166.6C149.633 166.167 149.933 165 151.4 164.633C151.467 167.067 152.233 165.133 152.933 166.8C153 166.933 152.933 167.267 153.067 167.567L152.067 167.667L151.733 167.6H148.1C147.667 168.033 147.933 168.1 147.767 168.6L147.167 168.433C146.833 166.5 146.5 166.7 146.567 164.2C145.833 165.067 146.233 165.733 144.267 164.1C144.8 163.667 144.6 163.9 145.067 163.567L145.8 163C145.8 161.433 146.033 161.8 145.267 160.9C144.733 160.233 144.333 159.933 143.5 159.7C142.967 160.067 142.633 160.467 142.167 160.967C142.9 162.233 143.8 162.167 143.7 163.9L142.8 163.667C143.067 164.267 143.967 165.733 143.8 166.2C142.767 165.867 142.533 165.633 140.833 165.633C140.933 166.633 141 166.467 141.5 166.967H140.5L139.5 166.933C137.7 167 137.3 166.567 136.533 167.633C137.6 168.133 138.333 168 139.833 167.933H140.167L141.5 167.967C140.867 168.8 140.5 168.767 138.9 168.633C137.467 168.5 137.4 168.267 135.567 168.333H133.9L132.9 168.3C133.233 167.5 135.033 167.2 131.167 166.733C129.833 166.567 127.6 166.467 126.6 166.867C125.067 165.9 125.2 166 124.2 162.1L123.567 159.1C123.233 155.967 124.633 157.267 123.3 156.633C122.7 156.9 122.433 156.8 122.333 159.067C122.267 160.5 122.433 161.033 122.4 162.067C122.367 163.467 122.067 164.967 122.6 166.033C123.3 167.4 122.9 166.667 123.633 166.933C123.3 165.7 123.433 165.167 123.867 164.1C124.8 166.867 122.3 167.6 126.933 167.2C128 167.867 129 167.6 130.567 167.6V167.933C128.933 167.933 127.233 167.967 125.6 167.933C124.067 167.9 124.2 167.8 123.3 167.6L122.533 167.567C121.833 167.7 123.067 167.633 121.667 167.867L120.033 167.533C119.9 169.133 120.2 169.533 121.633 169.6C120.9 170.233 121.033 170.067 119.967 169.833C119.567 171.233 119.667 174.267 120.167 175.667C120.633 176.967 120.7 175.633 120.3 177.5C118.467 176.833 120.867 177.533 119.667 177C119.1 176.767 119.3 176.833 118.467 176.833C119.233 176.167 119.167 176.367 119.733 175.5C118.733 175.333 117.633 174.867 117.033 174.867C116.4 174.867 114.967 175.167 113.633 175.167L113.3 176.167C112.867 175.833 113.133 175.967 112.4 175.833C112.333 174.5 112.4 174.633 111.067 174.433L110.633 175.833C109.667 175.8 109.533 175.667 108.767 175.5C108.533 174.067 108.933 174.133 109.1 172.533L109.733 172.167L110.133 173.5C110.967 173.433 111.567 173.367 112.133 172.9C112.867 172.3 111.833 172.533 113.033 172.133C114.033 171.8 113.533 172.567 114.4 171.6L115.433 170.3C116.933 169.033 114.567 171.3 115.833 170.033C116.5 169.367 116.233 170.467 116.367 168.9C115.4 168.667 115.9 168.933 115.367 168.233C115.6 167.367 115.333 167.967 115.7 167.233H116.7C117.2 169.367 116.4 171.8 119 170.533C118.9 169.333 118.9 169.3 117.667 169.2C118.233 168.433 118.2 168.967 118.5 168.1C118.733 167.4 118.367 167.633 118.5 166.933C118.733 165.733 119.067 166.767 120.633 166.9V116.867L121.333 116.6C122.4 120 121.4 121.533 122.267 123.067C122.4 122.833 122.467 122.833 122.567 122.3L122.667 119.333C122.667 118.067 122.4 116.733 122.9 115.767C124.633 113.867 124.9 113.6 128.2 113.767C129.6 113.667 129.533 113.567 130.5 114.033C129.067 116.733 126 113.833 125.167 114.667C124.233 115.6 124.867 120.067 124.867 121.633C123.9 122.967 123.533 121.933 123.533 124.6C126.633 122.533 126.367 120 126.4 119.867C126.8 118.533 129.1 116.033 130.133 115.333L129.767 117.3C133.233 115.733 131.533 114.6 133.833 114.067C136.1 113.533 138.867 114.667 141.367 114.667C141.933 115.867 141.067 114.833 142.5 116.833C144.233 119.267 143.433 117.733 144.3 118.5C144.567 118.733 144.567 119.2 145 119.933C146.433 122.4 148.167 122.833 147.5 124.767C147.333 125.233 148.133 124.533 147.333 125.233H147.5Z" fill="#FEFEFE"/>
<path fill-rule="evenodd" clip-rule="evenodd" d="M215.2 148.367C214.767 154 216.233 150.667 215.233 153.633C214.733 155.067 215.2 164.033 215.2 164.1C215.2 164.167 215.133 164.367 215.133 164.433C215.067 166.133 217.7 166.633 213.6 166.5C213.133 166.467 207.4 167.533 206.767 167.667C206.7 167.7 206.6 167.733 206.533 167.733L205.767 167.9C204.2 168.433 200.533 168.533 199.033 168.167V169.5C202.4 169.5 199.733 169.9 203.267 169.733C203.767 169.7 204.967 169.833 205.667 169.833C207.567 169.8 206.5 169.567 207.967 169.9C210.4 170.5 209.667 169.133 211.733 169.767C214.667 170.633 215.833 169.8 216.567 170.167C216.7 170.633 217.033 170.1 215.967 170.867C214.6 171.867 214.233 171.267 212.6 171.167C210.533 171.033 208.433 171.333 206.4 171.067C204.367 170.8 202.833 170.6 200.967 170.7C199.967 170.767 195.933 170.533 195.033 170.167C195.833 169.533 195.9 169.733 196.8 169.7C198.667 169.567 198.2 169.7 198.7 168.533C198.033 168 198.767 168.267 197.733 168C196.733 167.767 196.333 168.233 194.6 167.733C191.933 166.967 192.267 167.2 190.767 167.5L190.1 166.233C196.867 166.167 195.867 166.8 204.633 166.2C206 166.1 206.367 165.967 207.933 165.867C209.267 165.767 210.033 165.433 211.333 165.4C213.667 165.367 213.567 166.933 213.533 160.567C213.533 157.333 213.8 156.433 213.867 153.967C213.9 152.767 213.867 151.533 213.8 150.367L214 139.533C214.267 137.6 213.7 135.533 215.167 134.467C215.767 136.967 215.6 135.167 215.333 137.333C214.733 141.933 215.467 144.2 215.133 148.333L215.2 148.367Z" fill="#FEFEFE"/>
<path fill-rule="evenodd" clip-rule="evenodd" d="M228.2 186.7C229.5 185.933 228.733 187.033 229.133 185.667C227.367 184.9 223.1 185.567 221.867 185.033C221.6 184.567 221.7 184.667 221.533 184.033C223.767 184.033 222.9 183.433 224.833 184.033C226.4 184.533 226.2 184.233 227.467 183.367L227.867 183.633C228.067 183.733 228.5 183.967 228.533 183.967C230.167 184.9 229 185.033 230.067 185.733C230.833 186.267 236.467 187.367 228.2 186.667V186.7Z" fill="#FEFEFE"/>
<path fill-rule="evenodd" clip-rule="evenodd" d="M140.5 177.8L140.533 178.8H139.267C139.267 176.967 139.233 177.4 138.467 176.967C137.9 176.667 137.733 176.667 137.267 176.467C137.2 176.533 137.1 176.5 137.067 176.6C136.967 177 136.3 176.5 135.967 178.1H134.1C134.2 178.033 134.367 177.867 134.4 177.833C134.433 177.8 134.533 177.7 134.567 177.633C134.6 177.6 134.7 177.5 134.767 177.433L135.333 176.433C133.6 176.3 134.733 176.733 134.333 175.767L139.933 175.433C139.567 176.967 139.333 176.8 140.5 177.733V177.8Z" fill="#FEFEFE"/>
<path fill-rule="evenodd" clip-rule="evenodd" d="M123.067 177.133H121.833L121.767 175.467L123.067 175.167C123 174.1 122.7 174.2 123.067 173.533L123.433 173.8C123.7 174.2 123.5 173.833 123.767 174.433L124.3 175.567L123.4 175.5C123.633 176.233 123.467 176 124.033 176.4C122.833 176.667 123.533 176.267 123.1 177.133H123.067Z" fill="#FEFEFE"/>
<path fill-rule="evenodd" clip-rule="evenodd" d="M146.533 99.8333C144.967 100.567 146.267 99.9667 144.567 99.5L144.933 98.2C144.933 98.2 145.9 98.8 145.9 98.8333C146.567 99.4 146.3 98.9 146.533 99.8333Z" fill="#FEFEFE"/>
<path fill-rule="evenodd" clip-rule="evenodd" d="M208.3 169.533L208.2 169.433C208.2 169.433 208.333 169.5 208.3 169.533Z" fill="#FEFEFE"/>
<path fill-rule="evenodd" clip-rule="evenodd" d="M156.1 176.733L155.333 178L154.767 176.767C151.867 177.867 154.133 176.1 151.367 177.033C152.4 180.5 152.633 177.1 154.333 179.467C154.4 179.4 154.5 179.233 154.567 179.3C154.6 179.367 154.733 179.167 154.8 179.133C155.233 178.867 154.833 179.033 155.467 178.8C155.533 178.9 155.667 179.133 155.7 179.167L156.167 179.767L157.2 178.467C156.833 177.867 156.1 176.933 156.133 176.7L156.1 176.733ZM156.067 153.667C156.633 153.533 157.533 153.533 156.867 152.867C156 152 156.167 153.1 156.067 153.667ZM157.1 149.7C157.1 148.2 157.233 148.333 156.8 147.4C153.767 149.367 157.1 151.967 157.1 149.7ZM152.067 151.467C152.9 150.967 153.567 149.867 154.1 149.033C153.7 147.5 153.067 147.1 151.733 147.067C152.067 150.467 151.467 148.733 152.033 151.467H152.067ZM156.2 146.5C155.567 145.5 155.633 145.367 154.767 144.767C154.033 145.3 153.9 145.667 153.433 146.433L154.7 148.133L156.233 146.5H156.2ZM157.067 145.4V142.433C156.4 142.567 156.6 142.433 156.133 142.8C155.3 143.467 155.2 144.133 155.9 144.933C156.567 145.667 155.467 145.233 157.067 145.4ZM154.1 143.733C153.7 142.7 153.7 142.533 152.767 142.067C152.067 142.5 151.8 142.933 151.767 144.067C151.733 144.867 151.933 146.067 152.033 146.4C153 145.8 153.4 145.067 154.067 143.733H154.1ZM154.133 138.1C149.733 137.833 152.367 139.2 151.767 141.1C154.267 141.133 153.333 141.7 154.733 142.733C155.9 142 156.367 141.467 155.833 140.367L155.067 139.433C153.8 140.1 154.5 140.433 153.2 140.633C153.367 138.933 153.933 139.933 154.133 138.067V138.1ZM157.067 140.1L157.1 138.133L155.433 138.333C155.733 139.533 156 139.867 157.1 140.1H157.067ZM160.333 104.533C161.8 105.167 161.6 104.967 162.033 103.7C160.967 102.733 160.6 103.6 160.333 104.533ZM179.967 90C179.9 88.6 179.367 87.0667 178.433 86.5H178.1C178.1 86.5333 178 86.9 178.033 87.1333C178.033 87.2333 178.133 87.5 178.167 87.6C178.9 89.7333 179.2 89.6667 179.967 90ZM181.5 89.9C181.733 91.5 181.967 93.5667 181.067 94.7333C179.4 93.7667 180.467 93.9333 180.5 90.4667C178.7 91.1333 182.467 89.5667 179.8 91.0333C179.3 91.3 179.433 91.1 178.4 90L178.067 89.6667C177.5 89.0667 177.133 88.4 177.067 87.4C177 85.8 177.3 87.5 177.567 85.5C176.933 84.9667 176.433 84.5667 175.567 84.2C174.5 85 175.167 84.6667 174.467 85.7667C173.833 84.2333 174.767 85.2667 173.6 84.5333C169.167 86.3333 168.967 89.9333 168.533 90.8333C167.833 91.0333 169.267 91.3333 168.233 90.5667C167.9 90.3 168.333 90.4333 167.633 90.1667C167.067 91.3667 166.467 93.4333 166.833 94.9333L166.967 95.4667C167.033 97.4 167.067 96.6333 166.3 97.7333C165.833 98.4 165.633 98.8 165.2 99.6C163.933 101.9 159.633 115.833 159.2 118.367C157.9 125.667 158.4 128.633 158.4 135.733L158.3 160C158.5 162.633 157.833 163.7 158.267 168.233C158.4 169.633 158.033 169.433 158.067 171.067L158.133 178.2C158.133 178.267 158.133 178.367 158.133 178.433C158.2 179.733 158.4 179.867 159.733 179.967H162.7L163.033 180.633C160.433 181.233 159.3 180.8 157 180.4L150.867 179.3C151.367 177.9 149.633 176.067 147.967 177.467C147.5 177.833 147.733 177.633 147.4 177.9C147.333 177.933 147.267 178 147.2 178.033L146.167 178.867L145.567 178.967C145.433 177.233 145.633 177.1 144.1 177L143.8 178.967C143.4 178.7 143.467 178.767 142.833 178.633C142.967 176.933 143.333 177.933 142.533 176.667C141.467 176.933 142 176.767 141.167 177.4C140.4 177.1 140.733 177.467 140.5 176.667C141.6 175.933 141.4 175.5 143.133 175.333C143.6 176.5 142.9 175.6 144.467 176.333C145.5 175.633 145.2 175.333 146.433 175C146.333 176.3 146.133 175.867 146.1 177.3C147.833 177.167 146.7 177.4 148.067 175.333C149.233 175.467 148.9 175.7 150.033 176.333C153.733 174.367 152.967 176.667 155.5 175.533C156.567 175.067 156.533 175.3 156.633 174C155.1 173.267 154.733 174.633 152.267 174.1C149.133 173.467 148.9 172.433 148.4 174.333C147.133 173.5 147.467 173.767 146.033 173.8C144.7 173.833 145.1 173.633 144.333 174.2C142.333 175.633 145.567 173.933 143.8 174.667C143.067 173.267 144.233 173.667 140.167 173.367L125.933 172.2C125.233 172.233 125.767 172.067 125.3 172.367C123.6 172.3 122.3 172.567 121.033 172.033C122.167 169.833 128.133 171.3 128.6 171.333C130.067 171.433 129.1 171.1 130.633 171.1C132.367 171.1 131.467 171.4 132.467 171.533C133.6 171.7 133.3 171.6 133.633 170.633C131.767 169.567 132.467 170.367 130.667 170.233C128.933 170.1 130.667 169.7 127.833 170.1C126.233 170.333 122.767 169.8 121.633 169.433L121.733 168.733C122.8 168.167 131.067 169.3 133.9 168.967L134.567 169.1L135.567 169.433C135.133 170.067 134.7 170.7 134.267 171.367C135.5 172.033 135.567 171.967 136.867 171.967C136.933 171.967 137.033 171.967 137.1 171.967C138.733 171.9 139.533 171.367 140.567 171.733C142.267 172.333 141.3 172.533 143.9 172.267C144.9 172.167 145.267 172.367 146.833 172.733C147.267 172.067 147.433 171.833 147.833 171.067L150 171.733C150.033 171.733 150.133 171.767 150.167 171.8C151.8 172.433 152.033 172.8 153.767 172.4C153.833 172.367 153.933 172.3 153.933 172.333C153.933 172.367 155.633 172.167 156.133 171.133C156.333 170.667 156.367 170.5 156.4 169.767L153.367 169.733C150.567 169.733 148.667 169 146.3 168.867L145.167 167.9C146.667 167.9 145.433 167.267 145.167 167.133V166.533C146.433 167.133 145.033 166.4 145.9 167.367C146.5 168.033 146.367 167.833 147.2 168.333L147.8 168.5C148.8 168.333 150.867 168.5 152 168.633L155.433 168.9C157.2 168.7 155.933 168.867 156.5 168.5C155.967 167.433 157.133 168.1 153.433 167.467C154.433 166.9 154.7 167.533 154.433 166.167C156.133 166.3 154.867 166.433 156.4 166.833V164.533C155.3 163.933 155.467 164.3 154.733 163.2L156.7 162.833C156.7 161.233 156.733 161.167 157.033 159.9C155.867 160.2 156.3 160.2 155.433 160.933C154.9 161.367 154.267 161.867 153.733 162.233C153.033 161.167 153.2 162 153.067 160.567C154.5 160.167 156.9 157.433 157.033 155.933C155.567 155.9 154.7 155.6 152.733 155.6C152.2 155.033 152.133 155.2 152.3 154.667C152.567 154.4 152.167 154.7 152.767 154.333C154.4 153.3 152.333 154.733 153.267 154.067C153.4 154.733 153.033 154.467 153.433 154.933L155.967 154.567C155.833 153.4 156.133 154.433 155.3 153.333C155.533 152.067 155.433 152.633 156.1 151.633C155.633 150.833 155.533 150.533 154.767 149.967L153.133 151.333C153.6 152.767 153.367 151.3 153.833 152.933C153.933 153.433 154 153.267 153.433 153.233L152.9 152.233C151.433 152.533 152.233 152.7 150.8 152.933C150.633 152.9 148.067 151.767 150.8 149.3L151.167 148.967C151.1 147.467 150.967 148.167 150.8 147.867C150.067 147 150 146.667 149.467 145.667C151.667 143.167 151.7 143.9 149.8 141.033C149.933 139.867 150.1 140 150.467 139C149.6 139.267 149.733 139.267 149.133 139.667L148.467 139.367C148.267 138.3 148.9 138.9 147.8 138.7C147.233 137.7 147.633 138.333 147.8 138.033C149.333 138.033 150.367 138.233 151.433 137.7C150.833 136.9 151 137 149.767 136.7C149.833 135.767 149.933 135.8 150.067 134.967C150.067 134.9 150.167 134.167 150.167 134.133C150.233 132.833 149.867 133.9 150 131.7L150.2 125.867C150.4 123.733 150.133 123.733 150.067 121.733L150.6 120.7L150.733 120.167C150.3 119.167 150.267 119.867 150.733 118.833H152.067V137.333C153.167 136.8 154.767 137 156.367 137C157.333 134.967 156.7 132.867 156.7 130.067C156.7 128.467 156.633 126.7 156.7 125.1C156.967 119.333 157.267 117.167 158.667 111.9L153.567 111.933C152.433 111.767 153.667 111.867 152.733 111.733C152.667 111.733 151.967 111.667 151.867 111.7C151.8 111.7 151.7 111.7 151.667 111.733L151.233 111.8C148.333 112.533 151.267 112.4 147.733 112.133C146.933 112.067 144.367 112.567 143.633 111.9C144 111.367 143.833 112.067 143.833 110.9C144.1 110.633 143.833 110.7 144.367 110.467C146.1 109.7 156.3 111 159.633 110.233V109.233H153.367C153.933 108.367 153.733 108.5 154.9 108.033C156.467 107.4 155.9 107.367 156 108.6C158.133 108.6 159.233 108.667 160.967 108.267C160.933 106.867 160.667 106.267 159.4 106.4L156.533 106.8C153.467 107.067 150.567 106.733 147.1 107.333C145.5 107.6 146.4 107.8 145.1 107.533C143.167 107.133 143.533 107.8 141.9 108C140.833 108.133 142.133 108.067 140.6 107.833L117.967 108.9C115.667 109.067 117.967 109.233 115.033 109.367L110.4 109.9C110.733 110.7 110.4 110.333 111.267 110.7C111.733 110.9 112.333 110.967 112.9 111.067L120.033 111.2C123.933 111.2 120.133 111.633 122.567 111.867C122.433 113.133 122.767 112.233 121.8 113.1C121.633 113.267 121.133 113.667 120.9 113.867C117.7 113.5 114.6 113.067 116.033 112.533C113.833 112.533 112.267 112.2 110.533 112.367C109.133 112.5 109.367 112.7 109.067 111.267C108.633 102 101.8 109.167 130.9 106.233C132.533 106.033 131.433 106.033 132.567 105.767C133.3 105.6 133.933 105.967 135.433 105.867C135.767 105.833 136.667 105.7 136.8 105.667C138.333 105.333 136.833 105.333 138.067 105.467C138.833 105.533 138.233 106.033 140.4 105.6C141.933 105.3 147.767 105.5 151.133 105.067C153.333 104.767 157.033 104.6 158.633 104.967C158.733 103.567 159.1 104.1 159.7 103.067C160.167 102.267 160.067 101.467 160.433 100.5L164.867 92.3667C165.4 91.5333 165.533 91.1333 166.033 90.2333C166.667 89.0667 166.933 89.2667 167.233 88.1333L167.9 87.8333L167.933 86.8333C168.767 86.1667 167.633 86.4667 168.433 85.7L169.367 85.0333C170.033 84.5 169.033 84.9 170.2 84.3C171.967 84.9667 171.4 83.8333 173.2 83.5667C175.6 83.2 174.367 84.2667 176.8 83.3667C177.767 84.2333 177.667 83.8333 178.633 84.4C179.133 84.6667 179.7 85.2333 180.067 85.6C180.967 86.6 181.3 88.1667 181.467 89.8333L181.5 89.9Z" fill="#FEFEFE"/>
<path fill-rule="evenodd" clip-rule="evenodd" d="M227.133 97.5333C230.3 97.2667 236.233 93.9667 238.033 91.2667L229.9 83.5333C228.967 82.7667 227.467 79.8333 227.467 82.6667C227.467 87.3333 228.167 93.1667 227.133 97.5333ZM225.8 84.6333C225.8 79.6333 223.333 83.4333 220.967 86.4333L216.4 92.4333C215.533 93.4667 215.567 92.9333 214.867 93.9C215.8 95.2667 215.567 94.6 217.133 95.3C219.4 96.3 219.733 97.4333 224.467 97.6C224.5 97.6 225.267 97.6333 225.267 97.6333C226.467 97.6 225.467 95.2333 225.467 91.3L225.8 84.7V84.6333ZM238.967 89.8333C240.767 89.8 241.6 88.1 241.767 86.1333C241.067 85.9 235.433 81.4667 234.8 80.9333C233 79.4 231.633 79 228.767 79.6667C229.067 80.8333 229.967 81.4667 230.833 82.2C232.533 83.6 233.567 85.0333 235.967 86.9667C236.967 87.7667 238.567 88.4333 238.933 89.8L238.967 89.8333ZM243.967 77.0667C242.7 77.0667 242.833 77.2667 241.733 77.4667C238.867 78.0333 237.367 78.9 234.167 77.9333C234.267 78.3 241.933 84.6 242.667 84.6333C243.033 83.8667 243.033 83.1667 243.333 82.3333C243.733 81.2333 244.633 77.0333 244 77.0333L243.967 77.0667ZM231.367 76.3333C231.133 76.4333 230.9 76.6 230.767 76.7333C230.3 77.2 230.667 76.7 230.333 77.4333L230.933 77.9C231.833 78.3 233.967 78.5 234.867 78.2333C234.767 78.1667 231.6 76.4333 231.4 76.3667L231.367 76.3333ZM241.833 75.2667C242.733 75.0333 244.167 75.0333 244.7 74.9333L244.9 74.8667L245.1 77.8C245.333 78.8333 244.967 77.9667 245.3 78.5667L245.967 79.2C247.533 78.5667 246.267 79.2 246.767 78.5L247.3 78.3667L247.533 79C247.633 80.5667 246.767 84.6667 246.033 86.3333C244.2 90.6 244.833 87.3 248.1 93.4C249.133 95.3 248.167 95.5333 250.6 99.1667C250.167 99.4 250.233 99.3333 249.6 99.5H249.267C248.367 99.1667 248.867 99.3 248.167 98.2667C247.9 97.8667 248.1 98.1333 247.733 97.7C247.667 97.6333 247.467 97.4667 247.433 97.4C246.567 96.2 248.067 96.7 245.167 92.0333C244.8 91.4 244.767 91.3333 244.6 90.6H243.6C243.167 92.2333 239.967 94.6667 238.8 95.8667C236.3 98.3667 234.833 98.7333 230.933 100.033C226.1 100.5 227.033 101.067 221.633 100.567C214.7 98.5667 213.167 96.4 210.467 93.3667C207.3 89.1 209.7 88.9667 209.167 83.5333L209 83.0333C208.7 82.2333 209 82.6 209 81.6667C209 80.7 209.3 80.8 209.933 80.3667L210.667 84.2C211.2 86.5 210.467 86.7667 211.567 88.8333C211.2 89.1 212.4 91.9667 213.6 92.6C214.1 92.2333 219.6 85.3333 219.867 84.3333L220.2 84.0333C221.067 83.4 222.367 81.6333 222.833 80.7C225.833 81.9 225.167 82.2667 227.867 79.8C228.767 78.9667 228.533 79.3667 229.433 78.8C229.5 76.9667 229.3 76.3 228.8 75.1C229.4 74.7667 228.9 75.1333 229.767 74.8L228.767 74.2333C229.8 73.8333 230.733 73.1 231.433 72.1333L234.1 68.8333C234.4 68.4333 235.1 67.3 235.6 67.5C235.467 68.7 234.3 69.6 233.267 71C232.333 72.2667 231.6 73.2333 230.767 74.4333C232.833 77.2333 238.9 76.0333 241.833 75.2667Z" fill="#FEFEFE"/>
<path fill-rule="evenodd" clip-rule="evenodd" d="M293.9 174.833C293.333 174.2 294.233 174.933 293.367 174.233C292 173.133 292.433 174 292.133 174.667L293.9 174.833ZM297.167 175.133C297.167 172.567 296.667 173.4 295.333 172C293.033 169.567 293.333 168.767 291.2 170.167C291.567 171.467 295 174.933 297.133 175.133H297.167ZM281.633 164.9L281.5 165.033L281.533 165C281.533 165 281.667 164.933 281.633 164.9ZM293.2 153.333C292.467 152.333 291.967 152.567 291.533 151.033C290.367 151.133 289.833 151.767 288.567 153.667C289.367 154.567 289.9 154.633 290.233 155.967C291.5 155.867 291.867 155.333 293.2 153.333ZM296.167 149.7C294.467 149.267 295.433 148.967 294.2 148.033C293.067 148.333 292.467 149.167 291.9 150C292.133 150.933 293.1 152.067 293.867 152.633C295.5 151.533 296 150.967 296.167 149.667V149.7ZM290.233 150.033L288 147.633L285.533 149.933C286.333 151.1 286.933 151.033 287.267 152.333C288.8 152.2 289.567 151 290.233 150.033ZM284 149.367L283.533 149.033L282.6 148.667V151.033C283.533 150.933 283.5 151.133 283.967 150.367C284.267 149.833 284.267 149.9 284 149.367ZM293.267 147.133C292.733 145.333 292 146.133 291.533 144.433C290.433 144.533 290.233 144.6 289.3 146.167C289 146.667 289.067 146.4 288.867 147.067L291.1 149.467L293.233 147.133H293.267ZM286.933 146.4C286.433 145.633 285.833 144.9 285.267 144.1L282.633 146.733C282.967 147.233 284.167 148.733 284.6 149.033C286.233 148.6 286.267 147.6 286.9 146.4H286.933ZM284.3 143.1C284.3 142.433 283.3 141.933 282.633 141.767V144.767C283.5 144.567 284.267 144.133 284.267 143.1H284.3ZM290.233 143.433C289.9 142.933 288.7 141.433 288.267 141.133C287.133 141.433 286.533 142.267 285.967 143.1C286.233 144.133 287.467 145.533 288.267 146.067C288.633 144.767 289.5 144.567 290.233 143.433ZM296.5 143.433L294.2 141.133C293.267 141.767 292.2 142.567 291.9 143.767C292.867 145.067 293.067 143.933 293.567 146.067C294.867 145.733 295.867 144.433 296.533 143.433H296.5ZM293.2 139.8C292.467 138.733 291.9 138.767 291.533 137.5C290.133 137.867 291 137.633 290.1 138.7C289.533 139.367 289.333 139.467 288.9 140.133C289.633 141.2 290.2 141.167 290.567 142.433C292.2 142.3 292.333 141.467 293.2 139.8ZM287.267 139.8L285.233 137.567L282.567 140.067C282.7 140.2 284.9 142.4 284.967 142.467C286.133 141.7 286.6 141.1 287.267 139.833V139.8ZM287.933 139.133C288.933 138.7 288.967 138.667 289.267 137.467L286.967 137.4C287.2 138.667 287.1 138.5 287.967 139.133H287.933ZM283.3 137.433C282.267 137.7 282.6 137.1 282.433 138.6L283.3 137.433ZM293.867 139.167C295.033 138.867 295.067 138.867 295.3 137.5H292.833L293.867 139.167ZM299.467 142.1C298.633 142.667 298.433 142.667 298.033 143.833L299.467 145.1V146.433L297.5 144.767C296.267 145.1 295.467 146.167 294.867 147.067C295.6 148.133 296.167 148.1 296.533 149.367H297.533C297.833 148.267 298.433 147.667 299.5 147.4V148.733L297.767 150.467L299.5 152.067V153.333C297.833 152.9 298.367 152.2 297.2 151.367C296.1 151.667 296.067 151.9 294.9 153.667C295.333 154.3 296.6 155.9 297.2 156.3C298.367 155.433 297.833 154.767 299.5 154.333C299.433 156.667 299.633 154.767 298.5 156.3L298.833 157.633C297.533 157.533 297.7 157.267 296.833 157.933C295.633 158.867 296.733 158.8 295.3 159.133L292.467 158.367C291.667 157.9 292.167 158.467 291.533 157.633C293.3 156.8 294.6 157.633 296.5 157.633V156.633C295.4 156.333 294.8 155.733 294.533 154.667C292.233 154.867 292.967 156.667 290.567 157.033C290.033 156.267 290.367 156.833 289.9 156.467C289.133 155.767 288.567 154.833 287.933 154.367L286.2 155.933C285.4 155.767 286 156.033 285.3 155.667C285.767 154.767 285.633 155.033 286.233 154.267C287.133 153.133 286.833 154.3 286.967 152.667C285.267 152.233 286.233 151.933 285 151C283.867 151.3 283.267 152.133 282.7 152.967C283.233 155.2 284.167 154.367 284.667 156.6C282.9 155.9 285.1 156.8 283.833 155.8C283.1 155.2 284.3 155.433 282.7 155.3C282.633 156.267 282.267 157.367 282.167 158.433C281.9 160.967 283.267 160.9 283.367 160.933V162.267C282.5 162.5 283 162.133 282.7 162.933C284.433 163.867 285.233 165.167 282.7 164.6C282.8 165.9 282.5 165.6 283.7 165.933V167.9H283C283.167 167.667 283.233 167.433 283.4 167.233C282.133 166.333 282.867 166.767 282.133 165.8C281.5 164.933 282.667 166 281.733 165.5C281.7 165.567 281.667 165.667 281.667 165.7V168.567C280.667 170.667 282.067 174.667 282.067 175.5C283.1 175.267 283.4 174.933 284.233 174.367C285.1 173.767 285.5 173.633 286.333 173.167V174.5C287.133 174.3 288.5 174.233 289.233 174.333C290.5 174.533 290.067 175.133 291.933 174.167C291.233 172.867 291.167 172 289.967 171.2C287.833 172.767 290.967 171.867 288.967 172.533L288.6 170.567C290.133 170.167 290.767 168.733 292.933 167.567C293.6 170.1 294.867 169.267 295.633 169.933C295.933 170.2 296.133 170.8 296.4 170.9C297.367 171.233 296.7 171.033 296.867 170.233C296.9 169.967 296.933 168.5 296.933 168.2C296.867 166.4 296.5 166.367 295.9 165.233L297.867 162.933C298.4 164.033 297.767 167.133 298.067 169.367L298.1 176.1C297.767 177.2 296.733 176.5 295.433 176.267L283.9 176.033C283.833 176.067 283.733 176.1 283.667 176.133C281.467 175.8 282.733 176.067 282.267 176.433C282.667 176.733 282.267 176.667 283.033 176.833C283.433 176.9 283.667 176.867 284.033 176.867C285.233 176.633 284.367 176.7 284.7 177.067C283.1 177.667 285.067 177.233 283.5 177.767C283.133 177.9 282.8 177.933 282.033 177.8C280.233 177.467 280.667 176.9 280.533 171.4C280.5 170.267 280.8 169.467 280.567 167.6C280.467 166.8 280.933 164.533 280.633 160.633C280.533 159.4 280.833 158.967 280.733 157.267C280.633 155.867 280.4 155.167 280.4 153.267H280.733C280.733 155.167 280.433 154.567 281.733 155.233C281.733 151.633 281.4 149.067 281.4 145.333C281.4 143.833 281.7 141.3 281.567 140.533C281.2 138.167 281.233 139.667 280.733 138.733L280.4 137.733C280.367 137.467 280.4 136.733 280.4 136.4C282.733 136.4 283.167 136.767 285 136.533L294.667 136.367C296.133 136.467 295.967 136.2 296.933 136.2C297.667 136.2 298.3 136.433 299.567 136.433V139.733C298.1 138.767 298.267 137.767 296.933 137.433C296.467 139.167 295.8 138.833 294.967 140.067C295.3 140.533 296.867 142.4 297.267 142.7L299.5 140.667L299.567 142.067L299.467 142.1Z" fill="#FEFEFE"/>
<path fill-rule="evenodd" clip-rule="evenodd" d="M247.867 159.4C246.167 159.233 242.933 158.967 241.533 159.567C242.333 160.833 243.167 161.067 246.3 160.3C248.933 159.667 248.3 160.733 249.633 159.933C249.367 159.767 249.8 159.533 247.867 159.367V159.4ZM251.233 161.3C253.433 161.167 254.467 158.067 251.833 157.633L252.533 158.9C251.267 160.3 250.667 159.4 251.267 161.267L251.233 161.3ZM239.967 157.867C241.4 158 239.667 158.167 240.4 157.567C239.933 157.233 239.833 157.4 239.367 157.567C240.033 158.133 239.033 157.767 239.967 157.867ZM246.633 153.333C246.367 154.3 246.067 156.3 245.967 157.3L250.6 157.367C250.967 158.1 250.167 157.967 251.667 158.267C251.333 156.767 251.267 156.567 251.267 154.633C250.667 153.333 251.133 148.067 251 147C250.267 142 252.9 143.1 247 143.1C246.567 144.733 246.4 143.3 246.333 145.4V150.367C246.3 151.767 246.633 152.033 246.667 153.333H246.633ZM244 143.1H240.7C240.233 145.167 240.333 147.833 240.367 150.4C240.4 155.533 240.033 154.267 240.033 157C243.833 157 245.3 158.4 244.967 155.433C244.833 154.133 244.367 154.333 244.833 152.567C245.5 150.167 244.633 151.9 244.633 150.4V145.767C244.633 144.4 245.633 143.133 243.967 143.133L244 143.1ZM252.233 140.833C249.633 140.667 247.333 140.767 244.967 140.467C243.167 140.233 243.167 140.833 241.733 140.733C240.333 140.633 239.967 139.633 239.4 141.467C240.967 142.2 249 141.8 251.967 141.767C252 144.267 252.333 143.6 252.967 143.8C252.9 142.6 252.733 141.767 252.267 140.833H252.233ZM252.6 137.8H251.267L250.6 138.8V137.467L245.633 138.433C244.2 139.167 245.033 138.467 244.667 139.467L252.6 140.133C252.3 138.733 252.567 139.567 252.6 137.833V137.8ZM240.267 139.9C242.433 139.667 242.9 139.2 243.467 138.033L240.633 138.1C240.6 139.033 240.5 139.267 240.267 139.9ZM254.267 141.767C254.567 143.1 254.933 144.4 255.267 145.733C253.9 146.633 253.933 146.133 253.3 147.067C253.6 148.2 254.433 148.8 255.267 149.367L254.267 155.3C252.967 155.4 253.267 155.1 252.933 156.3C255.1 156.8 254.9 156.5 254.9 159.267C254.9 163.667 253.3 163 251.933 162.567C247.033 161.067 247.267 161.267 244.333 163.233C241.3 162.433 243.033 161.267 237.733 161.267C237.5 160.1 237.667 160.3 237.733 158.633C237.767 157.667 237.967 156.133 237.9 155.7C237.9 155.7 236.6 153.033 238.4 150.367C237.2 148.567 237.4 150.267 237.4 145.733C237.4 144.9 238.233 144.5 238.733 143.767C238.467 142.7 238.2 142.7 237.967 141.9C237.567 140.5 238.067 141.4 238.067 139.167C238.067 137.6 237.433 137.833 237.067 136.533C237.967 135.933 237.733 135.9 238.767 136.1C241.167 136.567 243.067 136.6 244.967 136.333L251.6 136.2C253.233 136.167 253.133 135.9 254.567 135.867C254.9 136.533 255.167 138.133 255.3 139.133C255.633 141.233 255.333 140.167 254.233 141.8L254.267 141.767Z" fill="#FEFEFE"/>
<path fill-rule="evenodd" clip-rule="evenodd" d="M226.933 58.5333L227.833 74.1667L226.167 72.2333L225.1 58.9667C225.6 59.0333 226.933 58.3667 226.933 58.5V58.5333Z" fill="#FEFEFE"/>
<path fill-rule="evenodd" clip-rule="evenodd" d="M236.7 60.5333C236.134 60.1667 235.634 59.9333 235 59.6C232.1 57.9667 232 58.5667 227.433 58.5667C226.2 59.1333 225.233 59.0667 223.467 59.2333C223.2 59.6667 223.3 59.6 223.133 60.2333C221.933 59.6333 221.233 60.2333 220.167 60.8667L220.4 63.8667H219.2L218.867 61.9C217.867 62.1667 218.133 61.9 217.867 62.9C217.2 63.8 217.333 63.3667 216.467 64.1333C215.767 64.9 213.833 66.9333 213.233 67.5L213.167 67.8333C213.2 67.9 220.633 73.6 221.333 73.9333C221.833 74.2 221.9 74.1 222.233 74.3667C223.033 75 222.7 74.7667 222.8 76.1333L222.967 77C222.367 78.7667 221.633 77.3 222.733 80C220.733 80.2 218.633 80.5333 216.6 80.8C214.033 81.1333 210.8 80.8 212.6 83.4667L213 84.2667L212.367 85.1333C211.533 84.7 211.9 84.6 210.867 82.3667C209.933 80.4333 211.567 81.8667 209.7 79.1333C210.4 78.7667 210.067 77.7333 212.233 79.7333C213.7 79.4 215.767 79.1 217.2 78.8C218.567 78.5333 220.3 78.1 221.8 78.1C222.333 75.8 222.633 76.2333 218.933 73.6667C216.367 71.8667 215.767 70.8333 211.867 70.8333C210.9 72.8667 210.633 76 209.7 77.9C209.1 79.1667 209.533 78.3333 209.533 80.1C208.033 79.7667 208.467 79.9333 207.233 80.7667C207.5 83.7667 209.133 86.2333 206.7 90.8C206.167 91.8 204.867 93.7333 204.167 94.5667C203 95.9333 202 96.6 200.3 97.3C195.633 99.2333 193.167 97.3333 189.733 95.3C185.8 92.9333 189.067 92.3333 188.067 88.0667C189.933 87.6333 189.2 86.9333 189.733 87.4C190.733 89.5 189.3 92.9667 190.2 94.1667C191.467 95.8333 195.5 96.1 198.7 93.7333C201 92 201.133 91 201.867 89.9333C202.133 89.5333 202.1 89.6333 202.3 89.4C202.967 88.6667 203.867 88.1333 204.267 87.4C205.1 85.8 203.867 85.2333 205.6 84.7667C205.533 82.5 205.067 84.1333 204.933 81.8C204.733 78.5667 205.767 78.1333 203.7 75.7667C202.833 74.7667 202.9 74.6667 202.3 73.5333C203.633 73.6333 203.4 73.7333 204.233 74.6C207.867 78.2667 205.867 78.8667 207.6 80.1667C208.267 78.8 207.4 79.2 208.633 77.9L209.2 76.9667C209.7 75.3 209.3 75.4667 210 73.3333L212 68.3C214.133 63.5667 218.9 59.5333 224.333 58.2667C227.5 57.5333 229.134 57.3667 232.034 57.7333C233.434 57.9 237.334 59.8333 238.234 60.9667C237.367 60.9667 237.4 60.8667 236.634 60.7L236.7 60.5333Z" fill="#FEFEFE"/>
<path fill-rule="evenodd" clip-rule="evenodd" d="M204.6 89.7667L203.2 91.1333C202.567 91.7 203 91.2667 202.733 91.4667C201.467 92.3667 201.933 91.9333 200.467 92.6333C201.133 93.6 200.2 93.4667 201.5 93.5C201.333 94.1667 201.867 93.4333 200.967 94.4333L200.267 95.2333C202.267 94.8 202.733 94.2 203.467 92.3667C204.2 91.8333 203.733 92.1667 204.4 91.3C204.8 90.7667 204.933 90.6 205.333 89.9667C205.433 88.3333 205.433 89.8 204.9 89.1667L204.6 89.8V89.7667Z" fill="#FEFEFE"/>
<path fill-rule="evenodd" clip-rule="evenodd" d="M173.1 182.367C172.767 182.5 172.5 182.333 172.333 182.867C171.9 184.5 172.3 183.333 172.733 183.767L173.067 182.367H173.1ZM166.367 181.767C165 182 165.467 181.633 165.267 183.133C166.767 182.5 165.867 183.2 166.367 181.767ZM173.633 182.1C173.967 181 174.033 180.733 172.8 180.267C170.233 179.333 170.067 180.633 169.967 180.767C171.167 181.7 170.967 180.533 172.733 181.633C173.267 181.967 172.9 181.9 173.6 182.133L173.633 182.1ZM167.7 180.767C168.833 180.7 168.767 180.667 169.4 180.233L169 179.8C168.3 179.4 169.1 179.433 168.333 179.533C167.667 179.6 167.733 180 167.667 180.8L167.7 180.767ZM176.933 178.8C175.967 179.2 176.4 178.033 176.267 179.9C177.2 179.533 176.767 179.833 177.267 179.133L176.933 178.8ZM169.967 175.533C170.367 176.433 170.267 177.633 170.3 178.833C174.533 177 174 178.4 174.667 176.2L175.667 171.9C175.867 171.267 176.1 172.033 175.733 170.867C173.167 172.4 173.767 175.933 172.333 176.567C170.767 177.233 171.233 175.9 171.467 174.667C171.733 173.233 171.4 173.9 171.567 172.967C171.767 171.833 171.933 172.567 172.033 171.533C171.333 171.133 170.633 170.533 170.033 171.5C169.267 172.633 170.033 172.2 170.333 173.467C169.533 172.9 170 173.1 169.033 172.867C169.133 174.7 169.433 174.2 170.033 175.567L169.967 175.533ZM172.967 171.2V170.2H171.967V171.2H172.967ZM172.967 171.2L172.933 172.533C173.833 172.3 174.167 172.233 174.633 170.567C173.233 170.7 174.033 170.533 172.967 171.233V171.2ZM178.267 180.767C178.333 181.667 178.3 181.5 178.6 182.1C177.867 183.1 178.8 182.633 177.267 182.767C176.867 181.9 177.067 182.167 177.267 181.1C175.3 180.033 178.1 181.1 174.767 179.667L174.333 179.433C174.233 179.4 174.033 179.2 173.933 179.167C173.367 178.833 173.867 179.1 173.3 178.8C173.4 180.8 174.033 180.967 175.5 181.667L175.233 182.767L173.367 183.9C173.133 184.033 172.967 184.167 172.5 184.2C171.8 184.233 172.167 183.767 169.067 183.767C168.1 182.367 170.4 182.933 170.467 182.933C170.567 182.933 170.633 182.967 170.733 182.967L171.4 182.9C171.5 181.2 168.333 181.333 167.3 181.733L167 183.467C166.6 183.733 167.4 183.767 166.1 183.7C165.6 183.667 164.2 182.967 162.4 182.8L162.733 182.133C163.933 182.067 163.867 181.967 164.7 181.5L165.033 181.133C165.9 180.7 165.4 180.833 166.7 180.8C166.733 179.3 166.933 179.7 167.133 178.433C168.167 172.233 167.133 174.267 167.033 170.233C169.267 170.2 170.133 169.167 172.3 169.233L177.3 169.533C177.967 170.167 176.433 176.967 178.267 180.8V180.767Z" fill="#FEFEFE"/>
<path fill-rule="evenodd" clip-rule="evenodd" d="M169 99.8333C169.433 99.3 168.9 99.6333 169.667 99.7333L171.267 100.067C172.1 100.833 170.467 98.9667 171.6 100.6C172.467 101.8 171.9 101.333 172.9 101.633C178.2 103.233 179.867 100.233 180.7 99.7667C181.567 99.2667 181.633 100.933 182.133 99.6333C182.567 98.5333 182.233 99.4667 181.933 98.9333C181.333 97.8667 181.933 99.8 181.367 98.1667C181.433 98.1 181.5 98.0333 181.533 98C181.567 97.9667 181.667 97.8667 181.7 97.8333L182.267 97.4C184.4 95.8 183.233 92.1 182.9 89.6667C182.767 88.0333 181.667 87.1667 183.033 87.2C183.433 87.2 183.8 87.2667 184.1 87.4667C187.067 89.7333 187.233 99.0667 182.533 101.7C178.333 104.233 172 104.367 169.033 99.9L169 99.8333Z" fill="#FEFEFE"/>
<path fill-rule="evenodd" clip-rule="evenodd" d="M284.267 114.333C282.533 114.133 283 113.5 281.633 114.633C281.333 114.233 281.567 114.267 281.3 114.667C280.9 115.967 281.7 115.733 282.567 116.633C281.933 117.433 282.4 117.233 281.233 117.5C281.3 119.6 281.4 120.533 281.267 122.233C281.767 123.9 281.533 123.6 281.467 124.967C281.4 126.133 281.667 125.533 281.733 126.8C282.1 131.833 279.933 130.167 280.333 122.9L280.3 112.1C280.8 111.733 280.367 111.933 281.3 111.833L295.1 111.233C296.1 111.1 298.367 110.767 299.5 110.667V113.3C298.067 113.3 286.6 113.567 285.267 113.933L284.3 114.267L284.267 114.333Z" fill="#FEFEFE"/>
<path fill-rule="evenodd" clip-rule="evenodd" d="M177.467 165.3L177.767 164.167C177.667 163.767 177.533 163.367 177.467 163C176.567 160.2 177.133 158.967 176.867 156.167C176.5 152.767 176.167 142.4 178.4 142.067C179.167 144.133 178.567 152.433 178.567 155.333L177.9 168.867C177 166.4 176.9 168.7 177.467 165.3Z" fill="#FEFEFE"/>
<path fill-rule="evenodd" clip-rule="evenodd" d="M201.733 83.3L201.133 76.9C198.7 69.8 199 76.3333 197.367 73.5L197.4 72.4C203.433 73.8 204.7 80.8333 203.267 85.5333C202.8 87.0667 203.4 86.8 202.333 87.5667L201.7 83.2667L201.733 83.3Z" fill="#FEFEFE"/>
<path fill-rule="evenodd" clip-rule="evenodd" d="M282.967 169.867L282.633 169.3L283.3 169.2C283.367 169.167 283.467 169.033 283.5 169.1C283.533 169.167 283.667 169 283.7 169C285.067 168.4 284.333 169 285.267 168.967C286.633 168.933 286.433 167.633 286.6 166.933C287.6 167.167 287.867 167.433 288.567 167.933C287.633 169.333 285.867 170.1 284.5 171.467C280.967 175.1 282.3 171.067 282.933 169.9L282.967 169.867Z" fill="#FEFEFE"/>
<path fill-rule="evenodd" clip-rule="evenodd" d="M251.567 187.7L251.2 188.367C248.5 188.367 247.233 188.033 244.667 188.033C246.4 185.7 247.733 187.167 247.8 187.2C249.233 187.633 248.567 186.9 250.6 187.333L251.567 187.7Z" fill="#FEFEFE"/>
<path fill-rule="evenodd" clip-rule="evenodd" d="M278.333 189.233L274.7 189.333L274.767 188.333L274 189C272.467 189.4 273.533 189.233 273.033 189V187.667C274.533 187.7 274.033 187.867 275.4 188.1C275.6 186.833 275.367 187.633 275.767 187.7C276.433 187.833 278.567 188.967 278.333 189.2V189.233Z" fill="#FEFEFE"/>
<path fill-rule="evenodd" clip-rule="evenodd" d="M153.133 97.8667C151.667 97.8667 151.6 97.7 150.8 97.2333C149.733 96.6333 149.533 96.8667 149.5 95.2333C151.033 96.2667 152.6 95.8333 153.133 97.8667Z" fill="#FEFEFE"/>
<path fill-rule="evenodd" clip-rule="evenodd" d="M254.767 188.367V188.7C253.567 188.6 254.033 188.4 252.567 188.367C252.267 188 252.433 188.067 251.967 187.7C254.567 187.7 253.967 187.433 254.233 187.333C254.3 187.3 254.333 186.633 254.933 187.267C255.567 187.967 255.1 187.833 254.733 188.333L254.767 188.367Z" fill="#FEFEFE"/>
<path fill-rule="evenodd" clip-rule="evenodd" d="M133.333 177.133L133.233 177.8H131.4V177.467L132.1 176.367C132.433 175.833 131.933 176.067 132.667 175.8C133.067 176.833 131.933 176.267 133.667 176.467L133.333 177.133Z" fill="#FEFEFE"/>
<path fill-rule="evenodd" clip-rule="evenodd" d="M187.7 182.733C187.5 182.733 187 182.767 186.833 182.7C186.2 182.533 186.5 182.6 186.2 182.4C186.367 181.267 186.433 181.4 187.5 181.133L187.7 182.733Z" fill="#FEFEFE"/>
<path fill-rule="evenodd" clip-rule="evenodd" d="M183.467 75.7333L181.833 77.0667L181.867 76.3667H181.233C182.267 75.5333 182.133 75.5333 183.533 75.0667L183.467 75.7333Z" fill="#FEFEFE"/>
<path fill-rule="evenodd" clip-rule="evenodd" d="M274.667 93.3333C275.267 95.1667 275.4 93.2667 275 95.2H273.667C273.167 93.0667 272.167 93.7333 271.133 92.1333C270.8 91.6333 270.667 91.3333 270.367 90.9H271C271.6 91.8 270.967 91.0667 271.733 91.4C272.233 91.6 272.167 91.5333 272.6 91.9333C273.467 92.7 273.5 92.9333 274.633 93.3333H274.667Z" fill="#FEFEFE"/>
<path fill-rule="evenodd" clip-rule="evenodd" d="M265.767 90.5667C261.533 91.6667 257.533 92.7667 253.067 94.0667C251.167 94.6 250.333 93.4 253.133 92.4C254.067 92.0667 262.267 90.5 265.3 89.6333C266.267 89.3667 265.767 90.0667 265.767 90.5667Z" fill="#FEFEFE"/>
<path fill-rule="evenodd" clip-rule="evenodd" d="M284.267 94.2L283.567 95.1667C283 94.8 282.167 94.3333 281.633 93.8667C280.367 92.7667 280.8 92.3333 280.967 91.5667C281.967 91.8333 281.2 91.4667 281.9 91.9333C282.967 92.6333 282.6 93 283.4 93.7333C283.467 93.7667 283.533 93.8333 283.6 93.8667C283.933 94.1 283.7 94 284.267 94.2Z" fill="#FEFEFE"/>
<path fill-rule="evenodd" clip-rule="evenodd" d="M285.6 91.5667C284.033 92.3 285.333 91.7 283.633 91.2333L284 89.9333C284 89.9333 284.967 90.5333 284.967 90.5667C285.633 91.1333 285.367 90.6333 285.6 91.5667Z" fill="#FEFEFE"/>
<path fill-rule="evenodd" clip-rule="evenodd" d="M292.2 89.5667C290.733 89.5667 290.667 89.4 289.867 88.9333C288.8 88.3333 288.6 88.5667 288.567 86.9333C290.1 87.9667 291.667 87.5333 292.2 89.5667Z" fill="#FEFEFE"/>
<path d="M17.3333 35.2333V43.4333H18.9666V40.1333H20.2666C21.7666 40.1333 22.4333 38.8 22.4333 37.6667C22.4333 36.5333 21.7666 35.2333 20.2666 35.2333H17.3333ZM18.9666 36.7333H19.5333C20.4333 36.7333 20.7333 37 20.7333 37.6667C20.7333 38.2667 20.4666 38.6333 19.6999 38.6333H18.9333V36.7333H18.9666ZM37.2333 41.9333H34.0333V39.9667H37.0333V38.4667H34.0333V36.7333H37.1666V35.2333H32.3666V43.4333H37.2333V41.9333ZM53.3999 40.9333C52.4666 41.5 51.8666 41.8333 51.0332 41.8333C49.6666 41.8333 48.6999 40.8 48.6999 39.3333C48.6999 37.8667 49.6999 36.8333 51.0666 36.8333C51.8666 36.8333 52.5999 37.1667 53.3332 37.6667V35.8333C52.6999 35.3667 51.8666 35.1 50.9666 35.1C48.4333 35.1 46.9999 37.1333 46.9999 39.3333C46.9999 41.4333 48.2666 43.5333 50.8332 43.5333C51.7999 43.5333 52.4999 43.3 53.4332 42.7V40.9L53.3999 40.9333ZM69.4332 35.2333H63.0332V36.7333H65.3999V43.4333H67.0332V36.7333H69.3999V35.2333H69.4332ZM86.4666 39.3333C86.4666 37.3667 85.1999 35.1333 82.6999 35.1333C80.2332 35.1333 78.9332 37.3667 78.9332 39.3333C78.9332 41.4333 80.2999 43.5333 82.6999 43.5333C85.0666 43.5333 86.4666 41.4333 86.4666 39.3333ZM84.7666 39.3333C84.7666 40.8333 83.9332 41.8333 82.6999 41.8333C81.4332 41.8333 80.5999 40.8333 80.5999 39.3333C80.5999 37.8333 81.4332 36.8333 82.6999 36.8333C83.9332 36.8333 84.7666 37.8333 84.7666 39.3333ZM96.4999 35.2333V43.4333H98.1332V40.1333H99.4332C100.933 40.1333 101.6 38.8 101.6 37.6667C101.6 36.5333 100.933 35.2333 99.4332 35.2333H96.4999ZM98.1332 36.7333H98.6999C99.5999 36.7333 99.8999 37 99.8999 37.6667C99.8999 38.2667 99.6332 38.6333 98.8666 38.6333H98.0999V36.7333H98.1332ZM115.4 35.2333H113.5L110.833 43.4333H112.567L113.067 41.8H116L116.533 43.4333H118.3L115.367 35.2333H115.4ZM115.533 40.3667H113.5L114.467 37.1667L115.533 40.3667ZM134.433 35.2333H132.8V38.5333H129.533V35.2333H127.9V43.4333H129.533V40.1H132.8V43.4333H134.433V35.2333Z" fill="#FEFEFE"/>
<path d="M54.8333 55.0333L42.9333 66.7L49.1667 72.7667C50.2333 73.8333 51 74.3333 51.4333 74.3333C51.8333 74.3333 52.5333 73.8333 53.5 72.9L53.9333 73.2667C53.4 73.9 52.2333 75.0667 50.4 76.7333C48.4333 74.8 45.4667 71.9 41.5333 68.0667C38.5 71.0667 36.4333 72.9667 35.3333 73.7333C32.8 75.6 30.2 76.5 27.6 76.5C24.6667 76.5 22.2333 75.5 20.3333 73.5333C18.4333 71.5667 17.4667 69.1 17.4667 66.1333C17.4667 63.3 18.4333 61.0333 20.4 59.3333C22.2667 57.7333 24.6333 56.9333 27.5 56.9333C31.1 56.9333 34.8333 58.8333 38.7333 62.6333C39.6 59.9667 40.0333 58.2 40.0333 57.3333C40.0333 56.9667 39.8667 56.7667 39.5 56.7667C39.2 56.7667 38.6333 56.9333 37.8 57.3L37.5667 56.7667C38.5667 56.3333 40.2667 55.4667 42.6667 54.2C41.9667 56.9 41.5667 58.5 41.4333 58.9667C40.9 60.7667 40.3667 62.3333 39.7667 63.5667L42.5333 66.2667C43.7333 65.1667 46.8 62.0333 51.8 56.9333C51.2 56.9 50.0667 56.9 48.3333 56.9C47.5667 56.9 47 57.1333 46.6667 57.6C46.5333 57.8 46.3 58.3667 45.9667 59.3667H45.3C45.8667 57.8333 46.3333 56.4 46.6667 55.0667C50.4333 55.1333 53.1667 55.1333 54.8667 55.0667L54.8333 55.0333ZM41.1 67.6667L38.7333 65.3667C37.9 66.9 36.9333 68.2 35.7333 69.2333C34.3 70.5 32.8667 71.1333 31.3667 71.1333C30.7 71.1333 30.1333 71 29.6333 70.7C29.0333 70.3667 28.7333 69.9 28.7333 69.3C28.7333 68.9667 28.8667 68.5667 29.1 68.0667C29.3333 69.5 30.2333 70.2333 31.8667 70.2333C34.3667 70.2333 36.3667 68.3667 37.9333 64.6333C35.7333 62.5 34 61 32.7 60.1333C30.5 58.6667 28.4 57.9333 26.3333 57.9333C24 57.9333 22.0667 58.6333 20.5 60C18.9 61.4333 18.1 63.3 18.1 65.6333C18.1 68.3667 19.2 70.6667 21.4 72.5C23.4667 74.2333 25.9 75.1 28.7 75.1C31.0667 75.1 33.3667 74.3 35.5667 72.7333C36.6333 71.9667 38.4667 70.3 41.0333 67.7333L41.1 67.6667ZM68.9667 63.9C68.9667 64.1333 68.8 64.5333 68.5 65.1C67.7667 64.9667 67.0333 64.9 66.2667 64.9C64.2333 64.9 62.3333 65.4667 60.5333 66.6C58.8 67.7 57.4333 69.1333 56.4333 70.9667C55.8667 72.0333 55.5667 73.0667 55.5667 74.0333C55.5667 74.9 55.8667 75.3667 56.5 75.3667C57.0333 75.3667 57.7667 74.9 58.7667 74C61.3 71.7 62.9 68.9333 63.6333 65.6667C64.1 65.9333 64.3 66.4333 64.3 67.1333C64.3 68.1667 63.7667 69.3667 62.7667 70.6667C63.2667 70.6333 63.8667 70.5 64.6333 70.2333C63.5667 72.6667 63.0333 74.0667 63.0333 74.4333C63.0333 74.7333 63.1667 74.8667 63.4667 74.8667C63.6667 74.8667 64.1333 74.6667 64.8667 74.2333L65.1333 74.6333C64.0333 75.4667 62.5333 76.1333 60.6 76.6V76.5C60.6 75.6667 61.2 73.8667 62.4667 71.1C61.4333 72.3333 60.3 73.4667 59 74.5C57.2667 75.9333 55.9 76.6333 54.8667 76.6333C54.1333 76.6333 53.7667 76.1667 53.7667 75.2333C53.7667 73.0667 54.9 70.8667 57.2 68.6333C59.8 66.0667 62.7667 64.4333 66.0667 63.8C66.9667 63.6333 67.7667 63.5333 68.4333 63.5333C68.7667 63.5333 68.9667 63.6667 68.9667 63.9ZM80.1333 61.2C80.1333 63.9 79.2333 66.5667 77.4667 69.2C75.9333 71.5 73.9 73.5333 71.4333 75.2667C69.9667 76.3 68.7667 76.8333 67.9 76.8333C67.4 76.8333 67 76.6667 66.7 76.3333C66.4 76 66.2667 75.5667 66.2667 75.0667C66.2667 72.9 67.2667 70.7333 69.2333 68.5667C70.9333 66.7333 72.9 65.3 75.1667 64.2667C76.4 63.7333 77.3 63.4333 77.9 63.4333C78.0667 63.4333 78.1667 63.5 78.1667 63.6333C78.1667 63.9333 77.8333 64.2333 77.2 64.5667C76.7 64.8 76.2333 64.9667 75.7667 65.0667C73.8 65.4667 72.1 66.5667 70.7333 68.3333C69.1333 70.4 68.3333 72.2667 68.3333 73.9667C68.3333 74.8 68.7 75.2 69.4 75.2C70.4667 75.2 71.7 74.5667 73.1333 73.3C74.6 71.9667 75.8333 70.3667 76.8333 68.4333C77.8667 66.4 78.4 64.4333 78.4 62.6C78.4 61 78 59.6333 77.2333 58.4667C76.3333 57.1333 75.1333 56.4667 73.6333 56.4667C72.7667 56.4667 72.0333 56.7 71.4 57.2C70.7333 57.7333 70.4333 58.4333 70.4333 59.3C70.4333 59.6667 70.5667 60.2 70.8 60.9333C69.9 60.9667 69.4667 60.5667 69.4667 59.7C69.4667 58.5667 70.1333 57.5 71.4667 56.4667C72.7 55.5 73.9333 55.0333 75.1 55.0333C76.7 55.0333 77.9667 55.6667 78.9 56.9667C79.7667 58.1333 80.2 59.5333 80.2 61.1667L80.1333 61.2ZM91.6 63.4C90.1 66.2667 88.8667 69.0667 87.9 71.8333C86.7667 75 85.9667 77.1667 85.4333 78.2667C84.2333 80.7667 82.9 82.5667 81.3667 83.6667C79.7333 84.8667 78.1333 85.4667 76.5667 85.4667C76.0333 85.4667 75.5667 85.3333 75.1667 85.1C74.7 84.8333 74.5 84.4333 74.5 83.9C74.5 83.6333 74.5667 83.4 74.6667 83.1C75.6 83.8667 76.6667 84.2667 77.8 84.2667C79.1667 84.2667 80.3333 83.8 81.2333 82.8667C81.8333 82.2667 82.5 81.1667 83.2333 79.6C83.6667 78.7 84.1667 77.3 84.7333 75.4667C85.3 73.5667 85.8 72.1667 86.2 71.3333C83.2667 74.9667 80.9667 76.7667 79.2667 76.7667C78.5667 76.7667 78.2 76.3667 78.2 75.5333C78.2 74.5333 78.8667 72.7 80.2 70C81.5333 67.3333 82.2 65.8 82.2 65.4C82.2 65.0333 82 64.8667 81.6333 64.8667C81.4333 64.8667 81.1333 64.9333 80.7 65.0667L80.5667 64.5667C82.3333 64.0333 83.7 63.5667 84.6667 63.1333C84.6333 64.3 83.8667 66.3333 82.3667 69.2333C80.8667 72.1333 80.1333 73.9 80.1333 74.5667C80.1333 75.0333 80.3333 75.2333 80.7667 75.2333C81.8 75.2333 83.2667 74.0333 85.1333 71.6667C86.8333 69.5333 88.2667 67 89.4 64.0333C90.0333 63.9667 90.8 63.7667 91.6333 63.4333L91.6 63.4ZM108.4 63.3333C107.767 64.7 106.967 66.5667 106.033 68.9C104.867 71.8333 104.267 73.5333 104.267 74.0333C104.267 74.3667 104.4 74.5667 104.7 74.5667C104.933 74.5667 105.233 74.4667 105.667 74.2667L105.867 74.7667C104.967 75.1333 103.667 75.8333 102 76.9C101.967 76.7333 101.967 76.5333 101.967 76.3333C101.967 75.4 102.5 73.6 103.6 70.9C100.667 74.6333 98.4 76.5333 96.8 76.5333C96.3333 76.5333 96.1 76.2667 96.1 75.7667C96.1 75 96.6333 73.3333 97.7 70.7C96.7333 71.9667 95.6333 73.1333 94.4333 74.2333C92.7667 75.7333 91.4667 76.5 90.5 76.5C90.0667 76.5 89.8667 76.3 89.8667 75.8667C89.8667 75.5 90.5333 73.8667 91.9 70.9667C93.2667 68.0667 93.9333 66.3 93.9333 65.6333C93.9333 65.3667 93.8 65.2333 93.5333 65.2333C93.3333 65.2333 92.9667 65.3667 92.5 65.6667L92.2333 65.2667C93.4 64.4333 94.7333 63.8 96.2 63.3333C96.1667 64.7667 95.5333 66.9667 94.2667 69.9333C93 72.9 92.3667 74.3667 92.3667 74.3333C92.3667 74.5333 92.4667 74.6333 92.7 74.6333C92.9 74.6333 93.3 74.3667 93.9667 73.8667C96.7333 71.7333 98.8 68.5 100.2 64.2333C100.8 64.0667 101.533 63.8 102.433 63.3667C99.8667 69.7 98.5667 73.3 98.5667 74.2C98.5667 74.5 98.7 74.6667 99 74.6667C99.5333 74.6667 100.367 74 101.467 72.6667C103.333 70.4333 104.933 67.6 106.333 64.1667C106.8 64 107.533 63.7333 108.433 63.4L108.4 63.3333ZM121.2 64.3667C121.2 64.9 120.567 65.4333 119.267 65.9667L119.033 65.7C119.033 65.6 119.033 65.4667 119.033 65.3667C119.033 64.8 118.733 64.5333 118.1 64.5333C117.2 64.5333 116.133 65.0333 114.833 66C113.767 66.8333 112.9 67.7 112.233 68.6333H112.433C112.867 68.6 113.4 68.7333 114.067 69.0333C114.733 69.3333 115.233 69.6333 115.5 69.9667C115.733 70.2333 115.833 70.7333 115.833 71.5333C115.8 71.5667 115.8 71.6 115.767 71.6667L115.633 72.1C115.467 72.6667 115.267 73.3333 115.067 74.1333C115 74.3667 114.967 74.5667 114.967 74.7C114.967 75.3333 115.233 75.6333 115.767 75.6333C116.333 75.6333 116.867 75.2 117.367 74.3333C117.733 73.7 118.033 73.0333 118.233 72.2667C118.433 72.6 118.533 72.9 118.533 73.2C118.533 73.9667 118.067 74.7667 117.133 75.6C116.2 76.4333 115.333 76.8333 114.533 76.8333C113.533 76.8333 113.033 76.3 113.033 75.2333C113.033 74.7667 113.233 74.0667 113.633 73.1333C114.033 72.2 114.233 71.5333 114.233 71.1667C114.233 70 113.433 69.4 111.8 69.4C111.7 69.4 111.533 69.4 111.333 69.4333C110.633 71.1667 109.767 73.3667 108.733 76.1C108.267 76.2 107.533 76.4333 106.6 76.7667C107.267 75.3667 108.067 73.4667 109.033 71.0667C110.233 68.1 110.8 66.3 110.8 65.7C110.8 65.3 110.6 65.1 110.233 65.1C110.1 65.1 109.767 65.1667 109.3 65.3333L109.167 64.8667C110.333 64.4667 111.667 63.8333 113.233 62.9667C113.067 64.4667 112.633 66.2 111.833 68.1667C112.9 66.9 114.067 65.8667 115.333 65.0333C116.833 64.0667 118.3 63.6 119.7 63.6C120.7 63.6 121.167 63.8667 121.167 64.4333L121.2 64.3667ZM134.333 63.9C134.333 64.1333 134.167 64.5333 133.867 65.1C133.133 64.9667 132.4 64.9 131.633 64.9C129.6 64.9 127.7 65.4667 125.9 66.6C124.167 67.7 122.8 69.1333 121.8 70.9667C121.233 72.0333 120.933 73.0667 120.933 74.0333C120.933 74.9 121.233 75.3667 121.867 75.3667C122.4 75.3667 123.133 74.9 124.133 74C126.667 71.7 128.267 68.9333 129 65.6667C129.467 65.9333 129.667 66.4333 129.667 67.1333C129.667 68.1667 129.133 69.3667 128.133 70.6667C128.633 70.6333 129.233 70.5 130 70.2333C128.933 72.6667 128.4 74.0667 128.4 74.4333C128.4 74.7333 128.533 74.8667 128.833 74.8667C129.033 74.8667 129.5 74.6667 130.233 74.2333L130.5 74.6333C129.4 75.4667 127.9 76.1333 125.967 76.6V76.5C125.967 75.6667 126.567 73.8667 127.833 71.1C126.8 72.3333 125.667 73.4667 124.367 74.5C122.633 75.9333 121.267 76.6333 120.233 76.6333C119.5 76.6333 119.133 76.1667 119.133 75.2333C119.133 73.0667 120.267 70.8667 122.567 68.6333C125.167 66.0667 128.133 64.4333 131.433 63.8C132.333 63.6333 133.133 63.5333 133.8 63.5333C134.133 63.5333 134.333 63.6667 134.333 63.9Z" fill="#FEFEFE"/>
<path d="M199.233 25.9667C199.233 26.6 199.033 27.1 198.6 27.5C198.133 27.9333 197.5 28.1667 196.7 28.1667H194.667V21.2667H198.867V22.4667H196.033V23.8H196.733C197.533 23.8 198.167 24 198.6 24.4C199.033 24.8 199.267 25.3333 199.267 26L199.233 25.9667ZM197.867 25.9667C197.867 25.2667 197.467 24.9333 196.667 24.9333H196.033V27.0333H196.667C197.1 27.0333 197.4 26.9333 197.6 26.7667C197.767 26.6 197.867 26.3333 197.867 25.9667ZM207.433 24.7333C207.433 25.7667 207.067 26.6333 206.367 27.3333C205.667 28.0333 204.8 28.3667 203.767 28.3667C202.733 28.3667 201.867 28.0333 201.167 27.3333C200.467 26.6333 200.1 25.7667 200.1 24.7333C200.1 23.7 200.467 22.8333 201.167 22.1333C201.867 21.4333 202.733 21.1 203.767 21.1C204.8 21.1 205.667 21.4333 206.367 22.1333C207.067 22.8333 207.433 23.7 207.433 24.7333ZM206 24.7333C206 24 205.8 23.4333 205.4 23C205 22.5667 204.467 22.3333 203.8 22.3333C203.133 22.3333 202.6 22.5667 202.2 23C201.8 23.4333 201.6 24.0333 201.6 24.7333C201.6 25.4667 201.8 26.0333 202.2 26.4667C202.6 26.9 203.133 27.1333 203.8 27.1333C204.467 27.1333 205 26.9 205.4 26.4667C205.8 26.0333 206 25.4333 206 24.7333ZM214.3 28.1667H212.933V25.0667H210V28.1667H208.633V21.2667H210V23.9H212.933V21.2667H214.3V28.1667ZM221.267 21.2667L218.133 28.1667H216.767L217.667 26.2L215.067 21.3H216.5L218.3 24.7667L219.867 21.3H221.233L221.267 21.2667ZM227.167 27.9333C226.6 28.2 225.967 28.3667 225.2 28.3667C224.133 28.3667 223.233 28 222.567 27.3C221.9 26.6 221.567 25.7333 221.567 24.7C221.567 23.7 221.9 22.8667 222.567 22.1667C223.267 21.4333 224.167 21.0667 225.233 21.0667C226 21.0667 226.633 21.2 227.167 21.4667V22.9333C226.533 22.5 225.9 22.3 225.233 22.3C224.633 22.3 224.1 22.5333 223.667 23C223.233 23.4667 223 24.0333 223 24.7333C223 25.4333 223.2 26.0333 223.633 26.4667C224.033 26.9333 224.6 27.1333 225.233 27.1333C225.867 27.1333 226.5 26.9 227.167 26.4667V27.9333ZM233.967 28.1333H232.6V25.0333H229.667V28.1333H228.3V21.2333H229.667V23.8667H232.6V21.2333H233.967V28.1333ZM241.967 28.1333H240.567L239.9 26.6H237.2L236.533 28.1333H235.133L238.567 20.9L242 28.1333H241.967ZM239.4 25.5L238.533 23.5333L237.667 25.5H239.4ZM248.067 28.1333H246.733V25.3667H246.267L244.6 28.1333H243.067L244.933 25.2667C244.467 25.1667 244.067 24.9333 243.8 24.6333C243.5 24.3 243.333 23.8667 243.333 23.3667C243.333 22.7 243.567 22.2 244 21.8C244.467 21.4333 245.1 21.2333 245.9 21.2333H248.033V28.1333H248.067ZM246.733 24.2333V22.3667H245.933C245.133 22.3667 244.733 22.6667 244.733 23.3C244.733 23.6333 244.8 23.8333 244.967 24C245.133 24.1667 245.433 24.2333 245.9 24.2333H246.767H246.733ZM257.567 28.1333H255.9L253.367 24.7V28.1333H252.033V21.2333H253.367V24.1L255.833 21.2333H257.4L254.567 24.4L257.6 28.1333H257.567ZM265.567 28.1333H264.167L263.5 26.6H260.8L260.133 28.1333H258.733L262.167 20.9L265.6 28.1333H265.567ZM263 25.5L262.133 23.5333L261.267 25.5H263ZM271.233 23.3C271.233 23.9 271.067 24.3667 270.7 24.7333C270.3 25.1333 269.7 25.3333 268.9 25.3333H268.067V28.1H266.733V21.2H268.867C269.633 21.2 270.233 21.4 270.667 21.7667C271.067 22.1333 271.267 22.6333 271.267 23.2667L271.233 23.3ZM269.867 23.3C269.867 23 269.8 22.7667 269.667 22.6333C269.5 22.4667 269.2 22.3667 268.8 22.3667H268.067V24.2333H268.767C269.2 24.2333 269.5 24.1667 269.667 24C269.8 23.8667 269.867 23.6333 269.867 23.3ZM277 22.4333H275.3V28.1333H273.933V22.4333H272.233V21.2333H276.967V22.4333H277ZM283.733 28.1333H282.333L281.667 26.6H278.967L278.3 28.1333H276.9L280.333 20.9L283.767 28.1333H283.733ZM281.167 25.5L280.3 23.5333L279.433 25.5H281.167Z" fill="#FEFEFE"/>
<path d="M24.5333 163.2C24.5333 161.833 24.6667 160.767 24.9333 159.933C25.2 159.1 25.5667 158.467 26.0667 158.033C26.5667 157.6 27.2 157.367 27.9667 157.367C28.5333 157.367 29.0333 157.5 29.4667 157.733C29.9 157.967 30.2333 158.333 30.5333 158.8C30.8 159.267 31.0333 159.833 31.2 160.5C31.3667 161.167 31.4333 162.067 31.4333 163.2C31.4333 164.533 31.3 165.633 31.0667 166.433C30.8 167.267 30.4333 167.9 29.9333 168.333C29.4333 168.767 28.8 169 28.0333 169C27.0333 169 26.2333 168.6 25.6333 167.8C24.9333 166.867 24.6 165.3 24.6 163.167L24.5333 163.2ZM25.8667 163.2C25.8667 165.067 26.0667 166.333 26.4667 166.933C26.8667 167.567 27.3667 167.867 27.9667 167.867C28.5667 167.867 29.0667 167.567 29.4667 166.933C29.8667 166.3 30.0667 165.067 30.0667 163.2C30.0667 161.333 29.8667 160.067 29.4667 159.467C29.0667 158.833 28.5667 158.533 27.9667 158.533C27.3667 158.533 26.9 158.8 26.5333 159.367C26.1 160.067 25.8667 161.333 25.8667 163.233V163.2ZM32.7 163.2C32.7 161.833 32.8333 160.767 33.1 159.933C33.3667 159.1 33.7333 158.467 34.2333 158.033C34.7333 157.6 35.3667 157.367 36.1333 157.367C36.7 157.367 37.2 157.5 37.6333 157.733C38.0667 157.967 38.4 158.333 38.7 158.8C38.9667 159.267 39.2 159.833 39.3667 160.5C39.5333 161.167 39.6 162.067 39.6 163.2C39.6 164.533 39.4667 165.633 39.2333 166.433C38.9667 167.267 38.6 167.9 38.1 168.333C37.6 168.767 36.9667 169 36.2 169C35.2 169 34.4 168.6 33.8 167.8C33.1 166.867 32.7667 165.3 32.7667 163.167L32.7 163.2ZM34.0333 163.2C34.0333 165.067 34.2333 166.333 34.6333 166.933C35.0333 167.567 35.5333 167.867 36.1333 167.867C36.7333 167.867 37.2333 167.567 37.6333 166.933C38.0333 166.3 38.2333 165.067 38.2333 163.2C38.2333 161.333 38.0333 160.067 37.6333 159.467C37.2333 158.833 36.7333 158.533 36.1333 158.533C35.5333 158.533 35.0667 158.8 34.7 159.367C34.2667 160.067 34.0333 161.333 34.0333 163.233V163.2ZM40.8667 163.2C40.8667 161.833 41 160.767 41.2667 159.933C41.5333 159.1 41.9 158.467 42.4 158.033C42.9 157.6 43.5333 157.367 44.3 157.367C44.8667 157.367 45.3667 157.5 45.8 157.733C46.2333 157.967 46.5667 158.333 46.8667 158.8C47.1333 159.267 47.3667 159.833 47.5333 160.5C47.7 161.167 47.7667 162.067 47.7667 163.2C47.7667 164.533 47.6333 165.633 47.4 166.433C47.1333 167.267 46.7667 167.9 46.2667 168.333C45.7667 168.767 45.1333 169 44.3667 169C43.3667 169 42.5667 168.6 41.9667 167.8C41.2667 166.867 40.9333 165.3 40.9333 163.167L40.8667 163.2ZM42.2 163.2C42.2 165.067 42.4 166.333 42.8 166.933C43.2 167.567 43.7 167.867 44.3 167.867C44.9 167.867 45.4 167.567 45.8 166.933C46.2 166.3 46.4 165.067 46.4 163.2C46.4 161.333 46.2 160.067 45.8 159.467C45.4 158.833 44.9 158.533 44.3 158.533C43.7 158.533 43.2333 158.8 42.8667 159.367C42.4333 160.067 42.2 161.333 42.2 163.233V163.2ZM53.9 168.833H52.6V159.9C52.3 160.233 51.8667 160.533 51.3667 160.867C50.8667 161.2 50.4 161.433 50 161.6V160.233C50.7333 159.867 51.3667 159.4 51.9 158.9C52.4333 158.367 52.8333 157.867 53.0333 157.367H53.8667V168.833H53.9Z" fill="#C5C6C6"/>
<path d="M138.833 25.8667H0" stroke="#FEFEFE" stroke-width="0.2"/>
<path d="M138.833 87.4667H0" stroke="#FEFEFE" stroke-width="0.2"/>
</g>
<defs>
<clipPath id="clip0">
<rect width="300" height="191.667" rx="12" fill="white"/>
</clipPath>
</defs>
</svg>
