<svg width="300" height="192" viewBox="0 0 300 192" fill="none" xmlns="http://www.w3.org/2000/svg">
<g clip-path="url(#clip0)">
<path d="M300 0H0V191.667H300V0Z" fill="#2B2A29"/>
<path d="M154.333 86.7666C154.367 86.6999 154.433 86.6333 154.5 86.5666C155.167 85.8333 156.067 85.1999 157.167 84.6666C158.3 84.0999 159.6 83.6666 161.067 83.3333C162.533 82.9999 164.033 82.8333 165.533 82.7999C167.1 82.7666 168.367 82.8999 169.3 83.1666C170.267 83.4333 170.733 83.7666 170.733 84.2333C170.733 84.7333 170.167 85.1999 168.967 85.6666C167.767 86.1333 166.433 86.5333 164.867 86.8666C163.367 87.1666 161.567 87.5333 159.5 87.8999C159.833 88.4999 160.5 88.8999 161.4 89.1666C162.333 89.4333 163.467 89.4999 164.833 89.3666C165.733 89.2999 166.6 89.1666 167.367 88.9666C168.133 88.7666 168.833 88.5666 169.5 88.2999C169.8 88.1999 170.2 88.0333 170.767 87.8333C171.3 87.6333 171.933 87.3666 172.667 87.0999C172.667 87.4333 172.667 87.7666 172.667 88.0999C171.767 88.4666 171 88.7666 170.333 88.9999C169.633 89.2666 168.967 89.4999 168.3 89.7333C167.133 90.1333 166 90.4333 164.8 90.6999C163.6 90.9666 162.4 91.1333 161.167 91.2333C158.867 91.4333 157 91.3333 155.567 90.8666C154.133 90.3999 153.433 89.6666 153.433 88.7333C153.433 88.5999 153.433 88.4999 153.467 88.3666C152.567 88.7666 147.833 90.5333 147.167 90.8333C146.5 91.1333 145.833 91.4333 145.167 91.6666C144 92.1333 142.833 92.4999 141.667 92.7666C140.5 93.0333 139.267 93.2333 138.033 93.3666C135.733 93.5666 133.867 93.3999 132.433 92.8333C131 92.2666 130.3 91.3999 130.3 90.2666C128.667 91.2999 123 93.3333 121.233 94.0666C119.467 94.7999 117.9 95.2333 116.5 95.3666C115.867 95.4333 115 95.3666 113.867 95.2333C113.7 95.7333 113.533 96.2666 113.367 96.7666C113.233 97.1999 113.1 97.6333 112.967 98.0666C112.8 98.5999 112.667 99.1333 112.5 99.6999C112.333 100.433 112.133 101.167 111.967 101.9C110.533 102.2 108.4 102.667 105.6 103.333C105.867 102 106.233 100.467 106.733 98.7666C107.2 97.0666 107.767 95.1666 108.433 93.0999C108.1 92.6666 107.767 92.2666 107.433 91.8333C107.1 92.0666 97.4999 95.7999 96.4999 96.2666C94.6999 97.0999 93.1332 97.5666 91.7332 97.6999C91.0999 97.7666 90.2332 97.6999 89.0999 97.4999C88.9332 98.0999 88.7666 98.6666 88.5999 99.2666C88.4666 99.7666 88.3332 100.267 88.2332 100.767C88.0666 101.4 87.9332 102 87.7666 102.633C87.5999 103.467 87.3999 104.3 87.2332 105.133C85.7999 105.433 83.6666 105.933 80.8666 106.633C81.1332 105.1 81.4999 103.367 81.9999 101.4C82.4666 99.4333 83.0332 97.2999 83.6999 94.8999C83.3666 94.3999 83.0332 93.9333 82.6999 93.4333C82.3332 93.5999 77.1332 96.1333 72.4332 96.7333C72.0999 96.7666 71.7666 96.7666 71.5332 96.7666C71.2666 96.7666 70.9666 96.7333 70.6332 96.6666C70.0999 96.5666 69.4666 96.3666 68.7999 96.0666C67.6332 97.3666 66.3332 98.4333 64.8666 99.1999C64.1666 99.5666 63.4332 99.8666 62.6999 100.1C61.9332 100.333 61.1666 100.467 60.3666 100.567C59.0999 100.7 57.9332 100.567 56.9332 100.167C55.9332 99.7666 55.1332 99.1666 54.5666 98.2999C53.9999 97.4333 53.7332 96.4333 53.7332 95.2999C53.7332 94.3666 53.8999 93.4666 54.1999 92.5999C54.4999 91.7666 54.9666 90.8999 55.6332 90.0999C56.8999 88.4999 58.5999 87.2333 60.7332 86.2666C62.8999 85.2999 65.2332 84.8333 67.7332 84.7666C69.1666 84.7333 70.1999 84.8333 70.8666 85.0333C71.5332 85.2333 71.9666 85.4666 72.0999 85.7333C72.2666 85.9999 72.3666 86.3666 72.3666 86.7999C72.3666 88.8999 71.4999 91.5333 69.7332 94.7333C70.1666 94.9666 70.5999 95.1333 71.0666 95.2333C71.5332 95.3333 71.9999 95.4333 72.4999 95.3333C75.6666 94.6999 82.3999 91.8333 85.2332 89.8666C85.6999 88.4666 86.1666 87.0999 86.6332 85.6999C86.7999 85.2333 86.9999 84.7999 87.1666 84.4333C87.3332 84.0666 87.5999 83.5333 87.9332 82.8999C88.2666 82.2666 88.5666 81.6999 88.8666 81.1999C89.1666 80.6999 89.4332 80.2666 89.6999 79.8666C90.2999 78.9999 90.7666 78.3333 91.1666 77.8333C91.5666 77.3333 91.8666 76.9999 92.0332 76.8333C92.1999 76.6666 93.3666 76.4333 95.5332 76.1333C96.5999 75.9999 97.3999 75.8999 97.9999 75.8333C98.5666 75.7666 98.9666 75.7333 99.0999 75.7333C99.7666 75.7333 100.267 75.9999 100.7 76.4999C101.1 76.9999 101.3 77.6333 101.3 78.3999C101.3 79.9999 100.567 81.3999 99.0999 82.6666C97.5999 83.9333 95.3332 85.4666 92.2666 87.2999C91.5666 89.4666 90.8332 91.6333 90.1332 93.7999C90.9666 94.8333 92.1999 95.2666 93.8999 95.1333C95.0999 95.0333 96.3332 94.6999 97.5999 94.1333C100.933 92.5999 107.167 90.4666 110.033 88.6999C110.5 87.4999 110.967 86.2666 111.433 85.0666C111.6 84.6666 111.767 84.2999 111.933 83.9666C112.1 83.6333 112.367 83.1999 112.7 82.6333C113.033 82.0999 113.333 81.5999 113.633 81.1666C113.9 80.7333 114.2 80.3666 114.467 79.9999C115.033 79.2666 115.533 78.6666 115.933 78.2333C116.367 77.7999 116.633 77.4999 116.833 77.3666C117 77.2333 118.167 77.0333 120.333 76.7666C121.4 76.6333 122.233 76.5666 122.8 76.4999C123.367 76.4333 123.733 76.3999 123.9 76.3999C124.567 76.3999 125.067 76.6333 125.5 77.0666C125.9 77.4999 126.1 78.0333 126.1 78.6999C126.1 80.0666 125.333 81.2666 123.867 82.3666C122.4 83.4666 120.133 84.7999 117.067 86.3999C116.367 88.2666 115.633 90.1666 114.933 92.0666C115.767 92.9333 117 93.2999 118.7 93.1666C119.9 93.0666 121.133 92.7666 122.4 92.2666C123.667 91.7666 129.333 89.6333 130.767 88.6666C130.967 88.3333 131.167 88.0666 131.367 87.7999C132.033 86.9333 132.933 86.1999 134.067 85.5666C135.2 84.9333 136.5 84.3999 137.967 83.9999C139.433 83.5999 140.933 83.3999 142.433 83.3666C144 83.3333 145.233 83.4999 146.2 83.7999C147.167 84.1333 147.667 84.5666 147.667 85.0999C147.667 85.6999 147.067 86.2666 145.9 86.7999C144.733 87.3333 143.333 87.7999 141.8 88.1999C140.3 88.5666 138.533 88.9666 136.433 89.3666C136.767 90.0666 137.4 90.5999 138.333 90.8999C139.267 91.2333 140.4 91.2999 141.8 91.1999C142.7 91.1333 143.567 90.9666 144.333 90.7666C145.133 90.5333 145.833 90.2999 146.5 89.9999C146.8 89.8666 147.2 89.6999 147.733 89.4333C148.3 89.1666 153.667 87.1666 154.367 86.8333L154.4 86.7999L154.333 86.7666ZM159.367 87.2333C161.5 86.8999 163.1 86.4666 164.2 85.9999C165.333 85.5333 165.867 84.9999 165.867 84.4333C165.867 84.1666 165.7 83.9333 165.367 83.7999C165.033 83.6666 164.6 83.5999 164.067 83.5999C163.4 83.6333 162.7 83.7666 161.967 84.0666C161.233 84.3666 160.6 84.7666 160.1 85.3333C159.567 85.8999 159.333 86.5333 159.333 87.2666L159.367 87.2333ZM136.2 88.5333C138.333 88.1333 139.933 87.6666 141.033 87.0999C142.167 86.5333 142.7 85.9333 142.7 85.1999C142.7 84.8666 142.533 84.5999 142.2 84.4333C141.867 84.2666 141.467 84.1666 140.9 84.1999C140.233 84.2333 139.533 84.3999 138.8 84.7333C138.067 85.0666 137.433 85.5666 136.933 86.2333C136.4 86.8999 136.167 87.6666 136.167 88.5333H136.2ZM117.833 84.4999C119.733 83.5999 121.267 82.6333 122.433 81.6333C123.6 80.5999 124.2 79.6999 124.2 78.8666C124.2 78.5333 124.067 78.2333 123.8 77.9999C123.533 77.7666 123.2 77.6333 122.833 77.6333C122.333 77.6333 121.8 77.8333 121.3 78.2666C121.1 78.4333 120.9 78.6666 120.667 78.9666C120.433 79.2666 120.167 79.5999 119.967 79.9666C119.533 80.6666 119.133 81.4333 118.8 82.1999C118.533 82.8333 118.4 83.2333 118.333 83.3666C118.2 83.6666 118.033 84.0333 117.833 84.5333V84.4999ZM93.0666 85.0999C94.9666 84.0666 96.4999 82.9666 97.6666 81.7666C98.8332 80.5666 99.4332 79.5333 99.4332 78.5333C99.4332 78.1333 99.2999 77.7999 99.0332 77.5333C98.7666 77.2666 98.4332 77.0999 98.0666 77.0999C97.5666 77.0999 97.0666 77.3333 96.5666 77.8333C96.3666 78.0333 96.1666 78.3333 95.9332 78.6666C95.6999 79.0333 95.4332 79.3999 95.1999 79.7999C94.7666 80.6333 94.3999 81.4999 94.0666 82.3999C93.7999 83.1666 93.6666 83.5999 93.5999 83.7333C93.4666 84.0666 93.2999 84.4999 93.0999 85.0666L93.0666 85.0999ZM67.2999 95.0666C65.6999 93.7999 64.8999 92.3666 64.8999 90.7666C64.8999 89.7666 65.1666 88.8999 65.7332 88.1333C66.2999 87.3666 67.1999 86.5999 68.4666 85.8333C68.1999 85.7666 67.8332 85.7333 67.3666 85.7666C65.7332 85.7999 64.3666 86.2666 63.3332 87.1333C62.2666 88.0333 61.5332 89.0999 61.0332 90.3666C60.5666 91.6333 60.2999 92.8666 60.2999 94.0666C60.2999 95.2999 60.5999 96.2333 61.1332 96.8333C61.6999 97.4333 62.4332 97.6999 63.3666 97.6333C64.5332 97.5333 65.8332 96.6666 67.2999 95.0333V95.0666ZM54.0999 92.5666C54.0999 93.2999 54.0999 93.9999 54.0999 94.6999C52.2999 96.1333 46.1332 99.4666 43.9666 100.567C41.7666 101.667 38.8999 102.4 35.3332 102.733C32.5999 102.967 30.1999 102.733 28.0999 102C25.9999 101.233 24.3666 100.033 23.1666 98.4333C21.9666 96.7999 21.3666 94.8999 21.3666 92.6999C21.3666 90.0999 21.8999 87.6333 23.0666 85.2666C23.6332 84.0666 24.2999 82.9999 25.0666 81.9666C25.8332 80.9666 26.6666 79.9999 27.6332 79.1333C29.4999 77.4333 31.5666 76.1333 33.8666 75.2333C36.1332 74.3333 38.3999 73.9333 40.5666 73.9999C42.1999 74.0333 43.6332 74.3333 44.8999 74.8666C46.1666 75.3999 47.1666 76.0999 47.8666 77.0333C48.5666 77.9666 48.9332 78.9666 48.9332 80.0999C48.9332 81.5666 48.4999 82.9333 47.6666 84.2333C46.7999 85.5333 45.6666 86.5999 44.1999 87.4333C42.7332 88.2666 41.1999 88.7333 39.5332 88.7999C38.2332 88.8333 37.1666 88.6333 36.2999 88.1333C35.4332 87.6333 34.9999 86.9666 34.9999 86.1333C34.9999 85.4333 35.3666 84.7666 36.0999 84.1333C36.6332 84.8666 37.3999 85.2333 38.3666 85.2333C38.8332 85.2333 39.2666 85.1333 39.6666 84.9999C40.0666 84.8666 40.5332 84.5999 40.9999 84.2666C41.8666 83.6666 42.5666 82.8666 43.0999 81.8999C43.6332 80.9333 43.8999 79.9666 43.8999 78.9999C43.8999 77.9333 43.5999 77.0666 42.9332 76.4333C42.2999 75.7999 41.3999 75.4666 40.2999 75.4333C39.0999 75.3999 37.7999 75.8333 36.4666 76.7333C35.1332 77.6333 33.8666 78.8333 32.6999 80.3666C32.1666 81.0666 31.6666 81.8666 31.1999 82.7333C30.7332 83.5999 30.3332 84.4999 29.9666 85.4666C29.6332 86.4333 29.3666 87.3333 29.1999 88.1999C29.0332 89.0666 28.9332 89.9333 28.9332 90.7999C28.9332 93.6666 29.9332 95.9333 31.9332 97.5999C33.9332 99.2666 36.4999 99.9333 39.6666 99.6999C41.5666 99.5333 43.2999 99.0999 44.8666 98.2999C46.3999 97.5333 52.2999 94.2333 54.0999 92.5999V92.5666Z" fill="#FEFEFE"/>
<path d="M198.7 88.3667L205.667 98.6333H207.6V102.867H196.433L196.4 98.6333H198.233L193.933 92.2333L191.633 94.2333V98.6667H193.733V102.867H182.667V98.6667H185.167V83.2667H182.667V79.1333H193.9V83.2667H191.633V88.9333L198.1 83.2667H196.267V79.1333H206.9V83.2667H204.7L198.7 88.3667ZM210.633 102.867V98.6667H213.1V83.3H210.633V79.0667H222.167V83.3H219.767V98.6667H222.167V102.867H210.633ZM244.867 93.7667V83.3H242.567V79.1H253.333V83.3H251.033V102.867H244.533L239.067 94.4333L236.133 89.8333L234.633 87.4C234.6 87.4 234.6 87.4 234.6 87.4333C234.6 87.4333 234.6 87.4667 234.567 87.4667V98.7667H236.9V102.933H226.067V98.7667H228.467V83.3667H226.1V79.1667H235.567C236.267 80.3 236.933 81.3667 237.567 82.3667C238.2 83.3667 238.833 84.3667 239.433 85.3333C240.067 86.3 240.667 87.3 241.3 88.3C241.933 89.3 242.567 90.3333 243.233 91.4667C243.5 91.8667 243.733 92.2667 243.967 92.6667C244.2 93.0667 244.467 93.4667 244.7 93.9H244.867V93.7667ZM269.333 78.5333C270.567 78.5333 271.8 78.6333 273.033 78.8C274.267 78.9667 275.367 79.2 276.367 79.5V86.9333H271.8V83.7C271.467 83.6333 271.133 83.5667 270.733 83.5333C270.333 83.5 269.967 83.4667 269.633 83.4667C268.567 83.4667 267.633 83.6333 266.867 84C266.1 84.3667 265.5 84.8333 265 85.4667C264.533 86.1 264.167 86.8667 263.933 87.7667C263.7 88.6667 263.6 89.6667 263.6 90.7667C263.6 93.3333 264 95.2 264.833 96.3667C265.667 97.5333 267 98.1 268.833 98.1C269.233 98.1 269.633 98.0667 270.1 98.0333C270.533 98 270.967 97.9333 271.367 97.8333V93.8667H268.833V90.0333H279V93.8667H277.333V101.8C275.9 102.333 274.4 102.7 272.867 102.9C271.333 103.1 269.9 103.2 268.6 103.2C266.2 103.2 264.2 102.867 262.667 102.167C261.133 101.467 259.9 100.567 259 99.4333C258.1 98.3 257.5 97 257.133 95.5333C256.8 94.0667 256.633 92.5333 256.633 90.9667C256.633 89.5333 256.8 88.0667 257.133 86.5667C257.467 85.1 258.133 83.7333 259.067 82.5667C260 81.3667 261.3 80.4 262.967 79.6667C264.633 78.9333 266.767 78.5333 269.367 78.5333H269.333Z" fill="#FEFEFE"/>
<path fill-rule="evenodd" clip-rule="evenodd" d="M216.367 64.1L221.067 72.0666L225.733 69.3666L223.967 73.6333L222.167 77.8666H216.367H210.6L208.8 73.6333L207.033 69.3666L211.7 72.0666L216.367 64.1Z" fill="#D7A727"/>
<path d="M236.733 159.767H232.167C231.733 160.067 231.333 160.467 230.967 160.933C230.6 161.433 230.367 161.867 230.367 162.267C231.5 162 232.567 161.867 233.5 161.867C234.667 161.867 235.433 162.167 235.833 162.8C236.233 163.433 236.433 164.133 236.433 164.967C236.433 165.8 236.167 166.6 235.633 167.4C235.1 168.2 234.4 168.9 233.5 169.5C232.633 170.1 231.667 170.6 230.6 170.933C229.567 171.267 228.567 171.467 227.6 171.467C227.167 171.467 226.767 171.333 226.4 171.067C226.033 170.8 225.867 170.3 225.867 169.567C225.867 169.2 226.067 168.867 226.433 168.5C226.8 168.167 227.267 167.867 227.767 167.633C228.267 167.4 228.7 167.3 229 167.3C229.133 167.3 229.2 167.367 229.2 167.5C229.2 167.533 229.033 167.633 228.7 167.767C228.067 168 227.733 168.233 227.733 168.4C227.733 168.567 227.933 168.7 228.333 168.767H228.9C229.6 168.7 230.333 168.5 231.067 168.2C231.8 167.9 232.5 167.533 233.133 167.067C233.767 166.633 234.267 166.167 234.633 165.733C235 165.3 235.2 164.9 235.2 164.6C235.2 164.367 235.033 164.133 234.733 163.967C234.433 163.8 233.967 163.7 233.3 163.7C232.367 163.7 231.467 163.833 230.633 164.133C230.133 164.333 229.767 164.4 229.467 164.4C229.267 164.4 229.133 164.367 229.067 164.267C228.967 164.167 228.9 163.933 228.8 163.6L228.467 162.233C229.1 160.633 230.433 159 232.533 157.333C233.867 157.367 234.633 157.367 234.867 157.367C236.233 157.367 237.433 157.267 238.433 157.1C238.2 157.933 237.633 158.833 236.7 159.7L236.733 159.767ZM248.633 158.133C249 158.367 249.333 158.767 249.7 159.333C250.067 159.9 250.233 160.5 250.233 161.1C250.233 162.133 249.967 163.233 249.467 164.467C248.967 165.7 248.267 166.833 247.433 167.933C246.6 169.033 245.7 169.9 244.733 170.567C243.767 171.233 242.867 171.567 242 171.567C241.533 171.567 241.033 171.4 240.533 171.1C240.033 170.767 239.633 170.3 239.3 169.667C238.967 169.033 238.8 168.3 238.8 167.433C238.8 166.2 239.133 164.967 239.767 163.833C240.4 162.667 241.233 161.633 242.267 160.767C243.267 159.867 244.3 159.167 245.367 158.667C246.433 158.167 247.333 157.9 248.1 157.9C248.267 157.9 248.467 157.967 248.7 158.133H248.633ZM246.4 160.933L246.133 160.733C245.333 161.033 244.6 161.5 243.9 162.067C243.233 162.667 242.633 163.3 242.133 164C241.633 164.7 241.267 165.433 241.033 166.2C240.767 166.933 240.633 167.633 240.633 168.267C240.633 168.733 240.733 169.133 240.9 169.467C241.067 169.8 241.333 170 241.667 170C242.2 170 242.9 169.667 243.7 169.033C244.5 168.367 245.3 167.567 246.1 166.533C246.9 165.533 247.533 164.5 248.067 163.433C248.567 162.367 248.833 161.467 248.833 160.7C248.833 160.267 248.633 160.067 248.267 160.067C248.033 160.067 247.7 160.167 247.333 160.367C246.933 160.567 246.633 160.733 246.433 160.933H246.4ZM260.4 158.133C260.767 158.367 261.1 158.767 261.467 159.333C261.833 159.9 262 160.5 262 161.1C262 162.133 261.733 163.233 261.233 164.467C260.733 165.7 260.033 166.833 259.2 167.933C258.367 169.033 257.467 169.9 256.5 170.567C255.533 171.233 254.633 171.567 253.767 171.567C253.3 171.567 252.8 171.4 252.3 171.1C251.8 170.767 251.4 170.3 251.067 169.667C250.733 169.033 250.567 168.3 250.567 167.433C250.567 166.2 250.9 164.967 251.533 163.833C252.167 162.667 253 161.633 254.033 160.767C255.033 159.867 256.067 159.167 257.133 158.667C258.2 158.167 259.1 157.9 259.867 157.9C260.033 157.9 260.233 157.967 260.467 158.133H260.4ZM258.167 160.933L257.9 160.733C257.1 161.033 256.367 161.5 255.667 162.067C255 162.667 254.4 163.3 253.9 164C253.4 164.7 253.033 165.433 252.8 166.2C252.533 166.933 252.4 167.633 252.4 168.267C252.4 168.733 252.5 169.133 252.667 169.467C252.833 169.8 253.1 170 253.433 170C253.967 170 254.667 169.667 255.467 169.033C256.267 168.367 257.067 167.567 257.867 166.533C258.667 165.533 259.3 164.5 259.833 163.433C260.333 162.367 260.6 161.467 260.6 160.7C260.6 160.267 260.4 160.067 260.033 160.067C259.8 160.067 259.467 160.167 259.1 160.367C258.7 160.567 258.4 160.733 258.2 160.933H258.167ZM272.167 158.133C272.533 158.367 272.867 158.767 273.233 159.333C273.6 159.9 273.767 160.5 273.767 161.1C273.767 162.133 273.5 163.233 273 164.467C272.5 165.7 271.8 166.833 270.967 167.933C270.133 169.033 269.233 169.9 268.267 170.567C267.3 171.233 266.4 171.567 265.533 171.567C265.067 171.567 264.567 171.4 264.067 171.1C263.567 170.767 263.167 170.3 262.833 169.667C262.5 169.033 262.333 168.3 262.333 167.433C262.333 166.2 262.667 164.967 263.3 163.833C263.933 162.667 264.767 161.633 265.8 160.767C266.8 159.867 267.833 159.167 268.9 158.667C269.967 158.167 270.867 157.9 271.633 157.9C271.8 157.9 272 157.967 272.233 158.133H272.167ZM269.933 160.933L269.667 160.733C268.867 161.033 268.133 161.5 267.433 162.067C266.767 162.667 266.167 163.3 265.667 164C265.167 164.7 264.8 165.433 264.567 166.2C264.3 166.933 264.167 167.633 264.167 168.267C264.167 168.733 264.267 169.133 264.433 169.467C264.6 169.8 264.867 170 265.2 170C265.733 170 266.433 169.667 267.233 169.033C268.033 168.367 268.833 167.567 269.633 166.533C270.433 165.533 271.067 164.5 271.6 163.433C272.1 162.367 272.367 161.467 272.367 160.7C272.367 160.267 272.167 160.067 271.8 160.067C271.567 160.067 271.233 160.167 270.867 160.367C270.467 160.567 270.167 160.733 269.967 160.933H269.933ZM276.567 160.433V159.7C276.8 159.533 277.533 159.1 278.767 158.433C279.967 157.767 280.7 157.433 280.9 157.433C281.133 157.433 281.333 157.567 281.467 157.867C281.633 158.133 281.7 158.4 281.7 158.667C281.7 158.9 281.6 159.233 281.4 159.6C281.2 159.967 280.733 160.733 280.033 161.867C279.333 163.033 278.7 164.1 278.133 165.1C277.4 166.433 276.9 167.5 276.567 168.267C276.267 169.033 276.1 169.8 276.1 170.5C276.1 170.633 276.1 170.867 276.133 171.167C274.733 171.033 274.033 170.3 274.033 168.967C274.033 168.3 274.267 167.5 274.733 166.533C275.2 165.567 275.767 164.6 276.4 163.633C277.067 162.667 277.667 161.8 278.3 161.067C278.833 160.433 279.1 160.033 279.1 159.833C279.1 159.733 279 159.667 278.833 159.667C278.667 159.667 278.2 159.8 277.467 160.1C277.167 160.233 276.867 160.333 276.533 160.467L276.567 160.433Z" fill="#FEFEFE"/>
</g>
<defs>
<clipPath id="clip0">
<rect width="300" height="191.667" rx="12" fill="white"/>
</clipPath>
</defs>
</svg>
