<svg width="300" height="192" viewBox="0 0 300 192" fill="none" xmlns="http://www.w3.org/2000/svg">
<g clip-path="url(#clip0)">
<path fill-rule="evenodd" clip-rule="evenodd" d="M149.267 -1.13333H0.833374V15.2667V148.933H149.267V-1.13333Z" fill="url(#paint0_linear)"/>
<path fill-rule="evenodd" clip-rule="evenodd" d="M0.833374 75.7333C32.3 61.5333 70.5667 28.1667 85.6 -1.13333H300.833V75.9667C265.833 90.3 220 153.967 209.833 192.233H0.833374L1.26671 101.033L0.833374 75.7667V75.7333Z" fill="url(#paint1_linear)"/>
<path fill-rule="evenodd" clip-rule="evenodd" d="M300.833 192.2H206.433C219.367 142.267 267.8 87.0667 300.833 75.9333V182.933V192.167V192.2Z" fill="url(#paint2_linear)"/>
<path fill-rule="evenodd" clip-rule="evenodd" d="M108.833 190.8C134.667 129.433 186.433 54.1333 227.567 -1.13333H187.8C143.233 45.9333 62.2001 121.533 1.23347 166.5L0.933472 191.067L108.833 190.767V190.8Z" fill="url(#paint3_linear)"/>
<path fill-rule="evenodd" clip-rule="evenodd" d="M108.433 192.2C134.267 130.833 187.067 54.1 228.2 -1.13333H188.733C144.167 45.9333 61.8001 122.933 0.833447 167.933L0.533447 192.5L108.433 192.2Z" fill="url(#paint4_linear)"/>
<path fill-rule="evenodd" clip-rule="evenodd" d="M300 64H97.2334L76.3 21.8H300V64Z" fill="#FEFEFE"/>
<path fill-rule="evenodd" clip-rule="evenodd" d="M93.8667 29.4667L97.5667 37.4667H109.4L110.867 40.6H99.0334L101.367 45.6667H113.2L114.667 48.8H102.833L106.4 56.4667H128.467L118.767 44.4667H120.767L115.367 37.4667H117.367L110.633 29.4667H93.8667Z" fill="#221A23"/>
<path fill-rule="evenodd" clip-rule="evenodd" d="M118.933 29.4667L123.133 38.6667H121.733L124.967 45.6667H123.567L128.533 56.4667L132.067 48.8L130.633 45.6667H133.533L135.867 40.6H128.333L126.867 37.4667H137.333L141.067 29.4667H118.933Z" fill="#E31E24"/>
<path fill-rule="evenodd" clip-rule="evenodd" d="M202.834 29.5667H206.867L203.734 39.9V46.4H199.7V39.9L196.567 29.5667H200.6L201.734 35.8667L202.867 29.5667H202.834ZM268.8 38.4667C270.5 39.6333 272.1 39.9333 272.1 42.5C272.1 43.5667 271.667 44.0667 271.267 44.0333C270.167 43.9667 270.534 41.0667 270.567 40.2667H266.334C266.3 44.4667 266.467 46.8333 271.334 46.8C273.8 46.7667 276.367 45.7 276.367 42.7667C276.367 40.7333 276.034 38.4 274.3 37.0667C273.234 36.2667 271.8 35.5 271.167 34.9667C270.434 34.3333 270.534 33.7333 270.534 32.8333C270.534 31.6333 272.067 31.2333 272.067 33.6333V34.4333H276.1C276.1 30.7 275.234 29.1667 271.167 29.1333C268.234 29.1333 266.3 30.5667 266.334 33.7667C266.334 35.6667 267.267 37.3667 268.767 38.4333L268.8 38.4667ZM189.2 46.7667C190.634 46.7667 191.667 46.5 192.634 45.3L192.9 46.3667H195.934V39.7333V37.2333H195.734H192.934H191.467H190.534V39.7333H191.467V43C191.467 43.4333 191.134 43.7667 190.7 43.7667H190.567C190.134 43.7667 189.8 43.4333 189.8 43V32.9C189.8 32.4667 190.134 32.1333 190.567 32.1333H190.7C191.134 32.1333 191.467 32.4667 191.467 32.9V35.7333H195.767V33.9333C195.767 31.3 193.6 29.1667 191 29.1667H190.167C187.534 29.1667 185.4 31.3333 185.4 33.9333V41.9667C185.4 44.6 186.634 46.7333 189.267 46.7333L189.2 46.7667ZM258.2 38.4667C259.9 39.6333 261.5 39.9333 261.5 42.5C261.5 43.5667 261.067 44.0667 260.667 44.0333C259.567 43.9667 259.934 41.0667 259.967 40.2667H255.734C255.7 44.4667 255.867 46.8333 260.734 46.8C263.2 46.7667 265.767 45.7 265.767 42.7667C265.767 40.7333 265.434 38.4 263.7 37.0667C262.634 36.2667 261.2 35.5 260.567 34.9667C259.834 34.3333 259.934 33.7333 259.934 32.8333C259.934 31.6333 261.467 31.2333 261.467 33.6333V34.4333H265.5C265.5 30.7 264.634 29.1667 260.567 29.1333C257.634 29.1333 255.7 30.5667 255.734 33.7667C255.734 35.6667 256.667 37.3667 258.167 38.4333L258.2 38.4667ZM251.934 42.9H255.2V46.3667H251.934H247.434V42.9V39.3V36.0333V33.1V29.6333H251.934H255V33.1H251.934V36.0333H254.8V39.3H251.934V42.9ZM240.267 29.5667L242.634 38.8667V29.5667H246.5V46.3667H244.567H242.634L240.267 37.0667V46.3667H236.4V29.5667H238.334H240.267ZM235.867 29.5667V33.0333H233.267V46.3667H228.767V33.0333H226.167V29.5667H235.867ZM221.2 29.5667H225.7V46.3667H221.2V29.5667ZM178.6 29.5667H179.934C183.467 29.7333 184.067 30.4667 184.234 33.8C184.334 35.9667 184.134 36.9 181.967 37.4667C183.467 37.7667 184.434 38.4 184.434 40.4667V46.3667H180.2V40.2667C180.2 38.8333 179.9 38.4667 178.6 38.6V46.3667H174.3V29.5667H178.3H178.6ZM178.6 35.9333C180.034 36.0333 180.2 35.6667 180.2 34C180.2 32.3333 179.834 32.2667 178.6 32.2667V35.9667V35.9333ZM170.3 42.9H173.567V46.3667H170.3H165.8V42.9V39.3V36.0333V33.1V29.6333H170.3H173.367V33.1H170.3V36.0333H173.167V39.3H170.3V42.9ZM158.634 29.5667L161 38.8667V29.5667H164.867V46.3667H162.934H161L158.634 37.0667V46.3667H154.767V29.5667H156.7H158.634Z" fill="#221A23"/>
<path fill-rule="evenodd" clip-rule="evenodd" d="M153.567 39.3V36.2V36H153.367H150.7V33.0667H153.567H153.767V32.8667V29.8V29.7667V29.5667H153.567H150.7H146.2V33.0667V36V39.3V42.9V46.4H150.7H153.967V42.9H150.7V39.3H153.567Z" fill="#E31E24"/>
<path fill-rule="evenodd" clip-rule="evenodd" d="M213.233 36V39.3V46.2V46.4H213.433H217.733V39.3H220.333H220.6V36H220.333H217.733V33.0667H220.733H220.8V29.5667H220.733H217.733H213.233V33.0667V36Z" fill="#E31E24"/>
<path d="M190.4 55.3333C190.267 55.7 190.033 55.9667 189.733 56.1667C189.433 56.3667 189.067 56.4667 188.633 56.4667C188.3 56.4667 188.033 56.4 187.8 56.3C187.567 56.2 187.367 56.0667 187.2 55.8667C187.033 55.7 186.933 55.5 186.833 55.2667C186.767 55.0333 186.733 54.8 186.733 54.5333V53.1C186.733 52.8333 186.767 52.6 186.833 52.3667C186.9 52.1333 187.033 51.9333 187.2 51.7667C187.367 51.6 187.567 51.4333 187.8 51.3333C188.033 51.2333 188.3 51.1667 188.633 51.1667C189.067 51.1667 189.433 51.2667 189.733 51.4667C190.033 51.6667 190.233 51.9333 190.4 52.2667L189.767 52.5333C189.667 52.3 189.533 52.1333 189.367 52C189.167 51.8667 188.933 51.8 188.667 51.8C188.467 51.8 188.267 51.8333 188.133 51.9C187.967 51.9667 187.867 52.0667 187.733 52.2C187.633 52.3333 187.567 52.4667 187.5 52.6333C187.433 52.8 187.433 52.9667 187.433 53.1333V54.5C187.433 54.6667 187.467 54.8333 187.5 55C187.567 55.1667 187.633 55.3 187.733 55.4333C187.833 55.5667 187.967 55.6667 188.133 55.7333C188.3 55.8 188.467 55.8333 188.667 55.8333C188.933 55.8333 189.167 55.7667 189.367 55.6333C189.567 55.5 189.7 55.3 189.8 55.0667L190.433 55.3667L190.4 55.3333ZM192.6 51.7667V56.4H191.933V51.7667H190.4V51.2H194.1V51.7667H192.567H192.6ZM197.167 56.4L196.733 55.2H194.533L194.1 56.4H193.4L195.367 51.1667H195.933L197.9 56.4H197.2H197.167ZM196.033 53.1667L195.633 52.0667H195.6L195.233 53.1667L194.7 54.6667H196.533L196.033 53.2V53.1667ZM201.133 56.4V54.0667H198.767V56.4H198.1V51.1667H198.767V53.4667H201.133V51.1667H201.8V56.4H201.133ZM202.433 56.4V51.1667H203.1V53.4333H204.4C204.667 53.4333 204.9 53.4667 205.1 53.5333C205.3 53.6 205.5 53.7 205.667 53.8333C205.833 53.9667 205.933 54.1 206.033 54.3C206.1 54.4667 206.167 54.6667 206.167 54.8667C206.167 55.1333 206.1 55.3667 206.033 55.5667C205.933 55.7667 205.8 55.9333 205.633 56.0333C205.467 56.1667 205.267 56.2333 205.067 56.3C204.867 56.3667 204.633 56.4 204.433 56.4H202.467H202.433ZM205.433 54.9C205.433 54.8 205.4 54.7 205.367 54.5667C205.333 54.4667 205.267 54.3667 205.167 54.3C205.067 54.2333 204.967 54.1667 204.833 54.1C204.7 54.0333 204.567 54.0333 204.4 54.0333H203.1V55.7667H204.4C204.7 55.7667 204.967 55.7 205.133 55.5667C205.333 55.4333 205.433 55.2 205.433 54.9ZM211.933 56.4V51.7667H209.567V56.4H208.9V51.1667H212.6V56.4H211.933ZM213.233 56.4V51.1667H216.6V51.7667H213.9V53.4667H216.2V54.0333H213.9V55.7667H216.6V56.3667H213.233V56.4ZM220.867 52.7667C220.867 52.9333 220.833 53.1333 220.767 53.3C220.7 53.5 220.6 53.6667 220.433 53.8C220.3 53.9333 220.133 54.0667 219.9 54.1667C219.7 54.2667 219.467 54.3 219.2 54.3H217.8V56.4H217.133V51.1667H219.1C219.333 51.1667 219.533 51.2 219.733 51.2667C219.933 51.3333 220.133 51.4333 220.3 51.5333C220.467 51.6667 220.6 51.8333 220.7 52.0333C220.8 52.2333 220.867 52.4667 220.867 52.7667ZM220.167 52.7333C220.167 52.4 220.067 52.1667 219.867 52C219.667 51.8333 219.433 51.7667 219.133 51.7667H217.833V53.6667H219.167C219.333 53.6667 219.5 53.6333 219.6 53.5667C219.733 53.5 219.833 53.4333 219.933 53.3333C220.033 53.2333 220.067 53.1333 220.133 53.0333C220.167 52.9333 220.2 52.8 220.2 52.7L220.167 52.7333ZM225 54.9667C225 55.2 224.967 55.4 224.867 55.5667C224.8 55.7333 224.667 55.9 224.533 56.0333C224.4 56.1667 224.233 56.2667 224.067 56.3333C223.9 56.4 223.7 56.4333 223.5 56.4333H221.267V51.2H223.267C223.533 51.2 223.767 51.2333 223.933 51.3C224.133 51.3667 224.3 51.4667 224.433 51.5667C224.567 51.7 224.667 51.8333 224.733 52C224.8 52.1667 224.833 52.3667 224.833 52.5667C224.833 52.6667 224.833 52.7667 224.8 52.9C224.767 53 224.733 53.1333 224.667 53.2333C224.6 53.3333 224.5 53.4333 224.4 53.5333C224.3 53.6333 224.167 53.7 224.033 53.7333V53.7667C224.2 53.8 224.333 53.8667 224.433 53.9333C224.567 54.0333 224.633 54.1333 224.733 54.2333C224.8 54.3333 224.867 54.4667 224.9 54.6C224.933 54.7333 224.967 54.8667 224.967 55L225 54.9667ZM221.967 51.7667V53.4667H223.233C223.567 53.4667 223.8 53.4 223.967 53.2333C224.133 53.0667 224.2 52.8667 224.2 52.6333C224.2 52.4 224.133 52.2 223.967 52.0333C223.8 51.8667 223.567 51.8 223.233 51.8H221.967V51.7667ZM221.967 54.0333V55.8H223.333C223.5 55.8 223.633 55.7667 223.767 55.7333C223.9 55.6667 224 55.6333 224.067 55.5333C224.133 55.4667 224.2 55.3667 224.233 55.2333C224.267 55.1333 224.3 55 224.3 54.9C224.3 54.8 224.267 54.6667 224.233 54.5667C224.2 54.4667 224.133 54.3667 224.067 54.2667C224 54.2 223.9 54.1333 223.767 54.0667C223.633 54.0333 223.5 54 223.333 54H221.967V54.0333ZM225.533 56.4333V51.2H226.2V53.4667H227.5C227.767 53.4667 228 53.5 228.2 53.5667C228.4 53.6333 228.6 53.7333 228.767 53.8667C228.933 54 229.033 54.1333 229.133 54.3333C229.2 54.5 229.267 54.7 229.267 54.9C229.267 55.1667 229.233 55.4 229.133 55.6C229.033 55.8 228.9 55.9667 228.733 56.0667C228.567 56.2 228.367 56.2667 228.167 56.3333C227.967 56.4 227.733 56.4333 227.533 56.4333H225.567H225.533ZM229.767 56.4333V51.2H230.433V56.4333H229.767ZM228.533 54.9333C228.533 54.8333 228.5 54.7333 228.467 54.6C228.433 54.5 228.367 54.4 228.267 54.3333C228.167 54.2667 228.067 54.2 227.933 54.1333C227.8 54.0667 227.667 54.0667 227.5 54.0667H226.2V55.8H227.5C227.8 55.8 228.067 55.7333 228.233 55.6C228.433 55.4667 228.533 55.2333 228.533 54.9333ZM235.133 56.4333V52.7H235.1L234.7 53.7L233.767 55.6667H233.167L232.233 53.6667L231.833 52.7333H231.8V56.4333H231.133V51.2H231.8L232.933 53.6333L233.467 54.8333H233.5L234.033 53.6333L235.133 51.2H235.8V56.4333H235.133Z" fill="#221A23"/>
<path fill-rule="evenodd" clip-rule="evenodd" d="M146.2 47.9333H276.4V48.4H146.2V47.9333Z" fill="#221A23"/>
<path d="M42.0335 153.9C42.0335 155.767 41.4001 156.967 40.1335 157.567C40.8668 157.867 41.3668 158.333 41.6335 159C41.9001 159.667 42.0335 160.467 42.0335 161.4V163C42.0335 163.367 42.0668 163.633 42.1001 163.8C42.1668 163.967 42.2335 164.1 42.3335 164.2C42.4335 164.267 42.5668 164.3 42.7335 164.3C42.9001 164.3 43.1001 164.3 43.3001 164.3H43.4668V166.867H42.2668C41.4001 166.9 40.7001 166.633 40.1668 166.167C39.6335 165.667 39.4001 165.033 39.4001 164.267V161.3C39.4001 160.467 39.2001 159.867 38.8335 159.533C38.4668 159.2 37.9335 159.033 37.2668 159.033H36.3001V166.9H33.4668V148.833H36.3001V156.467H37.4001C37.9335 156.467 38.4001 156.333 38.8001 156.067C39.2001 155.8 39.4001 155.3 39.4001 154.567V151.467C39.4001 150.7 39.6668 150.067 40.1668 149.567C40.6668 149.067 41.3668 148.833 42.2668 148.867H43.4335V151.433H43.3001C43.0668 151.433 42.8668 151.433 42.7335 151.433C42.5668 151.433 42.4335 151.467 42.3335 151.533C42.2335 151.6 42.1335 151.733 42.1001 151.933C42.0335 152.1 42.0335 152.4 42.0335 152.733V153.9ZM49.9001 158.533C49.9001 159.967 49.8335 161.233 49.7001 162.3C49.5668 163.367 49.3001 164.233 48.9335 164.933C48.5668 165.633 48.0335 166.133 47.3668 166.467C46.7001 166.8 45.8668 166.967 44.8335 166.967H44.5335V164.4H44.8668C45.4001 164.4 45.8001 164.267 46.1335 164C46.4668 163.733 46.7001 163.333 46.8668 162.833C47.0335 162.333 47.1668 161.7 47.2001 161C47.2668 160.267 47.2668 159.467 47.2668 158.567V148.933H55.1335V167H52.3001V151.5H49.9001V158.6V158.533ZM57.7668 164.367C57.9335 164.4 58.0335 164.4 58.1335 164.4C58.2335 164.4 58.3335 164.4 58.5001 164.4C58.7335 164.4 58.9335 164.367 59.1668 164.333C59.4001 164.267 59.6001 164.2 59.7335 164.033C59.9001 163.9 60.0001 163.7 60.0668 163.467C60.1335 163.233 60.1335 162.867 60.0668 162.467L56.2001 148.867H59.0335L61.9001 159.467L64.2335 148.867H67.0668L63.6001 162.2C63.3001 163.167 63.0001 163.967 62.7001 164.6C62.4001 165.233 62.1001 165.7 61.7335 166.067C61.3668 166.433 60.9668 166.667 60.5001 166.8C60.0335 166.933 59.5001 167 58.8335 167.033C58.5668 167.033 58.4001 167.033 58.2668 167.033C58.1335 167.033 57.9668 167 57.7335 166.967V164.4L57.7668 164.367ZM70.8001 156.2H72.5001C73.9335 156.2 75.0001 156.567 75.7001 157.333C76.4001 158.1 76.7335 159.2 76.7335 160.667V162.433C76.7335 163.9 76.4001 165 75.7001 165.767C75.0001 166.533 73.9335 166.9 72.5001 166.9H67.9668V148.833H75.5001V151.4H70.8335V156.167L70.8001 156.2ZM72.5001 164.333C72.9335 164.333 73.3001 164.2 73.5335 163.967C73.7668 163.733 73.9001 163.267 73.9001 162.633V160.5C73.9001 159.867 73.7668 159.433 73.5335 159.167C73.3001 158.933 72.9335 158.8 72.5001 158.8H70.8001V164.367H72.5001V164.333ZM80.8668 166.9H78.0335V148.833H80.8668V156.567H84.1001V148.833H87.0001V166.9H84.1001V159.167H80.8668V166.9ZM97.9668 166.9H95.1001L94.6001 163.633H91.1001L90.6001 166.9H88.0001L90.9001 148.833H95.0668L97.9668 166.9ZM91.4668 161.167H94.2001L92.8335 152.033L91.4668 161.167ZM99.9001 161.9C99.9001 160.967 100.033 160.133 100.3 159.5C100.567 158.833 101.067 158.367 101.8 158.067C100.533 157.467 99.9001 156.267 99.9001 154.4V152.967C99.9001 151.567 100.233 150.533 100.9 149.833C101.567 149.133 102.633 148.8 104.133 148.8H108.433V166.867H105.6V159.5H104.633C103.967 159.5 103.5 159.667 103.2 160.033C102.9 160.367 102.767 160.967 102.767 161.8V164.267C102.767 165.033 102.533 165.667 102.067 166.167C101.6 166.633 100.8 166.9 99.6668 166.9H98.7335V164.333H98.9001C99.2335 164.333 99.4668 164.267 99.6335 164.1C99.8001 163.967 99.9001 163.6 99.9001 163V161.9ZM104.233 151.4C103.733 151.4 103.367 151.533 103.133 151.833C102.9 152.133 102.8 152.6 102.8 153.267V155.033C102.8 155.767 102.967 156.267 103.267 156.533C103.567 156.8 104 156.933 104.533 156.933H105.633V151.367H104.267L104.233 151.4ZM124.567 153.867C124.567 155.733 123.933 156.933 122.667 157.533C123.4 157.833 123.9 158.3 124.167 158.967C124.433 159.633 124.567 160.433 124.567 161.367V162.967C124.567 163.333 124.6 163.6 124.633 163.767C124.7 163.933 124.767 164.067 124.867 164.167C124.967 164.233 125.1 164.267 125.267 164.267C125.433 164.267 125.633 164.267 125.833 164.267H126V166.833H124.8C123.933 166.867 123.233 166.6 122.7 166.133C122.167 165.633 121.933 165 121.933 164.233V161.267C121.933 160.433 121.733 159.833 121.367 159.5C121 159.167 120.467 159 119.8 159H118.833V166.867H116V148.8H118.833V156.433H119.933C120.467 156.433 120.933 156.3 121.333 156.033C121.733 155.767 121.933 155.267 121.933 154.533V151.433C121.933 150.667 122.2 150.033 122.7 149.533C123.2 149.033 123.9 148.8 124.8 148.833H125.967V151.4H125.833C125.6 151.4 125.4 151.4 125.267 151.4C125.1 151.4 124.967 151.433 124.867 151.5C124.767 151.567 124.667 151.7 124.633 151.9C124.567 152.067 124.567 152.367 124.567 152.7V153.867ZM136.7 166.9H133.833L133.333 163.633H129.833L129.333 166.9H126.733L129.633 148.833H133.8L136.7 166.9ZM130.2 161.167H132.933L131.567 152.033L130.2 161.167ZM141.867 148.833C143.3 148.833 144.367 149.2 145.067 149.967C145.767 150.733 146.1 151.833 146.1 153.3V155.667C146.1 157.133 145.767 158.233 145.067 159C144.367 159.767 143.3 160.133 141.867 160.133H140.533V166.933H137.7V148.867H141.9L141.867 148.833ZM140.533 151.4V157.533H141.867C142.3 157.533 142.667 157.4 142.9 157.167C143.133 156.933 143.267 156.467 143.267 155.833V153.133C143.267 152.467 143.133 152.033 142.9 151.8C142.667 151.567 142.3 151.433 141.867 151.433H140.533V151.4ZM146.6 148.833H155.367V151.4H152.4V166.9H149.567V151.4H146.6V148.833ZM164.167 166.9H161.3L160.8 163.633H157.3L156.8 166.9H154.2L157.1 148.833H161.267L164.167 166.9ZM157.667 161.167H160.4L159.033 152.033L157.667 161.167Z" fill="#FEFEFE"/>
<path d="M244.833 162.767C244.833 163.433 244.967 163.867 245.233 164.133C245.5 164.4 245.867 164.533 246.3 164.533C246.733 164.533 247.1 164.4 247.367 164.133C247.633 163.867 247.767 163.4 247.767 162.767V153C247.767 152.333 247.633 151.9 247.367 151.633C247.1 151.367 246.733 151.233 246.3 151.233C245.867 151.233 245.5 151.367 245.233 151.633C244.967 151.9 244.833 152.367 244.833 153V162.767ZM242 153.167C242 151.7 242.367 150.567 243.1 149.8C243.833 149 244.9 148.633 246.3 148.633C247.7 148.633 248.767 149.033 249.5 149.8C250.233 150.6 250.6 151.7 250.6 153.167V162.567C250.6 164.033 250.233 165.167 249.5 165.933C248.767 166.733 247.7 167.1 246.3 167.1C244.9 167.1 243.833 166.7 243.1 165.933C242.367 165.133 242 164.033 242 162.567V153.167ZM254.7 162.767C254.7 163.433 254.833 163.867 255.1 164.133C255.367 164.4 255.733 164.533 256.167 164.533C256.6 164.533 256.967 164.4 257.233 164.133C257.5 163.867 257.633 163.4 257.633 162.767V153C257.633 152.333 257.5 151.9 257.233 151.633C256.967 151.367 256.6 151.233 256.167 151.233C255.733 151.233 255.367 151.367 255.1 151.633C254.833 151.9 254.7 152.367 254.7 153V162.767ZM251.867 153.167C251.867 151.7 252.233 150.567 252.967 149.8C253.7 149 254.767 148.633 256.167 148.633C257.567 148.633 258.633 149.033 259.367 149.8C260.1 150.6 260.467 151.7 260.467 153.167V162.567C260.467 164.033 260.1 165.167 259.367 165.933C258.633 166.733 257.567 167.1 256.167 167.1C254.767 167.1 253.7 166.7 252.967 165.933C252.233 165.133 251.867 164.033 251.867 162.567V153.167ZM264.567 162.767C264.567 163.433 264.7 163.867 264.967 164.133C265.233 164.4 265.6 164.533 266.033 164.533C266.467 164.533 266.833 164.4 267.1 164.133C267.367 163.867 267.5 163.4 267.5 162.767V153C267.5 152.333 267.367 151.9 267.1 151.633C266.833 151.367 266.467 151.233 266.033 151.233C265.6 151.233 265.233 151.367 264.967 151.633C264.7 151.9 264.567 152.367 264.567 153V162.767ZM261.733 153.167C261.733 151.7 262.1 150.567 262.833 149.8C263.567 149 264.633 148.633 266.033 148.633C267.433 148.633 268.5 149.033 269.233 149.8C269.967 150.6 270.333 151.7 270.333 153.167V162.567C270.333 164.033 269.967 165.167 269.233 165.933C268.5 166.733 267.433 167.1 266.033 167.1C264.633 167.1 263.567 166.7 262.833 165.933C262.1 165.133 261.733 164.033 261.733 162.567V153.167ZM271.067 151.1C271.633 151.1 272.067 151.033 272.433 150.933C272.8 150.8 273.067 150.633 273.3 150.433C273.533 150.233 273.7 150 273.833 149.7C273.967 149.433 274.1 149.133 274.2 148.833H276.1V166.9H273.267V153.1H271.067V151.1Z" fill="#2B2A29"/>
</g>
<defs>
<linearGradient id="paint0_linear" x1="0.833374" y1="73.9077" x2="149.26" y2="73.9077" gradientUnits="userSpaceOnUse">
<stop stop-color="#D9DADA"/>
<stop offset="1" stop-color="#FEFEFE"/>
</linearGradient>
<linearGradient id="paint1_linear" x1="150.833" y1="4.672" x2="150.833" y2="186.405" gradientUnits="userSpaceOnUse">
<stop stop-color="#201C1E"/>
<stop offset="1" stop-color="#434242"/>
</linearGradient>
<linearGradient id="paint2_linear" x1="253.637" y1="75.9553" x2="253.637" y2="192.205" gradientUnits="userSpaceOnUse">
<stop stop-color="#EBECEC"/>
<stop offset="1" stop-color="#FEFEFE"/>
</linearGradient>
<linearGradient id="paint3_linear" x1="231.79" y1="15.7077" x2="-3.2902" y2="174.25" gradientUnits="userSpaceOnUse">
<stop stop-color="#E31E24"/>
<stop offset="1" stop-color="#E7383C"/>
</linearGradient>
<linearGradient id="paint4_linear" x1="175.256" y1="2.02634" x2="53.5004" y2="189.342" gradientUnits="userSpaceOnUse">
<stop stop-color="#962420"/>
<stop offset="1" stop-color="#E31E24"/>
</linearGradient>
<clipPath id="clip0">
<rect width="300" height="191.667" rx="12" fill="white"/>
</clipPath>
</defs>
</svg>
