<svg width="300" height="192" viewBox="0 0 300 192" fill="none" xmlns="http://www.w3.org/2000/svg">
<g clip-path="url(#clip0)">
<path d="M300 0H0V191.667H300V0Z" fill="#FCF2D8"/>
<path d="M300 157.7H0V191.667H300V157.7Z" fill="#73B734"/>
<path d="M157.333 29.6333V31.3333C157.333 31.7333 157.3 32.1 157.267 32.5C157.233 32.9 157.133 33.2667 157.067 33.6333C157 33.9 156.9 34.1333 156.8 34.4C156.7 34.6333 156.567 34.8667 156.433 35.1L155.833 35.1333L155.9 38.8667H157.4L157.5 36.6H161.5L161.567 38.8667H163.033L163.133 35.1L162.433 35.0667V29.6H157.367L157.333 29.6333ZM159.033 31.2333H160.467V35.0667H158.367C158.467 34.9 158.533 34.7 158.633 34.5C158.7 34.3 158.767 34.1 158.833 33.9C158.9 33.6 158.967 33.3 159 33C159.033 32.7 159.067 32.4 159.067 32.1V31.3L159.033 31.2333ZM164.1 29.6333V36.6333H166.5C166.633 36.2667 166.8 35.9 166.933 35.5333C167.1 35.1667 167.233 34.7667 167.367 34.4C167.5 34.0333 167.667 33.7 167.8 33.3667C167.9 33.1333 167.967 32.9333 168.033 32.7667C168.1 32.5667 168.167 32.3667 168.233 32.1667C168.3 31.9667 168.367 31.7333 168.467 31.5H168.533C168.533 31.8 168.5 32.0667 168.5 32.2667C168.5 32.5 168.467 32.7 168.467 32.8667C168.467 33.0667 168.433 33.2333 168.433 33.4C168.433 33.5667 168.433 33.7333 168.4 33.9333C168.4 34.1 168.4 34.3 168.4 34.5333V36.6667H170.267V29.6667H167.867L166.633 32.6667C166.533 32.9 166.467 33.1 166.4 33.3C166.333 33.5 166.267 33.7333 166.167 33.9333C166.1 34.1667 166 34.4 165.9 34.6667H165.833C165.867 34.3667 165.867 34.0667 165.867 33.7667C165.867 33.4667 165.9 33.1667 165.9 32.8667C165.9 32.5667 165.9 32.2 165.9 31.8333V29.7H164.033L164.1 29.6333ZM176.367 34.8333C176.233 34.9 176.067 34.9667 175.867 35C175.667 35.0333 175.467 35.0667 175.233 35.0667C175 35.0667 174.767 35.0333 174.567 34.9333C174.367 34.8333 174.167 34.7333 174 34.5667C173.833 34.4 173.733 34.2 173.633 33.9667C173.533 33.7333 173.5 33.4333 173.5 33.1333C173.5 32.7333 173.567 32.4 173.7 32.1C173.833 31.8 174.033 31.5667 174.3 31.4C174.567 31.2333 174.867 31.1333 175.2 31.1333C175.467 31.1333 175.667 31.1667 175.867 31.2C176.033 31.2333 176.2 31.3 176.3 31.3667L176.6 29.7667C176.467 29.7 176.3 29.6667 176.133 29.6333C175.967 29.6 175.8 29.5667 175.6 29.5333C175.433 29.5 175.233 29.5 175.067 29.5C174.467 29.5 173.967 29.6 173.5 29.8C173.033 30 172.667 30.2667 172.367 30.6C172.067 30.9333 171.833 31.3333 171.667 31.7667C171.5 32.2 171.433 32.7 171.433 33.2C171.433 33.9333 171.567 34.5667 171.833 35.1C172.1 35.6333 172.5 36.0333 173 36.3333C173.5 36.6333 174.1 36.7667 174.767 36.7667C175.033 36.7667 175.267 36.7667 175.467 36.7333C175.7 36.7 175.9 36.6667 176.067 36.6C176.233 36.5667 176.4 36.5 176.5 36.4333L176.267 34.8333H176.367ZM177.7 29.6333V36.6333H179.667V33.8667H179.867C180.167 33.8667 180.433 33.9667 180.667 34.1667C180.867 34.3667 181.067 34.6667 181.2 35.0667C181.333 35.4333 181.433 35.7667 181.5 36C181.6 36.2667 181.667 36.4667 181.767 36.6H183.833C183.733 36.3667 183.633 36.1333 183.533 35.9C183.433 35.6667 183.367 35.4 183.267 35.1667C183.2 34.9333 183.1 34.7333 183.033 34.5333C182.9 34.2 182.767 33.9 182.633 33.6C182.467 33.3333 182.3 33.1 182.1 32.9333C181.9 32.7667 181.667 32.6333 181.433 32.6L183.767 29.6H181.467L179.867 32.4H179.667V29.6H177.7V29.6333ZM187.6 29.4667C187.1 29.4667 186.633 29.5667 186.2 29.7333C185.8 29.9 185.433 30.1667 185.133 30.4667C184.833 30.8 184.6 31.1667 184.433 31.6333C184.267 32.1 184.2 32.6 184.2 33.1667C184.2 33.7333 184.3 34.2333 184.467 34.6667C184.633 35.1 184.867 35.5 185.167 35.8C185.467 36.1 185.8 36.3333 186.2 36.5C186.6 36.6667 187.033 36.7333 187.5 36.7333C187.833 36.7333 188.167 36.7 188.5 36.6C188.833 36.5 189.133 36.3667 189.4 36.1667C189.667 35.9667 189.933 35.7333 190.133 35.4333C190.333 35.1333 190.5 34.8 190.633 34.4C190.767 34 190.8 33.5333 190.833 33.0333C190.833 32.5 190.767 32.0333 190.6 31.5667C190.433 31.1333 190.233 30.7667 189.933 30.4333C189.667 30.1 189.3 29.8667 188.9 29.7C188.5 29.5333 188.067 29.4333 187.567 29.4333L187.6 29.4667ZM187.533 31.0333C187.767 31.0333 187.933 31.1 188.1 31.2C188.267 31.3333 188.4 31.4667 188.5 31.6667C188.6 31.8667 188.667 32.1 188.733 32.3333C188.767 32.5667 188.8 32.8333 188.8 33.1C188.8 33.5333 188.733 33.9 188.633 34.2C188.533 34.5 188.4 34.7667 188.2 34.9333C188 35.1 187.8 35.2 187.533 35.2C187.267 35.2 187 35.1 186.833 34.9333C186.633 34.7667 186.5 34.5 186.4 34.2C186.3 33.8667 186.267 33.5333 186.267 33.1333C186.267 32.8667 186.3 32.6333 186.333 32.3667C186.367 32.1333 186.467 31.9 186.567 31.7C186.667 31.5 186.8 31.3333 186.967 31.2333C187.133 31.1 187.333 31.0667 187.567 31.0333H187.533ZM192.033 29.6333V36.6333H194V33.8667H196V36.6333H197.967V29.6333H196V32.1667H194V29.6333H192.033ZM198.933 29.6333V31.3H200.767V36.6333H202.733V31.3H204.567V29.6333H198.933ZM205.5 29.6333V36.6333H207.467V33.8667H209.467V36.6333H211.433V29.6333H209.467V32.1667H207.467V29.6333H205.5ZM218.267 32.5C218.267 32.0667 218.233 31.7 218.133 31.3333C218.033 30.9667 217.9 30.6333 217.667 30.3667C217.467 30.1 217.167 29.8667 216.8 29.7C216.433 29.5333 216 29.4667 215.467 29.4667C215.067 29.4667 214.733 29.5 214.4 29.5667C214.1 29.6333 213.8 29.7 213.567 29.8C213.333 29.9 213.133 30 213 30.1L213.367 31.5C213.5 31.4 213.667 31.3 213.867 31.2333C214.067 31.1667 214.267 31.1 214.467 31.0333C214.667 31 214.9 30.9667 215.1 30.9667C215.333 30.9667 215.533 31 215.7 31.0667C215.867 31.1333 215.967 31.2 216.067 31.3C216.133 31.4 216.2 31.5 216.233 31.6C216.267 31.7 216.267 31.8 216.267 31.9V32C215.7 32 215.2 32.0667 214.733 32.1667C214.267 32.2667 213.9 32.4333 213.567 32.6667C213.233 32.9 213 33.1667 212.8 33.5C212.633 33.8333 212.533 34.2333 212.533 34.7C212.533 34.9667 212.567 35.2667 212.667 35.5C212.767 35.7667 212.9 36 213.067 36.2C213.233 36.4 213.467 36.5667 213.7 36.6667C213.967 36.8 214.233 36.8333 214.567 36.8333C214.933 36.8333 215.3 36.7667 215.6 36.6C215.9 36.4667 216.167 36.2333 216.367 35.9667H216.4L216.5 36.6667H218.267C218.233 36.5333 218.233 36.3667 218.2 36.2C218.2 36.0333 218.167 35.8333 218.167 35.6333C218.167 35.4333 218.167 35.2 218.167 35V32.5667L218.267 32.5ZM216.367 34.1C216.367 34.1667 216.367 34.2333 216.367 34.3C216.367 34.3667 216.333 34.4333 216.333 34.4667C216.3 34.6333 216.2 34.7667 216.133 34.8667C216.033 35 215.9 35.0667 215.767 35.1667C215.633 35.2333 215.467 35.2667 215.333 35.2667C215.2 35.2667 215.067 35.2333 214.933 35.1667C214.8 35.1 214.733 35 214.667 34.9C214.6 34.7667 214.567 34.6333 214.567 34.4333C214.567 34.1667 214.667 33.9333 214.8 33.7667C214.967 33.6 215.167 33.5 215.467 33.4333C215.733 33.3667 216.067 33.3333 216.4 33.3333V34.1H216.367ZM225.433 29.7C225.233 29.6667 225.033 29.6667 224.767 29.6333C224.5 29.6 224.233 29.6 223.933 29.5667C223.633 29.5667 223.333 29.5333 223 29.5333C222.7 29.5333 222.433 29.5333 222.133 29.5667C221.833 29.6 221.567 29.6333 221.333 29.7C221.067 29.7667 220.867 29.8333 220.667 29.9667C220.467 30.0667 220.267 30.2 220.1 30.3667C219.933 30.5333 219.8 30.7 219.733 30.9C219.633 31.1 219.6 31.3667 219.6 31.6667C219.6 31.9333 219.667 32.2 219.767 32.4C219.867 32.6 220 32.7667 220.167 32.9333C220.333 33.0667 220.5 33.2 220.7 33.2667C220.9 33.3333 221.067 33.4 221.267 33.4333V33.4667C221.1 33.5 220.933 33.5667 220.833 33.6667C220.7 33.7667 220.567 33.8667 220.467 34C220.367 34.1333 220.267 34.2667 220.2 34.4333C220.1 34.6 220.033 34.7667 219.967 34.9333C219.9 35.1 219.833 35.3 219.767 35.4667C219.7 35.6333 219.633 35.8 219.6 35.9333C219.533 36.0667 219.467 36.2 219.4 36.3333C219.333 36.4667 219.267 36.6 219.2 36.7H221.3C221.333 36.6 221.4 36.5 221.433 36.4C221.467 36.3 221.5 36.2333 221.533 36.1333C221.6 35.9333 221.667 35.7667 221.7 35.5667C221.767 35.3667 221.833 35.2 221.9 35C221.967 34.8333 222.067 34.6667 222.2 34.5667C222.3 34.4333 222.433 34.3 222.567 34.2C222.7 34.1 222.9 34.0667 223.1 34.0667H223.5V36.7H225.433V29.7667V29.7ZM223.5 32.7C223.433 32.7 223.333 32.7 223.233 32.7C223.133 32.7 223 32.7 222.867 32.7C222.733 32.7 222.567 32.6667 222.433 32.6333C222.3 32.6 222.167 32.5333 222.033 32.4667C221.933 32.4 221.833 32.3 221.767 32.2C221.7 32.1 221.667 31.9667 221.667 31.8C221.667 31.6 221.733 31.4 221.833 31.2667C221.933 31.1333 222.1 31.0333 222.267 30.9667C222.433 30.9 222.633 30.8667 222.867 30.8667C223.033 30.8667 223.133 30.8667 223.267 30.9C223.367 30.9 223.467 30.9333 223.533 30.9333V32.6667L223.5 32.7ZM229.633 29.6667V36.6667H231.6V33.9H231.8C232.1 33.9 232.367 34 232.6 34.2C232.8 34.4 233 34.7 233.133 35.1C233.267 35.4667 233.367 35.8 233.433 36.0333C233.533 36.3 233.6 36.5 233.7 36.6333H235.767C235.667 36.4 235.567 36.1667 235.467 35.9333C235.367 35.7 235.3 35.4333 235.2 35.2C235.133 34.9667 235.033 34.7667 234.967 34.5667C234.833 34.2333 234.7 33.9333 234.567 33.6333C234.4 33.3667 234.233 33.1333 234.033 32.9667C233.833 32.8 233.6 32.6667 233.367 32.6333L235.7 29.6333H233.4L231.8 32.4333H231.6V29.6333H229.633V29.6667ZM241.767 32.5333C241.767 32.1 241.733 31.7333 241.633 31.3667C241.533 31 241.4 30.6667 241.167 30.4C240.967 30.1333 240.667 29.9 240.3 29.7333C239.933 29.5667 239.5 29.5 238.967 29.5C238.567 29.5 238.233 29.5333 237.9 29.6C237.6 29.6667 237.3 29.7333 237.067 29.8333C236.833 29.9333 236.633 30.0333 236.5 30.1333L236.867 31.5333C237 31.4333 237.167 31.3333 237.367 31.2667C237.567 31.2 237.767 31.1333 237.967 31.0667C238.167 31.0333 238.4 31 238.6 31C238.833 31 239.033 31.0333 239.2 31.1C239.367 31.1667 239.467 31.2333 239.567 31.3333C239.633 31.4333 239.7 31.5333 239.733 31.6333C239.767 31.7333 239.767 31.8333 239.767 31.9333V32.0333C239.2 32.0333 238.7 32.1 238.233 32.2C237.767 32.3 237.4 32.4667 237.067 32.7C236.733 32.9333 236.5 33.2 236.3 33.5333C236.133 33.8667 236.033 34.2667 236.033 34.7333C236.033 35 236.067 35.3 236.167 35.5333C236.267 35.8 236.4 36.0333 236.567 36.2333C236.733 36.4333 236.967 36.6 237.2 36.7C237.467 36.8333 237.733 36.8667 238.067 36.8667C238.433 36.8667 238.8 36.8 239.1 36.6333C239.4 36.5 239.667 36.2667 239.867 36H239.9L240 36.7H241.767C241.733 36.5667 241.733 36.4 241.7 36.2333C241.7 36.0667 241.667 35.8667 241.667 35.6667C241.667 35.4667 241.667 35.2333 241.667 35.0333V32.6L241.767 32.5333ZM239.867 34.1333C239.867 34.2 239.867 34.2667 239.867 34.3333C239.867 34.4 239.833 34.4667 239.833 34.5C239.8 34.6667 239.7 34.8 239.633 34.9C239.533 35.0333 239.4 35.1 239.267 35.2C239.133 35.2667 238.967 35.3 238.833 35.3C238.7 35.3 238.567 35.2667 238.433 35.2C238.3 35.1333 238.233 35.0333 238.167 34.9333C238.1 34.8 238.067 34.6667 238.067 34.4667C238.067 34.2 238.167 33.9667 238.3 33.8C238.467 33.6333 238.667 33.5333 238.967 33.4667C239.233 33.4 239.567 33.3667 239.9 33.3667V34.1333H239.867ZM243.333 39.5H245.3V36.0333H245.333C245.433 36.2 245.567 36.3333 245.733 36.4333C245.9 36.5667 246.067 36.6333 246.3 36.7333C246.5 36.8 246.733 36.8333 247 36.8333C247.3 36.8333 247.567 36.8 247.833 36.7C248.1 36.6 248.367 36.4667 248.6 36.2667C248.833 36.0667 249.067 35.8333 249.233 35.5333C249.433 35.2333 249.567 34.8667 249.667 34.4667C249.767 34.0667 249.833 33.6 249.833 33.1C249.833 32.5333 249.767 32.0333 249.633 31.6C249.5 31.1667 249.3 30.8 249.067 30.4667C248.833 30.1667 248.533 29.9333 248.233 29.7667C247.933 29.6 247.6 29.5333 247.233 29.5333C246.767 29.5333 246.367 29.6333 246 29.8333C245.633 30.0333 245.367 30.3 245.1 30.6667H245.067L244.967 29.7H243.267C243.267 30.0333 243.3 30.4 243.3 30.7667C243.3 31.1667 243.3 31.5667 243.3 32.0333V39.5H243.333ZM245.3 32.7C245.3 32.6333 245.3 32.5667 245.3 32.5C245.3 32.4333 245.333 32.3667 245.333 32.3C245.367 32.0667 245.467 31.9 245.567 31.7333C245.667 31.5667 245.833 31.4333 245.967 31.3333C246.133 31.2333 246.3 31.2 246.5 31.2C246.8 31.2 247.033 31.3 247.233 31.4667C247.433 31.6333 247.567 31.8667 247.667 32.1667C247.767 32.4667 247.8 32.8 247.8 33.1667C247.8 33.5667 247.733 33.9 247.633 34.2C247.533 34.5 247.367 34.7333 247.167 34.9C246.967 35.0667 246.733 35.1333 246.433 35.1333C246.233 35.1333 246.067 35.1 245.9 35C245.733 34.9 245.6 34.8 245.5 34.6333C245.4 34.4667 245.3 34.3 245.267 34.1C245.267 34.0333 245.233 33.9667 245.233 33.8667C245.233 33.8 245.233 33.7 245.233 33.6333V32.6667L245.3 32.7ZM250.467 29.6667V31.3333H252.3V36.6667H254.267V31.3333H256.1V29.6667H250.467ZM262.333 32.5333C262.333 32.1 262.3 31.7333 262.2 31.3667C262.1 31 261.967 30.6667 261.733 30.4C261.533 30.1333 261.233 29.9 260.867 29.7333C260.5 29.5667 260.067 29.5 259.533 29.5C259.133 29.5 258.8 29.5333 258.467 29.6C258.167 29.6667 257.867 29.7333 257.633 29.8333C257.4 29.9333 257.2 30.0333 257.067 30.1333L257.433 31.5333C257.567 31.4333 257.733 31.3333 257.933 31.2667C258.133 31.2 258.333 31.1333 258.533 31.0667C258.733 31.0333 258.967 31 259.167 31C259.4 31 259.6 31.0333 259.767 31.1C259.933 31.1667 260.033 31.2333 260.133 31.3333C260.2 31.4333 260.267 31.5333 260.3 31.6333C260.333 31.7333 260.333 31.8333 260.333 31.9333V32.0333C259.767 32.0333 259.267 32.1 258.8 32.2C258.333 32.3 257.967 32.4667 257.633 32.7C257.3 32.9333 257.067 33.2 256.867 33.5333C256.7 33.8667 256.6 34.2667 256.6 34.7333C256.6 35 256.633 35.3 256.733 35.5333C256.833 35.8 256.967 36.0333 257.133 36.2333C257.3 36.4333 257.533 36.6 257.767 36.7C258.033 36.8333 258.3 36.8667 258.633 36.8667C259 36.8667 259.367 36.8 259.667 36.6333C259.967 36.5 260.233 36.2667 260.433 36H260.467L260.6 36.7H262.367C262.333 36.5667 262.333 36.4 262.3 36.2333C262.3 36.0667 262.267 35.8667 262.267 35.6667C262.267 35.4667 262.267 35.2333 262.267 35.0333V32.6L262.333 32.5333ZM260.433 34.1333C260.433 34.2 260.433 34.2667 260.433 34.3333C260.433 34.4 260.4 34.4667 260.4 34.5C260.367 34.6667 260.267 34.8 260.2 34.9C260.1 35.0333 259.967 35.1 259.833 35.2C259.7 35.2667 259.533 35.3 259.4 35.3C259.267 35.3 259.133 35.2667 259 35.2C258.867 35.1333 258.8 35.0333 258.733 34.9333C258.667 34.8 258.633 34.6667 258.633 34.4667C258.633 34.2 258.733 33.9667 258.867 33.8C259.033 33.6333 259.233 33.5333 259.533 33.4667C259.8 33.4 260.133 33.3667 260.467 33.3667V34.1333H260.433Z" fill="#2B2A29"/>
<path d="M154.033 133.1L156.233 140.6H158.433L159.2 137.967C159.267 137.733 159.333 137.5 159.367 137.267C159.433 137.033 159.467 136.767 159.533 136.5C159.567 136.233 159.633 135.933 159.667 135.633H159.7C159.767 135.933 159.8 136.233 159.867 136.5C159.933 136.767 159.967 137 160.033 137.267C160.1 137.5 160.133 137.767 160.2 138L160.9 140.633H163.067L165.367 133.133H163.067L162.433 136.1C162.333 136.533 162.267 136.967 162.167 137.4C162.1 137.833 162.033 138.267 161.967 138.667H161.933C161.867 138.233 161.767 137.8 161.7 137.4C161.6 136.967 161.5 136.567 161.4 136.133L160.633 133.133H158.8L158 136.233C157.9 136.6 157.833 137 157.733 137.4C157.633 137.8 157.533 138.233 157.467 138.667H157.433C157.367 138.233 157.3 137.8 157.233 137.4C157.167 137 157.1 136.6 157.033 136.2L156.433 133.1H154.067H154.033Z" fill="#2B2A29"/>
<path d="M166 133.1L168.2 140.6H170.4L171.167 137.967C171.233 137.733 171.3 137.5 171.333 137.267C171.4 137.033 171.433 136.767 171.5 136.5C171.533 136.233 171.6 135.933 171.633 135.633H171.667C171.733 135.933 171.767 136.233 171.833 136.5C171.9 136.767 171.933 137 172 137.267C172.067 137.5 172.1 137.767 172.167 138L172.867 140.633H175.033L177.333 133.133H175.033L174.4 136.1C174.3 136.533 174.233 136.967 174.133 137.4C174.067 137.833 174 138.267 173.933 138.667H173.9C173.833 138.233 173.733 137.8 173.667 137.4C173.567 136.967 173.467 136.567 173.367 136.133L172.6 133.133H170.767L169.967 136.233C169.867 136.6 169.8 137 169.7 137.4C169.6 137.8 169.5 138.233 169.433 138.667H169.4C169.333 138.233 169.267 137.8 169.2 137.4C169.133 137 169.067 136.6 169 136.2L168.4 133.1H166.033H166Z" fill="#2B2A29"/>
<path d="M177.933 133.1L180.133 140.6H182.333L183.1 137.967C183.167 137.733 183.233 137.5 183.267 137.267C183.333 137.033 183.367 136.767 183.433 136.5C183.467 136.233 183.533 135.933 183.567 135.633H183.6C183.667 135.933 183.7 136.233 183.767 136.5C183.833 136.767 183.867 137 183.933 137.267C184 137.5 184.033 137.767 184.1 138L184.8 140.633H186.967L189.267 133.133H186.967L186.333 136.1C186.233 136.533 186.167 136.967 186.067 137.4C186 137.833 185.933 138.267 185.867 138.667H185.833C185.767 138.233 185.667 137.8 185.6 137.4C185.5 136.967 185.4 136.567 185.3 136.133L184.533 133.133H182.7L181.9 136.233C181.8 136.6 181.733 137 181.633 137.4C181.533 137.8 181.433 138.233 181.367 138.667H181.333C181.267 138.233 181.2 137.8 181.133 137.4C181.067 137 181 136.6 180.933 136.2L180.333 133.1H177.967H177.933Z" fill="#2B2A29"/>
<path d="M190.767 140.767C191.067 140.767 191.3 140.7 191.5 140.567C191.7 140.433 191.867 140.267 192 140.067C192.1 139.867 192.167 139.6 192.167 139.333C192.167 139.033 192.1 138.8 191.967 138.567C191.867 138.367 191.7 138.2 191.5 138.067C191.3 137.933 191.067 137.9 190.8 137.9C190.533 137.9 190.3 137.967 190.067 138.067C189.867 138.2 189.7 138.367 189.567 138.567C189.467 138.767 189.4 139.033 189.4 139.3C189.4 139.567 189.467 139.8 189.567 140.033C189.667 140.233 189.833 140.4 190.033 140.533C190.233 140.667 190.467 140.733 190.733 140.733L190.767 140.767Z" fill="#2B2A29"/>
<path d="M192.8 133.1L195.533 140.6H197.867L200.667 133.1H198.2L197.233 136.567C197.133 136.9 197.067 137.2 197 137.5C196.933 137.8 196.867 138.1 196.8 138.4H196.767C196.7 138.1 196.633 137.8 196.567 137.5C196.5 137.2 196.433 136.9 196.333 136.567L195.333 133.1H192.8Z" fill="#2B2A29"/>
<path d="M202.033 131.7V133.1H201.033V134.833H202.033V137.9C202.033 138.433 202.1 138.867 202.2 139.233C202.3 139.6 202.467 139.9 202.7 140.1C202.9 140.3 203.133 140.467 203.433 140.567C203.733 140.7 204.067 140.733 204.467 140.733C204.8 140.733 205.1 140.7 205.367 140.667C205.633 140.633 205.833 140.567 206 140.533V138.767C205.933 138.767 205.867 138.8 205.8 138.8C205.733 138.8 205.667 138.8 205.6 138.833C205.533 138.833 205.433 138.833 205.333 138.833C205.1 138.833 204.933 138.8 204.8 138.7C204.667 138.6 204.567 138.467 204.5 138.267C204.433 138.067 204.4 137.833 204.4 137.533V134.833H206.067V133.1H204.4V131.067L202.1 131.7H202.033Z" fill="#2B2A29"/>
<path d="M210.867 132.9C210.267 132.9 209.7 133 209.2 133.167C208.7 133.367 208.3 133.633 207.933 133.967C207.567 134.3 207.3 134.733 207.133 135.233C206.933 135.733 206.833 136.267 206.833 136.9C206.833 137.5 206.933 138.067 207.133 138.533C207.333 139 207.6 139.4 207.967 139.733C208.333 140.067 208.733 140.333 209.2 140.5C209.667 140.667 210.167 140.767 210.733 140.767C211.133 140.767 211.533 140.7 211.933 140.6C212.333 140.5 212.667 140.333 213 140.133C213.333 139.933 213.633 139.667 213.867 139.333C214.133 139 214.333 138.633 214.467 138.2C214.6 137.767 214.667 137.267 214.7 136.733C214.7 136.167 214.6 135.633 214.433 135.167C214.267 134.7 214 134.3 213.667 133.933C213.333 133.6 212.933 133.333 212.467 133.133C212 132.933 211.467 132.867 210.9 132.867L210.867 132.9ZM210.8 134.567C211.067 134.567 211.3 134.633 211.467 134.767C211.667 134.9 211.8 135.067 211.933 135.267C212.067 135.467 212.133 135.733 212.2 136C212.267 136.267 212.3 136.533 212.3 136.8C212.3 137.267 212.233 137.667 212.133 138C212 138.333 211.833 138.6 211.633 138.8C211.4 139 211.133 139.1 210.833 139.1C210.5 139.1 210.233 139 210 138.8C209.767 138.6 209.6 138.333 209.467 138C209.333 137.667 209.3 137.267 209.3 136.833C209.3 136.567 209.333 136.267 209.4 136C209.467 135.733 209.533 135.5 209.667 135.267C209.8 135.033 209.933 134.867 210.133 134.733C210.333 134.6 210.567 134.533 210.833 134.533L210.8 134.567Z" fill="#2B2A29"/>
<path d="M216.133 143.633H218.467V139.9H218.5C218.6 140.067 218.767 140.2 218.967 140.333C219.167 140.467 219.367 140.567 219.633 140.633C219.9 140.7 220.167 140.733 220.467 140.733C220.8 140.733 221.133 140.667 221.467 140.567C221.8 140.467 222.1 140.3 222.4 140.1C222.7 139.9 222.933 139.633 223.167 139.3C223.4 138.967 223.567 138.6 223.7 138.167C223.833 137.733 223.9 137.233 223.9 136.7C223.9 136.1 223.8 135.567 223.633 135.1C223.467 134.633 223.233 134.233 222.933 133.9C222.633 133.567 222.3 133.333 221.933 133.133C221.567 132.967 221.167 132.867 220.767 132.867C220.233 132.867 219.733 132.967 219.3 133.167C218.867 133.367 218.533 133.667 218.267 134.067H218.233L218.133 133.033H216.1C216.1 133.4 216.133 133.767 216.133 134.2C216.133 134.633 216.167 135.067 216.167 135.567V143.6L216.133 143.633ZM218.467 136.333C218.467 136.267 218.467 136.2 218.467 136.133C218.467 136.067 218.5 136 218.5 135.933C218.567 135.7 218.633 135.5 218.8 135.333C218.933 135.167 219.1 135.033 219.3 134.933C219.5 134.833 219.7 134.767 219.933 134.767C220.267 134.767 220.567 134.867 220.8 135.033C221.033 135.2 221.2 135.467 221.333 135.767C221.467 136.067 221.5 136.433 221.5 136.833C221.5 137.267 221.433 137.633 221.3 137.933C221.167 138.267 221 138.5 220.733 138.667C220.5 138.833 220.2 138.933 219.867 138.933C219.633 138.933 219.433 138.867 219.233 138.8C219.033 138.7 218.9 138.567 218.767 138.4C218.633 138.233 218.533 138.033 218.5 137.833C218.5 137.767 218.467 137.667 218.467 137.6C218.467 137.533 218.467 137.433 218.467 137.333V136.3V136.333Z" fill="#2B2A29"/>
<path d="M227.633 129.7H225.3V140.6H227.633V138.267L228.233 137.533L230.067 140.633H232.933L229.867 136.167L232.567 133.133H229.767L228.233 135.4C228.133 135.533 228.033 135.7 227.967 135.833C227.867 136 227.8 136.133 227.7 136.3H227.667V129.733L227.633 129.7Z" fill="#2B2A29"/>
<path d="M240.7 133.1H238.367V137.567C238.367 137.767 238.333 137.933 238.267 138.067C238.233 138.2 238.133 138.333 238.033 138.433C237.933 138.567 237.8 138.667 237.633 138.733C237.467 138.8 237.3 138.867 237.067 138.867C236.8 138.867 236.567 138.8 236.4 138.667C236.233 138.533 236.1 138.333 236 138.067C235.933 137.8 235.867 137.5 235.867 137.133V133.1H233.533V137.5C233.533 138.267 233.667 138.9 233.867 139.367C234.1 139.833 234.4 140.2 234.8 140.433C235.2 140.667 235.633 140.767 236.167 140.767C236.5 140.767 236.8 140.733 237.067 140.633C237.333 140.567 237.567 140.433 237.733 140.333C237.933 140.2 238.1 140.067 238.2 139.933C238.333 139.8 238.433 139.667 238.5 139.533H238.533L238.633 140.6H240.667C240.667 140.3 240.633 139.933 240.633 139.533C240.633 139.133 240.6 138.7 240.6 138.2V133.1H240.7Z" fill="#2B2A29"/>
<path d="M246.567 140.6H248.9V136.267C248.9 136.167 248.9 136.067 248.9 135.967C248.9 135.867 248.933 135.767 248.967 135.7C249.033 135.567 249.1 135.4 249.2 135.267C249.3 135.133 249.433 135.033 249.6 134.933C249.767 134.833 249.933 134.8 250.167 134.8C250.433 134.8 250.667 134.867 250.833 135C251 135.133 251.133 135.333 251.2 135.567C251.267 135.8 251.333 136.1 251.333 136.433V140.6H253.667V136.167C253.667 135.6 253.6 135.133 253.467 134.733C253.333 134.333 253.133 134 252.9 133.733C252.667 133.467 252.367 133.267 252.033 133.133C251.7 133 251.367 132.933 250.967 132.933C250.667 132.933 250.367 132.967 250.133 133.067C249.867 133.133 249.667 133.233 249.467 133.367C249.267 133.5 249.1 133.633 248.967 133.767C248.833 133.9 248.733 134.033 248.667 134.167H248.633L248.533 133.133H246.5C246.5 133.467 246.533 133.833 246.533 134.233C246.533 134.633 246.567 135.067 246.567 135.533V140.633V140.6Z" fill="#2B2A29"/>
<path d="M262.167 137.6C262.2 137.5 262.2 137.4 262.234 137.233C262.234 137.067 262.267 136.9 262.267 136.7C262.267 136.333 262.234 135.967 262.167 135.6C262.1 135.233 261.967 134.9 261.8 134.567C261.634 134.233 261.434 133.967 261.167 133.733C260.9 133.5 260.6 133.3 260.234 133.167C259.867 133.033 259.434 132.967 258.967 132.967C258.434 132.967 257.967 133.033 257.567 133.2C257.167 133.367 256.8 133.567 256.5 133.833C256.2 134.1 255.967 134.4 255.767 134.733C255.567 135.067 255.434 135.433 255.334 135.833C255.234 136.2 255.2 136.6 255.2 136.967C255.2 137.767 255.367 138.433 255.667 139C255.967 139.567 256.434 140 257.034 140.333C257.634 140.633 258.367 140.8 259.2 140.8C259.7 140.8 260.2 140.767 260.667 140.667C261.134 140.6 261.534 140.467 261.934 140.3L261.634 138.733C261.334 138.833 261 138.933 260.667 138.967C260.334 139.033 259.967 139.033 259.567 139.033C259.3 139.033 259.034 139 258.8 138.933C258.567 138.867 258.334 138.8 258.134 138.667C257.934 138.533 257.767 138.4 257.667 138.233C257.534 138.067 257.467 137.833 257.467 137.6H262.3H262.167ZM257.334 136C257.334 135.833 257.4 135.667 257.434 135.5C257.5 135.333 257.567 135.167 257.7 135C257.8 134.833 257.967 134.733 258.134 134.633C258.3 134.533 258.534 134.5 258.767 134.467C259.034 134.467 259.267 134.533 259.434 134.633C259.6 134.733 259.734 134.867 259.834 135.033C259.934 135.2 260 135.367 260.034 135.533C260.067 135.7 260.1 135.867 260.1 136H257.334Z" fill="#2B2A29"/>
<path d="M263.967 131.7V133.1H262.967V134.833H263.967V137.9C263.967 138.433 264.033 138.867 264.133 139.233C264.233 139.6 264.4 139.9 264.633 140.1C264.833 140.3 265.067 140.467 265.367 140.567C265.667 140.7 266 140.733 266.4 140.733C266.733 140.733 267.033 140.7 267.3 140.667C267.567 140.633 267.767 140.567 267.933 140.533V138.767C267.867 138.767 267.8 138.8 267.733 138.8C267.667 138.8 267.6 138.8 267.533 138.833C267.467 138.833 267.367 138.833 267.267 138.833C267.033 138.833 266.867 138.8 266.733 138.7C266.6 138.6 266.5 138.467 266.433 138.267C266.367 138.067 266.333 137.833 266.333 137.533V134.833H268V133.1H266.333V131.067L264.033 131.7H263.967Z" fill="#2B2A29"/>
<path d="M243.733 140.767C244.033 140.767 244.267 140.7 244.467 140.567C244.667 140.433 244.833 140.267 244.967 140.067C245.067 139.867 245.133 139.6 245.133 139.333C245.133 139.033 245.067 138.8 244.933 138.567C244.833 138.367 244.667 138.2 244.467 138.067C244.267 137.933 244.033 137.9 243.767 137.9C243.5 137.9 243.267 137.967 243.033 138.067C242.833 138.2 242.667 138.367 242.533 138.567C242.433 138.767 242.367 139.033 242.367 139.3C242.367 139.567 242.433 139.8 242.533 140.033C242.633 140.233 242.8 140.4 243 140.533C243.2 140.667 243.433 140.733 243.7 140.733L243.733 140.767Z" fill="#2B2A29"/>
<path fill-rule="evenodd" clip-rule="evenodd" d="M74.0667 157.333L59.9667 156.133L65.1334 117.4L67.5334 100.1C67.5334 100.1 54.0334 94.3333 47.6667 92.5333C41.3001 90.7333 41.7001 89.1667 41.7001 89.1667C41.7001 89.1667 65.1334 92.5333 67.1334 92.7333C69.1334 92.9333 69.3334 92.9333 69.3334 92.9333L61.4001 52.6L72.7334 91.3333L89.4334 69.6667L72.9334 97.3C75.3334 116.167 75.4334 136.333 74.1334 157.3L74.0667 157.333Z" fill="url(#paint0_linear)"/>
<path fill-rule="evenodd" clip-rule="evenodd" d="M42.0668 85C42.0668 85 39.3001 83.8 43.2668 80.6333C47.2334 77.4667 52.8001 78.2333 52.8001 78.2333L60.9334 81.6C60.9334 81.6 60.7334 83.8 56.3668 85.3667C48.7668 88.1333 50.1001 87.9 42.0668 84.9667V85Z" fill="#83BC37"/>
<path fill-rule="evenodd" clip-rule="evenodd" d="M73.6668 60.1667C79.9668 50.8667 80.9335 65.6 80.0335 70.1C78.6335 77.0667 75.8668 79.6333 75.8668 79.6333C75.8668 79.6333 71.5001 75.8667 71.7001 69.9C71.9001 63.9333 73.7001 60.1667 73.7001 60.1667H73.6668Z" fill="url(#paint1_linear)"/>
<path fill-rule="evenodd" clip-rule="evenodd" d="M90.7334 66.9C90.7334 66.9 85.1667 58.5667 85.1667 49.6C85.1667 40.6667 94.1001 36.1 94.1001 36.1C94.1001 36.1 96.3001 35.1 97.2667 44.4333C98.2667 53.7667 94.8667 59.3333 94.1001 60.9333C93.3001 62.5333 90.7334 66.9 90.7334 66.9Z" fill="#6CB536"/>
<path fill-rule="evenodd" clip-rule="evenodd" d="M59.7 46.7667C59.7 46.7667 56.2667 44.9667 52.3667 37.4333C48.4333 29.9 47.9333 26.1 48.0667 23.1667C48.2 20.2333 49.3667 18.3 49.3667 18.3C49.3667 18.3 51.3 14.8667 54.7333 18.5C58.1667 22.1 59.7 22.9667 61.1333 26.9667C62.5667 30.9667 61.3667 38.3 61.1333 40.6667C60.9 43.0333 59.7 46.7667 59.7 46.7667Z" fill="#6CB536"/>
<path fill-rule="evenodd" clip-rule="evenodd" d="M61.3333 52.6C61.3333 52.6 60.3666 49.3 62.4666 43.6333C64.6 37.9667 67.8333 36.2333 70.4333 35.0333C73.0333 33.8667 75.0333 33.7333 75.0333 33.7333C75.0333 33.7333 78.1333 32.5 77.3333 36.3333C76.5333 40.2 75.5333 42.1333 73.1666 45.2333C70.8 48.3333 61.3 52.5667 61.3 52.5667L61.3333 52.6Z" fill="#6CB536"/>
<path fill-rule="evenodd" clip-rule="evenodd" d="M152.733 114.933H161.533V112.7H169.4V114.733H260.1V112.7H268.067V82.3333C268.067 82.3333 268.7 82.5333 269.533 82.9C270.367 83.2667 271.767 82.8 271.767 82.8C271.767 82.8 274.467 82.0667 276.5 80.6667C278.533 79.2667 276.033 78.9 276.033 78.9C276.033 78.9 212.067 57.8 209.4 56.3333C206.7 54.8667 203.3 56.3333 203.3 56.3333C203.3 56.3333 199.233 57.6667 193.133 59.7V55.6H179.067V64.0333H180.033C161.5 70.1667 138.367 77.8333 136.767 78.5667C134.067 79.7667 135.933 80.8 135.933 80.8C135.933 80.8 139.467 82.4667 140.833 82.9333C142.233 83.4 144.633 82.4667 144.633 82.4667L152.767 79.7V114.933H152.733ZM169.4 99.1H260.1V111.867H267.133V81.8L208.633 62.2667C208.633 62.2667 206.767 61.3333 204.733 62.0667C202.7 62.8 191.967 66.4333 191.967 66.4333L161.533 76.7333V111.9H169.4V99.1333V99.1Z" stroke="#FCF2D8" stroke-width="0.2" stroke-linecap="round" stroke-linejoin="round"/>
<path fill-rule="evenodd" clip-rule="evenodd" d="M152.733 114.933H161.533V112.7H169.4V114.733H260.1V112.7H268.067V82.3333C268.067 82.3333 268.7 82.5333 269.533 82.9C270.367 83.2667 271.767 82.8 271.767 82.8C271.767 82.8 274.467 82.0667 276.5 80.6667C278.533 79.2667 276.033 78.9 276.033 78.9C276.033 78.9 212.067 57.8 209.4 56.3333C206.7 54.8667 203.3 56.3333 203.3 56.3333C203.3 56.3333 199.233 57.6667 193.133 59.7V55.6H179.067V64.0333H180.033C161.5 70.1667 138.367 77.8333 136.767 78.5667C134.067 79.7667 135.933 80.8 135.933 80.8C135.933 80.8 139.467 82.4667 140.833 82.9333C142.233 83.4 144.633 82.4667 144.633 82.4667L152.767 79.7V114.933H152.733ZM169.4 99.1H260.1V111.867H267.133V81.8L208.633 62.2667C208.633 62.2667 206.767 61.3333 204.733 62.0667C202.7 62.8 191.967 66.4333 191.967 66.4333L161.533 76.7333V111.9H169.4V99.1333V99.1Z" fill="#83BC37"/>
<path d="M164.833 87.4333H171.967C171.867 88.2333 171.633 88.9667 171.2 89.6C170.767 90.2333 170.233 90.7 169.533 91.0667C168.833 91.4333 168 91.6 167.033 91.6C166.633 91.6 166.233 91.5667 165.833 91.5333C165.433 91.5 165.033 91.4 164.7 91.3333C164.333 91.2333 164 91.1333 163.733 91.0333L163.067 93.9333C163.367 94.0667 163.733 94.2 164.167 94.3C164.633 94.4333 165.1 94.5333 165.667 94.6C166.2 94.6667 166.767 94.7 167.367 94.7333C168.367 94.7333 169.267 94.6 170.167 94.3667C171.033 94.1333 171.833 93.7667 172.567 93.3C173.3 92.8333 173.9 92.2667 174.433 91.5667C174.967 90.8667 175.367 90.0667 175.667 89.1667C175.967 88.2667 176.1 87.2333 176.1 86.1C176.1 85.1667 176 84.2667 175.8 83.4333C175.6 82.5667 175.267 81.8 174.867 81.0667C174.433 80.3333 173.9 79.7 173.233 79.1667C172.567 78.6333 171.8 78.2 170.867 77.9C169.967 77.6 168.933 77.4667 167.767 77.4333C167.167 77.4333 166.567 77.4667 166.033 77.5667C165.5 77.6667 164.967 77.7667 164.5 77.9333C164.033 78.0667 163.633 78.2333 163.3 78.3667L164.033 81.1667C164.333 81.0333 164.633 80.9333 165 80.8333C165.367 80.7333 165.733 80.6333 166.167 80.5667C166.567 80.5 167 80.4667 167.467 80.4667C168.167 80.4667 168.767 80.5667 169.333 80.7667C169.867 80.9667 170.333 81.2667 170.733 81.6C171.133 81.9667 171.433 82.4 171.633 82.8667C171.867 83.3333 172 83.8667 172.067 84.4333H164.9V87.3667L164.833 87.4333ZM178.567 77.7333V94.4333H182.267V87.4667H183C183.667 87.4667 184.233 87.6333 184.667 87.9C185.1 88.2 185.433 88.5667 185.7 89.0667C185.967 89.5667 186.2 90.1333 186.367 90.7667C186.567 91.4 186.767 92 186.933 92.6333C187.133 93.2667 187.367 93.8667 187.633 94.4333H191.7C191.3 93.6 190.967 92.7333 190.667 91.8667C190.367 91 190.067 90.1 189.767 89.2C189.533 88.5333 189.267 87.9333 188.933 87.4C188.6 86.8667 188.2 86.4 187.733 86.0333C187.267 85.6667 186.667 85.4 185.933 85.2L191.767 77.7667H187.2L182.633 84.7333H182.3V77.7667H178.6L178.567 77.7333ZM200.867 77.4333C199.633 77.4333 198.533 77.6667 197.533 78.1C196.533 78.5333 195.7 79.1333 194.967 79.9333C194.267 80.7333 193.7 81.6333 193.333 82.7C192.967 83.7667 192.767 84.9 192.767 86.1667C192.767 87.1333 192.867 88.0333 193.1 88.9C193.333 89.7667 193.667 90.5333 194.1 91.2333C194.533 91.9333 195.067 92.5333 195.7 93.0667C196.333 93.5667 197.067 93.9667 197.867 94.2667C198.7 94.5667 199.6 94.7 200.567 94.7C201.8 94.7 202.9 94.5 203.933 94.1C204.933 93.7 205.8 93.1333 206.533 92.3667C207.267 91.6 207.8 90.7 208.2 89.6C208.6 88.5 208.8 87.3 208.8 85.9C208.8 84.9667 208.7 84.1 208.467 83.2333C208.233 82.4 207.933 81.6 207.5 80.9C207.067 80.2 206.533 79.5667 205.9 79.0667C205.267 78.5333 204.533 78.1333 203.7 77.8667C202.867 77.5667 201.933 77.4333 200.9 77.4333H200.867ZM200.8 80.4333C201.467 80.4333 202.033 80.6 202.533 80.8667C203.033 81.1667 203.433 81.5667 203.8 82.0667C204.133 82.5667 204.4 83.1667 204.567 83.8333C204.733 84.5 204.833 85.2333 204.833 86C204.833 86.8 204.733 87.5667 204.567 88.2667C204.4 88.9667 204.133 89.5667 203.8 90.0667C203.467 90.5667 203.033 90.9667 202.533 91.2667C202.033 91.5333 201.467 91.7 200.833 91.7C200.2 91.7 199.633 91.5667 199.133 91.3C198.633 91.0333 198.2 90.6333 197.867 90.1333C197.5 89.6333 197.233 89.0333 197.067 88.3667C196.867 87.6667 196.8 86.9333 196.8 86.1C196.8 85.2667 196.9 84.5333 197.067 83.8333C197.233 83.1333 197.5 82.5333 197.867 82.0333C198.2 81.5333 198.633 81.1333 199.133 80.8333C199.633 80.5667 200.2 80.4 200.867 80.4L200.8 80.4333ZM216.267 94.3333C216.7 94.4 217.233 94.4667 217.933 94.5C218.633 94.5333 219.433 94.5667 220.367 94.5667C221.467 94.5667 222.433 94.5 223.267 94.4C224.1 94.3 224.833 94.1 225.433 93.9C226.033 93.6667 226.533 93.4 226.933 93.0667C227.3 92.8 227.6 92.4667 227.833 92.1C228.1 91.7333 228.3 91.3333 228.433 90.9C228.567 90.4667 228.667 90 228.667 89.4667C228.667 88.7667 228.5 88.1333 228.233 87.5667C227.933 87 227.567 86.5667 227.067 86.1667C226.567 85.8 226 85.5333 225.367 85.3667V85.3333C226 85.1 226.5 84.8 226.9 84.4333C227.3 84.0667 227.6 83.6667 227.8 83.2C228 82.7333 228.1 82.3 228.1 81.8C228.1 81.3 228 80.8333 227.833 80.4C227.667 79.9667 227.433 79.6 227.133 79.3C226.833 78.9667 226.5 78.7333 226.1 78.5C225.7 78.2667 225.233 78.0667 224.767 77.9333C224.3 77.8 223.767 77.7 223.167 77.6333C222.567 77.5667 221.9 77.5667 221.133 77.5667C220.5 77.5667 219.867 77.6 219.233 77.6C218.6 77.6333 218.033 77.6667 217.533 77.7333C217.033 77.8 216.6 77.8333 216.267 77.9V94.3V94.3333ZM220 80.4333C220.133 80.4 220.333 80.4 220.6 80.3667C220.867 80.3667 221.2 80.3333 221.6 80.3333C222.467 80.3333 223.133 80.5 223.567 80.8333C224.033 81.1667 224.267 81.6333 224.267 82.2667C224.267 82.7 224.167 83.0333 223.933 83.3333C223.7 83.6333 223.367 83.8667 222.9 84.0667C222.433 84.2333 221.9 84.3333 221.233 84.3333H220V80.4333ZM220 87.0333H221.3C221.767 87.0333 222.2 87.0667 222.633 87.1667C223.033 87.2667 223.4 87.4 223.7 87.5667C224 87.7667 224.267 88 224.433 88.3C224.6 88.6 224.7 88.9667 224.7 89.3667C224.7 89.8 224.6 90.1667 224.433 90.5C224.267 90.8 224.033 91.0667 223.733 91.2667C223.433 91.4667 223.1 91.6 222.7 91.7C222.3 91.8 221.9 91.8333 221.467 91.8333C221.133 91.8333 220.867 91.8333 220.633 91.8333C220.4 91.8333 220.2 91.8 220 91.8V87.1V87.0333ZM241.167 87.2667C241.167 86.5333 241.1 85.8667 240.9 85.2333C240.733 84.6 240.433 84.0333 240.033 83.5667C239.633 83.1 239.1 82.7 238.4 82.4333C237.733 82.1667 236.867 82.0333 235.867 82C235.133 82 234.467 82.0667 233.867 82.1667C233.267 82.2667 232.733 82.4333 232.267 82.6C231.8 82.7667 231.433 82.9333 231.167 83.1L231.867 85.5333C232.133 85.3667 232.433 85.2 232.8 85.0667C233.167 84.9333 233.533 84.8333 233.967 84.7333C234.367 84.6667 234.8 84.6 235.2 84.6C235.667 84.6 236.033 84.6667 236.333 84.7667C236.633 84.8667 236.833 85 237 85.1667C237.167 85.3333 237.267 85.5 237.333 85.6667C237.4 85.8333 237.433 86.0333 237.4 86.2V86.3333C236.333 86.3333 235.367 86.4333 234.467 86.6C233.6 86.8 232.833 87.0667 232.233 87.4667C231.6 87.8667 231.133 88.3333 230.8 88.9C230.467 89.4667 230.3 90.1667 230.3 90.9667C230.3 91.4667 230.4 91.9333 230.567 92.3667C230.733 92.8 231 93.2 231.333 93.5667C231.667 93.9333 232.067 94.2 232.567 94.4C233.033 94.6 233.6 94.7 234.2 94.7C234.933 94.7 235.567 94.5667 236.167 94.3333C236.767 94.0667 237.267 93.7 237.667 93.2333H237.733L237.967 94.4333H241.367C241.333 94.2 241.267 93.9333 241.267 93.6333C241.233 93.3333 241.233 93 241.2 92.6333C241.2 92.2667 241.2 91.9 241.2 91.5333V87.3L241.167 87.2667ZM237.533 90C237.533 90.1 237.533 90.2333 237.533 90.3333C237.533 90.4333 237.5 90.5333 237.467 90.6333C237.367 90.9 237.233 91.1333 237.067 91.3333C236.867 91.5333 236.633 91.7 236.367 91.8333C236.1 91.9667 235.833 92.0333 235.5 92.0333C235.2 92.0333 234.967 91.9667 234.733 91.8667C234.5 91.7667 234.333 91.6 234.2 91.4C234.067 91.2 234 90.9333 234 90.6C234 90.1333 234.167 89.7333 234.467 89.4667C234.767 89.2 235.2 89 235.733 88.8667C236.267 88.7333 236.867 88.7 237.533 88.7V90ZM242.967 82.3V85.2H246.467V94.4H250.233V85.2H253.733V82.3H242.933H242.967ZM254.367 82.3V85.2H257.867V94.4H261.633V85.2H265.133V82.3H254.333H254.367Z" stroke="#FCF2D8" stroke-width="0.2" stroke-linecap="round" stroke-linejoin="round"/>
<path d="M164.833 87.4333H171.967C171.867 88.2333 171.633 88.9667 171.2 89.6C170.767 90.2333 170.233 90.7 169.533 91.0667C168.833 91.4333 168 91.6 167.033 91.6C166.633 91.6 166.233 91.5667 165.833 91.5333C165.433 91.5 165.033 91.4 164.7 91.3333C164.333 91.2333 164 91.1333 163.733 91.0333L163.067 93.9333C163.367 94.0667 163.733 94.2 164.167 94.3C164.633 94.4333 165.1 94.5333 165.667 94.6C166.2 94.6667 166.767 94.7 167.367 94.7333C168.367 94.7333 169.267 94.6 170.167 94.3667C171.033 94.1333 171.833 93.7667 172.567 93.3C173.3 92.8333 173.9 92.2667 174.433 91.5667C174.967 90.8667 175.367 90.0667 175.667 89.1667C175.967 88.2667 176.1 87.2333 176.1 86.1C176.1 85.1667 176 84.2667 175.8 83.4333C175.6 82.5667 175.267 81.8 174.867 81.0667C174.433 80.3333 173.9 79.7 173.233 79.1667C172.567 78.6333 171.8 78.2 170.867 77.9C169.967 77.6 168.933 77.4667 167.767 77.4333C167.167 77.4333 166.567 77.4667 166.033 77.5667C165.5 77.6667 164.967 77.7667 164.5 77.9333C164.033 78.0667 163.633 78.2333 163.3 78.3667L164.033 81.1667C164.333 81.0333 164.633 80.9333 165 80.8333C165.367 80.7333 165.733 80.6333 166.167 80.5667C166.567 80.5 167 80.4667 167.467 80.4667C168.167 80.4667 168.767 80.5667 169.333 80.7667C169.867 80.9667 170.333 81.2667 170.733 81.6C171.133 81.9667 171.433 82.4 171.633 82.8667C171.867 83.3333 172 83.8667 172.067 84.4333H164.9V87.3667L164.833 87.4333ZM178.567 77.7333V94.4333H182.267V87.4667H183C183.667 87.4667 184.233 87.6333 184.667 87.9C185.1 88.2 185.433 88.5667 185.7 89.0667C185.967 89.5667 186.2 90.1333 186.367 90.7667C186.567 91.4 186.767 92 186.933 92.6333C187.133 93.2667 187.367 93.8667 187.633 94.4333H191.7C191.3 93.6 190.967 92.7333 190.667 91.8667C190.367 91 190.067 90.1 189.767 89.2C189.533 88.5333 189.267 87.9333 188.933 87.4C188.6 86.8667 188.2 86.4 187.733 86.0333C187.267 85.6667 186.667 85.4 185.933 85.2L191.767 77.7667H187.2L182.633 84.7333H182.3V77.7667H178.6L178.567 77.7333ZM200.867 77.4333C199.633 77.4333 198.533 77.6667 197.533 78.1C196.533 78.5333 195.7 79.1333 194.967 79.9333C194.267 80.7333 193.7 81.6333 193.333 82.7C192.967 83.7667 192.767 84.9 192.767 86.1667C192.767 87.1333 192.867 88.0333 193.1 88.9C193.333 89.7667 193.667 90.5333 194.1 91.2333C194.533 91.9333 195.067 92.5333 195.7 93.0667C196.333 93.5667 197.067 93.9667 197.867 94.2667C198.7 94.5667 199.6 94.7 200.567 94.7C201.8 94.7 202.9 94.5 203.933 94.1C204.933 93.7 205.8 93.1333 206.533 92.3667C207.267 91.6 207.8 90.7 208.2 89.6C208.6 88.5 208.8 87.3 208.8 85.9C208.8 84.9667 208.7 84.1 208.467 83.2333C208.233 82.4 207.933 81.6 207.5 80.9C207.067 80.2 206.533 79.5667 205.9 79.0667C205.267 78.5333 204.533 78.1333 203.7 77.8667C202.867 77.5667 201.933 77.4333 200.9 77.4333H200.867ZM200.8 80.4333C201.467 80.4333 202.033 80.6 202.533 80.8667C203.033 81.1667 203.433 81.5667 203.8 82.0667C204.133 82.5667 204.4 83.1667 204.567 83.8333C204.733 84.5 204.833 85.2333 204.833 86C204.833 86.8 204.733 87.5667 204.567 88.2667C204.4 88.9667 204.133 89.5667 203.8 90.0667C203.467 90.5667 203.033 90.9667 202.533 91.2667C202.033 91.5333 201.467 91.7 200.833 91.7C200.2 91.7 199.633 91.5667 199.133 91.3C198.633 91.0333 198.2 90.6333 197.867 90.1333C197.5 89.6333 197.233 89.0333 197.067 88.3667C196.867 87.6667 196.8 86.9333 196.8 86.1C196.8 85.2667 196.9 84.5333 197.067 83.8333C197.233 83.1333 197.5 82.5333 197.867 82.0333C198.2 81.5333 198.633 81.1333 199.133 80.8333C199.633 80.5667 200.2 80.4 200.867 80.4L200.8 80.4333ZM216.267 94.3333C216.7 94.4 217.233 94.4667 217.933 94.5C218.633 94.5333 219.433 94.5667 220.367 94.5667C221.467 94.5667 222.433 94.5 223.267 94.4C224.1 94.3 224.833 94.1 225.433 93.9C226.033 93.6667 226.533 93.4 226.933 93.0667C227.3 92.8 227.6 92.4667 227.833 92.1C228.1 91.7333 228.3 91.3333 228.433 90.9C228.567 90.4667 228.667 90 228.667 89.4667C228.667 88.7667 228.5 88.1333 228.233 87.5667C227.933 87 227.567 86.5667 227.067 86.1667C226.567 85.8 226 85.5333 225.367 85.3667V85.3333C226 85.1 226.5 84.8 226.9 84.4333C227.3 84.0667 227.6 83.6667 227.8 83.2C228 82.7333 228.1 82.3 228.1 81.8C228.1 81.3 228 80.8333 227.833 80.4C227.667 79.9667 227.433 79.6 227.133 79.3C226.833 78.9667 226.5 78.7333 226.1 78.5C225.7 78.2667 225.233 78.0667 224.767 77.9333C224.3 77.8 223.767 77.7 223.167 77.6333C222.567 77.5667 221.9 77.5667 221.133 77.5667C220.5 77.5667 219.867 77.6 219.233 77.6C218.6 77.6333 218.033 77.6667 217.533 77.7333C217.033 77.8 216.6 77.8333 216.267 77.9V94.3V94.3333ZM220 80.4333C220.133 80.4 220.333 80.4 220.6 80.3667C220.867 80.3667 221.2 80.3333 221.6 80.3333C222.467 80.3333 223.133 80.5 223.567 80.8333C224.033 81.1667 224.267 81.6333 224.267 82.2667C224.267 82.7 224.167 83.0333 223.933 83.3333C223.7 83.6333 223.367 83.8667 222.9 84.0667C222.433 84.2333 221.9 84.3333 221.233 84.3333H220V80.4333ZM220 87.0333H221.3C221.767 87.0333 222.2 87.0667 222.633 87.1667C223.033 87.2667 223.4 87.4 223.7 87.5667C224 87.7667 224.267 88 224.433 88.3C224.6 88.6 224.7 88.9667 224.7 89.3667C224.7 89.8 224.6 90.1667 224.433 90.5C224.267 90.8 224.033 91.0667 223.733 91.2667C223.433 91.4667 223.1 91.6 222.7 91.7C222.3 91.8 221.9 91.8333 221.467 91.8333C221.133 91.8333 220.867 91.8333 220.633 91.8333C220.4 91.8333 220.2 91.8 220 91.8V87.1V87.0333ZM241.167 87.2667C241.167 86.5333 241.1 85.8667 240.9 85.2333C240.733 84.6 240.433 84.0333 240.033 83.5667C239.633 83.1 239.1 82.7 238.4 82.4333C237.733 82.1667 236.867 82.0333 235.867 82C235.133 82 234.467 82.0667 233.867 82.1667C233.267 82.2667 232.733 82.4333 232.267 82.6C231.8 82.7667 231.433 82.9333 231.167 83.1L231.867 85.5333C232.133 85.3667 232.433 85.2 232.8 85.0667C233.167 84.9333 233.533 84.8333 233.967 84.7333C234.367 84.6667 234.8 84.6 235.2 84.6C235.667 84.6 236.033 84.6667 236.333 84.7667C236.633 84.8667 236.833 85 237 85.1667C237.167 85.3333 237.267 85.5 237.333 85.6667C237.4 85.8333 237.433 86.0333 237.4 86.2V86.3333C236.333 86.3333 235.367 86.4333 234.467 86.6C233.6 86.8 232.833 87.0667 232.233 87.4667C231.6 87.8667 231.133 88.3333 230.8 88.9C230.467 89.4667 230.3 90.1667 230.3 90.9667C230.3 91.4667 230.4 91.9333 230.567 92.3667C230.733 92.8 231 93.2 231.333 93.5667C231.667 93.9333 232.067 94.2 232.567 94.4C233.033 94.6 233.6 94.7 234.2 94.7C234.933 94.7 235.567 94.5667 236.167 94.3333C236.767 94.0667 237.267 93.7 237.667 93.2333H237.733L237.967 94.4333H241.367C241.333 94.2 241.267 93.9333 241.267 93.6333C241.233 93.3333 241.233 93 241.2 92.6333C241.2 92.2667 241.2 91.9 241.2 91.5333V87.3L241.167 87.2667ZM237.533 90C237.533 90.1 237.533 90.2333 237.533 90.3333C237.533 90.4333 237.5 90.5333 237.467 90.6333C237.367 90.9 237.233 91.1333 237.067 91.3333C236.867 91.5333 236.633 91.7 236.367 91.8333C236.1 91.9667 235.833 92.0333 235.5 92.0333C235.2 92.0333 234.967 91.9667 234.733 91.8667C234.5 91.7667 234.333 91.6 234.2 91.4C234.067 91.2 234 90.9333 234 90.6C234 90.1333 234.167 89.7333 234.467 89.4667C234.767 89.2 235.2 89 235.733 88.8667C236.267 88.7333 236.867 88.7 237.533 88.7V90ZM242.967 82.3V85.2H246.467V94.4H250.233V85.2H253.733V82.3H242.933H242.967ZM254.367 82.3V85.2H257.867V94.4H261.633V85.2H265.133V82.3H254.333H254.367Z" fill="#83BC37"/>
<path d="M181.133 100.3V101.533C181.133 101.8 181.133 102.067 181.1 102.3C181.1 102.533 181.067 102.767 181.033 102.967C181 103.167 180.967 103.367 180.9 103.567C180.833 103.767 180.767 103.933 180.7 104.133C180.6 104.3 180.533 104.5 180.433 104.667H180.067L180.1 106.333H180.6L180.633 105.167H183.7L183.733 106.333H184.233L184.267 104.667H183.833V100.3H181.1H181.133ZM181.733 100.833H183.233V104.667H181.067C181.133 104.533 181.2 104.4 181.267 104.233C181.333 104.067 181.4 103.9 181.467 103.733C181.567 103.467 181.6 103.167 181.667 102.833C181.7 102.5 181.733 102.133 181.733 101.733V100.8V100.833ZM187.233 101.6C187 101.6 186.767 101.633 186.567 101.733C186.367 101.833 186.167 101.933 186 102.1C185.833 102.267 185.733 102.467 185.633 102.667C185.533 102.9 185.5 103.167 185.5 103.433C185.5 103.7 185.533 103.967 185.633 104.2C185.733 104.433 185.833 104.6 186 104.767C186.167 104.933 186.333 105.033 186.533 105.133C186.733 105.233 186.967 105.267 187.2 105.267C187.367 105.267 187.533 105.233 187.7 105.2C187.867 105.167 188.033 105.067 188.167 105C188.3 104.9 188.433 104.8 188.567 104.633C188.667 104.5 188.767 104.3 188.833 104.1C188.9 103.9 188.933 103.667 188.933 103.4C188.933 103.133 188.9 102.9 188.8 102.667C188.733 102.433 188.6 102.267 188.467 102.1C188.3 101.933 188.133 101.833 187.933 101.733C187.733 101.633 187.5 101.6 187.233 101.6ZM187.233 102.067C187.4 102.067 187.533 102.1 187.633 102.133C187.733 102.2 187.833 102.267 187.933 102.367C188 102.467 188.067 102.567 188.133 102.667C188.2 102.767 188.233 102.9 188.233 103.033C188.267 103.167 188.267 103.267 188.267 103.4C188.267 103.6 188.233 103.767 188.2 103.933C188.133 104.1 188.067 104.233 187.967 104.367C187.867 104.5 187.767 104.567 187.633 104.667C187.5 104.733 187.367 104.767 187.2 104.767C187.033 104.767 186.9 104.733 186.767 104.667C186.633 104.6 186.533 104.5 186.433 104.4C186.333 104.267 186.267 104.133 186.2 103.967C186.133 103.8 186.133 103.633 186.133 103.433C186.133 103.267 186.167 103.1 186.2 102.933C186.233 102.767 186.3 102.633 186.4 102.5C186.5 102.367 186.6 102.267 186.733 102.2C186.867 102.133 187.033 102.067 187.2 102.067H187.233ZM192.8 104.567C192.7 104.6 192.6 104.633 192.467 104.667C192.333 104.7 192.2 104.733 192 104.733C191.833 104.733 191.667 104.7 191.5 104.633C191.367 104.567 191.233 104.5 191.1 104.367C191 104.267 190.9 104.1 190.833 103.967C190.767 103.8 190.733 103.633 190.733 103.433C190.733 103.267 190.767 103.067 190.8 102.933C190.867 102.767 190.933 102.633 191.033 102.5C191.133 102.367 191.267 102.267 191.433 102.2C191.6 102.133 191.767 102.1 191.967 102.1C192.133 102.1 192.3 102.133 192.4 102.167C192.533 102.2 192.633 102.233 192.7 102.267L192.833 101.767C192.767 101.733 192.7 101.7 192.6 101.667C192.5 101.633 192.4 101.6 192.3 101.6C192.2 101.567 192.067 101.567 191.933 101.567C191.633 101.567 191.4 101.6 191.167 101.7C190.933 101.8 190.733 101.933 190.567 102.1C190.4 102.267 190.267 102.467 190.2 102.7C190.1 102.933 190.067 103.167 190.067 103.433C190.067 103.7 190.1 103.933 190.2 104.167C190.267 104.4 190.4 104.567 190.567 104.733C190.733 104.9 190.9 105 191.133 105.1C191.333 105.2 191.6 105.233 191.867 105.233C192.033 105.233 192.167 105.233 192.3 105.2C192.433 105.167 192.533 105.167 192.633 105.133C192.733 105.1 192.8 105.067 192.867 105.033L192.767 104.567H192.8ZM193.867 101.667V102.167H194.967V105.167H195.6V102.167H196.7V101.667H193.867ZM197.5 101.667L198.8 104.9C198.833 104.933 198.833 104.967 198.833 105C198.833 105.033 198.833 105.033 198.833 105.067C198.833 105.1 198.833 105.1 198.833 105.133C198.833 105.167 198.8 105.2 198.8 105.233C198.733 105.4 198.633 105.533 198.533 105.667C198.433 105.8 198.333 105.867 198.267 105.967C198.167 106.033 198.067 106.1 197.967 106.167C197.867 106.233 197.767 106.267 197.7 106.267L197.867 106.8C197.933 106.8 198 106.767 198.067 106.733C198.133 106.7 198.233 106.667 198.333 106.6C198.433 106.533 198.533 106.467 198.633 106.367C198.733 106.267 198.833 106.167 198.933 106.033C199.033 105.9 199.133 105.767 199.233 105.567C199.333 105.4 199.433 105.2 199.533 104.967C199.633 104.733 199.733 104.467 199.867 104.167L200.833 101.667H200.167L199.467 103.733C199.433 103.867 199.367 104 199.333 104.1C199.3 104.233 199.267 104.333 199.233 104.467C199.2 104.4 199.2 104.333 199.167 104.233C199.133 104.167 199.1 104.067 199.1 104C199.067 103.9 199.033 103.833 199 103.767L198.233 101.7H197.533L197.5 101.667ZM202 101.667V105.167H202.633V102.167H204.267V105.167H204.9V101.667H202ZM206.567 101.667V105.167H207.2V103.567H208.867V105.167H209.5V101.667H208.867V103.067H207.2V101.667H206.567ZM213.667 103.033C213.667 102.867 213.633 102.7 213.6 102.5C213.567 102.333 213.5 102.167 213.4 102.033C213.3 101.9 213.167 101.8 213 101.7C212.833 101.633 212.6 101.567 212.333 101.567C212.2 101.567 212.033 101.567 211.9 101.6C211.767 101.633 211.633 101.667 211.5 101.7C211.367 101.733 211.267 101.8 211.167 101.867L211.3 102.3C211.4 102.233 211.467 102.2 211.567 102.167C211.667 102.133 211.767 102.1 211.867 102.067C211.967 102.033 212.1 102.033 212.2 102.033C212.333 102.033 212.467 102.067 212.567 102.1C212.667 102.133 212.733 102.2 212.8 102.233C212.867 102.3 212.9 102.367 212.933 102.433C212.967 102.5 212.967 102.567 213 102.633C213 102.7 213 102.767 213 102.833V102.9C212.533 102.9 212.167 102.933 211.867 103.033C211.567 103.133 211.3 103.267 211.167 103.467C211 103.667 210.933 103.9 210.933 104.167C210.933 104.3 210.967 104.433 211 104.533C211.033 104.667 211.1 104.767 211.2 104.867C211.3 104.967 211.4 105.033 211.533 105.1C211.667 105.167 211.833 105.2 212 105.2C212.167 105.2 212.333 105.167 212.467 105.133C212.6 105.1 212.733 105.033 212.833 104.933C212.933 104.867 213.033 104.767 213.1 104.667H213.133L213.2 105.1H213.767C213.733 104.967 213.733 104.833 213.733 104.7C213.733 104.567 213.733 104.4 213.733 104.267V102.967L213.667 103.033ZM213.067 104C213.067 104.033 213.067 104.067 213.067 104.1C213.067 104.133 213.067 104.167 213.033 104.2C213 104.3 212.933 104.4 212.867 104.5C212.8 104.6 212.7 104.667 212.567 104.733C212.467 104.8 212.3 104.833 212.167 104.833C212.067 104.833 211.967 104.8 211.867 104.767C211.767 104.733 211.7 104.667 211.667 104.567C211.6 104.467 211.6 104.367 211.567 104.233C211.567 104.1 211.6 103.967 211.667 103.9C211.733 103.8 211.8 103.733 211.9 103.667C212 103.6 212.1 103.567 212.233 103.533C212.367 103.5 212.5 103.467 212.633 103.467C212.767 103.467 212.9 103.467 213.067 103.467V104.067V104ZM217.933 101.7C217.767 101.667 217.6 101.667 217.4 101.633C217.2 101.633 217 101.6 216.8 101.6C216.633 101.6 216.5 101.6 216.367 101.633C216.233 101.633 216.1 101.667 215.967 101.7C215.833 101.733 215.733 101.767 215.633 101.833C215.533 101.9 215.467 101.933 215.4 102.033C215.333 102.1 215.267 102.2 215.233 102.3C215.2 102.4 215.167 102.5 215.167 102.633C215.167 102.767 215.2 102.9 215.233 103C215.3 103.1 215.367 103.2 215.433 103.267C215.533 103.333 215.633 103.4 215.733 103.433C215.833 103.467 215.967 103.5 216.067 103.5C216 103.533 215.9 103.533 215.833 103.567C215.767 103.6 215.7 103.633 215.667 103.7C215.567 103.8 215.467 103.9 215.433 104C215.367 104.133 215.3 104.233 215.267 104.367C215.233 104.5 215.167 104.633 215.133 104.733C215.1 104.8 215.067 104.867 215.033 104.933C215 105 214.967 105.067 214.933 105.133H215.6C215.633 105.1 215.667 105.033 215.667 105C215.7 104.967 215.7 104.9 215.733 104.833C215.767 104.733 215.833 104.6 215.867 104.467C215.9 104.333 215.967 104.233 216 104.133C216.067 104.033 216.133 103.933 216.233 103.867C216.3 103.8 216.367 103.767 216.467 103.7C216.567 103.667 216.667 103.633 216.8 103.633H217.267V105.1H217.9V101.633L217.933 101.7ZM217.3 103.267C217.267 103.267 217.2 103.267 217.167 103.267C217.133 103.267 217.067 103.267 217 103.267C216.933 103.267 216.867 103.267 216.767 103.267C216.667 103.267 216.567 103.267 216.467 103.233C216.367 103.2 216.267 103.167 216.167 103.133C216.067 103.1 216 103.033 215.933 102.933C215.867 102.867 215.833 102.767 215.833 102.633C215.833 102.5 215.867 102.4 215.933 102.333C216 102.267 216.067 102.2 216.167 102.133C216.267 102.1 216.367 102.067 216.467 102.033C216.567 102 216.7 102 216.8 102C216.9 102 217 102 217.1 102C217.167 102 217.267 102 217.333 102.033V103.233L217.3 103.267ZM221.3 103.6H223.067C223.033 103.833 223 104.033 222.867 104.2C222.767 104.367 222.633 104.5 222.433 104.6C222.267 104.7 222.033 104.733 221.8 104.733C221.667 104.733 221.533 104.733 221.433 104.7C221.333 104.667 221.233 104.667 221.133 104.633C221.033 104.6 220.967 104.567 220.933 104.567L220.8 105C220.933 105.067 221.1 105.133 221.267 105.167C221.433 105.2 221.633 105.233 221.833 105.233C222.133 105.233 222.4 105.2 222.633 105.1C222.867 105 223.067 104.867 223.2 104.7C223.367 104.533 223.467 104.333 223.567 104.133C223.633 103.9 223.7 103.667 223.7 103.433C223.7 103.133 223.667 102.9 223.567 102.667C223.467 102.433 223.367 102.233 223.2 102.1C223.033 101.933 222.867 101.8 222.633 101.733C222.433 101.633 222.167 101.6 221.933 101.6C221.8 101.6 221.667 101.6 221.567 101.633C221.433 101.667 221.3 101.667 221.2 101.733C221.067 101.767 220.967 101.833 220.867 101.867L221 102.3C221.067 102.267 221.133 102.233 221.2 102.2C221.3 102.167 221.367 102.133 221.467 102.133C221.567 102.1 221.667 102.1 221.8 102.1C222 102.1 222.167 102.133 222.3 102.2C222.433 102.267 222.567 102.333 222.667 102.433C222.767 102.533 222.833 102.633 222.9 102.767C222.967 102.9 223 103.033 223 103.2H221.233V103.633L221.3 103.6ZM225.133 101.667V105.167H225.767V103.567H227.433V105.167H228.067V101.667H227.433V103.067H225.767V101.667H225.133ZM232.6 103.533C232.6 103.5 232.6 103.467 232.633 103.4C232.633 103.367 232.633 103.3 232.633 103.233C232.633 103.1 232.633 102.967 232.6 102.8C232.567 102.667 232.533 102.5 232.467 102.367C232.4 102.233 232.3 102.1 232.2 101.967C232.1 101.833 231.933 101.767 231.8 101.667C231.633 101.6 231.433 101.567 231.2 101.567C230.933 101.567 230.7 101.6 230.5 101.7C230.3 101.8 230.133 101.933 229.967 102.1C229.833 102.267 229.7 102.467 229.633 102.7C229.567 102.933 229.533 103.167 229.533 103.433C229.533 103.7 229.567 103.933 229.667 104.167C229.733 104.4 229.867 104.567 230 104.733C230.133 104.9 230.333 105 230.533 105.1C230.733 105.2 231 105.233 231.267 105.233C231.467 105.233 231.633 105.233 231.767 105.2C231.9 105.167 232.033 105.133 232.167 105.1C232.267 105.067 232.367 105.033 232.433 105L232.333 104.533C232.267 104.567 232.167 104.6 232.067 104.633C231.967 104.667 231.867 104.667 231.767 104.7C231.633 104.7 231.5 104.733 231.367 104.733C231.2 104.733 231.067 104.7 230.9 104.667C230.767 104.633 230.633 104.533 230.533 104.467C230.433 104.367 230.333 104.233 230.267 104.1C230.2 103.933 230.167 103.767 230.167 103.533H232.633H232.6ZM230.133 103.067C230.133 102.967 230.167 102.833 230.2 102.733C230.233 102.6 230.3 102.5 230.367 102.4C230.433 102.3 230.533 102.2 230.667 102.133C230.8 102.067 230.933 102.033 231.1 102.033C231.233 102.033 231.367 102.067 231.467 102.1C231.567 102.133 231.667 102.2 231.733 102.267C231.8 102.333 231.867 102.433 231.9 102.5C231.933 102.6 231.967 102.667 231.967 102.767C231.967 102.867 232 102.933 232 103.033H230.133V103.067ZM234.067 106.6H234.7V104.7C234.767 104.8 234.867 104.9 234.967 105C235.067 105.067 235.2 105.133 235.333 105.2C235.467 105.233 235.633 105.267 235.767 105.267C235.967 105.267 236.167 105.233 236.367 105.133C236.567 105.067 236.733 104.933 236.867 104.767C237 104.6 237.133 104.4 237.233 104.167C237.333 103.933 237.367 103.667 237.367 103.333C237.367 103.067 237.333 102.833 237.267 102.6C237.2 102.367 237.1 102.2 236.967 102.033C236.833 101.867 236.667 101.767 236.5 101.667C236.333 101.567 236.133 101.533 235.9 101.533C235.6 101.533 235.367 101.6 235.167 101.7C234.967 101.833 234.8 101.967 234.667 102.2L234.633 101.6H234.067C234.067 101.767 234.067 101.933 234.1 102.133C234.1 102.333 234.1 102.533 234.1 102.733V106.533L234.067 106.6ZM234.7 103.133C234.7 103.1 234.7 103.067 234.7 103C234.7 102.967 234.733 102.9 234.733 102.867C234.767 102.7 234.833 102.567 234.933 102.467C235.033 102.333 235.133 102.267 235.267 102.2C235.4 102.133 235.533 102.1 235.7 102.1C235.867 102.1 236.033 102.133 236.133 102.2C236.267 102.267 236.367 102.367 236.467 102.467C236.567 102.6 236.633 102.733 236.667 102.867C236.7 103.033 236.733 103.2 236.733 103.367C236.733 103.633 236.7 103.867 236.6 104.067C236.5 104.267 236.4 104.433 236.233 104.533C236.067 104.633 235.867 104.7 235.667 104.7C235.5 104.7 235.367 104.667 235.233 104.6C235.1 104.533 235 104.467 234.9 104.333C234.8 104.233 234.733 104.1 234.7 103.933C234.7 103.9 234.667 103.867 234.667 103.8C234.667 103.767 234.667 103.7 234.667 103.667V103.067L234.7 103.133ZM238.833 101.667V105.167H239.467V102.167H241V101.667H238.833ZM242.267 101.667V105.167H243C243.133 104.967 243.233 104.767 243.367 104.533C243.5 104.333 243.6 104.1 243.733 103.9C243.867 103.7 243.967 103.5 244.1 103.333C244.167 103.2 244.233 103.1 244.3 103C244.367 102.9 244.433 102.767 244.5 102.667C244.567 102.533 244.633 102.4 244.7 102.267C244.7 102.4 244.7 102.533 244.667 102.667C244.667 102.767 244.667 102.9 244.667 103C244.667 103.1 244.667 103.233 244.667 103.333C244.667 103.433 244.667 103.567 244.667 103.733V105.233H245.267V101.733H244.533L243.433 103.533C243.367 103.633 243.333 103.733 243.267 103.8C243.233 103.9 243.167 103.967 243.133 104.067C243.1 104.133 243.033 104.233 243 104.333C242.967 104.433 242.9 104.533 242.867 104.633H242.833C242.833 104.5 242.833 104.4 242.867 104.267C242.867 104.167 242.867 104.033 242.867 103.933C242.867 103.833 242.867 103.7 242.867 103.6C242.867 103.467 242.867 103.367 242.867 103.233V101.767H242.267V101.667ZM249.533 101.7C249.367 101.667 249.2 101.667 249 101.633C248.8 101.633 248.6 101.6 248.4 101.6C248.233 101.6 248.1 101.6 247.967 101.633C247.833 101.633 247.7 101.667 247.567 101.7C247.433 101.733 247.333 101.767 247.233 101.833C247.133 101.9 247.067 101.933 247 102.033C246.933 102.1 246.867 102.2 246.833 102.3C246.8 102.4 246.767 102.5 246.767 102.633C246.767 102.767 246.8 102.9 246.833 103C246.9 103.1 246.967 103.2 247.033 103.267C247.133 103.333 247.233 103.4 247.333 103.433C247.433 103.467 247.567 103.5 247.667 103.5C247.6 103.533 247.5 103.533 247.433 103.567C247.367 103.6 247.3 103.633 247.267 103.7C247.167 103.8 247.067 103.9 247.033 104C246.967 104.133 246.9 104.233 246.867 104.367C246.833 104.5 246.767 104.633 246.733 104.733C246.7 104.8 246.667 104.867 246.633 104.933C246.6 105 246.567 105.067 246.533 105.133H247.2C247.233 105.1 247.267 105.033 247.267 105C247.3 104.967 247.3 104.9 247.333 104.833C247.367 104.733 247.433 104.6 247.467 104.467C247.5 104.333 247.567 104.233 247.6 104.133C247.667 104.033 247.733 103.933 247.833 103.867C247.9 103.8 247.967 103.767 248.067 103.7C248.167 103.667 248.267 103.633 248.4 103.633H248.867V105.1H249.5V101.633L249.533 101.7ZM248.9 103.267C248.867 103.267 248.8 103.267 248.767 103.267C248.733 103.267 248.667 103.267 248.6 103.267C248.533 103.267 248.467 103.267 248.367 103.267C248.267 103.267 248.167 103.267 248.067 103.233C247.967 103.2 247.867 103.167 247.767 103.133C247.667 103.1 247.6 103.033 247.533 102.933C247.467 102.867 247.433 102.767 247.433 102.633C247.433 102.5 247.467 102.4 247.533 102.333C247.6 102.267 247.667 102.2 247.767 102.133C247.867 102.1 247.967 102.067 248.067 102.033C248.167 102 248.3 102 248.4 102C248.5 102 248.6 102 248.7 102C248.767 102 248.867 102 248.933 102.033V103.233L248.9 103.267ZM172.667 112.133C172.733 112.133 172.8 112.133 172.933 112.167C173.033 112.167 173.167 112.167 173.3 112.2C173.433 112.2 173.567 112.2 173.7 112.2C173.8 112.2 173.933 112.2 174.067 112.2C174.2 112.2 174.333 112.167 174.467 112.133C174.6 112.1 174.733 112.067 174.867 112.033C175 112 175.1 111.933 175.2 111.833C175.3 111.767 175.367 111.667 175.433 111.567C175.5 111.467 175.533 111.333 175.533 111.167C175.533 111 175.5 110.867 175.4 110.733C175.333 110.6 175.233 110.533 175.1 110.433C174.967 110.367 174.8 110.3 174.633 110.3C174.767 110.267 174.9 110.233 175 110.167C175.1 110.1 175.2 110 175.267 109.9C175.333 109.8 175.367 109.667 175.367 109.533C175.367 109.367 175.333 109.233 175.267 109.133C175.2 109.033 175.1 108.933 175 108.867C174.9 108.8 174.767 108.767 174.633 108.733C174.5 108.7 174.367 108.667 174.2 108.667C174.067 108.667 173.933 108.633 173.8 108.633C173.667 108.633 173.533 108.633 173.4 108.633C173.267 108.633 173.133 108.667 173 108.667C172.867 108.667 172.767 108.7 172.7 108.7V112.167L172.667 112.133ZM173.267 109.067C173.3 109.067 173.367 109.067 173.4 109.067C173.433 109.067 173.5 109.067 173.567 109.067C173.633 109.067 173.7 109.067 173.767 109.067C174.1 109.067 174.333 109.1 174.467 109.2C174.633 109.3 174.7 109.4 174.7 109.6C174.7 109.7 174.667 109.8 174.6 109.867C174.533 109.933 174.467 110 174.367 110.033C174.267 110.067 174.167 110.1 174.067 110.133C173.967 110.167 173.833 110.167 173.733 110.167H173.267V109.133V109.067ZM173.267 110.533H173.733C173.9 110.533 174.033 110.533 174.167 110.567C174.3 110.6 174.433 110.6 174.533 110.667C174.633 110.7 174.733 110.767 174.767 110.867C174.833 110.933 174.867 111.067 174.867 111.167C174.867 111.267 174.833 111.367 174.8 111.433C174.767 111.5 174.7 111.567 174.633 111.6C174.567 111.633 174.467 111.667 174.367 111.7C174.267 111.733 174.167 111.733 174.067 111.767C173.967 111.767 173.867 111.767 173.8 111.767C173.733 111.767 173.667 111.767 173.633 111.767C173.567 111.767 173.533 111.767 173.467 111.767C173.4 111.767 173.367 111.767 173.3 111.767V110.567L173.267 110.533ZM178.5 108.633V112.133H179.133V109.133H180.667V108.633H178.5ZM184.433 110C184.433 109.833 184.4 109.667 184.367 109.467C184.333 109.3 184.267 109.133 184.167 109C184.067 108.867 183.933 108.767 183.767 108.667C183.6 108.6 183.367 108.533 183.1 108.533C182.967 108.533 182.8 108.533 182.667 108.567C182.533 108.6 182.4 108.633 182.267 108.667C182.133 108.7 182.033 108.767 181.933 108.833L182.067 109.267C182.167 109.2 182.233 109.167 182.333 109.133C182.433 109.1 182.533 109.067 182.633 109.033C182.733 109 182.867 109 182.967 109C183.1 109 183.233 109.033 183.333 109.067C183.433 109.1 183.5 109.167 183.567 109.2C183.633 109.267 183.667 109.333 183.7 109.4C183.733 109.467 183.733 109.533 183.767 109.6C183.767 109.667 183.767 109.733 183.767 109.8V109.867C183.3 109.867 182.933 109.9 182.633 110C182.333 110.1 182.067 110.233 181.933 110.433C181.767 110.633 181.7 110.867 181.7 111.133C181.7 111.267 181.733 111.4 181.767 111.5C181.8 111.633 181.867 111.733 181.967 111.833C182.067 111.933 182.167 112 182.3 112.067C182.433 112.133 182.6 112.167 182.767 112.167C182.933 112.167 183.1 112.133 183.233 112.1C183.367 112.067 183.5 112 183.6 111.9C183.7 111.833 183.8 111.733 183.867 111.633H183.9L183.967 112.067H184.533C184.5 111.933 184.5 111.8 184.5 111.667C184.5 111.533 184.5 111.367 184.5 111.233V109.933L184.433 110ZM183.833 110.967C183.833 111 183.833 111.033 183.833 111.067C183.833 111.1 183.833 111.133 183.8 111.167C183.767 111.267 183.7 111.367 183.633 111.467C183.567 111.567 183.467 111.633 183.333 111.7C183.233 111.767 183.067 111.8 182.933 111.8C182.833 111.8 182.733 111.767 182.633 111.733C182.533 111.7 182.467 111.633 182.433 111.533C182.367 111.433 182.367 111.333 182.333 111.2C182.333 111.067 182.367 110.933 182.433 110.867C182.5 110.767 182.567 110.7 182.667 110.633C182.767 110.567 182.867 110.533 183 110.5C183.133 110.467 183.267 110.433 183.4 110.433C183.533 110.433 183.667 110.433 183.833 110.433V111.033V110.967ZM186.133 113.6H186.767V111.7C186.833 111.8 186.933 111.9 187.033 112C187.133 112.067 187.267 112.133 187.4 112.2C187.533 112.233 187.7 112.267 187.833 112.267C188.033 112.267 188.233 112.233 188.433 112.133C188.633 112.067 188.8 111.933 188.933 111.767C189.067 111.6 189.2 111.4 189.3 111.167C189.4 110.933 189.433 110.667 189.433 110.333C189.433 110.067 189.4 109.833 189.333 109.6C189.267 109.367 189.167 109.2 189.033 109.033C188.9 108.867 188.733 108.767 188.567 108.667C188.4 108.567 188.2 108.533 187.967 108.533C187.667 108.533 187.433 108.6 187.233 108.7C187.033 108.833 186.867 108.967 186.733 109.2L186.7 108.6H186.133C186.133 108.767 186.133 108.933 186.167 109.133C186.167 109.333 186.167 109.533 186.167 109.733V113.533L186.133 113.6ZM186.767 110.133C186.767 110.1 186.767 110.067 186.767 110C186.767 109.967 186.8 109.9 186.8 109.867C186.833 109.7 186.9 109.567 187 109.467C187.1 109.333 187.2 109.267 187.333 109.2C187.467 109.133 187.6 109.1 187.767 109.1C187.933 109.1 188.1 109.133 188.2 109.2C188.333 109.267 188.433 109.367 188.533 109.467C188.633 109.6 188.7 109.733 188.733 109.867C188.767 110.033 188.8 110.2 188.8 110.367C188.8 110.633 188.767 110.867 188.667 111.067C188.567 111.267 188.467 111.433 188.3 111.533C188.133 111.633 187.933 111.7 187.733 111.7C187.567 111.7 187.433 111.667 187.3 111.6C187.167 111.533 187.067 111.467 186.967 111.333C186.867 111.233 186.8 111.1 186.767 110.933C186.767 110.9 186.733 110.867 186.733 110.8C186.733 110.767 186.733 110.7 186.733 110.667V110.067L186.767 110.133ZM190.7 112.167H191.3L191.4 110.5C191.4 110.367 191.4 110.233 191.433 110.1C191.433 109.967 191.433 109.8 191.467 109.667C191.467 109.533 191.467 109.367 191.467 109.233H191.5C191.533 109.3 191.533 109.4 191.567 109.5C191.6 109.6 191.633 109.7 191.667 109.8C191.7 109.9 191.733 110 191.767 110.1C191.8 110.2 191.833 110.3 191.867 110.367L192.5 112.1H192.967L193.633 110.333C193.7 110.167 193.767 110 193.8 109.867C193.833 109.733 193.9 109.6 193.933 109.5C193.967 109.4 194 109.3 194.033 109.2H194.067C194.067 109.4 194.1 109.633 194.1 109.833C194.1 110.033 194.133 110.267 194.133 110.433L194.2 112.1H194.8L194.567 108.6H193.767L193.2 110.133C193.167 110.233 193.133 110.333 193.1 110.433C193.067 110.533 193.033 110.667 192.967 110.767C192.933 110.867 192.9 110.967 192.867 111.067C192.833 111.167 192.8 111.233 192.8 111.3C192.767 111.2 192.733 111.1 192.7 111C192.667 110.9 192.633 110.767 192.6 110.667C192.567 110.567 192.533 110.467 192.5 110.367L191.867 108.6H191.1L190.833 112.1L190.7 112.167ZM197.7 108.6C197.467 108.6 197.233 108.633 197.033 108.733C196.833 108.833 196.633 108.933 196.467 109.1C196.3 109.267 196.2 109.467 196.1 109.667C196 109.9 195.967 110.167 195.967 110.433C195.967 110.7 196 110.967 196.1 111.2C196.2 111.433 196.3 111.6 196.467 111.767C196.633 111.933 196.8 112.033 197 112.133C197.2 112.233 197.433 112.267 197.667 112.267C197.833 112.267 198 112.233 198.167 112.2C198.333 112.167 198.5 112.067 198.633 112C198.767 111.9 198.9 111.8 199.033 111.633C199.133 111.5 199.233 111.3 199.3 111.1C199.367 110.9 199.4 110.667 199.4 110.4C199.4 110.133 199.367 109.9 199.267 109.667C199.2 109.433 199.067 109.267 198.933 109.1C198.767 108.933 198.6 108.833 198.4 108.733C198.2 108.633 197.967 108.6 197.7 108.6ZM197.7 109.067C197.867 109.067 198 109.1 198.1 109.133C198.2 109.2 198.3 109.267 198.4 109.367C198.467 109.467 198.533 109.567 198.6 109.667C198.667 109.767 198.7 109.9 198.7 110.033C198.733 110.167 198.733 110.267 198.733 110.4C198.733 110.6 198.7 110.767 198.667 110.933C198.6 111.1 198.533 111.233 198.433 111.367C198.333 111.5 198.233 111.567 198.1 111.667C197.967 111.733 197.833 111.767 197.667 111.767C197.5 111.767 197.367 111.733 197.233 111.667C197.1 111.6 197 111.5 196.9 111.4C196.8 111.267 196.733 111.133 196.667 110.967C196.6 110.8 196.6 110.633 196.6 110.433C196.6 110.267 196.633 110.1 196.667 109.933C196.7 109.767 196.767 109.633 196.867 109.5C196.967 109.367 197.067 109.267 197.2 109.2C197.333 109.133 197.5 109.067 197.667 109.067H197.7ZM200.833 108.667V112.167H201.467V110.567H203.133V112.167H203.767V108.667H203.133V110.067H201.467V108.667H200.833Z" fill="#FCF2D8"/>
<path d="M205.4 108.633V112.133H206.133C206.267 111.933 206.367 111.733 206.5 111.5C206.633 111.3 206.733 111.067 206.867 110.867C207 110.667 207.1 110.467 207.233 110.3C207.3 110.167 207.367 110.067 207.433 109.967C207.5 109.867 207.567 109.733 207.633 109.633C207.7 109.5 207.767 109.367 207.833 109.233C207.833 109.367 207.833 109.5 207.8 109.633C207.8 109.733 207.8 109.867 207.8 109.967C207.8 110.067 207.8 110.2 207.8 110.3C207.8 110.4 207.8 110.533 207.8 110.7V112.2H208.4V108.7H207.667L206.567 110.5C206.5 110.6 206.467 110.7 206.4 110.767C206.367 110.867 206.3 110.933 206.267 111.033C206.233 111.1 206.167 111.2 206.133 111.3C206.1 111.4 206.033 111.5 206 111.6H205.967C205.967 111.467 205.967 111.367 206 111.233C206 111.133 206 111 206 110.9C206 110.8 206 110.667 206 110.567C206 110.433 206 110.333 206 110.2V108.733H205.4V108.633ZM210.067 108.633V112.133H210.8C210.933 111.933 211.033 111.733 211.167 111.5C211.3 111.3 211.4 111.067 211.533 110.867C211.667 110.667 211.767 110.467 211.9 110.3C211.967 110.167 212.033 110.067 212.1 109.967C212.167 109.867 212.233 109.733 212.3 109.633C212.367 109.5 212.433 109.367 212.5 109.233C212.5 109.367 212.5 109.5 212.467 109.633C212.467 109.733 212.467 109.867 212.467 109.967C212.467 110.067 212.467 110.2 212.467 110.3C212.467 110.4 212.467 110.533 212.467 110.7V112.2H213.067V108.7H212.333L211.233 110.5C211.167 110.6 211.133 110.7 211.067 110.767C211.033 110.867 210.967 110.933 210.933 111.033C210.9 111.1 210.833 111.2 210.8 111.3C210.767 111.4 210.7 111.5 210.667 111.6H210.633C210.633 111.467 210.633 111.367 210.667 111.233C210.667 111.133 210.667 111 210.667 110.9C210.667 110.8 210.667 110.667 210.667 110.567C210.667 110.433 210.667 110.333 210.667 110.2V108.733H210.067V108.633ZM218.7 111.533C218.6 111.567 218.5 111.6 218.367 111.633C218.233 111.667 218.1 111.7 217.9 111.7C217.733 111.7 217.567 111.667 217.4 111.6C217.267 111.533 217.133 111.467 217 111.333C216.9 111.233 216.8 111.067 216.733 110.933C216.667 110.767 216.633 110.6 216.633 110.4C216.633 110.233 216.667 110.033 216.7 109.9C216.767 109.733 216.833 109.6 216.933 109.467C217.033 109.333 217.167 109.233 217.333 109.167C217.5 109.1 217.667 109.067 217.867 109.067C218.033 109.067 218.2 109.1 218.3 109.133C218.433 109.167 218.533 109.2 218.6 109.233L218.733 108.733C218.667 108.7 218.6 108.667 218.5 108.633C218.4 108.6 218.3 108.567 218.2 108.567C218.1 108.533 217.967 108.533 217.833 108.533C217.533 108.533 217.3 108.567 217.067 108.667C216.833 108.767 216.633 108.9 216.467 109.067C216.3 109.233 216.167 109.433 216.1 109.667C216 109.9 215.967 110.133 215.967 110.4C215.967 110.667 216 110.9 216.1 111.133C216.167 111.367 216.3 111.533 216.467 111.7C216.633 111.867 216.8 111.967 217.033 112.067C217.233 112.167 217.5 112.2 217.767 112.2C217.933 112.2 218.067 112.2 218.2 112.167C218.333 112.133 218.433 112.133 218.533 112.1C218.633 112.067 218.7 112.033 218.767 112L218.667 111.533H218.7ZM221.733 108.633V112.133H222.367V109.133H224V112.133H224.633V108.633H221.733ZM226.333 113.567H226.967V111.667C227.033 111.767 227.133 111.867 227.233 111.967C227.333 112.033 227.467 112.1 227.6 112.167C227.733 112.2 227.9 112.233 228.033 112.233C228.233 112.233 228.433 112.2 228.633 112.1C228.833 112.033 229 111.9 229.133 111.733C229.267 111.567 229.4 111.367 229.5 111.133C229.6 110.9 229.633 110.633 229.633 110.3C229.633 110.033 229.6 109.8 229.533 109.567C229.467 109.333 229.367 109.167 229.233 109C229.1 108.833 228.933 108.733 228.767 108.633C228.6 108.533 228.4 108.5 228.167 108.5C227.867 108.5 227.633 108.567 227.433 108.667C227.233 108.8 227.067 108.933 226.933 109.167L226.9 108.567H226.333C226.333 108.733 226.333 108.9 226.367 109.1C226.367 109.3 226.367 109.5 226.367 109.7V113.5L226.333 113.567ZM226.967 110.1C226.967 110.067 226.967 110.033 226.967 109.967C226.967 109.933 227 109.867 227 109.833C227.033 109.667 227.1 109.533 227.2 109.433C227.3 109.3 227.4 109.233 227.533 109.167C227.667 109.1 227.8 109.067 227.967 109.067C228.133 109.067 228.3 109.1 228.4 109.167C228.533 109.233 228.633 109.333 228.733 109.433C228.833 109.567 228.9 109.7 228.933 109.833C228.967 110 229 110.167 229 110.333C229 110.6 228.967 110.833 228.867 111.033C228.767 111.233 228.667 111.4 228.5 111.5C228.333 111.6 228.133 111.667 227.933 111.667C227.767 111.667 227.633 111.633 227.5 111.567C227.367 111.5 227.267 111.433 227.167 111.3C227.067 111.2 227 111.067 226.967 110.9C226.967 110.867 226.933 110.833 226.933 110.767C226.933 110.733 226.933 110.667 226.933 110.633V110.033L226.967 110.1ZM231.1 108.633V112.133H231.833C231.967 111.933 232.067 111.733 232.2 111.5C232.333 111.3 232.433 111.067 232.567 110.867C232.7 110.667 232.8 110.467 232.933 110.3C233 110.167 233.067 110.067 233.133 109.967C233.2 109.867 233.267 109.733 233.333 109.633C233.4 109.5 233.467 109.367 233.533 109.233C233.533 109.367 233.533 109.5 233.5 109.633C233.5 109.733 233.5 109.867 233.5 109.967C233.5 110.067 233.5 110.2 233.5 110.3C233.5 110.4 233.5 110.533 233.5 110.7V112.2H234.1V108.7H233.367L232.267 110.5C232.2 110.6 232.167 110.7 232.1 110.767C232.067 110.867 232 110.933 231.967 111.033C231.933 111.1 231.867 111.2 231.833 111.3C231.8 111.4 231.733 111.5 231.7 111.6H231.667C231.667 111.467 231.667 111.367 231.7 111.233C231.7 111.133 231.7 111 231.7 110.9C231.7 110.8 231.7 110.667 231.7 110.567C231.7 110.433 231.7 110.333 231.7 110.2V108.733H231.1V108.633ZM235.8 113.567H236.433V111.667C236.5 111.767 236.6 111.867 236.7 111.967C236.8 112.033 236.933 112.1 237.067 112.167C237.2 112.2 237.367 112.233 237.5 112.233C237.7 112.233 237.9 112.2 238.1 112.1C238.3 112.033 238.467 111.9 238.6 111.733C238.733 111.567 238.867 111.367 238.967 111.133C239.067 110.9 239.1 110.633 239.1 110.3C239.1 110.033 239.067 109.8 239 109.567C238.933 109.333 238.833 109.167 238.7 109C238.567 108.833 238.4 108.733 238.233 108.633C238.067 108.533 237.867 108.5 237.633 108.5C237.333 108.5 237.1 108.567 236.9 108.667C236.7 108.8 236.533 108.933 236.4 109.167L236.367 108.567H235.8C235.8 108.733 235.8 108.9 235.833 109.1C235.833 109.3 235.833 109.5 235.833 109.7V113.5L235.8 113.567ZM236.433 110.1C236.433 110.067 236.433 110.033 236.433 109.967C236.433 109.933 236.467 109.867 236.467 109.833C236.5 109.667 236.567 109.533 236.667 109.433C236.767 109.3 236.867 109.233 237 109.167C237.133 109.1 237.267 109.067 237.433 109.067C237.6 109.067 237.767 109.1 237.867 109.167C238 109.233 238.1 109.333 238.2 109.433C238.3 109.567 238.367 109.7 238.4 109.833C238.433 110 238.467 110.167 238.467 110.333C238.467 110.6 238.433 110.833 238.333 111.033C238.233 111.233 238.133 111.4 237.967 111.5C237.8 111.6 237.6 111.667 237.4 111.667C237.233 111.667 237.1 111.633 236.967 111.567C236.833 111.5 236.733 111.433 236.633 111.3C236.533 111.2 236.467 111.067 236.433 110.9C236.433 110.867 236.4 110.833 236.4 110.767C236.4 110.733 236.4 110.667 236.4 110.633V110.033L236.433 110.1ZM242.067 108.567C241.833 108.567 241.6 108.6 241.4 108.7C241.2 108.8 241 108.9 240.833 109.067C240.667 109.233 240.567 109.433 240.467 109.633C240.367 109.867 240.333 110.133 240.333 110.4C240.333 110.667 240.367 110.933 240.467 111.167C240.567 111.4 240.667 111.567 240.833 111.733C241 111.9 241.167 112 241.367 112.1C241.567 112.2 241.8 112.233 242.033 112.233C242.2 112.233 242.367 112.2 242.533 112.167C242.7 112.133 242.867 112.033 243 111.967C243.133 111.867 243.267 111.767 243.4 111.6C243.5 111.467 243.6 111.267 243.667 111.067C243.733 110.867 243.767 110.633 243.767 110.367C243.767 110.1 243.733 109.867 243.633 109.633C243.567 109.4 243.433 109.233 243.3 109.067C243.133 108.9 242.967 108.8 242.767 108.7C242.567 108.6 242.333 108.567 242.067 108.567ZM242.067 109.033C242.233 109.033 242.367 109.067 242.467 109.1C242.567 109.167 242.667 109.233 242.767 109.333C242.833 109.433 242.9 109.533 242.967 109.633C243.033 109.733 243.067 109.867 243.067 110C243.1 110.133 243.1 110.233 243.1 110.367C243.1 110.567 243.067 110.733 243.033 110.9C242.967 111.067 242.9 111.2 242.8 111.333C242.7 111.467 242.6 111.533 242.467 111.633C242.333 111.7 242.2 111.733 242.033 111.733C241.867 111.733 241.733 111.7 241.6 111.633C241.467 111.567 241.367 111.467 241.267 111.367C241.167 111.233 241.1 111.1 241.033 110.933C240.967 110.767 240.967 110.6 240.967 110.4C240.967 110.233 241 110.067 241.033 109.9C241.067 109.733 241.133 109.6 241.233 109.467C241.333 109.333 241.433 109.233 241.567 109.167C241.7 109.1 241.867 109.033 242.033 109.033H242.067ZM245.6 108.633V109.533C245.6 109.767 245.567 110.033 245.567 110.267C245.533 110.5 245.467 110.733 245.4 110.933C245.333 111.2 245.2 111.433 245.067 111.667H244.767L244.8 113.233H245.3L245.333 112.133H247.767L247.8 113.233H248.3L248.333 111.667H247.967V108.633H245.633H245.6ZM246.167 109.133H247.333V111.667H245.7C245.767 111.567 245.8 111.467 245.867 111.367C245.9 111.267 245.967 111.133 246 111.033C246.067 110.833 246.1 110.633 246.133 110.4C246.167 110.167 246.167 109.967 246.167 109.7V109.133ZM251.233 108.567C251 108.567 250.767 108.6 250.567 108.7C250.367 108.8 250.167 108.9 250 109.067C249.833 109.233 249.733 109.433 249.633 109.633C249.533 109.867 249.5 110.133 249.5 110.4C249.5 110.667 249.533 110.933 249.633 111.167C249.733 111.4 249.833 111.567 250 111.733C250.167 111.9 250.333 112 250.533 112.1C250.733 112.2 250.967 112.233 251.2 112.233C251.367 112.233 251.533 112.2 251.7 112.167C251.867 112.133 252.033 112.033 252.167 111.967C252.3 111.867 252.433 111.767 252.567 111.6C252.667 111.467 252.767 111.267 252.833 111.067C252.9 110.867 252.933 110.633 252.933 110.367C252.933 110.1 252.9 109.867 252.8 109.633C252.733 109.4 252.6 109.233 252.467 109.067C252.3 108.9 252.133 108.8 251.933 108.7C251.733 108.6 251.5 108.567 251.233 108.567ZM251.233 109.033C251.4 109.033 251.533 109.067 251.633 109.1C251.733 109.167 251.833 109.233 251.933 109.333C252 109.433 252.067 109.533 252.133 109.633C252.2 109.733 252.233 109.867 252.233 110C252.267 110.133 252.267 110.233 252.267 110.367C252.267 110.567 252.233 110.733 252.2 110.9C252.133 111.067 252.067 111.2 251.967 111.333C251.867 111.467 251.767 111.533 251.633 111.633C251.5 111.7 251.367 111.733 251.2 111.733C251.033 111.733 250.9 111.7 250.767 111.633C250.633 111.567 250.533 111.467 250.433 111.367C250.333 111.233 250.267 111.1 250.2 110.933C250.133 110.767 250.133 110.6 250.133 110.4C250.133 110.233 250.167 110.067 250.2 109.9C250.233 109.733 250.3 109.6 250.4 109.467C250.5 109.333 250.6 109.233 250.733 109.167C250.867 109.1 251.033 109.033 251.2 109.033H251.233ZM254.367 108.633V112.133H255.1C255.233 111.933 255.333 111.733 255.467 111.5C255.6 111.3 255.7 111.067 255.833 110.867C255.967 110.667 256.067 110.467 256.2 110.3C256.267 110.167 256.333 110.067 256.4 109.967C256.467 109.867 256.533 109.733 256.6 109.633C256.667 109.5 256.733 109.367 256.8 109.233C256.8 109.367 256.8 109.5 256.767 109.633C256.767 109.733 256.767 109.867 256.767 109.967C256.767 110.067 256.767 110.2 256.767 110.3C256.767 110.4 256.767 110.533 256.767 110.7V112.2H257.367V108.7H256.633L255.533 110.5C255.467 110.6 255.433 110.7 255.367 110.767C255.333 110.867 255.267 110.933 255.233 111.033C255.2 111.1 255.133 111.2 255.1 111.3C255.067 111.4 255 111.5 254.967 111.6H254.933C254.933 111.467 254.933 111.367 254.967 111.233C254.967 111.133 254.967 111 254.967 110.9C254.967 110.8 254.967 110.667 254.967 110.567C254.967 110.433 254.967 110.333 254.967 110.2V108.733H254.367V108.633ZM254.933 107.2C254.933 107.367 254.967 107.533 255.033 107.667C255.1 107.8 255.2 107.9 255.333 108C255.467 108.067 255.633 108.133 255.833 108.133C256.033 108.133 256.2 108.1 256.333 108.033C256.467 107.967 256.6 107.867 256.667 107.733C256.733 107.6 256.8 107.433 256.8 107.233H256.333C256.333 107.333 256.3 107.433 256.267 107.5C256.233 107.567 256.167 107.633 256.1 107.7C256.033 107.733 255.933 107.767 255.833 107.767C255.733 107.767 255.667 107.733 255.6 107.7C255.533 107.667 255.467 107.6 255.433 107.5C255.4 107.4 255.367 107.333 255.367 107.233H254.9L254.933 107.2Z" fill="#FCF2D8"/>
<path d="M19.5 167.7V176.1H21.4V169.267H24.4V176.1H26.3V167.7H19.5333H19.5ZM32.9333 171H29.8333V169.267H33.1V167.7H27.9333V176.1H33.2667V174.533H29.8V172.533H32.9V171H32.9333ZM35.3 167.7V171.367C35.3 171.8 35.3 172.2 35.2333 172.567C35.2 172.933 35.1333 173.267 35.0333 173.567C34.9333 173.867 34.8 174.1 34.6333 174.267C34.5333 174.367 34.4 174.467 34.2333 174.567C34.0667 174.633 33.9 174.7 33.6667 174.733L33.9 176.267C34.2333 176.267 34.5333 176.233 34.8333 176.167C35.1 176.1 35.3667 176 35.5667 175.867C35.8667 175.667 36.1333 175.433 36.3333 175.133C36.5333 174.833 36.7 174.5 36.8 174.1C36.9 173.7 37 173.267 37.0333 172.8C37.0667 172.333 37.1 171.833 37.1 171.267V169.267H39V176.1H40.9V167.7H35.2333H35.3ZM43.3333 167.7V171.367C43.3333 171.8 43.3333 172.2 43.2667 172.567C43.2333 172.933 43.1667 173.267 43.0667 173.567C42.9667 173.867 42.8333 174.1 42.6667 174.267C42.5667 174.367 42.4333 174.467 42.2667 174.567C42.1 174.633 41.9333 174.7 41.7 174.733L41.9333 176.267C42.2667 176.267 42.5667 176.233 42.8667 176.167C43.1333 176.1 43.4 176 43.6 175.867C43.9 175.667 44.1667 175.433 44.3667 175.133C44.5667 174.833 44.7333 174.5 44.8333 174.1C44.9333 173.7 45.0333 173.267 45.0667 172.8C45.1 172.333 45.1333 171.833 45.1333 171.267V169.267H47.0333V176.1H48.9333V167.7H43.2667H43.3333ZM55.6333 171H52.5333V169.267H55.8V167.7H50.6333V176.1H55.9667V174.533H52.5V172.533H55.6V171H55.6333ZM58.9333 176.1H60.8333V169.3H63.1333V167.7H56.6667V169.3H58.9333V176.1ZM64.1333 167.7V176.1H66.0333V172.6H69.1667V176.1H71.0667V167.7H69.1667V170.933H66.0333V167.7H64.1333ZM72.7333 167.7V176.067C72.9333 176.1 73.2333 176.133 73.5667 176.167C73.9 176.2 74.3 176.2 74.7667 176.2C75.0667 176.2 75.4 176.167 75.7 176.133C76.0333 176.1 76.3333 176.033 76.6333 175.967C76.9333 175.9 77.2333 175.767 77.5 175.633C77.7667 175.5 78 175.333 78.2 175.133C78.4 174.933 78.5667 174.667 78.7 174.367C78.8333 174.067 78.8667 173.733 78.8667 173.333C78.8667 172.967 78.8 172.6 78.7 172.333C78.5667 172.033 78.4333 171.767 78.2 171.567C78 171.333 77.7333 171.167 77.4667 171.033C77.2 170.9 76.9 170.8 76.5667 170.7C76.2333 170.633 75.9 170.6 75.5667 170.6C75.4667 170.6 75.3667 170.6 75.2333 170.6C75.1333 170.6 75 170.633 74.9 170.633C74.8 170.633 74.7 170.667 74.6 170.667V167.733H72.7333V167.7ZM74.6 172.067C74.7 172.067 74.8 172.033 74.9 172.033C75 172.033 75.1333 172.033 75.2667 172.033C75.4333 172.033 75.6333 172.067 75.8333 172.1C76.0333 172.167 76.2 172.233 76.3667 172.333C76.5333 172.433 76.6667 172.567 76.7333 172.767C76.8333 172.933 76.8667 173.133 76.8667 173.367C76.8667 173.6 76.8333 173.8 76.7333 173.967C76.6333 174.133 76.5333 174.3 76.3667 174.4C76.2 174.533 76.0333 174.6 75.8333 174.667C75.6333 174.733 75.4333 174.767 75.2333 174.767C75.1 174.767 75 174.767 74.8667 174.767C74.7667 174.767 74.6667 174.733 74.6 174.733V172.067ZM79.6333 167.7V176.1H81.5333V167.7H79.6333ZM88.3333 171H85.2333V169.267H88.5V167.7H83.3333V176.1H88.6667V174.533H85.2V172.533H88.3V171H88.3333ZM92.5333 167.7V176.1H94.4V172.6H94.7667C95.1 172.6 95.3667 172.667 95.6 172.833C95.8 172.967 96 173.167 96.1333 173.433C96.2667 173.667 96.3667 173.967 96.4667 174.3C96.5667 174.6 96.6667 174.933 96.7667 175.233C96.8667 175.533 97 175.833 97.1333 176.133H99.1667C98.9667 175.7 98.8 175.267 98.6333 174.833C98.4667 174.4 98.3333 173.933 98.2 173.5C98.1 173.167 97.9333 172.867 97.8 172.6C97.6333 172.333 97.4333 172.1 97.2 171.9C96.9667 171.7 96.6667 171.567 96.3 171.5L99.2333 167.767H96.9333L94.6333 171.267H94.4667V167.767H92.6L92.5333 167.7ZM103.767 167.567C103.133 167.567 102.6 167.667 102.1 167.9C101.6 168.133 101.167 168.433 100.8 168.833C100.433 169.233 100.167 169.7 99.9667 170.233C99.7667 170.767 99.6667 171.333 99.6667 171.967C99.6667 172.433 99.7333 172.9 99.8333 173.333C99.9333 173.767 100.1 174.167 100.333 174.5C100.567 174.867 100.833 175.167 101.133 175.433C101.467 175.7 101.833 175.9 102.233 176.033C102.633 176.167 103.1 176.233 103.6 176.233C104.233 176.233 104.767 176.133 105.3 175.933C105.8 175.733 106.233 175.433 106.6 175.067C106.967 174.7 107.233 174.233 107.433 173.667C107.633 173.133 107.733 172.5 107.733 171.8C107.733 171.333 107.667 170.9 107.567 170.467C107.467 170.033 107.3 169.667 107.067 169.3C106.833 168.933 106.567 168.633 106.267 168.367C105.933 168.1 105.567 167.9 105.167 167.767C104.733 167.633 104.267 167.533 103.767 167.533V167.567ZM103.733 169.067C104.067 169.067 104.367 169.133 104.6 169.3C104.867 169.433 105.067 169.667 105.233 169.9C105.4 170.167 105.533 170.467 105.633 170.8C105.733 171.133 105.767 171.5 105.767 171.867C105.767 172.267 105.733 172.667 105.633 173C105.533 173.333 105.4 173.633 105.233 173.9C105.067 174.167 104.833 174.367 104.6 174.5C104.333 174.633 104.067 174.7 103.733 174.7C103.4 174.7 103.133 174.633 102.867 174.5C102.6 174.367 102.4 174.167 102.233 173.933C102.067 173.7 101.933 173.4 101.833 173.033C101.733 172.7 101.7 172.3 101.7 171.9C101.7 171.5 101.733 171.1 101.833 170.767C101.933 170.433 102.067 170.133 102.233 169.867C102.4 169.6 102.633 169.4 102.867 169.267C103.133 169.133 103.4 169.067 103.733 169.067ZM110.633 176.1H112.533V169.3H114.833V167.7H108.367V169.3H110.633V176.1ZM116.567 167.7V171.367C116.567 171.8 116.567 172.2 116.5 172.567C116.467 172.933 116.4 173.267 116.3 173.567C116.2 173.867 116.067 174.1 115.9 174.267C115.8 174.367 115.667 174.467 115.5 174.567C115.333 174.633 115.167 174.7 114.933 174.733L115.167 176.267C115.5 176.267 115.8 176.233 116.1 176.167C116.367 176.1 116.633 176 116.833 175.867C117.133 175.667 117.4 175.433 117.6 175.133C117.8 174.833 117.967 174.5 118.067 174.1C118.167 173.7 118.267 173.267 118.3 172.8C118.333 172.333 118.367 171.833 118.367 171.267V169.267H120.267V176.1H122.167V167.7H116.5H116.567ZM123.9 167.7V176.067C124.1 176.1 124.4 176.133 124.733 176.167C125.067 176.2 125.467 176.2 125.933 176.2C126.233 176.2 126.567 176.167 126.867 176.133C127.2 176.1 127.5 176.033 127.8 175.967C128.1 175.9 128.4 175.767 128.667 175.633C128.933 175.5 129.167 175.333 129.367 175.133C129.567 174.933 129.733 174.667 129.867 174.367C130 174.067 130.033 173.733 130.033 173.333C130.033 172.967 129.967 172.6 129.867 172.333C129.733 172.033 129.6 171.767 129.367 171.567C129.167 171.333 128.9 171.167 128.633 171.033C128.367 170.9 128.067 170.8 127.733 170.7C127.4 170.633 127.067 170.6 126.733 170.6C126.633 170.6 126.533 170.6 126.4 170.6C126.3 170.6 126.167 170.633 126.067 170.633C125.967 170.633 125.867 170.667 125.767 170.667V167.733H123.9V167.7ZM125.767 172.067C125.867 172.067 125.967 172.033 126.067 172.033C126.167 172.033 126.3 172.033 126.433 172.033C126.6 172.033 126.8 172.067 127 172.1C127.2 172.167 127.367 172.233 127.533 172.333C127.7 172.433 127.833 172.567 127.9 172.767C128 172.933 128.033 173.133 128.033 173.367C128.033 173.6 128 173.8 127.9 173.967C127.8 174.133 127.7 174.3 127.533 174.4C127.367 174.533 127.2 174.6 127 174.667C126.8 174.733 126.6 174.767 126.4 174.767C126.267 174.767 126.167 174.767 126.033 174.767C125.933 174.767 125.833 174.733 125.767 174.733V172.067ZM130.8 167.7V176.1H132.7V167.7H130.8ZM154.633 167.7V176.1H156.533V169.267H159.7V167.7H154.633ZM164.433 167.567C163.8 167.567 163.267 167.667 162.767 167.9C162.267 168.133 161.833 168.433 161.467 168.833C161.1 169.233 160.833 169.7 160.633 170.233C160.433 170.767 160.333 171.333 160.333 171.967C160.333 172.433 160.4 172.9 160.5 173.333C160.6 173.767 160.767 174.167 161 174.5C161.233 174.867 161.5 175.167 161.8 175.433C162.133 175.7 162.5 175.9 162.9 176.033C163.3 176.167 163.767 176.233 164.267 176.233C164.9 176.233 165.433 176.133 165.967 175.933C166.467 175.733 166.9 175.433 167.267 175.067C167.633 174.7 167.9 174.233 168.1 173.667C168.3 173.133 168.4 172.5 168.4 171.8C168.4 171.333 168.333 170.9 168.233 170.467C168.133 170.033 167.967 169.667 167.733 169.3C167.5 168.933 167.233 168.633 166.933 168.367C166.6 168.1 166.233 167.9 165.833 167.767C165.4 167.633 164.933 167.533 164.433 167.533V167.567ZM164.4 169.067C164.733 169.067 165.033 169.133 165.267 169.3C165.533 169.433 165.733 169.667 165.9 169.9C166.067 170.167 166.2 170.467 166.3 170.8C166.4 171.133 166.433 171.5 166.433 171.867C166.433 172.267 166.4 172.667 166.3 173C166.2 173.333 166.067 173.633 165.9 173.9C165.733 174.167 165.5 174.367 165.267 174.5C165 174.633 164.733 174.7 164.4 174.7C164.067 174.7 163.8 174.633 163.533 174.5C163.267 174.367 163.067 174.167 162.9 173.933C162.733 173.7 162.6 173.4 162.5 173.033C162.4 172.7 162.367 172.3 162.367 171.9C162.367 171.5 162.4 171.1 162.5 170.767C162.6 170.433 162.733 170.133 162.9 169.867C163.067 169.6 163.3 169.4 163.533 169.267C163.8 169.133 164.067 169.067 164.4 169.067ZM169.667 176.1H171.533V173.1C171.633 173.133 171.733 173.133 171.833 173.133C171.933 173.133 172.067 173.133 172.2 173.133C172.767 173.133 173.267 173.067 173.733 172.9C174.2 172.767 174.6 172.533 174.933 172.233C175.2 172 175.367 171.7 175.5 171.367C175.633 171.033 175.7 170.633 175.7 170.233C175.7 169.833 175.633 169.433 175.467 169.1C175.3 168.767 175.1 168.5 174.8 168.267C174.533 168.033 174.167 167.867 173.733 167.767C173.3 167.667 172.8 167.6 172.233 167.6C171.667 167.6 171.167 167.633 170.733 167.633C170.3 167.667 169.967 167.7 169.667 167.767V176.067V176.1ZM171.533 169.133C171.6 169.1 171.7 169.1 171.833 169.1C171.967 169.1 172.133 169.067 172.3 169.067C172.767 169.067 173.167 169.167 173.4 169.4C173.667 169.6 173.8 169.933 173.8 170.3C173.8 170.567 173.733 170.833 173.6 171.033C173.467 171.233 173.267 171.4 173.033 171.5C172.8 171.6 172.5 171.667 172.167 171.667C172.033 171.667 171.9 171.667 171.8 171.667C171.7 171.667 171.6 171.633 171.533 171.633V169.167V169.133ZM181.9 171H178.8V169.267H182.067V167.7H176.9V176.1H182.233V174.533H178.767V172.533H181.867V171H181.9ZM184.267 167.7V171.367C184.267 171.8 184.267 172.2 184.2 172.567C184.167 172.933 184.1 173.267 184 173.567C183.9 173.867 183.767 174.1 183.6 174.267C183.5 174.367 183.367 174.467 183.2 174.567C183.033 174.633 182.867 174.7 182.633 174.733L182.867 176.267C183.2 176.267 183.5 176.233 183.8 176.167C184.067 176.1 184.333 176 184.533 175.867C184.833 175.667 185.1 175.433 185.3 175.133C185.5 174.833 185.667 174.5 185.767 174.1C185.867 173.7 185.967 173.267 186 172.8C186.033 172.333 186.067 171.833 186.067 171.267V169.267H187.967V176.1H189.867V167.7H184.2H184.267ZM191.6 167.7V176.1H193.467V172.6H193.833C194.167 172.6 194.433 172.667 194.667 172.833C194.867 172.967 195.067 173.167 195.2 173.433C195.333 173.667 195.433 173.967 195.533 174.3C195.633 174.6 195.733 174.933 195.833 175.233C195.933 175.533 196.067 175.833 196.2 176.133H198.233C198.033 175.7 197.867 175.267 197.7 174.833C197.533 174.4 197.4 173.933 197.267 173.5C197.167 173.167 197 172.867 196.867 172.6C196.7 172.333 196.5 172.1 196.267 171.9C196.033 171.7 195.733 171.567 195.367 171.5L198.3 167.767H196L193.7 171.267H193.533V167.767H191.667L191.6 167.7ZM199.133 167.7V176.1H201.3L203 173.067C203.167 172.767 203.333 172.467 203.5 172.133C203.667 171.8 203.833 171.467 204 171.1C204.167 170.767 204.3 170.4 204.433 170.067H204.467C204.4 170.6 204.367 171.167 204.367 171.767C204.333 172.367 204.333 172.967 204.333 173.6V176.067H206.067V167.667H204.133L202.333 170.967C202.167 171.267 202 171.6 201.833 171.933C201.667 172.267 201.5 172.6 201.333 172.967C201.167 173.3 201 173.667 200.867 173.967H200.833C200.867 173.6 200.867 173.2 200.9 172.767C200.9 172.367 200.933 171.933 200.933 171.467C200.933 171.033 200.933 170.6 200.933 170.133V167.633H199.2L199.133 167.7ZM227.9 167.7V176.1H229.8V169.267H232.8V176.1H234.7V167.7H227.933H227.9ZM241.333 171H238.233V169.267H241.5V167.7H236.333V176.1H241.667V174.533H238.2V172.533H241.3V171H241.333ZM243.7 167.7V171.367C243.7 171.8 243.7 172.2 243.633 172.567C243.6 172.933 243.533 173.267 243.433 173.567C243.333 173.867 243.2 174.1 243.033 174.267C242.933 174.367 242.8 174.467 242.633 174.567C242.467 174.633 242.3 174.7 242.067 174.733L242.3 176.267C242.633 176.267 242.933 176.233 243.233 176.167C243.5 176.1 243.767 176 243.967 175.867C244.267 175.667 244.533 175.433 244.733 175.133C244.933 174.833 245.1 174.5 245.2 174.1C245.3 173.7 245.4 173.267 245.433 172.8C245.467 172.333 245.5 171.833 245.5 171.267V169.267H247.4V176.1H249.3V167.7H243.633H243.7ZM251.733 167.7V171.367C251.733 171.8 251.733 172.2 251.667 172.567C251.633 172.933 251.567 173.267 251.467 173.567C251.367 173.867 251.233 174.1 251.067 174.267C250.967 174.367 250.833 174.467 250.667 174.567C250.5 174.633 250.333 174.7 250.1 174.733L250.333 176.267C250.667 176.267 250.967 176.233 251.267 176.167C251.533 176.1 251.8 176 252 175.867C252.3 175.667 252.567 175.433 252.767 175.133C252.967 174.833 253.133 174.5 253.233 174.1C253.333 173.7 253.433 173.267 253.467 172.8C253.5 172.333 253.533 171.833 253.533 171.267V169.267H255.433V176.1H257.333V167.7H251.667H251.733ZM264.033 171H260.933V169.267H264.2V167.7H259.033V176.1H264.367V174.533H260.9V172.533H264V171H264.033ZM267.333 176.1H269.233V169.3H271.533V167.7H265.067V169.3H267.333V176.1ZM272.533 167.7V176.067C272.733 176.1 273.033 176.133 273.367 176.167C273.7 176.2 274.1 176.2 274.567 176.2C274.867 176.2 275.2 176.167 275.5 176.133C275.833 176.1 276.133 176.033 276.433 175.967C276.733 175.9 277.033 175.767 277.3 175.633C277.567 175.5 277.8 175.333 278 175.133C278.2 174.933 278.367 174.667 278.5 174.367C278.633 174.067 278.667 173.733 278.667 173.333C278.667 172.967 278.6 172.6 278.5 172.333C278.367 172.033 278.233 171.767 278 171.567C277.8 171.333 277.533 171.167 277.267 171.033C277 170.9 276.7 170.8 276.367 170.7C276.033 170.633 275.7 170.6 275.367 170.6C275.267 170.6 275.167 170.6 275.033 170.6C274.933 170.6 274.8 170.633 274.7 170.633C274.6 170.633 274.5 170.667 274.4 170.667V167.733H272.533V167.7ZM274.4 172.067C274.5 172.067 274.6 172.033 274.7 172.033C274.8 172.033 274.933 172.033 275.067 172.033C275.233 172.033 275.433 172.067 275.633 172.1C275.833 172.167 276 172.233 276.167 172.333C276.333 172.433 276.467 172.567 276.533 172.767C276.633 172.933 276.667 173.133 276.667 173.367C276.667 173.6 276.633 173.8 276.533 173.967C276.433 174.133 276.333 174.3 276.167 174.4C276 174.533 275.833 174.6 275.633 174.667C275.433 174.733 275.233 174.767 275.033 174.767C274.9 174.767 274.8 174.767 274.667 174.767C274.567 174.767 274.467 174.733 274.4 174.733V172.067ZM279.433 167.7V176.1H281.333V167.7H279.433Z" fill="#2B2A29"/>
</g>
<defs>
<linearGradient id="paint0_linear" x1="67.2131" y1="157.061" x2="63.4081" y2="52.8587" gradientUnits="userSpaceOnUse">
<stop stop-color="#5E9B33"/>
<stop offset="0.258824" stop-color="#6CB536"/>
<stop offset="1" stop-color="#83BC37"/>
</linearGradient>
<linearGradient id="paint1_linear" x1="76.3268" y1="77.6537" x2="76.0585" y2="52.82" gradientUnits="userSpaceOnUse">
<stop stop-color="#6CB536"/>
<stop offset="1" stop-color="#83BC37"/>
</linearGradient>
<clipPath id="clip0">
<rect width="300" height="191.667" rx="12" fill="white"/>
</clipPath>
</defs>
</svg>
