<svg width="300" height="192" viewBox="0 0 300 192" fill="none" xmlns="http://www.w3.org/2000/svg">
<g clip-path="url(#clip0)">
<path d="M300 0H0V191.667H300V0Z" fill="#D12023"/>
<path fill-rule="evenodd" clip-rule="evenodd" d="M78.5999 151.467C78.8332 147.7 78.4332 143.933 78.2999 140.233L78.6666 141.033C78.7332 141.3 78.7666 141.433 78.8666 141.7L80.1332 145.867C80.7332 147.7 81.1999 149.667 81.8666 151.5H83.7666L83.7999 135.967H81.7666L82.1332 147.467L78.5332 135.967H76.5999L76.5332 151.5L78.5999 151.467ZM177.7 137.767C179.433 137.533 179.8 138.7 179.8 140.3C179.8 141.867 179.333 143 177.7 142.8V137.767ZM179.933 143.967C181.033 143.333 181.467 142.967 181.767 141.633C182.033 140.533 182.067 139.133 181.733 138.1C180.933 135.5 178.3 135.933 175.6 135.967V151.533H177.633L177.7 144.1L180.567 151.533L182.633 151.5L179.9 144L179.933 143.967ZM56.6666 148.5L59.7332 148.467L60.2666 151.433L62.3666 151.5L59.0666 135.9H57.4332L53.9666 151.467H56.0332L56.6332 148.467L56.6666 148.5ZM56.9666 147H59.4666L58.2332 139.133L56.9999 147H56.9666ZM199.133 137.733L202.633 137.7L202.6 135.9H197.1L197.067 151.367L202.6 151.433L202.633 149.633H199.2L199.167 144.367L202.267 144.333V142.6L199.167 142.533V137.7L199.133 137.733ZM135.667 150.967C139.967 153.733 143.3 148.4 140.667 144.533C139.8 143.233 137.7 141.667 137.333 140.5C137 139.367 137.4 138.3 138.167 137.9C139.2 137.333 140.033 137.933 140.8 138.233C140.833 137.567 140.833 136.933 140.867 136.267C136.633 133.633 133.233 139.367 136.333 142.9C137.167 143.867 139.2 145.367 139.467 146.967C139.667 148.1 139.3 149.233 138.4 149.567C137.267 149.967 136.433 149.233 135.7 148.967L135.667 150.967ZM216.667 150.967C220.967 153.733 224.3 148.4 221.667 144.533C220.8 143.233 218.7 141.667 218.333 140.5C218 139.367 218.4 138.3 219.167 137.9C220.2 137.333 221.033 137.933 221.8 138.233C221.833 137.567 221.833 136.933 221.867 136.267C217.633 133.633 214.233 139.367 217.333 142.9C218.167 143.867 220.2 145.367 220.467 146.967C220.667 148.1 220.3 149.233 219.4 149.567C218.267 149.967 217.433 149.233 216.7 148.967L216.667 150.967ZM236.867 150.967C241.167 153.733 244.5 148.4 241.867 144.533C241 143.233 238.9 141.667 238.533 140.5C238.2 139.367 238.6 138.3 239.367 137.9C240.4 137.333 241.233 137.933 242 138.233C242.033 137.567 242.033 136.933 242.067 136.267C237.833 133.633 234.433 139.367 237.533 142.9C238.367 143.867 240.4 145.367 240.667 146.967C240.867 148.1 240.5 149.233 239.6 149.567C238.467 149.967 237.633 149.233 236.9 148.967L236.867 150.967ZM97.7999 137.733L100.2 137.767L100.267 151.533H102.3L102.367 137.8L104.7 137.767V135.967H97.8666V137.767L97.7999 137.733ZM154.833 137.733L157.267 137.767V151.5H159.3L159.333 137.767L161.6 137.733L161.667 135.967L154.867 136V137.733H154.833ZM118.633 151.467L120.667 151.5L120.7 135.967H118.633V151.467ZM248.467 146.3C248.933 146.3 249.4 146.433 249.833 146.667C250.267 146.9 250.633 147.233 250.867 147.7C251.133 148.133 251.233 148.6 251.233 149.1C251.233 149.6 251.1 150.033 250.867 150.5C250.633 150.933 250.267 151.3 249.833 151.533C249.4 151.767 248.933 151.9 248.433 151.9C247.933 151.9 247.5 151.767 247.033 151.533C246.6 151.3 246.267 150.933 246 150.5C245.767 150.067 245.633 149.6 245.633 149.1C245.633 148.6 245.767 148.133 246 147.7C246.267 147.267 246.6 146.9 247.033 146.667C247.467 146.433 247.933 146.3 248.4 146.3H248.467ZM248.467 146.833C248.067 146.833 247.7 146.933 247.367 147.133C247 147.333 246.733 147.6 246.533 147.967C246.333 148.333 246.233 148.7 246.233 149.1C246.233 149.5 246.333 149.867 246.533 150.233C246.733 150.6 247 150.867 247.367 151.067C247.733 151.267 248.1 151.367 248.467 151.367C248.867 151.367 249.233 151.267 249.567 151.067C249.933 150.867 250.2 150.6 250.4 150.233C250.6 149.867 250.7 149.5 250.7 149.1C250.7 148.7 250.6 148.333 250.4 147.967C250.2 147.6 249.933 147.333 249.567 147.133C249.2 146.933 248.833 146.833 248.467 146.833ZM247.2 150.567V147.6H247.8C248.367 147.6 248.667 147.6 248.733 147.6C248.933 147.6 249.1 147.667 249.2 147.733C249.3 147.8 249.4 147.9 249.467 148C249.533 148.133 249.567 148.267 249.567 148.433C249.567 148.633 249.5 148.833 249.367 148.967C249.233 149.133 249.033 149.2 248.767 149.233C248.867 149.267 248.933 149.3 248.967 149.333C249 149.367 249.067 149.433 249.167 149.567C249.2 149.6 249.267 149.7 249.4 149.933L249.733 150.533H249L248.767 150.067C248.6 149.733 248.467 149.533 248.367 149.467C248.267 149.4 248.133 149.333 247.967 149.333H247.8V150.533H247.2V150.567ZM247.8 148.9H248.033C248.367 148.9 248.6 148.9 248.667 148.867C248.767 148.833 248.8 148.8 248.867 148.733C248.9 148.667 248.933 148.6 248.933 148.5C248.933 148.4 248.9 148.333 248.867 148.267C248.833 148.2 248.767 148.167 248.667 148.133C248.567 148.1 248.367 148.1 248.033 148.1H247.8V148.9Z" fill="#FEFEFE"/>
<path d="M238.567 119.233C239.367 119.233 240.1 119.433 240.833 119.833C241.567 120.233 242.133 120.8 242.533 121.533C242.933 122.267 243.167 123.033 243.167 123.833C243.167 124.633 242.967 125.4 242.567 126.133C242.167 126.867 241.6 127.433 240.867 127.833C240.133 128.233 239.367 128.433 238.567 128.433C237.767 128.433 237 128.233 236.267 127.833C235.533 127.433 234.967 126.867 234.567 126.133C234.167 125.4 233.967 124.633 233.967 123.833C233.967 123.033 234.167 122.267 234.6 121.533C235 120.8 235.567 120.233 236.3 119.833C237.033 119.433 237.767 119.233 238.567 119.233ZM238.567 120.133C237.933 120.133 237.333 120.3 236.733 120.6C236.167 120.9 235.7 121.367 235.367 121.967C235.033 122.567 234.867 123.167 234.867 123.833C234.867 124.467 235.033 125.1 235.367 125.667C235.7 126.267 236.133 126.7 236.733 127.033C237.333 127.367 237.933 127.533 238.567 127.533C239.2 127.533 239.833 127.367 240.4 127.033C240.967 126.7 241.433 126.233 241.767 125.667C242.1 125.067 242.267 124.467 242.267 123.833C242.267 123.2 242.1 122.567 241.767 121.967C241.433 121.367 240.967 120.933 240.4 120.6C239.833 120.3 239.2 120.133 238.567 120.133ZM236.5 126.3V121.433H237.5C238.433 121.433 238.933 121.433 239.067 121.433C239.4 121.467 239.667 121.533 239.833 121.633C240 121.733 240.167 121.9 240.3 122.1C240.433 122.3 240.5 122.533 240.5 122.8C240.5 123.167 240.4 123.467 240.167 123.7C239.933 123.967 239.6 124.1 239.2 124.167C239.333 124.233 239.467 124.3 239.533 124.333C239.6 124.4 239.733 124.533 239.867 124.7C239.9 124.733 240.033 124.933 240.233 125.3L240.8 126.267H239.567L239.167 125.467C238.9 124.933 238.667 124.6 238.467 124.467C238.3 124.333 238.067 124.267 237.767 124.267H237.5V126.267H236.5V126.3ZM237.5 123.533H237.9C238.467 123.533 238.833 123.5 238.967 123.467C239.1 123.433 239.2 123.333 239.3 123.233C239.367 123.133 239.433 123 239.433 122.867C239.433 122.733 239.4 122.6 239.3 122.5C239.233 122.4 239.1 122.333 238.967 122.267C238.833 122.233 238.467 122.2 237.9 122.2H237.5V123.533Z" fill="#FEFEFE"/>
<path d="M248.466 146C248.933 146 249.4 146.133 249.833 146.367C250.266 146.6 250.633 146.933 250.866 147.4C251.133 147.833 251.233 148.3 251.233 148.8C251.233 149.3 251.1 149.733 250.866 150.2C250.633 150.633 250.266 151 249.833 151.233C249.4 151.467 248.933 151.6 248.433 151.6C247.933 151.6 247.5 151.467 247.033 151.233C246.6 151 246.267 150.633 246 150.2C245.767 149.767 245.633 149.3 245.633 148.8C245.633 148.3 245.767 147.833 246 147.4C246.267 146.967 246.6 146.6 247.033 146.367C247.467 146.133 247.933 146 248.4 146H248.466ZM248.466 146.533C248.067 146.533 247.7 146.633 247.367 146.833C247 147.033 246.733 147.3 246.533 147.667C246.333 148.033 246.233 148.4 246.233 148.8C246.233 149.2 246.333 149.567 246.533 149.933C246.733 150.3 247 150.567 247.367 150.767C247.733 150.967 248.1 151.067 248.466 151.067C248.866 151.067 249.233 150.967 249.566 150.767C249.933 150.567 250.2 150.3 250.4 149.933C250.6 149.567 250.7 149.2 250.7 148.8C250.7 148.4 250.6 148.033 250.4 147.667C250.2 147.3 249.933 147.033 249.566 146.833C249.2 146.633 248.833 146.533 248.466 146.533ZM247.2 150.267V147.3H247.8C248.367 147.3 248.666 147.3 248.733 147.3C248.933 147.3 249.1 147.367 249.2 147.433C249.3 147.5 249.4 147.6 249.466 147.7C249.533 147.833 249.566 147.967 249.566 148.133C249.566 148.333 249.5 148.533 249.366 148.667C249.233 148.833 249.033 148.9 248.766 148.933C248.866 148.967 248.933 149 248.966 149.033C249 149.067 249.066 149.133 249.166 149.267C249.2 149.3 249.266 149.4 249.4 149.633L249.733 150.233H249L248.766 149.767C248.6 149.433 248.466 149.233 248.367 149.167C248.267 149.067 248.133 149.033 247.967 149.033H247.8V150.233H247.2V150.267ZM247.8 148.6H248.033C248.367 148.6 248.6 148.6 248.666 148.567C248.766 148.533 248.8 148.5 248.866 148.433C248.9 148.367 248.933 148.3 248.933 148.2C248.933 148.1 248.9 148.033 248.866 147.967C248.833 147.9 248.766 147.867 248.666 147.833C248.566 147.8 248.367 147.8 248.033 147.8H247.8V148.6Z" fill="#FEFEFE"/>
<path fill-rule="evenodd" clip-rule="evenodd" d="M52.4333 131.667H252.133V132.8H52.4333V131.667Z" fill="#FEFEFE"/>
<path fill-rule="evenodd" clip-rule="evenodd" d="M52.4333 154.5H252.133V155.633H52.4333V154.5Z" fill="#FEFEFE"/>
<path fill-rule="evenodd" clip-rule="evenodd" d="M142.7 128.067H153.2V114.9L161.734 121.6C162.167 121.933 162.367 122.067 162.8 122.367L166.034 124.9C166.734 125.5 167.367 125.933 168.1 126.533C168.434 126.8 168.3 126.667 168.567 126.867L170.3 128.233H185.967C185.5 127.533 178.934 122.7 177.4 121.567C173.067 118.367 166.934 113.733 162.9 110.333C163.6 110.133 164.834 108.833 165.434 108.333L183.1 93.2333H169.3L152.834 105.8V77.1667H142.734V128.033L142.7 128.067Z" fill="#FEFEFE"/>
<path fill-rule="evenodd" clip-rule="evenodd" d="M98.4333 111.2C98.4333 120.333 106.367 127.267 115.1 128.1H139V119.233H116.133C113.067 119.233 110.333 116.4 109.8 114.033C106.833 101.2 123.833 97.2 127.467 107.7H115.3V115.533H139V106.667C139 105.133 138.133 103.267 137.4 102.1C134.433 97.2 129.633 94.3 122.567 93.4667C116.7 92.7667 112.433 93 107.3 96C101.833 99.2 98.4333 104.867 98.4333 111.233V111.2Z" fill="#FEFEFE"/>
<path fill-rule="evenodd" clip-rule="evenodd" d="M179.067 111.2C179.067 120.333 187 127.267 195.733 128.1H219.633V119.233H196.767C193.7 119.233 190.967 116.4 190.433 114.033C187.467 101.2 204.467 97.2 208.1 107.7H195.933V115.533H219.633V106.667C219.633 105.133 218.767 103.267 218.033 102.1C215.067 97.2 210.267 94.3 203.2 93.4667C197.333 92.7667 193.067 93 187.933 96C182.467 99.2 179.067 104.867 179.067 111.233V111.2Z" fill="#FEFEFE"/>
<path fill-rule="evenodd" clip-rule="evenodd" d="M52.2998 108.1V128.067H62.1998V107.667C62.1998 104.433 64.6998 102.3 67.7665 101.9H82.5998V93.4667H68.5998C60.2998 93.4667 52.3331 99.2 52.3331 108.1H52.2998Z" fill="#FEFEFE"/>
<path fill-rule="evenodd" clip-rule="evenodd" d="M221.767 108.1V128.067H231.667V107.667C231.667 104.433 234.167 102.3 237.233 101.9H252.067V93.4667H238.067C229.767 93.4667 221.8 99.2 221.8 108.1H221.767Z" fill="#FEFEFE"/>
<path fill-rule="evenodd" clip-rule="evenodd" d="M85.2332 128.067H94.9332L95.5332 127.467V94.1L94.9332 93.4667H85.2332V128.067Z" fill="#FEFEFE"/>
<path fill-rule="evenodd" clip-rule="evenodd" d="M99.4668 62.8C103.433 56.1667 111.6 51.6667 119.133 55.3C123.867 57.6 121.6 62.8667 119.9 66.7667C119.033 68.7333 115.667 73.5667 117.6 73.9333L119.033 74.1333C118.067 77.5 115.367 80.1333 112.233 79.0667C106.867 76.4 109.767 75.1667 109.767 70C109.767 63.3333 102.433 66.5 104 67.7333C108.067 68.7667 107.1 66.8 107.1 73.7C106.133 73.8 102.967 73.7667 102.967 75.1333C102.967 76.3 104.1 78.3333 104.7 79.3667C105.367 80.5667 106.367 81.2667 107.1 82.3333C100.4 81.4667 95.7668 73.5667 95.7668 75.1333C95.7668 78.4667 99.4334 83.3333 99.6668 84.2C98.7668 84.6667 98.1668 85.2333 97.3668 85.8C92.8668 89.1667 91.6001 90.6333 90.6001 90.7C89.6334 90.6333 88.3668 89.1667 83.8334 85.8C83.0334 85.2 82.4334 84.6333 81.5334 84.2C81.7668 83.3333 85.4334 78.4667 85.4334 75.1333C85.4334 73.5667 80.8001 81.4667 74.1001 82.3333C74.8334 81.2667 75.8001 80.5667 76.5001 79.3667C77.1001 78.3 78.2334 76.3 78.2334 75.1333C78.2334 73.7333 75.0668 73.7667 74.1001 73.7C74.1001 66.8 73.1334 68.7333 77.2001 67.7333C78.7668 66.5 71.4334 63.3333 71.4334 70C71.4334 75.1667 74.3334 76.4 68.9668 79.0667C65.8334 80.1333 63.1334 77.4667 62.1668 74.1333L63.6001 73.9333C65.5334 73.5667 62.1334 68.7333 61.3001 66.7667C59.6001 62.8667 57.3334 57.6 62.0668 55.3C69.5668 51.6667 77.7668 56.1333 81.7334 62.8C82.7334 64.4667 83.2334 66.3 83.8001 68.1667H85.2334C85.1334 63.9 80.2001 60.0667 79.4668 50.4667C78.9668 43.7 85.6668 37.3333 90.5668 33.6C95.4668 37.3667 102.2 43.7 101.667 50.4667C100.933 60.0667 96.0001 63.9 95.9001 68.1667H97.3334C97.8668 66.3333 98.4001 64.4667 99.4001 62.8H99.4668Z" fill="#FEFEFE"/>
</g>
<defs>
<clipPath id="clip0">
<rect width="300" height="191.667" rx="12" fill="white"/>
</clipPath>
</defs>
</svg>
