<svg width="300" height="192" viewBox="0 0 300 192" fill="none" xmlns="http://www.w3.org/2000/svg">
<g clip-path="url(#clip0)">
<path fill-rule="evenodd" clip-rule="evenodd" d="M0 0H300V191.667H0V0Z" fill="#2B2A29"/>
<path fill-rule="evenodd" clip-rule="evenodd" d="M101.467 30.5334C101.467 31.2334 101.5 31.7667 101.6 32.1C101.7 32.4667 101.867 32.7 102.1 32.8334C102.367 32.9667 102.7 33.0334 103.1 33.0334C103.633 33.0334 104.033 32.9334 104.267 32.7667C104.533 32.6 104.667 32.3667 104.733 32.0667C104.8 31.7667 104.833 31.3334 104.833 30.7667C104.833 30.3 104.833 29.9334 104.8 29.6667C104.767 29.4 104.7 29.1667 104.6 28.9667C104.5 28.7667 104.333 28.6 104.067 28.4667C103.833 28.3667 103.467 28.3 103.033 28.3C102.533 28.3 102.167 28.4 101.933 28.5667C101.7 28.7334 101.567 28.9667 101.5 29.2667C101.467 29.5667 101.433 30 101.433 30.5667L101.467 30.5334Z" fill="#2B2A29"/>
<path fill-rule="evenodd" clip-rule="evenodd" d="M105.767 25.0333V33.7H104.867L104.9 32.9333C104.767 33.1667 104.6 33.3333 104.4 33.4667C104.2 33.6 104 33.6667 103.767 33.7333C103.533 33.7667 103.267 33.8 102.967 33.8C102.433 33.8 102 33.7333 101.667 33.5667C101.333 33.4333 101.1 33.2 100.933 32.9333C100.767 32.6667 100.667 32.3333 100.6 31.9667C100.533 31.6 100.533 31.1333 100.533 30.6C100.533 29.9333 100.6 29.4 100.7 28.9667C100.8 28.5333 101.033 28.2 101.367 27.9333C101.7 27.7 102.2 27.5667 102.833 27.5667C103.333 27.5667 103.767 27.6333 104.133 27.7333C104.5 27.8333 104.733 28.0667 104.9 28.4V25.0667H105.8L105.767 25.0333Z" fill="#2B2A29"/>
<path fill-rule="evenodd" clip-rule="evenodd" d="M92.5333 27.6H93.4V28.3C93.7333 27.7333 94.3 27.4667 95.0667 27.4667C96.2333 27.4667 96.8333 28.2 96.8333 29.6H95.9667C95.9667 29.1333 95.9 28.8 95.7667 28.5667C95.6333 28.3333 95.3333 28.2333 94.9 28.2333C93.9667 28.2333 93.4667 28.7 93.4667 29.6667V33.7H92.5667V27.6333L92.5333 27.6Z" fill="#2B2A29"/>
<path fill-rule="evenodd" clip-rule="evenodd" d="M84.5332 31.7667C84.5332 32.2667 84.6332 32.6333 84.8332 32.8C85.0332 32.9667 85.3999 33.0667 85.8999 33.0667C86.2999 33.0667 86.6332 33.0333 86.8999 33C87.1666 32.9667 87.3999 32.8667 87.5999 32.7C87.7999 32.5333 87.8999 32.2667 87.8999 31.9333C87.8999 31.4333 87.7666 31.1333 87.4666 30.9667C87.1999 30.8333 86.7666 30.7667 86.1999 30.7667H85.9666C85.2999 30.7667 84.8666 30.8667 84.6666 31.0333C84.5332 31.1333 84.4666 31.4 84.4666 31.8L84.5332 31.7667Z" fill="#2B2A29"/>
<path fill-rule="evenodd" clip-rule="evenodd" d="M84.7332 29.3667H83.7999C83.7999 28.6 83.9999 28.1333 84.3665 27.9C84.7665 27.7 85.3665 27.6 86.1665 27.6C86.7999 27.6 87.2999 27.6333 87.6665 27.7333C88.0332 27.8333 88.3332 28.0333 88.4999 28.3333C88.6999 28.6333 88.7999 29.1 88.7999 29.7V33.6667H87.9332L87.9999 33.0333C87.7665 33.3333 87.4999 33.5333 87.1665 33.6333C86.8332 33.7333 86.4332 33.7667 85.9332 33.7667C85.3999 33.7667 84.9332 33.7333 84.5999 33.6333C84.2665 33.5333 83.9999 33.3333 83.8332 33.0667C83.6665 32.8 83.5665 32.3667 83.5665 31.8333C83.5665 31.3333 83.6665 30.9333 83.8665 30.6667C84.0665 30.4 84.3332 30.2333 84.6665 30.1333C84.9999 30.0333 85.4332 30 85.9332 30C86.3999 30 86.7999 30.0333 87.1332 30.1C87.4332 30.1667 87.6999 30.3333 87.8999 30.6V29.9C87.8999 29.4 87.8665 29.0333 87.7665 28.8C87.6665 28.5667 87.5332 28.4 87.2665 28.3333C87.0332 28.2667 86.6665 28.2333 86.1332 28.2333C85.5665 28.2333 85.1665 28.3 84.9665 28.4667C84.7999 28.6 84.6999 28.8 84.6999 29.1333C84.6999 29.1667 84.6999 29.2 84.6999 29.2333C84.6999 29.2667 84.6999 29.3 84.6999 29.3333L84.7332 29.3667Z" fill="#2B2A29"/>
<path fill-rule="evenodd" clip-rule="evenodd" d="M78.9 31.4667H79.8C79.8 32.1 79.7 32.5667 79.5333 32.9C79.3667 33.2333 79.1 33.4333 78.7333 33.5667C78.3667 33.7 77.8667 33.7333 77.2333 33.7333C76.6 33.7333 76.1 33.6667 75.7333 33.5333C75.3667 33.4 75.1 33.2 74.9333 32.9667C74.7667 32.7 74.6667 32.4 74.6 32.0333C74.5667 31.6667 74.5333 31.1333 74.5333 30.4667C74.5333 29.7667 74.6 29.2 74.7667 28.7667C74.9333 28.3667 75.2 28.0333 75.5667 27.8333C75.9667 27.6333 76.5 27.5333 77.2 27.5333C77.9667 27.5333 78.5667 27.6667 79 27.9C79.4333 28.1667 79.6333 28.6333 79.6333 29.3667V29.5667H78.7667C78.7667 29.2 78.7333 28.9333 78.6333 28.7333C78.5333 28.5333 78.4 28.4333 78.1667 28.3333C77.9667 28.2667 77.6667 28.2333 77.3 28.2333C76.7667 28.2333 76.3333 28.3 76.1 28.4C75.8333 28.5 75.6667 28.7 75.6 28.9667C75.5333 29.2333 75.4667 29.7 75.4667 30.3V30.9C75.4667 31.4333 75.5 31.8333 75.5667 32.1C75.6333 32.3667 75.7667 32.5667 76 32.7333C76.2333 32.8667 76.6 32.9667 77.1333 32.9667C77.6333 32.9667 77.9667 32.9333 78.2 32.8667C78.4333 32.8 78.6 32.6667 78.7 32.4333C78.8 32.2 78.8667 31.8667 78.8667 31.4L78.9 31.4667Z" fill="#2B2A29"/>
<path fill-rule="evenodd" clip-rule="evenodd" d="M62.7666 27.6H63.6333V28.3C63.9666 27.7333 64.5333 27.4667 65.2999 27.4667C66.4666 27.4667 67.0666 28.2 67.0666 29.6H66.1999C66.1999 29.1333 66.1333 28.8 65.9999 28.5667C65.8666 28.3333 65.5666 28.2333 65.1333 28.2333C64.1999 28.2333 63.6999 28.7 63.6999 29.6667V33.7H62.7999V27.6333L62.7666 27.6Z" fill="#2B2A29"/>
<path fill-rule="evenodd" clip-rule="evenodd" d="M58.2002 30.1C58.2002 29.5667 58.1668 29.1667 58.1002 28.9C58.0335 28.6333 57.8668 28.4667 57.6335 28.3667C57.4002 28.2667 57.0002 28.2 56.4668 28.2C56.0002 28.2 55.6335 28.2667 55.4002 28.3667C55.1668 28.4667 55.0002 28.6667 54.9002 28.9333C54.8002 29.2 54.7668 29.5667 54.7668 30.1H58.2002Z" fill="#2B2A29"/>
<path fill-rule="evenodd" clip-rule="evenodd" d="M58.2 31.8333H59.1667C59.1667 32.4 59.0667 32.8333 58.8667 33.1C58.6667 33.3667 58.3667 33.5667 58.0334 33.6333C57.6667 33.7 57.2 33.7667 56.6 33.7667C56.0334 33.7667 55.5667 33.7333 55.2 33.6C54.8334 33.5 54.5667 33.3333 54.3667 33.1C54.1667 32.8667 54.0334 32.5667 53.9667 32.2C53.9 31.8333 53.8667 31.3667 53.8667 30.7667C53.8667 29.9667 53.9334 29.3333 54.0334 28.9C54.1334 28.4667 54.3667 28.1 54.7334 27.8667C55.1 27.6333 55.6667 27.5 56.4334 27.5C57.2 27.5 57.7667 27.5667 58.1667 27.7333C58.5334 27.9 58.8 28.1667 58.9667 28.5667C59.1 28.9667 59.2 29.5333 59.2 30.3333V30.8H54.8334C54.8334 31.3667 54.8667 31.7667 54.9 32.0667C54.9667 32.3667 55.1 32.6 55.3334 32.7667C55.5667 32.9333 55.9334 33.0333 56.4667 33.0333H56.7C57.2 33.0333 57.6 32.9667 57.8667 32.8667C58.1334 32.7333 58.2667 32.4667 58.2667 32.0333V31.8333H58.2Z" fill="#2B2A29"/>
<path fill-rule="evenodd" clip-rule="evenodd" d="M50.1002 27.6L48.0668 33.6667H46.7668L44.7668 27.6H45.7002L47.4335 32.9667L49.1002 27.6H50.1002Z" fill="#2B2A29"/>
<path fill-rule="evenodd" clip-rule="evenodd" d="M41.0001 25V33.6667H40.1001V25H41.0001Z" fill="#2B2A29"/>
<path fill-rule="evenodd" clip-rule="evenodd" d="M36.3334 33.6667H35.4V27.6H36.3334V33.6667Z" fill="#2B2A29"/>
<path fill-rule="evenodd" clip-rule="evenodd" d="M36.3334 25V26H35.4V25H36.3334Z" fill="#2B2A29"/>
<path fill-rule="evenodd" clip-rule="evenodd" d="M31.4335 29.1667H30.5335C30.5335 28.7667 30.4001 28.5333 30.1668 28.4C29.9335 28.2667 29.5668 28.2 29.1335 28.2H28.6668C28.2335 28.2 27.9001 28.2667 27.7001 28.4C27.4668 28.5333 27.3668 28.7667 27.3668 29.1333C27.3668 29.4 27.4001 29.5667 27.4335 29.7C27.4668 29.8333 27.5668 29.9333 27.7001 30C27.8335 30.0667 28.0335 30.1 28.2668 30.1333C28.6668 30.1333 29.1001 30.1667 29.5001 30.1667C29.9001 30.1667 30.2668 30.2333 30.5668 30.3C30.8668 30.4 31.1001 30.5667 31.3001 30.8C31.5001 31.0667 31.6001 31.4 31.6001 31.8666C31.6001 32.4333 31.5001 32.8333 31.3001 33.1C31.1001 33.3666 30.8335 33.5333 30.4668 33.6C30.1001 33.6666 29.6335 33.7 29.0335 33.7C28.5001 33.7 28.0335 33.6666 27.7001 33.6C27.3335 33.5333 27.0335 33.3666 26.8001 33.1333C26.5668 32.9 26.4335 32.5333 26.4335 32.0333C26.4335 31.8666 26.4335 31.7666 26.4335 31.7H27.3335C27.3335 32.0666 27.3668 32.3333 27.4668 32.5C27.5668 32.7 27.7001 32.8 27.9001 32.8666C28.1001 32.9333 28.4001 32.9666 28.7668 32.9666H28.9668C29.7001 32.9666 30.1668 32.9 30.4001 32.7333C30.5668 32.6 30.6668 32.3 30.6668 31.8666C30.6668 31.4666 30.5668 31.2 30.4001 31.1C30.2001 31 29.9335 30.9333 29.5335 30.9333H29.1668C29.1668 30.9333 29.1335 30.9333 29.1001 30.9333C29.0668 30.9333 29.0335 30.9333 29.0001 30.9333C28.4001 30.9 28.0001 30.8667 27.8335 30.8333C27.6335 30.8 27.4335 30.7667 27.2001 30.6667C26.9668 30.5667 26.8001 30.4 26.6668 30.1667C26.5335 29.9333 26.4668 29.6333 26.4668 29.2667C26.4668 28.5333 26.6001 28.1 26.9001 27.8667C27.3001 27.5667 27.9668 27.4333 28.8668 27.4333C29.3668 27.4333 29.8001 27.4667 30.1668 27.5333C30.5335 27.6 30.8335 27.7667 31.0668 28.0333C31.3001 28.2667 31.4335 28.6333 31.4335 29.1V29.1667Z" fill="#2B2A29"/>
<path fill-rule="evenodd" clip-rule="evenodd" d="M176.5 100.233C175.667 100.3 174.833 100.367 174 100.367C170.5 100.367 167.033 99.6333 163.833 98.2667C163.267 98.9333 162.7 99.5667 162.067 100.167C161.4 100.833 160.7 101.467 159.967 102.1C161.767 102.467 163.6 102.667 165.467 102.667C169.333 102.667 173.1 101.833 176.5 100.267V100.233Z" fill="#2B2A29"/>
<path fill-rule="evenodd" clip-rule="evenodd" d="M162.267 52.3C164.5 51.1333 166.9 50.3333 169.367 49.8667C168.067 49.6667 166.767 49.5667 165.433 49.5667C163.567 49.5667 161.733 49.7667 159.933 50.1333C160.667 50.7333 161.367 51.4 162.033 52.0667C162.1 52.1333 162.167 52.2 162.267 52.3Z" fill="#2B2A29"/>
<path fill-rule="evenodd" clip-rule="evenodd" d="M172 57C175.067 57.8333 177.9 59.4667 180.2 61.7667C183.7 65.2667 185.633 69.9333 185.633 74.8667C185.633 79.8 183.7 84.5 180.2 87.9667C177.9 90.2667 175.067 91.9 172 92.7333C172.667 92.8 173.333 92.8333 174 92.8333C178.8 92.8333 183.333 90.9333 186.733 87.5667C189.967 84.3333 192 80 192 75.4C192 73.3667 191.733 71.3333 191.167 69.3667C190.367 66.6 188.767 64.1333 186.733 62.1333C183.333 58.7333 178.8 56.8667 174 56.8667C173.333 56.8667 172.667 56.9 172 56.9667V57Z" fill="#2B2A29"/>
<path fill-rule="evenodd" clip-rule="evenodd" d="M167.067 67.9333C168.933 67.9333 170.7 68.6667 172 69.9667C173.3 71.2667 174.033 73.0333 174.033 74.9C174.033 76.7667 173.3 78.5333 172 79.8333C170.7 81.1333 168.933 81.8667 167.067 81.8667C165.2 81.8667 163.433 81.1333 162.133 79.8333C160.833 78.5333 160.1 76.7667 160.1 74.9C160.1 73.0333 160.833 71.2667 162.133 69.9667C163.433 68.6667 165.2 67.9333 167.067 67.9333Z" fill="#2B2A29"/>
<path fill-rule="evenodd" clip-rule="evenodd" d="M167.067 63.8C164.1 63.8 161.3 64.9667 159.233 67.0333C157.2 69.0667 156 71.8 156 74.7V74.8667V75.0333C156 77.9333 157.2 80.6667 159.233 82.7C161.333 84.8 164.133 85.9333 167.067 85.9333C170.033 85.9333 172.833 84.7667 174.9 82.7C177 80.6 178.133 77.8 178.133 74.8667C178.133 71.9 176.967 69.1 174.9 67.0333C172.8 64.9333 170 63.8 167.067 63.8Z" fill="#2B2A29"/>
<path fill-rule="evenodd" clip-rule="evenodd" d="M139.667 98.2333C136.467 99.6333 133 100.333 129.5 100.333C128.667 100.333 127.8 100.3 127 100.2C130.433 101.767 134.2 102.6 138.033 102.6C139.9 102.6 141.733 102.4 143.533 102.033C142.8 101.433 142.1 100.767 141.433 100.1C140.833 99.5 140.233 98.8666 139.667 98.2V98.2333Z" fill="#2B2A29"/>
<path fill-rule="evenodd" clip-rule="evenodd" d="M151.733 98.8C153.567 97.7 155.267 96.3667 156.767 94.8333C156.967 94.6333 157.2 94.4 157.4 94.2C156.9 93.7667 156.433 93.3333 155.967 92.9C154.3 91.2333 152.867 89.3333 151.733 87.2667C150.6 89.3333 149.167 91.2 147.467 92.9C147 93.3667 146.533 93.8 146.033 94.2C146.233 94.4333 146.433 94.6333 146.667 94.8333C148.167 96.3333 149.867 97.6667 151.7 98.8H151.733Z" fill="#2B2A29"/>
<path fill-rule="evenodd" clip-rule="evenodd" d="M151.733 62.5333C152.867 60.4667 154.3 58.5667 155.967 56.9C156.033 56.8333 156.067 56.8 156.133 56.7333C154.767 55.4667 153.3 54.3333 151.733 53.4C150.133 54.3667 148.667 55.4667 147.333 56.7333C147.4 56.8 147.433 56.8333 147.5 56.9C149.167 58.5667 150.6 60.4667 151.733 62.5333Z" fill="#2B2A29"/>
<path fill-rule="evenodd" clip-rule="evenodd" d="M141.2 52.3C141.267 52.2333 141.333 52.1667 141.433 52.0667C142.1 51.4 142.8 50.7667 143.533 50.1333C141.733 49.7667 139.9 49.5667 138.033 49.5667C136.7 49.5667 135.4 49.6667 134.1 49.8667C136.567 50.3333 138.967 51.1333 141.2 52.3Z" fill="#2B2A29"/>
<path fill-rule="evenodd" clip-rule="evenodd" d="M141.367 79.7667C140.1 81.1667 138.267 81.8667 136.4 81.8667C134.533 81.8667 132.767 81.1333 131.467 79.8333C130.167 78.5333 129.433 76.7667 129.433 74.9C129.433 73.0333 130.167 71.2667 131.467 69.9667C132.767 68.6667 134.533 67.9333 136.4 67.9333C138.267 67.9333 140.033 68.6667 141.333 69.9667C142.633 71.2667 143.367 73.0333 143.367 74.9C143.367 76.7333 142.633 78.4667 141.367 79.8V79.7667Z" fill="#2B2A29"/>
<path fill-rule="evenodd" clip-rule="evenodd" d="M144.233 67.0666C142.133 64.9666 139.333 63.8333 136.4 63.8333C133.433 63.8333 130.633 65 128.567 67.0666C126.467 69.1666 125.333 71.9666 125.333 74.9C125.333 77.8667 126.5 80.6667 128.567 82.7333C130.667 84.8333 133.467 85.9667 136.4 85.9667C139.367 85.9667 142.167 84.8 144.233 82.7333C146.267 80.7 147.467 77.9667 147.467 75.0666V75.0333V74.8666V74.6666C147.467 71.7666 146.267 69.0333 144.233 67V67.0666Z" fill="#2B2A29"/>
<path fill-rule="evenodd" clip-rule="evenodd" d="M131.5 57C130.833 56.9334 130.167 56.9 129.5 56.9C124.7 56.9 120.167 58.7667 116.767 62.1667C114.733 64.2 113.133 66.6667 112.333 69.4C111.767 71.3667 111.5 73.4 111.5 75.4334C111.5 80.0667 113.533 84.3667 116.767 87.6C120.167 91 124.7 92.8667 129.5 92.8667C130.167 92.8667 130.833 92.8334 131.5 92.7667C128.433 91.9334 125.6 90.3 123.3 88C119.8 84.5 117.867 79.8334 117.867 74.9C117.867 69.9667 119.8 65.2667 123.3 61.8C125.6 59.5 128.433 57.8667 131.5 57.0334V57Z" fill="#2B2A29"/>
<path fill-rule="evenodd" clip-rule="evenodd" d="M208.133 130.433L207.433 132.767C207.267 133.267 207.067 133.767 206.767 134.2L206.8 134.233C207.133 134.733 207.367 135.3 207.533 135.867L207.733 136.5C207.8 136.433 207.867 136.333 207.9 136.233C208 136 208.067 135.7 208.067 135.433C208.1 134.933 208.133 134.433 208.133 133.933V130.433Z" fill="#2B2A29"/>
<path fill-rule="evenodd" clip-rule="evenodd" d="M217.433 133.6V136.667H218.667L217.433 133.6Z" fill="#2B2A29"/>
<path fill-rule="evenodd" clip-rule="evenodd" d="M224.833 128.1H234.067V132.567H232.933C233.233 132.733 233.5 132.967 233.767 133.2C234.167 133.6 234.5 134.1 234.7 134.633C234.9 135.167 235 135.767 235 136.367C235 136.867 234.933 137.4 234.767 137.867C234.6 138.4 234.333 138.9 233.967 139.333C233.567 139.8 233.1 140.133 232.567 140.4C231.933 140.7 231.267 140.8 230.567 140.8H224.867V134.133L223.6 137.533C223.267 138.433 222.767 139.4 222 140.033C221.267 140.667 220.4 140.933 219.433 140.933H217.033V140.8H212.733V135.233C212.7 135.6 212.667 135.967 212.633 136.333C212.533 137.1 212.333 137.833 211.967 138.5C211.6 139.2 211.1 139.767 210.467 140.2C209.767 140.667 208.967 140.9 208.167 141L207 141.167L206.9 140.767H204.067L202.967 136.9C202.933 136.8 202.9 136.667 202.833 136.567C202.833 136.567 202.833 136.567 202.833 136.533H202.8V140.767H199L201.967 149.267H191.233L189.633 143.833H183.9L182.167 149.267H171.567L172.6 146.3C171.733 147.233 170.7 147.933 169.567 148.433C168.233 149.033 166.767 149.267 165.333 149.267H150.633V141.4C150.467 142.067 150.233 142.7 149.933 143.3C149.267 144.667 148.3 145.833 147.133 146.8C145.933 147.767 144.567 148.433 143.1 148.867C141.6 149.3 140.067 149.533 138.5 149.533C136.933 149.533 135.4 149.333 133.9 148.867C132.433 148.433 131.067 147.733 129.867 146.8C129.1 146.2 128.467 145.5 127.9 144.7L128.133 145.1L126.6 146.4C125.333 147.467 123.833 148.233 122.267 148.733C120.6 149.267 118.867 149.533 117.1 149.533C115.633 149.533 114.167 149.333 112.767 148.9C111.333 148.467 110.033 147.833 108.833 146.933C107.6 146.033 106.633 144.9 105.9 143.567C105.067 142.067 104.733 140.4 104.733 138.7V128.833C104.733 127.167 105.067 125.5 105.867 124.033C106.6 122.7 107.567 121.567 108.767 120.633C109.967 119.733 111.3 119.067 112.7 118.633C114.1 118.2 115.567 118 117.033 118C118.733 118 120.433 118.233 122.1 118.7C123.767 119.2 125.333 119.967 126.633 121.133L128.133 122.433L128.067 122.533C128.633 121.8 129.3 121.133 130.033 120.567C131.233 119.667 132.6 119 134.033 118.567C135.467 118.133 136.967 117.933 138.467 117.933C140 117.933 141.5 118.167 142.933 118.6C144.367 119.033 145.733 119.733 146.9 120.633C148.133 121.567 149.1 122.767 149.8 124.133C150.133 124.767 150.367 125.433 150.567 126.133V118.2H164.767C166.233 118.2 167.7 118.4 169.067 118.933C170.267 119.433 171.367 120.1 172.267 121.067C173.1 121.967 173.767 123.033 174.167 124.2C174.567 125.333 174.767 126.5 174.767 127.7C174.767 129.133 174.367 130.5 173.733 131.733C173.5 132.2 173.233 132.633 172.9 133C173.333 133.5 173.7 134.033 174 134.6C174.4 135.3 174.7 136.033 174.9 136.833C175.067 137.433 175.167 138.067 175.2 138.7L182.4 118.233H191.067L198.067 138.333V128.067H202.733V132C202.767 131.933 202.8 131.833 202.833 131.733L204 128.033H220.133L221.2 130.933C221.267 130.767 221.333 130.6 221.367 130.433C221.433 130.2 221.533 129.967 221.6 129.733C221.667 129.567 221.733 129.367 221.8 129.2C221.833 129.133 221.833 129.1 221.867 129.033L222.1 128.033H224.767L224.833 128.1Z" fill="#2B2A29"/>
<path fill-rule="evenodd" clip-rule="evenodd" d="M186.733 134.8H186.767L186.733 134.733V134.8Z" fill="#2B2A29"/>
<path fill-rule="evenodd" clip-rule="evenodd" d="M160.533 137.9V139.967H163.833C164.067 139.967 164.667 139.933 164.833 139.767C165.033 139.567 165.033 139.233 165.033 139C165.033 138.7 165 138.4 164.767 138.2C164.533 137.967 164.067 137.933 163.767 137.933H160.5L160.533 137.9Z" fill="#2B2A29"/>
<path fill-rule="evenodd" clip-rule="evenodd" d="M160.533 127.6V128.7H163.6C163.867 128.7 164.433 128.667 164.667 128.467C164.733 128.4 164.733 128.333 164.733 128.233C164.733 128.167 164.733 127.8 164.667 127.767C164.467 127.633 163.767 127.6 163.5 127.6H160.533Z" fill="#2B2A29"/>
<path fill-rule="evenodd" clip-rule="evenodd" d="M141.033 129.933C141.033 129.567 141 129.067 140.833 128.733C140.7 128.467 140.567 128.233 140.333 128.067C140.1 127.867 139.867 127.733 139.6 127.667C139.233 127.567 138.9 127.5 138.5 127.5C138.133 127.5 137.733 127.567 137.367 127.667C137.1 127.767 136.833 127.867 136.6 128.067C136.4 128.233 136.233 128.467 136.1 128.733C135.933 129.067 135.9 129.567 135.9 129.933V137.633C135.9 138.033 135.933 138.5 136.1 138.867C136.2 139.133 136.367 139.367 136.567 139.533C136.767 139.7 137 139.833 137.267 139.9C137.633 140 138.033 140.067 138.433 140.067C138.833 140.067 139.2 140 139.567 139.9C139.833 139.833 140.067 139.7 140.267 139.533C140.467 139.367 140.633 139.1 140.733 138.867C140.9 138.5 140.933 138.033 140.933 137.633V129.933H141.033Z" fill="#2B2A29"/>
<path fill-rule="evenodd" clip-rule="evenodd" d="M127.2 143.533C127.167 143.467 127.133 143.4 127.1 143.333C126.367 141.833 126.067 140.2 126.067 138.533V128.867C126.067 127.233 126.367 125.667 127.1 124.2L123.167 130.5L121.1 128.767C120.567 128.333 120 127.967 119.333 127.8C118.633 127.6 117.933 127.5 117.2 127.5C116.833 127.5 116.433 127.567 116.067 127.667C115.8 127.733 115.567 127.867 115.367 128.033C115.133 128.233 114.967 128.467 114.833 128.733C114.667 129.1 114.633 129.567 114.633 129.933V137.633C114.633 138 114.667 138.467 114.833 138.8C114.967 139.067 115.133 139.3 115.367 139.5C115.6 139.7 115.867 139.833 116.167 139.933C116.5 140.033 116.867 140.1 117.2 140.1C117.9 140.1 118.6 140 119.267 139.8C119.967 139.6 120.633 139.2 121.2 138.767L123.267 137.167L127.2 143.6V143.533Z" fill="#2B2A29"/>
<path fill-rule="evenodd" clip-rule="evenodd" d="M94.9 130.767V128.267H104.5V132.733H103.8V136.533H104.5V140.967H94.9V138.033C94.7333 138.267 94.5333 138.467 94.3333 138.667C93.8333 139.133 93.2667 139.467 92.6333 139.733C92.4 139.833 92.1333 139.9 91.9 139.967V140.967H87.2333V139.933C86.9667 139.867 86.7 139.8 86.4667 139.7C85.8667 139.467 85.3 139.1 84.8 138.667C84.7667 138.633 84.7333 138.6 84.7 138.567L85.5333 140.967H80.5L79.9 138.9H78.3667L77.7 140.967H70.9667L69.8667 137.1C69.8333 137 69.8 136.867 69.7333 136.767C69.7333 136.767 69.7333 136.767 69.7333 136.733H69.7V140.967H65.0333V128.267H69.7V132.2C69.7333 132.133 69.7667 132.033 69.8 131.933L70.9667 128.233H75.8L74.3667 132.9C74.2 133.4 74 133.9 73.7 134.333L73.7333 134.367C74.0667 134.867 74.3 135.433 74.4667 136L77.2 128.233H81.1333L83.3 134.5V133.667C83.3 132.967 83.4333 132.267 83.7333 131.633C84 131.033 84.4 130.5 84.9 130.067C85.4 129.633 85.9667 129.3 86.5667 129.067C86.8 128.967 87.0333 128.9 87.2333 128.867V128.133H91.9V128.833C92.1333 128.9 92.3667 128.967 92.6 129.067C93.2 129.3 93.7667 129.633 94.2667 130.067C94.5 130.267 94.7 130.5 94.8667 130.733L94.9 130.767Z" fill="#2B2A29"/>
<path d="M249.1 166.933C249.1 165.6 249.233 164.5 249.5 163.7C249.767 162.867 250.2 162.233 250.733 161.8C251.267 161.367 251.967 161.133 252.8 161.133C253.4 161.133 253.933 161.267 254.4 161.5C254.867 161.733 255.233 162.1 255.533 162.567C255.833 163.033 256.067 163.6 256.233 164.267C256.4 164.933 256.5 165.833 256.5 166.933C256.5 168.267 256.367 169.333 256.1 170.167C255.833 171 255.4 171.633 254.867 172.067C254.333 172.5 253.633 172.733 252.8 172.733C251.7 172.733 250.833 172.333 250.233 171.567C249.5 170.633 249.1 169.1 249.1 166.967V166.933ZM250.533 166.933C250.533 168.8 250.767 170.033 251.2 170.667C251.633 171.267 252.167 171.6 252.8 171.6C253.433 171.6 253.967 171.3 254.4 170.667C254.833 170.033 255.067 168.8 255.067 166.967C255.067 165.1 254.833 163.867 254.4 163.233C253.967 162.633 253.433 162.3 252.767 162.3C252.133 162.3 251.6 162.567 251.233 163.1C250.767 163.8 250.5 165.067 250.5 166.933H250.533ZM257.9 166.933C257.9 165.6 258.033 164.5 258.3 163.7C258.567 162.867 259 162.233 259.533 161.8C260.067 161.367 260.767 161.133 261.6 161.133C262.2 161.133 262.733 161.267 263.2 161.5C263.667 161.733 264.033 162.1 264.333 162.567C264.633 163.033 264.867 163.6 265.033 164.267C265.2 164.933 265.3 165.833 265.3 166.933C265.3 168.267 265.167 169.333 264.9 170.167C264.633 171 264.2 171.633 263.667 172.067C263.133 172.5 262.433 172.733 261.6 172.733C260.5 172.733 259.633 172.333 259.033 171.567C258.3 170.633 257.9 169.1 257.9 166.967V166.933ZM259.333 166.933C259.333 168.8 259.567 170.033 260 170.667C260.433 171.267 260.967 171.6 261.6 171.6C262.233 171.6 262.767 171.3 263.2 170.667C263.633 170.033 263.867 168.8 263.867 166.967C263.867 165.1 263.633 163.867 263.2 163.233C262.767 162.633 262.233 162.3 261.567 162.3C260.933 162.3 260.4 162.567 260.033 163.1C259.567 163.8 259.3 165.067 259.3 166.933H259.333ZM266.7 166.933C266.7 165.6 266.833 164.5 267.1 163.7C267.367 162.867 267.8 162.233 268.333 161.8C268.867 161.367 269.567 161.133 270.4 161.133C271 161.133 271.533 161.267 272 161.5C272.467 161.733 272.833 162.1 273.133 162.567C273.433 163.033 273.667 163.6 273.833 164.267C274 164.933 274.1 165.833 274.1 166.933C274.1 168.267 273.967 169.333 273.7 170.167C273.433 171 273 171.633 272.467 172.067C271.933 172.5 271.233 172.733 270.4 172.733C269.3 172.733 268.433 172.333 267.833 171.567C267.1 170.633 266.7 169.1 266.7 166.967V166.933ZM268.133 166.933C268.133 168.8 268.367 170.033 268.8 170.667C269.233 171.267 269.767 171.6 270.4 171.6C271.033 171.6 271.567 171.3 272 170.667C272.433 170.033 272.667 168.8 272.667 166.967C272.667 165.1 272.433 163.867 272 163.233C271.567 162.633 271.033 162.3 270.367 162.3C269.733 162.3 269.2 162.567 268.833 163.1C268.367 163.8 268.1 165.067 268.1 166.933H268.133ZM280.767 172.533H279.367V163.667C279.033 164 278.6 164.3 278.033 164.633C277.5 164.967 277 165.2 276.567 165.367V164.033C277.333 163.667 278.033 163.233 278.6 162.7C279.167 162.167 279.6 161.667 279.833 161.167H280.733V172.567L280.767 172.533Z" fill="#C5C6C6"/>
<path d="M30.6333 33.7C30.8999 33.7 31.1333 33.6333 31.3666 33.5667C31.5999 33.4667 31.7999 33.3333 31.9666 33.1667C32.1333 33 32.2666 32.8 32.3666 32.5667C32.4666 32.3333 32.4999 32.1 32.4999 31.8333V29.5C32.4999 29.2333 32.4666 29 32.3666 28.7667C32.2666 28.5333 32.1333 28.3333 31.9666 28.1667C31.7999 28 31.5999 27.8667 31.3666 27.7667C31.1333 27.6667 30.8999 27.6333 30.6333 27.6333H29.5999C29.4666 27.6333 29.2999 27.6333 29.1666 27.6667C29.0333 27.7 28.8666 27.7333 28.7666 27.8333C28.6333 27.9 28.4999 28.0333 28.3999 28.1667V25.3333H27.3333V33.7H28.3333V33.1333C28.3999 33.2667 28.5333 33.4 28.6666 33.5C28.7999 33.6 28.9666 33.6667 29.1333 33.7C29.2999 33.7333 29.4666 33.7667 29.6666 33.7667H30.6666L30.6333 33.7ZM29.4333 32.7C29.2333 32.7 29.0333 32.6333 28.8666 32.5333C28.6999 32.4333 28.5666 32.3 28.4999 32.1C28.3999 31.9 28.3666 31.7 28.3666 31.4333V29.7333C28.3666 29.4667 28.3999 29.2667 28.4666 29.1C28.5333 28.9333 28.6666 28.8 28.8333 28.7C28.9999 28.6 29.2333 28.5667 29.5333 28.5667H30.4333C30.6333 28.5667 30.8333 28.6 30.9666 28.7C31.1333 28.8 31.2333 28.9333 31.3333 29.1C31.4333 29.2667 31.4666 29.5 31.4666 29.7667V31.4667C31.4666 31.7333 31.4333 31.9333 31.3666 32.1C31.2999 32.2667 31.1666 32.4 30.9999 32.5C30.8333 32.6 30.5999 32.6333 30.2666 32.6333H29.4666L29.4333 32.7ZM36.9666 33.6667H40.9999V32.6667H39.6333V25.3H37.2666V26.3H38.5999V32.6667H36.9666V33.6667ZM50.3999 33.6667V29.2C50.3999 28.9667 50.3666 28.7333 50.2666 28.5333C50.1666 28.3333 50.0666 28.1667 49.8999 28.0333C49.7333 27.9 49.5666 27.8 49.3666 27.7C49.1666 27.6333 48.9666 27.6 48.7333 27.6H47.3999C47.1333 27.6 46.8999 27.6667 46.6666 27.7333C46.4666 27.8333 46.2999 27.9333 46.1333 28.1C45.9999 28.2333 45.8666 28.4 45.7999 28.5333C45.6999 28.7 45.6666 28.8333 45.6333 28.9667L45.5666 29.2667L46.5333 29.5L46.5999 29.2333C46.6333 29.1333 46.6666 29.0333 46.7333 28.9667C46.7999 28.8667 46.8666 28.8 46.9999 28.7333C47.0999 28.6667 47.2333 28.6333 47.3999 28.6333H48.6666C48.8333 28.6333 48.9666 28.6667 49.0666 28.7C49.1666 28.7667 49.2666 28.8333 49.3333 28.9C49.3999 29 49.4333 29.0667 49.4333 29.1667V29.2C49.4333 29.2667 49.4333 29.3667 49.3999 29.4333C49.3999 29.5333 49.3333 29.6 49.2666 29.6667C49.1999 29.7333 49.0999 29.8 48.9333 29.8L46.6999 30.2333C46.3999 30.3 46.1666 30.4 45.9666 30.5667C45.7666 30.7333 45.6333 30.9333 45.5333 31.1667C45.4333 31.4 45.3999 31.6667 45.3999 31.9333C45.3999 32.1667 45.4333 32.3667 45.4999 32.6C45.5666 32.8 45.6999 33 45.8333 33.1667C45.9666 33.3333 46.1666 33.4667 46.3666 33.5333C46.5999 33.6333 46.8333 33.6667 47.0999 33.6667H48.1999C48.3666 33.6667 48.4999 33.6333 48.6666 33.6C48.8333 33.5667 48.9666 33.5 49.0999 33.4C49.2333 33.3 49.3333 33.1667 49.3999 33.0333V33.6333H50.3666L50.3999 33.6667ZM49.3999 31.7667C49.3999 31.9333 49.3666 32.0667 49.2666 32.2333C49.1999 32.3667 49.0666 32.5 48.9333 32.5667C48.7999 32.6667 48.6333 32.7 48.4666 32.7H47.0999C46.9666 32.7 46.8333 32.6667 46.6999 32.6C46.5999 32.5333 46.4999 32.4333 46.4333 32.3333C46.3666 32.2 46.3333 32.1 46.3333 31.9333C46.3333 31.7333 46.3999 31.5667 46.4999 31.4667C46.5999 31.3333 46.7666 31.2667 46.9666 31.2333L48.9999 30.8333C49.0666 30.8333 49.1333 30.8 49.1999 30.8C49.2666 30.8 49.2999 30.7667 49.3666 30.7333V31.8333L49.3999 31.7667ZM58.4333 33.7C58.6666 33.7 58.8999 33.6667 59.0999 33.5667C59.2999 33.5 59.4999 33.3667 59.6666 33.2333C59.8333 33.1 59.9666 32.9333 60.0666 32.7333C60.1666 32.5333 60.2666 32.3333 60.2999 32.1333L60.3333 31.9L59.3666 31.6667L59.2999 31.9667C59.2666 32.1 59.2333 32.2 59.1666 32.3333C59.0999 32.4333 59.0333 32.5333 58.8999 32.6C58.7999 32.6667 58.6666 32.7 58.4666 32.7H57.1999C57.0333 32.7 56.8666 32.6667 56.7333 32.5667C56.5999 32.5 56.4999 32.3667 56.4333 32.2333C56.3666 32.1 56.3333 31.9333 56.2999 31.7667V29.5333C56.2999 29.3667 56.3333 29.2 56.4333 29.0667C56.4999 28.9333 56.5999 28.8333 56.7333 28.7333C56.8666 28.6667 57.0333 28.6 57.1999 28.6H58.4666C58.6333 28.6 58.7999 28.6333 58.8999 28.7C58.9999 28.7667 59.0999 28.8333 59.1666 28.9667C59.2333 29.0667 59.2666 29.2 59.2999 29.3L59.3666 29.6L60.3333 29.3667L60.2666 29.1333C60.1999 28.9333 60.1333 28.7333 60.0333 28.5333C59.9333 28.3333 59.7999 28.1667 59.6666 28.0333C59.4999 27.9 59.3333 27.7667 59.1333 27.7C58.9333 27.6 58.6999 27.5667 58.4333 27.5667H57.2666C56.9999 27.5667 56.7333 27.6333 56.4999 27.7333C56.2666 27.8333 56.0666 27.9667 55.8666 28.1667C55.6999 28.3333 55.5333 28.5667 55.4333 28.8C55.3333 29.0333 55.2999 29.3 55.2666 29.5667V31.7333C55.2666 32 55.3333 32.2667 55.4333 32.5C55.5333 32.7333 55.6666 32.9333 55.8666 33.1333C56.0333 33.3 56.2666 33.4667 56.4999 33.5667C56.7333 33.6667 56.9999 33.7333 57.2666 33.7333H58.4333V33.7ZM65.1333 33.6667H66.1999V32.0667L67.5999 30.5333L69.0666 32.6C69.1333 32.7 69.1666 32.7667 69.1999 32.8333C69.2333 32.9 69.2333 33 69.2666 33.0667C69.2666 33.1333 69.2666 33.2333 69.2666 33.3333V33.6333H70.2999V33.3333C70.2999 33.2 70.2999 33.0333 70.2666 32.9C70.2333 32.7667 70.1999 32.6333 70.1333 32.4667C70.0666 32.3333 69.9999 32.1667 69.8999 32.0333L68.3333 29.7333L70.3666 27.6H68.9999L66.1666 30.5667V25.2667H65.0999V33.6333L65.1333 33.6667ZM81.5333 33.7C81.7666 33.7 81.9999 33.6667 82.1999 33.5667C82.3999 33.5 82.5999 33.3667 82.7666 33.2333C82.9333 33.1 83.0666 32.9333 83.1666 32.7333C83.2666 32.5333 83.3666 32.3333 83.3999 32.1333L83.4333 31.9L82.4666 31.6667L82.3999 31.9667C82.3666 32.1 82.3333 32.2 82.2666 32.3333C82.1999 32.4333 82.1333 32.5333 81.9999 32.6C81.8999 32.6667 81.7666 32.7 81.5666 32.7H80.2999C80.1333 32.7 79.9666 32.6667 79.8333 32.5667C79.6999 32.5 79.5999 32.3667 79.5333 32.2333C79.4666 32.1 79.4333 31.9333 79.3999 31.7667V29.5333C79.3999 29.3667 79.4333 29.2 79.5333 29.0667C79.5999 28.9333 79.6999 28.8333 79.8333 28.7333C79.9666 28.6667 80.1333 28.6 80.2999 28.6H81.5666C81.7333 28.6 81.8999 28.6333 81.9999 28.7C82.0999 28.7667 82.1999 28.8333 82.2666 28.9667C82.3333 29.0667 82.3666 29.2 82.3999 29.3L82.4666 29.6L83.4333 29.3667L83.3666 29.1333C83.2999 28.9333 83.2333 28.7333 83.1333 28.5333C83.0333 28.3333 82.8999 28.1667 82.7666 28.0333C82.5999 27.9 82.4333 27.7667 82.2333 27.7C82.0333 27.6 81.7999 27.5667 81.5333 27.5667H80.3666C80.0999 27.5667 79.8333 27.6333 79.5999 27.7333C79.3666 27.8333 79.1666 27.9667 78.9666 28.1667C78.7999 28.3333 78.6333 28.5667 78.5333 28.8C78.4333 29.0333 78.3999 29.3 78.3666 29.5667V31.7333C78.3666 32 78.4333 32.2667 78.5333 32.5C78.6333 32.7333 78.7666 32.9333 78.9666 33.1333C79.1333 33.3 79.3666 33.4667 79.5999 33.5667C79.8333 33.6667 80.0999 33.7333 80.3666 33.7333H81.5333V33.7ZM92.9666 33.6667V29.2C92.9666 28.9667 92.9333 28.7333 92.8333 28.5333C92.7333 28.3333 92.6333 28.1667 92.4666 28.0333C92.2999 27.9 92.1333 27.8 91.9333 27.7C91.7333 27.6333 91.5333 27.6 91.2999 27.6H89.9666C89.6999 27.6 89.4666 27.6667 89.2333 27.7333C89.0333 27.8333 88.8666 27.9333 88.6999 28.1C88.5666 28.2333 88.4333 28.4 88.3666 28.5333C88.2666 28.7 88.2333 28.8333 88.1999 28.9667L88.1333 29.2667L89.0999 29.5L89.1666 29.2333C89.1999 29.1333 89.2333 29.0333 89.2999 28.9667C89.3666 28.8667 89.4333 28.8 89.5666 28.7333C89.6666 28.6667 89.7999 28.6333 89.9666 28.6333H91.2333C91.3999 28.6333 91.5333 28.6667 91.6333 28.7C91.7333 28.7667 91.8333 28.8333 91.8999 28.9C91.9666 29 91.9999 29.0667 91.9999 29.1667V29.2C91.9999 29.2667 91.9999 29.3667 91.9666 29.4333C91.9666 29.5333 91.8999 29.6 91.8333 29.6667C91.7666 29.7333 91.6666 29.8 91.4999 29.8L89.2666 30.2333C88.9666 30.3 88.7333 30.4 88.5333 30.5667C88.3333 30.7333 88.1999 30.9333 88.0999 31.1667C87.9999 31.4 87.9666 31.6667 87.9666 31.9333C87.9666 32.1667 87.9999 32.3667 88.0666 32.6C88.1333 32.8 88.2666 33 88.3999 33.1667C88.5333 33.3333 88.7333 33.4667 88.9333 33.5333C89.1666 33.6333 89.3999 33.6667 89.6666 33.6667H90.7666C90.9333 33.6667 91.0666 33.6333 91.2333 33.6C91.3999 33.5667 91.5333 33.5 91.6666 33.4C91.7999 33.3 91.8999 33.1667 91.9666 33.0333V33.6333H92.9333L92.9666 33.6667ZM91.9666 31.7667C91.9666 31.9333 91.9333 32.0667 91.8333 32.2333C91.7666 32.3667 91.6333 32.5 91.4999 32.5667C91.3666 32.6667 91.1999 32.7 91.0333 32.7H89.6666C89.5333 32.7 89.3999 32.6667 89.2666 32.6C89.1666 32.5333 89.0666 32.4333 88.9999 32.3333C88.9333 32.2 88.8999 32.1 88.8999 31.9333C88.8999 31.7333 88.9666 31.5667 89.0666 31.4667C89.1666 31.3333 89.3333 31.2667 89.5333 31.2333L91.5666 30.8333C91.6333 30.8333 91.6999 30.8 91.7666 30.8C91.8333 30.8 91.8666 30.7667 91.9333 30.7333V31.8333L91.9666 31.7667ZM98.0999 33.6667H99.1666V29.8333C99.1666 29.5667 99.1999 29.3667 99.2666 29.2C99.3333 29.0333 99.4666 28.9 99.6333 28.8C99.7999 28.7 100.033 28.6667 100.3 28.6667H101.3V27.6667H100.433C100.267 27.6667 100.067 27.7 99.8999 27.7333C99.7333 27.7667 99.5666 27.8333 99.4333 27.9333C99.2999 28.0333 99.1999 28.1333 99.0999 28.3V27.6667H98.0666V33.7L98.0999 33.6667ZM108.367 33.7C108.533 33.7 108.733 33.6667 108.9 33.6333C109.067 33.6 109.233 33.5333 109.367 33.4333C109.5 33.3333 109.6 33.2333 109.7 33.0667V33.6333H110.7V25.2667H109.633V28.1C109.533 27.9333 109.4 27.8333 109.267 27.7667C109.133 27.7 109 27.6333 108.867 27.6C108.733 27.5667 108.567 27.5667 108.433 27.5667H107.4C107.133 27.5667 106.9 27.6 106.667 27.7C106.433 27.8 106.233 27.9333 106.067 28.1C105.9 28.2667 105.767 28.4667 105.667 28.7C105.567 28.9333 105.533 29.1667 105.533 29.4333V31.7667C105.533 32.0333 105.6 32.2667 105.667 32.5C105.767 32.7333 105.9 32.9333 106.067 33.1C106.233 33.2667 106.433 33.4 106.667 33.5C106.9 33.6 107.133 33.6333 107.4 33.6333H108.4L108.367 33.7ZM107.733 32.7C107.433 32.7 107.2 32.6667 107 32.5667C106.833 32.4667 106.7 32.3333 106.633 32.1667C106.567 32 106.533 31.7667 106.533 31.5333V29.8333C106.533 29.5667 106.567 29.3667 106.667 29.1667C106.767 29 106.867 28.8333 107.033 28.7667C107.2 28.6667 107.367 28.6333 107.567 28.6333H108.467C108.767 28.6333 109 28.6667 109.167 28.7667C109.333 28.8667 109.467 29 109.533 29.1667C109.6 29.3333 109.633 29.5333 109.633 29.8V31.5C109.633 31.7667 109.6 31.9667 109.5 32.1667C109.4 32.3667 109.267 32.5 109.1 32.6C108.933 32.7 108.733 32.7333 108.533 32.7667H107.733V32.7Z" fill="#FEFEFE" stroke="#C5C6C6" stroke-width="0.0762"/>
<path d="M122.6 127C121.8 126.3 120.9 125.833 119.967 125.567C119.033 125.3 118.1 125.167 117.2 125.167C116.6 125.167 116.033 125.233 115.433 125.4C114.833 125.567 114.333 125.833 113.867 126.233C113.4 126.6 113.033 127.1 112.733 127.733C112.433 128.333 112.3 129.1 112.3 129.967V137.667C112.3 138.533 112.433 139.267 112.733 139.867C113.033 140.467 113.4 140.967 113.867 141.333C114.333 141.7 114.867 142 115.433 142.167C116 142.333 116.6 142.433 117.167 142.433C118.067 142.433 118.967 142.3 119.867 142.067C120.767 141.8 121.7 141.333 122.6 140.6L125.1 144.667C124.133 145.467 122.933 146.133 121.533 146.567C120.133 147.033 118.667 147.267 117.1 147.267C115.867 147.267 114.633 147.1 113.433 146.733C112.233 146.367 111.167 145.833 110.233 145.133C109.3 144.433 108.533 143.567 107.933 142.5C107.333 141.433 107.067 140.2 107.067 138.767V128.9C107.067 127.5 107.367 126.267 107.933 125.2C108.5 124.133 109.267 123.267 110.2 122.533C111.133 121.833 112.2 121.3 113.4 120.933C114.6 120.567 115.833 120.4 117.067 120.4C118.6 120.4 120.067 120.6 121.5 121C122.9 121.4 124.133 122.067 125.167 122.967L122.633 127.033L122.6 127ZM148.633 138.567C148.633 140 148.367 141.233 147.833 142.3C147.3 143.367 146.567 144.267 145.667 145C144.733 145.733 143.667 146.3 142.433 146.667C141.2 147.033 139.9 147.233 138.5 147.233C137.133 147.233 135.8 147.033 134.567 146.667C133.333 146.3 132.267 145.733 131.333 145C130.4 144.267 129.7 143.367 129.167 142.3C128.633 141.233 128.367 139.967 128.367 138.567V128.9C128.367 127.5 128.633 126.267 129.2 125.2C129.767 124.133 130.5 123.233 131.467 122.533C132.4 121.833 133.5 121.3 134.733 120.933C135.967 120.567 137.233 120.4 138.533 120.4C139.833 120.4 141.1 120.6 142.333 120.967C143.567 121.333 144.633 121.9 145.6 122.633C146.533 123.367 147.3 124.267 147.867 125.333C148.433 126.433 148.7 127.667 148.7 129.067V138.6L148.633 138.567ZM143.367 129.967C143.367 129.1 143.233 128.367 142.933 127.767C142.667 127.167 142.267 126.667 141.833 126.3C141.367 125.933 140.867 125.633 140.3 125.467C139.733 125.3 139.133 125.2 138.533 125.2C137.933 125.2 137.333 125.3 136.733 125.467C136.133 125.633 135.633 125.933 135.167 126.3C134.7 126.667 134.333 127.167 134.067 127.767C133.8 128.367 133.633 129.1 133.633 129.967V137.667C133.633 138.533 133.767 139.267 134.067 139.9C134.333 140.5 134.733 141 135.167 141.4C135.633 141.767 136.133 142.067 136.733 142.233C137.333 142.4 137.933 142.467 138.533 142.467C139.133 142.467 139.733 142.4 140.3 142.233C140.867 142.067 141.4 141.8 141.833 141.4C142.3 141.033 142.667 140.533 142.933 139.9C143.2 139.3 143.367 138.533 143.367 137.667V129.967ZM172.933 139.133C172.933 140.2 172.767 141.2 172.433 142.167C172.1 143.1 171.633 143.933 170.967 144.667C170.333 145.367 169.533 145.933 168.6 146.367C167.667 146.8 166.567 147 165.3 147H152.933V120.633H164.8C166.133 120.633 167.267 120.833 168.233 121.2C169.2 121.567 169.967 122.1 170.6 122.767C171.233 123.433 171.7 124.2 172 125.067C172.3 125.933 172.467 126.833 172.467 127.767C172.467 128.733 172.2 129.733 171.667 130.767C171.133 131.8 170.333 132.567 169.2 133.133C169.833 133.433 170.4 133.833 170.833 134.3C171.3 134.767 171.667 135.267 171.967 135.833C172.267 136.367 172.5 136.933 172.667 137.5C172.833 138.067 172.9 138.6 172.9 139.133H172.933ZM167.067 128.267C167.067 127.3 166.767 126.567 166.2 126.033C165.633 125.533 164.733 125.267 163.5 125.267H158.2V131.033H163.6C164.7 131.033 165.567 130.767 166.167 130.267C166.767 129.767 167.1 129.067 167.1 128.233L167.067 128.267ZM167.367 138.967C167.367 137.933 167.033 137.133 166.4 136.5C165.767 135.867 164.867 135.567 163.767 135.567H158.167V142.3H163.8C164.967 142.3 165.867 142 166.467 141.4C167.067 140.8 167.367 140 167.367 138.967ZM191.3 141.533H182.133L180.4 146.967H174.8L184.067 120.6H189.433L198.6 146.967H192.9L191.3 141.533ZM183.533 137.133H189.867L188.833 133.767L186.767 126.8H186.6L184.567 133.633L183.5 137.1L183.533 137.133Z" fill="#E31E24"/>
<path d="M66.3667 139.633V129.6H68.3667V133.633H69.4C69.6 133.633 69.7667 133.6 69.9334 133.567C70.1 133.533 70.2667 133.467 70.4 133.367C70.5334 133.267 70.6667 133.133 70.7667 132.967C70.8667 132.8 70.9667 132.567 71.0667 132.333L71.9334 129.567H73.9667L73.0667 132.5C72.9 133 72.7 133.4 72.4667 133.733C72.2334 134.067 71.9334 134.267 71.6334 134.4C72.0667 134.533 72.3667 134.767 72.6 135.133C72.8334 135.467 73.0334 135.9 73.1667 136.4L74.1334 139.633H71.9667L71.1334 136.733C71.0667 136.467 70.9667 136.233 70.8334 136.067C70.7334 135.9 70.6 135.767 70.4667 135.667C70.3334 135.567 70.1667 135.5 70 135.467C69.8334 135.433 69.6334 135.4 69.4334 135.4H68.3334V139.633H66.3334H66.3667ZM80.9 137.567H77.4L76.7334 139.633H74.6L78.1334 129.6H80.1667L83.6667 139.633H81.5L80.9 137.567ZM77.9334 135.9H80.3667L79.9667 134.633L79.1667 131.967H79.1L78.3334 134.567L77.9334 135.9ZM90.5667 130.033C91.1334 130.067 91.6667 130.167 92.1334 130.333C92.6 130.533 93.0334 130.767 93.4 131.1C93.7667 131.433 94.0334 131.8 94.2334 132.233C94.4334 132.667 94.5334 133.167 94.5334 133.667V135.067C94.5334 135.6 94.4334 136.1 94.2334 136.533C94.0334 136.967 93.7667 137.367 93.4334 137.7C93.1 138.033 92.6667 138.3 92.1667 138.467C91.6667 138.667 91.1667 138.767 90.5667 138.767V139.6H88.5667V138.767C87.9667 138.733 87.4334 138.633 86.9334 138.433C86.4334 138.233 86.0334 137.967 85.7 137.667C85.3667 137.333 85.1 136.967 84.9 136.533C84.7 136.1 84.6 135.6 84.6 135.067V133.667C84.6 133.133 84.7 132.667 84.9 132.2C85.1 131.767 85.4 131.367 85.7334 131.067C86.1 130.767 86.5 130.5 87 130.3C87.4667 130.1 88 130 88.5334 130V129.467H90.5334V130L90.5667 130.033ZM92.5667 133.867C92.5667 133.233 92.3667 132.733 92 132.367C91.6334 132 91.1334 131.8 90.5667 131.8V137C91.1334 136.967 91.6 136.8 92 136.433C92.3667 136.067 92.5667 135.567 92.5667 134.933V133.867ZM86.5667 134.933C86.5667 135.233 86.6334 135.533 86.7334 135.767C86.8334 136.033 87 136.233 87.1667 136.4C87.3334 136.567 87.5667 136.7 87.8 136.8C88.0334 136.9 88.3 136.967 88.5667 136.967V131.767C88.3 131.767 88.0334 131.833 87.8 131.933C87.5667 132.033 87.3334 132.167 87.1667 132.333C87 132.5 86.8334 132.733 86.7334 132.967C86.6334 133.233 86.5667 133.5 86.5667 133.8V134.867V134.933ZM96.2 129.567H103.133V131.367H98.2V133.667H102.4V135.467H98.2V137.833H103.133V139.6H96.2V129.567Z" fill="#FEFEFE"/>
<path d="M199.433 139.467V129.433H201.433V133.467H202.467C202.667 133.467 202.833 133.433 203 133.4C203.167 133.367 203.333 133.3 203.467 133.2C203.6 133.1 203.733 132.967 203.833 132.8C203.933 132.633 204.033 132.4 204.133 132.167L205 129.4H207.033L206.133 132.333C205.967 132.833 205.767 133.233 205.533 133.567C205.3 133.9 205 134.1 204.7 134.233C205.133 134.367 205.433 134.6 205.667 134.967C205.9 135.3 206.1 135.733 206.233 136.233L207.2 139.467H205.033L204.2 136.567C204.133 136.3 204.033 136.067 203.9 135.9C203.8 135.733 203.667 135.6 203.533 135.5C203.4 135.4 203.233 135.333 203.067 135.3C202.9 135.267 202.7 135.233 202.5 135.233H201.4V139.467H199.4H199.433ZM211.433 131.233V133.9C211.433 134.733 211.4 135.5 211.3 136.167C211.2 136.833 211.033 137.433 210.767 137.933C210.5 138.433 210.167 138.833 209.7 139.133C209.233 139.433 208.667 139.633 207.967 139.733L207.533 138.1C207.967 137.967 208.3 137.8 208.533 137.567C208.8 137.367 208.967 137.067 209.133 136.767C209.267 136.433 209.367 136.033 209.4 135.6C209.433 135.133 209.467 134.6 209.467 133.967V129.433H216.067V139.467H214.033V131.233H211.4H211.433ZM222.3 137.067C221.967 138 221.533 138.633 221.1 139.033C220.633 139.433 220.067 139.6 219.4 139.6H218.333V138H219.233C219.5 138 219.7 137.967 219.833 137.867C219.967 137.767 220.1 137.633 220.2 137.433C220.233 137.4 220.233 137.333 220.267 137.3C220.3 137.267 220.3 137.233 220.333 137.167L217.167 129.4H219.267L220.467 132.667C220.633 133.1 220.767 133.533 220.9 133.933C221.033 134.333 221.133 134.633 221.233 134.9H221.3L222.1 132.567C222.133 132.5 222.167 132.4 222.233 132.233C222.3 132.067 222.367 131.867 222.433 131.633C222.5 131.4 222.6 131.167 222.667 130.933C222.767 130.7 222.833 130.467 222.9 130.233C222.967 130.033 223.033 129.833 223.1 129.7C223.167 129.533 223.2 129.467 223.2 129.4H225.167L222.3 137.033V137.067ZM226.167 129.433H232.733V131.233H228.167V133.267H230.467C230.967 133.267 231.433 133.333 231.8 133.5C232.2 133.667 232.533 133.867 232.8 134.133C233.067 134.4 233.267 134.733 233.433 135.1C233.567 135.467 233.667 135.9 233.667 136.333C233.667 136.7 233.6 137.067 233.5 137.433C233.367 137.8 233.2 138.133 232.933 138.433C232.667 138.733 232.367 138.967 231.967 139.167C231.567 139.367 231.1 139.467 230.533 139.467H226.167V129.433ZM228.167 137.667H230.2C230.633 137.667 231 137.533 231.3 137.3C231.567 137.033 231.7 136.733 231.7 136.367C231.7 135.967 231.567 135.667 231.3 135.433C231.033 135.2 230.667 135.067 230.2 135.067H228.167V137.7V137.667Z" fill="#FEFEFE"/>
<path d="M138.033 44.4333C142.933 44.4333 147.6 45.5667 151.733 47.5667C155.867 45.5667 160.533 44.4333 165.433 44.4333C174.167 44.4333 182.1 47.9667 187.8 53.7C191.7 57.6 194.567 62.5 196.033 67.9667C196.7 70.1333 197.067 72.4667 197.067 74.8667C197.067 75.0667 197.067 75.2333 197.067 75.4333C197.067 75.6333 197.067 75.8667 197.067 76.0667C197.067 84.8 193.533 92.7333 187.8 98.4333C182.067 104.167 174.167 107.7 165.433 107.7C160.533 107.7 155.867 106.567 151.733 104.567C147.567 106.567 142.933 107.7 138.033 107.7C129.3 107.7 121.367 104.167 115.667 98.4333C109.933 92.7 106.4 84.8 106.4 76.0667C106.4 75.8667 106.4 75.6333 106.4 75.4333C106.4 75.2333 106.4 75.0667 106.4 74.8667C106.4 72.4667 106.767 70.1333 107.433 67.9667C108.867 62.4667 111.767 57.5667 115.667 53.7C121.4 47.9667 129.3 44.4333 138.033 44.4333ZM167.1 70.2333C168.367 70.2333 169.533 70.7667 170.367 71.6C171.2 72.4333 171.733 73.6 171.733 74.8667C171.733 76.1333 171.2 77.3 170.367 78.1667C169.533 79 168.367 79.5333 167.067 79.5333C165.8 79.5333 164.633 79 163.767 78.1667C162.933 77.3333 162.4 76.1667 162.4 74.8667C162.4 73.6 162.933 72.4333 163.767 71.6C164.6 70.7667 165.767 70.2333 167.033 70.2333H167.1ZM168.4 73.5667C168.067 73.2333 167.6 73.0333 167.1 73.0333C166.6 73.0333 166.133 73.2333 165.8 73.5667C165.467 73.9 165.267 74.3667 165.267 74.8667C165.267 75.3667 165.467 75.8333 165.8 76.1667C166.133 76.5 166.6 76.7 167.1 76.7C167.6 76.7 168.067 76.5 168.4 76.1667C168.733 75.8333 168.933 75.3667 168.933 74.8667C168.933 74.3667 168.733 73.9 168.4 73.5667ZM136.4 70.2333C137.667 70.2333 138.833 70.7667 139.7 71.6C140.533 72.4333 141.067 73.6 141.067 74.9C141.067 76.1667 140.533 77.3333 139.7 78.1667C138.867 79 137.7 79.5333 136.433 79.5333C135.167 79.5333 134 79 133.133 78.1667C132.3 77.3333 131.767 76.1667 131.767 74.8667C131.767 73.6 132.3 72.4333 133.133 71.6C133.967 70.7667 135.133 70.2333 136.4 70.2333ZM137.7 73.5667C137.367 73.2333 136.9 73.0333 136.4 73.0333C135.9 73.0333 135.433 73.2333 135.1 73.5667C134.767 73.9 134.567 74.3667 134.567 74.8667C134.567 75.3667 134.767 75.8333 135.1 76.1667C135.433 76.5 135.9 76.7 136.4 76.7C136.9 76.7 137.367 76.5 137.7 76.1667C138.033 75.8333 138.233 75.3667 138.233 74.8667C138.233 74.3667 138.033 73.9 137.7 73.5667ZM136.4 58.6667C139.067 58.6667 141.6 59.3 143.833 60.4667C140.167 56.8 135.1 54.5667 129.5 54.5667C123.9 54.5667 118.8 56.8333 115.133 60.5333C112.867 62.8 111.1 65.6333 110.133 68.8C109.567 70.9333 109.267 73.1667 109.2 75.4667C109.333 80.8667 111.6 85.7333 115.133 89.3C118.8 92.9667 123.9 95.2667 129.5 95.2667C135.1 95.2667 140.167 93 143.833 89.3667C141.6 90.5 139.1 91.1667 136.4 91.1667C131.933 91.1667 127.867 89.3667 124.933 86.4333C122 83.5 120.2 79.4333 120.2 74.9667C120.2 70.5 122 66.4333 124.933 63.5C127.867 60.5667 131.933 58.7667 136.4 58.7667V58.6667ZM145.9 65.4C143.467 62.9667 140.133 61.4667 136.4 61.4667C132.7 61.4667 129.333 62.9667 126.9 65.4C124.467 67.8333 122.967 71.1667 122.967 74.9C122.967 78.6 124.467 81.9667 126.9 84.4C129.333 86.8333 132.667 88.3333 136.4 88.3333C140.1 88.3333 143.467 86.8333 145.9 84.4C148.3 82 149.767 78.7333 149.833 75.1V74.9333V74.7667C149.8 71.1333 148.3 67.8333 145.9 65.4667V65.4ZM129.5 51.7667C133.967 51.7667 138.133 53.0333 141.667 55.2333C142.133 54.7 142.6 54.2 143.1 53.7333C144.8 52.0333 146.667 50.5667 148.7 49.2667C145.4 47.9667 141.833 47.2333 138.067 47.2333C130.933 47.2333 124.367 49.8333 119.333 54.1333C122.4 52.6333 125.867 51.7667 129.533 51.7667H129.5ZM143.967 56.8333C144.633 57.3667 145.267 57.9333 145.867 58.5333C148.633 61.3 150.667 64.7333 151.767 68.5667C152.867 64.7333 154.9 61.2667 157.667 58.5333C158.267 57.9333 158.9 57.3667 159.567 56.8333C159.2 56.4333 158.833 56.0333 158.467 55.6667C156.5 53.7 154.233 52 151.767 50.6667C149.3 52 147.033 53.7 145.067 55.6667C144.7 56.0333 144.333 56.4333 143.967 56.8333ZM151.767 81.2C150.667 85.0333 148.6 88.5 145.867 91.2333C144.9 92.2 143.867 93.0667 142.733 93.8667C143.467 94.8 144.233 95.6667 145.067 96.5C147.033 98.4667 149.3 100.167 151.767 101.5C154.233 100.167 156.5 98.4667 158.467 96.5C159.3 95.6667 160.067 94.8 160.8 93.8667C159.667 93.1 158.633 92.2 157.667 91.2333C154.9 88.4667 152.867 85.0333 151.767 81.2ZM140.333 95.3333C137.1 97.0333 133.433 98.0333 129.5 98.0333C123.5 98.0333 118.033 95.7667 113.933 92C115 93.6333 116.233 95.1333 117.633 96.5C122.867 101.733 130.067 104.967 138.033 104.967C141.8 104.967 145.367 104.233 148.667 102.933C146.633 101.667 144.767 100.167 143.067 98.4667C142.067 97.4667 141.167 96.4333 140.3 95.3333H140.333ZM167.1 61.4667C163.4 61.4667 160.033 62.9667 157.6 65.4C155.2 67.8 153.733 71.0667 153.667 74.7V74.8667V75.0333C153.7 78.6667 155.2 81.9667 157.6 84.3333C160.033 86.7667 163.367 88.2667 167.1 88.2667C170.8 88.2667 174.167 86.7667 176.6 84.3333C179.033 81.9 180.533 78.5667 180.533 74.8333C180.533 71.1333 179.033 67.7667 176.6 65.3333C174.167 62.9 170.833 61.4 167.1 61.4V61.4667ZM159.667 60.4667C161.9 59.3333 164.433 58.6667 167.1 58.6667C171.567 58.6667 175.633 60.4667 178.567 63.4C181.5 66.3333 183.3 70.4 183.3 74.8667C183.3 79.3333 181.5 83.4 178.567 86.3333C175.633 89.2667 171.567 91.0667 167.1 91.0667C164.433 91.0667 161.9 90.4333 159.667 89.2667C163.333 92.9333 168.4 95.1667 174 95.1667C179.6 95.1667 184.7 92.9 188.367 89.2C191.933 85.6333 194.167 80.7667 194.3 75.3667C194.233 73.0667 193.933 70.8333 193.367 68.7C192.367 65.5333 190.633 62.7333 188.367 60.4333C184.7 56.7667 179.6 54.4667 174 54.4667C168.4 54.4667 163.333 56.7333 159.667 60.3667V60.4667ZM161.833 55.2C165.367 53 169.533 51.7333 174 51.7333C177.667 51.7333 181.133 52.6 184.2 54.1C179.167 49.8 172.633 47.2 165.467 47.2C161.7 47.2 158.133 47.9333 154.833 49.2333C156.867 50.5 158.733 52 160.433 53.7C160.933 54.2 161.4 54.7 161.867 55.2H161.833ZM189.567 91.9667C185.467 95.7 180 98 174 98C170.1 98 166.4 97.0333 163.167 95.3C162.3 96.4 161.4 97.4667 160.4 98.4333C158.7 100.133 156.833 101.6 154.8 102.9C158.1 104.2 161.667 104.933 165.433 104.933C173.4 104.933 180.633 101.7 185.833 96.4667C187.2 95.1 188.433 93.5667 189.533 91.9667H189.567Z" fill="#FEFEFE"/>
</g>
<defs>
<clipPath id="clip0">
<rect width="300" height="191.667" rx="12" fill="white"/>
</clipPath>
</defs>
</svg>
