<svg width="48" height="45" viewBox="0 0 48 45" fill="none" xmlns="http://www.w3.org/2000/svg">
<path d="M44.2667 10.8602H39.1758V1.60003C39.1758 0.716437 38.4594 0 37.5758 0H10.4242C9.54066 0 8.82422 0.716344 8.82422 1.60003V10.8602H3.73331C1.67475 10.8602 0 12.535 0 14.5936V30.6907C0 32.7492 1.67475 34.424 3.73331 34.424H8.8245V43.0128C8.8245 43.8964 9.54084 44.6128 10.4245 44.6128H37.5755C38.4591 44.6128 39.1755 43.8965 39.1755 43.0128V34.424H44.2667C46.3253 34.424 48 32.7492 48 30.6907V14.5936C48 12.5351 46.3253 10.8602 44.2667 10.8602ZM12.0242 3.20006H35.9757V10.8602H12.0242V3.20006ZM35.9754 41.4127H12.0246C12.0246 41.1001 12.0246 28.7093 12.0246 28.3226H35.9755C35.9754 28.7191 35.9754 41.1121 35.9754 41.4127ZM44.8 30.6907C44.8 30.9848 44.5608 31.2241 44.2667 31.2241H39.1755V26.7228C39.1755 25.8392 38.4592 25.1227 37.5755 25.1227H10.4245C9.54094 25.1227 8.8245 25.8391 8.8245 26.7228V31.2241H3.73331C3.43922 31.2241 3.19997 30.9848 3.19997 30.6907V14.5937C3.19997 14.2996 3.43922 14.0603 3.73331 14.0603C4.96088 14.0603 43.068 14.0603 44.2667 14.0603C44.5608 14.0603 44.8 14.2996 44.8 14.5937V30.6907Z" fill="black"/>
<path d="M37.5758 17.0552H33.503C32.6194 17.0552 31.903 17.7715 31.903 18.6552C31.903 19.5389 32.6193 20.2553 33.503 20.2553H37.5758C38.4594 20.2553 39.1758 19.5389 39.1758 18.6552C39.1758 17.7715 38.4595 17.0552 37.5758 17.0552Z" fill="black"/>
<path d="M30.9334 35.7908H17.0666C16.1831 35.7908 15.4666 36.5072 15.4666 37.3908C15.4666 38.2745 16.183 38.9909 17.0666 38.9909H30.9333C31.8169 38.9909 32.5333 38.2745 32.5333 37.3908C32.5333 36.5072 31.817 35.7908 30.9334 35.7908Z" fill="black"/>
<path d="M30.9334 30.7444H17.0666C16.1831 30.7444 15.4666 31.4608 15.4666 32.3445C15.4666 33.2282 16.183 33.9445 17.0666 33.9445H30.9333C31.8169 33.9445 32.5333 33.2282 32.5333 32.3445C32.5333 31.4608 31.817 30.7444 30.9334 30.7444Z" fill="black"/>
</svg>
