<svg width="48" height="48" viewBox="0 0 48 48" fill="none" xmlns="http://www.w3.org/2000/svg">
<path d="M42.472 36.797C42.2087 36.6879 41.9057 36.7482 41.7042 36.9497L34.0049 44.649C33.8034 44.8506 33.7431 45.1536 33.8522 45.4168C33.9612 45.6801 34.2182 45.8517 34.5031 45.8517H42.2024C42.5916 45.8517 42.907 45.5363 42.907 45.1472V37.4479C42.9069 37.1629 42.7352 36.9061 42.472 36.797ZM36.2038 44.4427L41.4977 39.1488V44.4427H36.2038Z" fill="black"/>
<path d="M47.5652 22.5044C47.3019 22.3953 46.9989 22.4556 46.7974 22.6571L44.6873 24.7671V10.4204C44.6873 10.0313 44.3719 9.71589 43.9828 9.71589H38.5696L40.5346 7.75089C40.5349 7.75061 40.5351 7.75023 40.5354 7.74995L42.4288 5.85657C42.8345 5.45092 43.0579 4.91129 43.0579 4.33754C43.0579 3.76379 42.8345 3.22435 42.4288 2.81851L40.2394 0.629064C39.8337 0.223407 39.2941 0 38.7203 0C38.1466 0 37.607 0.223407 37.2013 0.629064L35.307 2.52338L33.018 4.81238L28.1146 9.7158H6.24564V2.74594C6.24564 2.35679 5.93017 2.04141 5.54111 2.04141C2.48579 2.0416 0 4.5272 0 7.5827V37.5065C0 37.5585 0.00600001 37.6091 0.0166875 37.6579C0.114 38.9543 0.674908 40.1589 1.61232 41.0734C2.61432 42.0506 3.93704 42.5888 5.33692 42.5888H26.8655L22.8109 46.6434C22.6095 46.845 22.5492 47.1479 22.6582 47.4113C22.7672 47.6745 23.0242 47.8462 23.3091 47.8462H47.2956C47.6846 47.8462 48.0001 47.5308 48.0001 47.1416V23.1554C48.0001 22.8705 47.8283 22.6135 47.5652 22.5044ZM38.1979 1.62553C38.4859 1.33735 38.9551 1.33735 39.2431 1.62553L41.4326 3.81507C41.7208 4.10316 41.7208 4.5722 41.4326 4.86038L40.0366 6.25651L36.8016 3.02166L38.1979 1.62553ZM35.8053 4.01804L39.0401 7.2528L37.7474 8.54552L34.5127 5.31076L35.8053 4.01804ZM46.5912 31.0718H45.2914C44.9022 31.0718 44.5868 31.3872 44.5868 31.7763C44.5868 32.1655 44.9022 32.4809 45.2914 32.4809H46.5912V34.6039H45.2914C44.9022 34.6039 44.5868 34.9193 44.5868 35.3085C44.5868 35.6976 44.9022 36.013 45.2914 36.013H46.5912V38.136H45.2914C44.9022 38.136 44.5868 38.4514 44.5868 38.8405C44.5868 39.2297 44.9022 39.545 45.2914 39.545H46.5912V41.6681H45.2914C44.9022 41.6681 44.5868 41.9836 44.5868 42.3726C44.5868 42.7618 44.9022 43.0772 45.2914 43.0772H46.5912V46.4374H25.0099L32.1263 39.3211C32.4015 39.0458 32.4015 38.5999 32.1263 38.3247C32.0947 38.2931 32.0608 38.2657 32.0253 38.2414C31.7509 38.0535 31.3735 38.0811 31.1298 38.3247L28.2746 41.18H5.33701C3.20026 41.18 1.48013 39.5118 1.41244 37.3789C1.41647 37.245 1.42688 37.1122 1.44357 36.981C1.44366 36.9802 1.44375 36.9795 1.44385 36.9787C1.45172 36.9164 1.46119 36.8543 1.47197 36.7926C1.47319 36.7856 1.4745 36.7786 1.47572 36.7715C1.48557 36.7165 1.49663 36.6618 1.50872 36.6072C1.5121 36.592 1.51566 36.5768 1.51922 36.5617C1.52991 36.5156 1.54144 36.4698 1.55382 36.4241C1.56057 36.3994 1.5676 36.3749 1.57482 36.3502C1.58513 36.3144 1.59582 36.2787 1.60716 36.2434C1.6185 36.208 1.6306 36.173 1.64288 36.1381C1.65141 36.1136 1.65985 36.0891 1.66903 36.0648C1.68619 36.0187 1.70438 35.9731 1.72313 35.9278C1.72847 35.9148 1.73372 35.9015 1.73925 35.8885C1.76335 35.8323 1.78838 35.7767 1.81482 35.7217C1.81594 35.7194 1.81697 35.717 1.8181 35.7147C2.36916 34.5743 3.42901 33.7241 4.70092 33.4603C4.70448 33.4595 4.70804 33.4587 4.7116 33.4579C4.76992 33.446 4.82879 33.4358 4.88804 33.4263C4.89789 33.4248 4.90773 33.4228 4.91776 33.4213C4.97129 33.4131 5.02539 33.4068 5.07948 33.4007C5.09467 33.399 5.10976 33.3966 5.12504 33.3951C5.17726 33.3899 5.22995 33.3864 5.28264 33.3831C5.29932 33.3821 5.31601 33.3803 5.3327 33.3795C5.4017 33.376 5.47126 33.3742 5.54111 33.3742C5.93017 33.3742 6.24564 33.0588 6.24564 32.6697V27.5613C6.24564 27.1722 5.93017 26.8568 5.54111 26.8568C5.15204 26.8568 4.83657 27.1722 4.83657 27.5613V32.0095C3.64688 32.16 2.5426 32.6906 1.67185 33.5409C1.58025 33.6303 1.49344 33.7233 1.40888 33.8178V7.5827C1.40888 5.54448 2.89257 3.84601 4.83648 3.51057V10.4204V24.7433V24.7434C4.83648 25.1325 5.15195 25.4479 5.54101 25.4479C5.93007 25.4479 6.24554 25.1325 6.24554 24.7434V24.7433V11.125H26.7056L22.8108 15.0197C22.5357 15.295 22.5357 15.7409 22.8108 16.0161C23.086 16.2912 23.532 16.2912 23.8071 16.0161L28.9046 10.9186C28.9048 10.9184 28.9049 10.9182 28.9051 10.9181L33.5162 6.30704L36.7508 9.54189L36.3713 9.9214C36.371 9.92168 36.3707 9.92196 36.3704 9.92224L22.1646 24.1282L18.9299 20.8934L21.73 18.0933C22.0051 17.8181 22.0051 17.3721 21.73 17.0969C21.4548 16.8219 21.0088 16.8219 20.7337 17.0969L17.4353 20.3953C17.4177 20.4129 17.4012 20.4315 17.3857 20.4507C17.3805 20.457 17.3759 20.4639 17.3711 20.4705C17.3611 20.4838 17.3514 20.4971 17.3423 20.5109C17.3371 20.519 17.3324 20.5273 17.3276 20.5356C17.3198 20.5487 17.3123 20.562 17.3054 20.5756C17.3009 20.5844 17.2969 20.5934 17.2928 20.6025C17.2865 20.6163 17.2807 20.6304 17.2753 20.6444C17.2735 20.6494 17.271 20.6541 17.2693 20.6591L15.8967 24.5474L14.9608 27.1985C14.9485 27.2338 14.9396 27.2696 14.9329 27.3057H12.5899C12.2008 27.3057 11.8854 27.6211 11.8854 28.0102C11.8854 28.3994 12.2008 28.7147 12.5899 28.7147H32.1006C32.4898 28.7147 32.8052 28.3994 32.8052 28.0102C32.8052 27.6211 32.4898 27.3057 32.1006 27.3057H18.1025L22.3991 25.789C22.4026 25.7877 22.406 25.7859 22.4096 25.7846C22.4263 25.7784 22.4427 25.7715 22.4589 25.764C22.4654 25.761 22.4718 25.7582 22.4781 25.7551C22.495 25.7467 22.5116 25.7374 22.5279 25.7275C22.5331 25.7243 22.5386 25.7214 22.5437 25.7181C22.5607 25.7072 22.5772 25.6953 22.5934 25.6828C22.5975 25.6797 22.6017 25.677 22.6056 25.6738C22.6252 25.658 22.6444 25.6411 22.6626 25.6229L37.1605 11.1251H43.2782V26.1763L33.2004 36.2541C32.9253 36.5294 32.9253 36.9754 33.2004 37.2505C33.2176 37.2677 33.2355 37.2838 33.2539 37.2989C33.3831 37.4042 33.5409 37.4569 33.6986 37.4569C33.8563 37.4569 34.0142 37.4042 34.1433 37.2989C34.1617 37.2839 34.1796 37.2677 34.1968 37.2505C34.1971 37.2502 34.1968 37.2505 34.1971 37.2502L46.5912 24.856V31.0718ZM20.876 24.8322L18.8579 25.5446L17.5134 24.2L18.2258 22.1819L20.876 24.8322Z" fill="black"/>
</svg>
