<svg width="48" height="48" viewBox="0 0 48 48" fill="none" xmlns="http://www.w3.org/2000/svg">
<path d="M45.1875 14.3044V12.6562C45.1875 10.33 43.295 8.4375 40.9688 8.4375H39.5625C39.5625 7.19681 39.2593 6.14559 38.3269 5.21316L34.3493 1.23563C33.5526 0.438844 32.4932 0 31.3663 0H9.84375C9.06713 0 8.4375 0.629625 8.4375 1.40625V8.4375H7.03125C4.70503 8.4375 2.8125 10.33 2.8125 12.6562V14.3044C1.17572 14.8849 0 16.448 0 18.2812V32.5312C0 34.8575 1.89253 36.75 4.21875 36.75H8.4375V46.5938C8.4375 47.3704 9.06713 48 9.84375 48H38.1562C38.9329 48 39.5625 47.3704 39.5625 46.5938V36.75H43.7812C46.1075 36.75 48 34.8575 48 32.5312V18.2812C48 16.448 46.8243 14.8849 45.1875 14.3044ZM39.5625 11.25H40.9688C41.7442 11.25 42.375 11.8808 42.375 12.6562V14.0625H39.5625V11.25ZM31.125 2.8125C31.391 2.8125 31.9031 2.76684 32.3606 3.22434L36.3382 7.20187C36.7877 7.65141 36.75 8.14716 36.75 8.4375H31.125V2.8125ZM11.25 2.8125H28.3125V9.84375C28.3125 10.6204 28.9421 11.25 29.7188 11.25H36.75V14.0625H11.25V2.8125ZM5.625 12.6562C5.625 11.8808 6.25584 11.25 7.03125 11.25H8.4375V14.0625H5.625V12.6562ZM36.75 45.1875H11.25V31.125H36.75V45.1875ZM45.1875 32.5312C45.1875 33.3067 44.5567 33.9375 43.7812 33.9375H39.5625V31.125H40.9688C41.7454 31.125 42.375 30.4954 42.375 29.7188C42.375 28.9421 41.7454 28.3125 40.9688 28.3125H7.03125C6.25462 28.3125 5.625 28.9421 5.625 29.7188C5.625 30.4954 6.25462 31.125 7.03125 31.125H8.4375V33.9375H4.21875C3.44334 33.9375 2.8125 33.3067 2.8125 32.5312V18.2812C2.8125 17.5058 3.44334 16.875 4.21875 16.875H43.7812C44.5567 16.875 45.1875 17.5058 45.1875 18.2812V32.5312Z" fill="black"/>
<path d="M12.6562 19.6875H7.03125C6.25462 19.6875 5.625 20.3171 5.625 21.0938C5.625 21.8704 6.25462 22.5 7.03125 22.5H12.6562C13.4329 22.5 14.0625 21.8704 14.0625 21.0938C14.0625 20.3171 13.4329 19.6875 12.6562 19.6875Z" fill="black"/>
<path d="M32.5312 33.9375H15.4688C14.6921 33.9375 14.0625 34.5671 14.0625 35.3438C14.0625 36.1204 14.6921 36.75 15.4688 36.75H32.5312C33.3079 36.75 33.9375 36.1204 33.9375 35.3438C33.9375 34.5671 33.3079 33.9375 32.5312 33.9375Z" fill="black"/>
<path d="M32.5312 39.5625H15.4688C14.6921 39.5625 14.0625 40.1921 14.0625 40.9688C14.0625 41.7454 14.6921 42.375 15.4688 42.375H32.5312C33.3079 42.375 33.9375 41.7454 33.9375 40.9688C33.9375 40.1921 33.3079 39.5625 32.5312 39.5625Z" fill="black"/>
</svg>
