<svg width="43" height="45" viewBox="0 0 43 45" fill="none" xmlns="http://www.w3.org/2000/svg">
<path d="M26.6542 24.5645C24.0428 24.5645 21.9182 26.6906 21.9182 29.3038C21.9182 31.917 24.0428 34.0431 26.6542 34.0431C29.2656 34.0431 31.3902 31.917 31.3902 29.3038C31.3902 26.6906 29.2656 24.5645 26.6542 24.5645ZM26.6542 31.458C25.4672 31.458 24.5014 30.4916 24.5014 29.3038C24.5014 28.116 25.4671 27.1497 26.6542 27.1497C27.8412 27.1497 28.8068 28.116 28.8068 29.3038C28.8068 30.4916 27.8412 31.458 26.6542 31.458Z" fill="black" fill-opacity="0.85"/>
<path d="M16.3212 10.7776C13.7098 10.7776 11.5852 12.9037 11.5852 15.5169C11.5852 18.1301 13.7098 20.2562 16.3212 20.2562C18.9326 20.2562 21.0572 18.1301 21.0572 15.5169C21.0572 12.9037 18.9326 10.7776 16.3212 10.7776ZM16.3212 17.6711C15.1342 17.6711 14.1685 16.7047 14.1685 15.5168C14.1685 14.329 15.1342 13.3627 16.3212 13.3627C17.5082 13.3627 18.4739 14.329 18.4739 15.5168C18.4738 16.7047 17.5082 17.6711 16.3212 17.6711Z" fill="black" fill-opacity="0.85"/>
<path d="M30.9253 12.966C30.421 12.4613 29.6031 12.4613 29.0987 12.966L12.0502 30.0265C11.5458 30.5312 11.5458 31.3496 12.0502 31.8544C12.3024 32.1067 12.633 32.233 12.9634 32.233C13.2939 32.233 13.6246 32.1068 13.8767 31.8544L30.9252 14.794C31.4298 14.2892 31.4298 13.4709 30.9253 12.966Z" fill="black" fill-opacity="0.85"/>
<path d="M40.9047 22.9908C40.7245 22.6218 40.7245 22.1986 40.9047 21.8297L42.5751 18.41C43.5052 16.506 42.7683 14.2365 40.8975 13.2432L37.5375 11.4592C37.175 11.2668 36.9264 10.9243 36.8555 10.52L36.1983 6.77077C35.8324 4.68332 33.9028 3.2806 31.8062 3.57744L28.0401 4.11055C27.6335 4.16798 27.2316 4.03719 26.9367 3.75173L24.2029 1.10525C22.6807 -0.368375 20.2961 -0.368462 18.7739 1.10525L16.0401 3.75199C15.7451 4.03754 15.3431 4.16807 14.9367 4.11081L11.1705 3.5777C9.07323 3.28068 7.14434 4.68358 6.77842 6.77103L6.12128 10.5201C6.05034 10.9245 5.80181 11.2669 5.43939 11.4594L2.07935 13.2434C0.208548 14.2366 -0.528367 16.5062 0.4017 18.4103L2.07209 21.8299C2.2523 22.1989 2.2523 22.622 2.07209 22.9909L0.401612 26.4106C-0.528455 28.3146 0.208461 30.5841 2.07927 31.5774L5.4393 33.3614C5.80181 33.5538 6.05034 33.8963 6.12128 34.3006L6.77842 38.0498C7.11153 39.9501 8.73985 41.2828 10.6113 41.2826C10.7956 41.2826 10.9826 41.2697 11.1706 41.2431L14.9368 40.7099C15.343 40.6523 15.7452 40.7833 16.0402 41.0688L18.7739 43.7152C19.5352 44.4521 20.5116 44.8205 21.4884 44.8204C22.4649 44.8203 23.4419 44.452 24.2028 43.7152L26.9367 41.0688C27.2317 40.7833 27.6337 40.6529 28.0401 40.7099L31.8062 41.2431C33.9038 41.54 35.8324 40.1372 36.1983 38.0497L36.8556 34.3007C36.9265 33.8963 37.175 33.5539 37.5375 33.3614L40.8975 31.5774C42.7683 30.5841 43.5052 28.3145 42.5751 26.4105L40.9047 22.9908ZM40.3278 30.2427L36.9677 32.0267C35.8965 32.5957 35.8182 32.5564 35.6087 33.7518L34.9515 37.5009C34.399 39.397 33.7418 39.9203 32.1681 39.8425L28.4019 39.3094C27.2008 39.1392 26.5489 39.4797 25.6772 40.3235L22.9433 42.9699C22.4284 43.4684 20.8384 43.9526 19.8004 42.5668L17.0666 39.9203C16.3299 39.2071 15.5804 39.2106 14.5749 39.2106C14.7609 39.1842 14.3907 39.2106 14.5749 39.2106L10.3543 39.9203C9.64522 40.0206 8.46202 38.7561 8.33815 38.0498L7.68093 33.7517C7.47133 32.5563 7.60371 32.6737 6.53236 32.105L2.28965 29.8395C1.07995 29.4362 1.16852 28.0643 1.48318 27.4201L3.49935 23.3877C4.03192 22.2973 4.08946 22.2526 3.5569 21.1622L1.88642 17.7425C1.57176 17.0983 1.65666 15.2559 2.28965 14.9198L6.32198 12.9037C7.39324 12.3347 7.53168 12.0972 7.68101 10.9666L8.33815 6.67019C8.74138 5.24223 9.85976 5.01203 10.5695 5.11235L15.1931 5.64546C16.4028 5.64546 16.3376 5.68278 17.2093 4.839L20.0319 2.01636C20.5468 1.51792 22.6248 1.51792 23.1399 2.01636L26.2769 5.06607C27.1486 5.90995 28.0401 5.48847 28.4998 5.48847L32.266 4.95536C34.1451 4.839 34.5739 6.0288 34.6976 6.73506L35.3548 10.4843C35.5644 11.6797 36.0123 12.3349 37.0837 12.9037L40.4437 14.6877C41.0767 15.0238 41.7755 16.6306 41.4608 17.2748L39.7903 20.6944C39.2578 21.7847 39.2578 22.7007 39.7903 23.791L41.4608 27.2106C42.2097 29.033 40.9607 29.9066 40.3278 30.2427Z" fill="black"/>
</svg>
