<svg width="60" height="60" viewBox="0 0 60 60" fill="none" xmlns="http://www.w3.org/2000/svg">
<g clip-path="url(#clip0)">
<path d="M56.0104 30.7771C55.769 30.2832 55.769 29.7167 56.0104 29.2229L58.2482 24.645C59.4941 22.096 58.5069 19.058 56.0008 17.7282L51.4996 15.34C51.014 15.0824 50.6811 14.624 50.586 14.0827L49.7057 9.06368C49.2155 6.26924 46.6306 4.39144 43.822 4.78882L38.7768 5.50249C38.2322 5.57936 37.6937 5.40428 37.2987 5.02214L33.6365 1.47934C31.5973 -0.493381 28.4028 -0.493498 26.3637 1.47934L22.7014 5.02249C22.3063 5.40475 21.7678 5.57948 21.2233 5.50284L16.1781 4.78917C13.3685 4.39155 10.7846 6.26959 10.2944 9.06403L9.41408 14.0828C9.31904 14.6242 8.98611 15.0825 8.50061 15.3402L3.99946 17.7285C1.4933 19.0581 0.506121 22.0964 1.75205 24.6453L3.98973 29.2231C4.23114 29.717 4.23114 30.2835 3.98973 30.7773L1.75193 35.3551C0.506003 37.9041 1.49319 40.9421 3.99934 42.2719L8.50049 44.6601C8.98611 44.9177 9.31904 45.3761 9.41408 45.9174L10.2944 50.9364C10.7406 53.4803 12.9219 55.2644 15.4289 55.2641C15.6758 55.2641 15.9264 55.2468 16.1782 55.2112L21.2235 54.4975C21.7676 54.4203 22.3064 54.5957 22.7015 54.9778L26.3637 58.5206C27.3835 59.5071 28.6915 60.0002 30.0001 60.0001C31.3082 60 32.6171 59.5069 33.6364 58.5206L37.2987 54.9778C37.6938 54.5957 38.2324 54.4211 38.7768 54.4975L43.822 55.2112C46.6319 55.6087 49.2155 53.7307 49.7057 50.9363L50.5861 45.9175C50.6812 45.3761 51.0141 44.9178 51.4996 44.6601L56.0008 42.2719C58.5069 40.9422 59.4941 37.9039 58.2482 35.355L56.0104 30.7771ZM54.3788 39.2148L49.8776 41.6031C48.4426 42.3647 47.4583 43.7191 47.1776 45.3194L46.2973 50.3383C46.1315 51.2838 45.2574 51.9188 44.3067 51.7846L39.2614 51.0709C37.6525 50.843 36.0604 51.3609 34.8926 52.4904L31.2303 56.0331C30.5405 56.7004 29.4597 56.7004 28.7697 56.0331L25.1075 52.4903C24.1206 51.5356 22.8303 51.0182 21.4834 51.0182C21.2366 51.0182 20.9878 51.0356 20.7387 51.0708L15.6934 51.7845C14.7435 51.9188 13.8687 51.2836 13.7028 50.3382L12.8223 45.3192C12.5416 43.7189 11.5574 42.3643 10.1222 41.603L5.62109 39.2147C4.77313 38.7648 4.43914 37.737 4.86067 36.8746L7.09846 32.2967C7.8119 30.837 7.8119 29.1629 7.09846 27.7032L4.86067 23.1253C4.43914 22.2629 4.77313 21.2351 5.62109 20.7852L10.1222 18.3969C11.5573 17.6353 12.5416 16.2809 12.8222 14.6806L13.7025 9.66168C13.8685 8.71622 14.7424 8.08107 15.6932 8.21536L20.7384 8.92903C22.3468 9.15672 23.9395 8.63911 25.1073 7.50954L28.7696 3.96675C29.4593 3.29949 30.5402 3.29949 31.2302 3.96675L34.8924 7.50954C36.0601 8.63923 37.6526 9.15672 39.2612 8.92903L44.3064 8.21536C45.2565 8.08095 46.1313 8.71622 46.2971 9.66168L47.1774 14.6807C47.4582 16.281 48.4423 17.6355 49.8775 18.3969L54.3787 20.7852C55.2266 21.2351 55.5606 22.2629 55.1391 23.1253L52.9013 27.7031C52.1878 29.1626 52.1878 30.837 52.9013 32.2966L55.1391 36.8743C55.5607 37.737 55.2267 38.7649 54.3788 39.2148Z" fill="black"/>
<path d="M42.6427 17.3572C41.9671 16.6815 40.8714 16.6815 40.1957 17.3572L17.3572 40.1958C16.6815 40.8715 16.6815 41.9671 17.3572 42.6428C17.6951 42.9806 18.1379 43.1496 18.5807 43.1496C19.0234 43.1496 19.4664 42.9807 19.8041 42.6428L42.6425 19.8043C43.3185 19.1285 43.3185 18.0331 42.6427 17.3572Z" fill="black"/>
<path d="M23.0789 14.4276C19.5806 14.4276 16.7345 17.2737 16.7345 20.7719C16.7345 24.2702 19.5806 27.1163 23.0789 27.1163C26.5771 27.1163 29.4233 24.2702 29.4233 20.7719C29.4233 17.2737 26.5771 14.4276 23.0789 14.4276ZM23.0789 23.6557C21.4888 23.6557 20.1951 22.362 20.1951 20.7718C20.1951 19.1817 21.4888 17.8881 23.0789 17.8881C24.669 17.8881 25.9627 19.1817 25.9627 20.7718C25.9626 22.362 24.669 23.6557 23.0789 23.6557Z" fill="black"/>
<path d="M36.921 32.8838C33.4227 32.8838 30.5766 35.7299 30.5766 39.2282C30.5766 42.7264 33.4227 45.5725 36.921 45.5725C40.4192 45.5725 43.2654 42.7264 43.2654 39.2282C43.2654 35.7299 40.4192 32.8838 36.921 32.8838ZM36.921 42.1119C35.3309 42.1119 34.0371 40.8183 34.0371 39.2282C34.0371 37.6381 35.3308 36.3444 36.921 36.3444C38.5111 36.3444 39.8047 37.6381 39.8047 39.2282C39.8047 40.8183 38.5111 42.1119 36.921 42.1119Z" fill="black"/>
</g>
<defs>
<clipPath id="clip0">
<rect width="60" height="60" fill="white"/>
</clipPath>
</defs>
</svg>
