<svg width="45" height="45" viewBox="0 0 45 45" fill="none" xmlns="http://www.w3.org/2000/svg">
<g clip-path="url(#clip0)">
<path d="M37.088 2.34678C32.3908 0.789442 27.4903 0 22.5233 0C17.4701 0 12.5362 0.786991 7.86654 2.33646C4.88666 3.27509 2.6394 6.27471 2.6394 9.31322V25.6335C2.6394 27.9035 3.83448 31.5687 6.05285 33.8943C13.064 41.0975 17.5351 44.7548 22.516 44.7548C27.421 44.7548 31.6971 41.2473 38.8719 33.8745C40.9807 31.6744 42.0841 28.0554 42.0841 25.6172V9.31322C42.0841 6.24446 39.9334 3.24897 37.088 2.34678ZM40.996 25.6171C40.996 27.7832 39.9761 31.149 38.0893 33.1177C31.1348 40.2645 27.0304 43.6659 22.5161 43.6659C18.9926 43.6659 15.4497 41.9876 6.83633 33.1382C4.8902 31.0985 3.72755 27.7208 3.72755 25.6334V9.31322C3.72755 6.7723 5.68921 4.16392 8.20111 3.37254C12.768 1.85706 17.5865 1.08884 22.5233 1.08884C27.374 1.08884 32.159 1.85977 36.7525 3.3826C39.132 4.13689 40.996 6.74205 40.996 9.31322V25.6171Z" fill="black"/>
<path d="M35.641 6.8352C31.3763 5.42046 26.9552 4.70287 22.5005 4.70287C17.979 4.70287 13.5343 5.41691 9.29764 6.82262C8.33575 7.12588 7.26392 8.22078 7.26392 9.30775V25.622C7.26392 27.0386 8.30063 29.4666 9.40128 30.6219C15.0626 36.4355 19.2401 40.0386 22.5714 40.0386C25.7602 40.0386 29.5939 36.7207 35.5561 30.5958C36.6456 29.4576 37.4595 27.0212 37.4595 25.6029V9.31323C37.4595 8.33326 36.572 7.12814 35.641 6.8352ZM36.3714 25.6029C36.3714 26.7656 35.6573 28.9162 34.7735 29.8393C29.1571 35.6093 25.3601 38.95 22.5715 38.95C20.732 38.95 17.9581 37.8492 10.185 29.8668C9.27701 28.9135 8.35206 26.7714 8.35206 25.6221V9.30775C8.35206 8.80932 9.01772 8.05257 9.63227 7.85902C13.7661 6.4873 18.0957 5.79177 22.5005 5.79177C26.8386 5.79177 31.1446 6.49053 35.3066 7.87153C35.7941 8.02478 36.3714 8.80635 36.3714 9.31323V25.6029Z" fill="black"/>
<path d="M28.7594 15.2749C28.2428 14.8511 27.5907 14.6178 26.9238 14.6178C26.053 14.6178 25.2344 15.0043 24.6765 15.68L20.778 20.4395L20.3303 19.9692C19.7767 19.3885 19.031 19.0686 18.231 19.0686C17.484 19.0686 16.7735 19.3531 16.2302 19.8695C15.6684 20.4044 15.3486 21.1261 15.3295 21.9016C15.3107 22.6767 15.5947 23.4122 16.1287 23.9724L18.8392 26.8203C19.3846 27.3926 20.1501 27.7206 20.9393 27.7206C20.9866 27.7206 21.0296 27.7197 21.0595 27.7176C21.8841 27.6849 22.658 27.2986 23.1828 26.6581L29.1639 19.3593C30.1769 18.1209 29.9956 16.2889 28.7594 15.2749ZM28.322 18.6692L22.3408 25.9683C22.013 26.3685 21.5301 26.6096 21.0048 26.6308C20.9841 26.6319 20.9627 26.6322 20.9387 26.6322C20.4455 26.6322 19.967 26.4269 19.6265 26.0697L16.9159 23.2221C16.5824 22.872 16.4051 22.4125 16.417 21.9288C16.4287 21.4445 16.6287 20.9931 16.9796 20.6594C17.3196 20.336 17.7636 20.158 18.2307 20.158C18.7304 20.158 19.1964 20.3578 19.5424 20.7209L20.4148 21.6364C20.5225 21.7491 20.6719 21.8082 20.8289 21.8049C20.9847 21.7992 21.1306 21.7265 21.2293 21.606L25.5163 16.372C25.8653 15.9492 26.3781 15.7069 26.9232 15.7069C27.3394 15.7069 27.7463 15.8526 28.0693 16.1175C28.8418 16.7506 28.955 17.8956 28.322 18.6692Z" fill="black"/>
</g>
<defs>
<clipPath id="clip0">
<rect width="44.7237" height="44.7548" fill="white"/>
</clipPath>
</defs>
</svg>
