<svg width="60" height="60" viewBox="0 0 60 60" fill="none" xmlns="http://www.w3.org/2000/svg">
<g clip-path="url(#clip0)">
<path d="M49.7562 3.14619C43.4547 1.05836 36.8803 0 30.2168 0C23.4375 0 16.8184 1.05507 10.5536 3.13236C6.55592 4.39071 3.54108 8.41212 3.54108 12.4857V34.3652C3.54108 37.4085 5.14435 42.3222 8.12046 45.44C17.5263 55.097 23.5246 60.0001 30.2069 60.0001C36.7873 60.0001 42.524 55.2977 52.1496 45.4134C54.9787 42.4639 56.4589 37.6122 56.4589 34.3434V12.4857C56.4589 8.37157 53.5736 4.35569 49.7562 3.14619ZM54.9991 34.3433C54.9991 37.2472 53.6309 41.7595 51.0996 44.3988C41.7696 53.9802 36.2633 58.5402 30.207 58.5402C25.4801 58.5402 20.727 56.2902 9.17155 44.4264C6.56068 41.6918 5.0009 37.1635 5.0009 34.3651V12.4857C5.0009 9.07921 7.63261 5.58231 11.0025 4.52136C17.1293 2.48965 23.5936 1.45974 30.2168 1.45974C36.7243 1.45974 43.1437 2.49328 49.3062 4.53485C52.4985 5.54608 54.9991 9.03866 54.9991 12.4857V34.3433Z" fill="black"/>
<path d="M47.815 9.16351C42.0937 7.26686 36.1625 6.30482 30.1861 6.30482C24.1202 6.30482 18.1573 7.2621 12.4736 9.14665C11.1831 9.55322 9.74518 11.0211 9.74518 12.4783V34.3499C9.74518 36.249 11.136 39.504 12.6126 41.0529C20.2076 48.8468 25.8121 53.6772 30.2813 53.6772C34.5593 53.6772 39.7024 49.2292 47.7011 41.0179C49.1627 39.492 50.2546 36.2257 50.2546 34.3243V12.4857C50.2547 11.1719 49.064 9.55624 47.815 9.16351ZM48.7949 34.3243C48.7949 35.8829 47.8369 38.7661 46.6512 40.0037C39.1164 47.7392 34.0224 52.2179 30.2813 52.2179C27.8136 52.2179 24.0921 50.742 13.664 40.0405C12.4459 38.7626 11.205 35.8907 11.205 34.35V12.4783C11.205 11.8101 12.098 10.7956 12.9225 10.5361C18.4683 8.69711 24.2768 7.76465 30.1861 7.76465C36.006 7.76465 41.7827 8.70143 47.3664 10.5529C48.0204 10.7583 48.7949 11.8061 48.7949 12.4857V34.3243Z" fill="black"/>
<path d="M38.5828 20.4781C37.8898 19.9099 37.015 19.5972 36.1202 19.5972C34.952 19.5972 33.8539 20.1153 33.1054 21.0212L27.8753 27.402L27.2746 26.7714C26.5319 25.9929 25.5316 25.5642 24.4583 25.5642C23.4561 25.5642 22.5029 25.9455 21.7741 26.6378C21.0204 27.3549 20.5913 28.3225 20.5657 29.3621C20.5404 30.4012 20.9215 31.3873 21.6379 32.1383L25.2743 35.9564C26.0059 36.7235 27.0329 37.1633 28.0917 37.1633C28.1552 37.1633 28.2128 37.1622 28.253 37.1592C29.3591 37.1155 30.3974 36.5976 31.1014 35.7388L39.1256 25.9538C40.4846 24.2936 40.2413 21.8375 38.5828 20.4781ZM37.9961 25.0287L29.9718 34.8141C29.5321 35.3506 28.8843 35.6739 28.1795 35.7023C28.1518 35.7038 28.123 35.7041 28.0908 35.7041C27.4292 35.7041 26.7873 35.4289 26.3304 34.9501L22.694 31.1324C22.2466 30.663 22.0087 30.047 22.0247 29.3985C22.0404 28.7493 22.3086 28.1442 22.7794 27.6968C23.2356 27.2632 23.8312 27.0246 24.4578 27.0246C25.1282 27.0246 25.7534 27.2925 26.2176 27.7793L27.388 29.0066C27.5325 29.1577 27.7329 29.2368 27.9435 29.2325C28.1526 29.2248 28.3482 29.1274 28.4807 28.9658L34.232 21.9489C34.7002 21.3821 35.3881 21.0573 36.1195 21.0573C36.6779 21.0573 37.2237 21.2526 37.657 21.6077C38.6934 22.4564 38.8453 23.9915 37.9961 25.0287Z" fill="black"/>
</g>
<defs>
<clipPath id="clip0">
<rect width="60" height="60" fill="white"/>
</clipPath>
</defs>
</svg>
