<svg width="60" height="60" viewBox="0 0 60 60" fill="none" xmlns="http://www.w3.org/2000/svg">
<g clip-path="url(#clip0)">
<path d="M54.0575 34.2783L45.0936 33.6379L39.1692 23.7689L36.2075 18.8274V17.4587C36.2084 15.9732 35.0049 14.7684 33.5195 14.7675C33.1867 14.767 32.8566 14.8288 32.5467 14.9487L24.0287 18.2346L24.6723 16.0744C25.1804 14.2584 24.356 12.3335 22.6911 11.4482L16.0073 7.85753C15.5211 7.5966 14.9155 7.76323 14.6312 8.2361L4.8273 23.9356L4.62039 23.8156C4.12509 23.5309 3.49292 23.7021 3.20865 24.1974C3.20224 24.2079 3.19675 24.2185 3.1908 24.2294L0.121493 30.0078C-0.143095 30.5068 0.0413839 31.1252 0.535311 31.3985L37.8636 52.088C38.017 52.1727 38.1891 52.2171 38.3644 52.2171H53.7938C57.2202 52.2139 59.9974 49.4371 60.0006 46.0103V40.66C59.9897 37.3073 57.401 34.5278 54.0575 34.2783ZM42.9315 34.0567L41.7501 34.4509L32.4936 22.4158L34.8731 20.6291L42.9315 34.0567ZM15.8974 10.1468L21.7124 13.2678C22.5185 13.694 22.9213 14.6214 22.6828 15.5013L21.8282 18.3815L15.8901 14.8206L13.8338 13.5864L15.8974 10.1468ZM9.77252 20.0198L10.3022 19.1922L13.7056 21.7236C15.4378 23.0242 16.3222 25.166 16.0123 27.3102L15.8832 30.2998L6.63776 24.971L9.77252 20.0198ZM53.7938 50.1485H38.6304L2.42359 30.0792L4.51419 26.1484L38.7938 45.8725C38.9513 45.9632 39.1294 46.0108 39.3111 46.0103H57.9315C57.9315 48.2955 56.079 50.1485 53.7938 50.1485ZM57.9315 43.9412H39.5871L32.4918 39.8561L34.8772 37.424C35.2713 37.0107 35.2558 36.3556 34.8419 35.9615C34.4368 35.5751 33.7978 35.5815 33.4 35.9757L30.6401 38.7895L26.7089 36.5241L30.6516 33.3701C31.0974 33.013 31.1698 32.3616 30.8127 31.9153C30.4557 31.4694 29.8043 31.3971 29.3584 31.7542L24.7826 35.4154L21.4144 33.4786L26.5248 29.2195C26.9643 28.8538 27.0238 28.2015 26.6585 27.762C26.2928 27.3226 25.64 27.263 25.2005 27.6283L19.5027 32.3776L17.9033 31.4571L18.0709 27.486C18.454 24.625 17.2551 21.7813 14.9398 20.0583L11.415 17.4376L12.7466 15.347L21.9037 20.8411C22.0269 20.912 22.1633 20.956 22.3043 20.9706C22.329 20.9706 22.3505 20.9789 22.3757 20.9807C22.4004 20.983 22.416 20.988 22.4356 20.988C22.5634 20.9885 22.6906 20.9651 22.8101 20.9189L33.2892 16.8773C33.481 16.8041 33.6957 16.8292 33.8655 16.9446C34.0358 17.0613 34.137 17.255 34.1356 17.4619V18.5999L30.4113 21.3927C29.9544 21.736 29.8624 22.3847 30.2057 22.841C30.208 22.8443 30.2103 22.8475 30.2126 22.8502L40.5576 36.2988C40.8249 36.649 41.2859 36.79 41.7038 36.6495L44.6115 35.6799L53.9078 36.3442C56.1701 36.5117 57.9229 38.3913 57.9315 40.66V43.9412Z" fill="black"/>
<path d="M6.20682 37.7343H1.03455C0.463257 37.7343 0 38.1976 0 38.7689C0 39.3402 0.463257 39.8034 1.03455 39.8034H6.20682C6.77811 39.8034 7.24136 39.3402 7.24136 38.7689C7.24136 38.1976 6.77811 37.7343 6.20682 37.7343Z" fill="black"/>
<path d="M0 44.9758C0 45.5471 0.463257 46.0103 1.03455 46.0103H14.4827C15.054 46.0103 15.5173 45.5471 15.5173 44.9758C15.5173 44.4045 15.054 43.9412 14.4827 43.9412H1.03455C0.463257 43.9412 0 44.4045 0 44.9758Z" fill="black"/>
<path d="M25.8623 50.1484H1.03455C0.463257 50.1484 0 50.6112 0 51.1825C0 51.7538 0.463257 52.2171 1.03455 52.2171H25.8623C26.4336 52.2171 26.8964 51.7538 26.8964 51.1825C26.8964 50.6112 26.4336 50.1484 25.8623 50.1484Z" fill="black"/>
</g>
<defs>
<clipPath id="clip0">
<rect width="60" height="60" fill="white"/>
</clipPath>
</defs>
</svg>
