<svg width="45" height="45" viewBox="0 0 45 45" fill="none" xmlns="http://www.w3.org/2000/svg">
<g clip-path="url(#clip0)">
<path d="M40.3554 25.6075L33.6635 25.1291L29.2408 17.7565L27.0298 14.0649V13.0425C27.0305 11.9328 26.1321 11.0327 25.0232 11.032C24.7747 11.0317 24.5283 11.0778 24.297 11.1674L17.938 13.6221L18.4185 12.0083C18.7978 10.6517 18.1823 9.21375 16.9395 8.55238L11.9498 5.86996C11.5869 5.67504 11.1348 5.79951 10.9226 6.15277L3.60366 17.881L3.44919 17.7914C3.07944 17.5787 2.6075 17.7066 2.39529 18.0766C2.3905 18.0845 2.3864 18.0923 2.38196 18.1005L0.0906391 22.4172C-0.106883 22.79 0.0308357 23.252 0.399566 23.4561L28.2662 38.9122C28.3807 38.9755 28.5092 39.0086 28.6401 39.0086H40.1585C42.7164 39.0062 44.7897 36.9318 44.7921 34.3718V30.3749C44.7839 27.8703 42.8514 25.7939 40.3554 25.6075ZM32.0495 25.442L31.1675 25.7364L24.2573 16.7457L26.0337 15.4109L32.0495 25.442ZM11.8678 7.58016L16.2088 9.91171C16.8106 10.2301 17.1113 10.9229 16.9333 11.5802L16.2953 13.7319L11.8623 11.0717L10.3273 10.1497L11.8678 7.58016ZM7.2954 14.9558L7.69079 14.3375L10.2316 16.2286C11.5247 17.2001 12.1849 18.8002 11.9536 20.402L11.8572 22.6354L4.95521 18.6545L7.2954 14.9558ZM40.1585 37.4633H28.8386L1.80922 22.4706L3.36991 19.5341L28.9606 34.2689C29.0782 34.3366 29.2111 34.3722 29.3468 34.3718H43.2475C43.2475 36.079 41.8645 37.4633 40.1585 37.4633ZM43.2475 32.8261H29.5528L24.256 29.7744L26.0367 27.9575C26.331 27.6487 26.3194 27.1593 26.0104 26.8649C25.708 26.5763 25.2309 26.5811 24.934 26.8755L22.8737 28.9776L19.9389 27.2852L22.8822 24.929C23.215 24.6623 23.269 24.1757 23.0025 23.8422C22.7359 23.5092 22.2497 23.4551 21.9168 23.7219L18.5008 26.4569L15.9864 25.0101L19.8015 21.8284C20.1295 21.5551 20.174 21.0678 19.9013 20.7395C19.6282 20.4112 19.1409 20.3668 18.8128 20.6397L14.5593 24.1876L13.3653 23.4999L13.4903 20.5333C13.7764 18.396 12.8814 16.2717 11.1529 14.9845L8.52154 13.0267L9.51564 11.4649L16.3517 15.5693C16.4436 15.6223 16.5454 15.6551 16.6507 15.6661C16.6691 15.6661 16.6852 15.6722 16.704 15.6736C16.7225 15.6753 16.7341 15.679 16.7488 15.679C16.8441 15.6794 16.9391 15.6619 17.0283 15.6274L24.8513 12.6082C24.9945 12.5534 25.1547 12.5722 25.2815 12.6584C25.4086 12.7456 25.4842 12.8903 25.4831 13.0448V13.895L22.7028 15.9813C22.3617 16.2378 22.2931 16.7224 22.5494 17.0633C22.5511 17.0657 22.5528 17.0681 22.5545 17.0702L30.2773 27.1169C30.4769 27.3785 30.821 27.4839 31.133 27.3789L33.3037 26.6546L40.2436 27.1508C41.9325 27.276 43.241 28.6801 43.2475 30.3749V32.8261Z" fill="black"/>
<path d="M4.63356 28.1893H0.772317C0.345834 28.1893 0 28.5353 0 28.9621C0 29.3889 0.345834 29.735 0.772317 29.735H4.63356C5.06005 29.735 5.40588 29.3889 5.40588 28.9621C5.40588 28.5353 5.06005 28.1893 4.63356 28.1893Z" fill="black"/>
<path d="M0 33.599C0 34.0258 0.345834 34.3718 0.772317 34.3718H10.8118C11.2382 34.3718 11.5841 34.0258 11.5841 33.599C11.5841 33.1722 11.2382 32.8261 10.8118 32.8261H0.772317C0.345834 32.8261 0 33.1722 0 33.599Z" fill="black"/>
<path d="M19.3069 37.4632H0.772317C0.345834 37.4632 0 37.809 0 38.2357C0 38.6625 0.345834 39.0086 0.772317 39.0086H19.3069C19.7334 39.0086 20.0789 38.6625 20.0789 38.2357C20.0789 37.809 19.7334 37.4632 19.3069 37.4632Z" fill="black"/>
</g>
<defs>
<clipPath id="clip0">
<rect width="44.7917" height="44.8228" fill="white"/>
</clipPath>
</defs>
</svg>
