<svg width="24" height="25" viewBox="0 0 24 25" fill="none" xmlns="http://www.w3.org/2000/svg">
<path d="M7.03519 14.1892C7.65285 15.021 8.36257 15.7566 9.27944 16.277C10.3177 16.8669 11.4356 17.0448 12.6146 16.9905C13.1654 16.9643 13.331 16.8215 13.3564 16.276C13.3735 15.9023 13.4169 15.5296 13.6021 15.1938C13.784 14.8645 14.06 14.8021 14.3785 15.007C14.537 15.1106 14.6705 15.2401 14.7969 15.3788C15.1072 15.7154 15.4076 16.0641 15.7291 16.3896C16.1332 16.7986 16.6126 17.0396 17.214 16.9905L19.5441 16.9915C19.9191 16.9663 20.1142 16.5093 19.8989 16.0921C19.7473 15.8008 19.5483 15.5417 19.338 15.2902C18.8618 14.7217 18.3007 14.2371 17.7701 13.7228C17.292 13.2588 17.2616 12.9894 17.6457 12.454C18.0662 11.8691 18.517 11.3075 18.9406 10.7257C19.3358 10.1822 19.7414 9.63951 19.9483 8.98953C20.0809 8.57461 19.9636 8.3918 19.5372 8.31844C19.4634 8.30641 19.3866 8.30641 19.3118 8.30641L16.7763 8.30325C16.464 8.29832 16.2922 8.434 16.1818 8.7091C16.0322 9.08103 15.8787 9.45276 15.7005 9.81049C15.2983 10.6244 14.8483 11.411 14.2175 12.0762C14.0781 12.2227 13.9233 12.4087 13.691 12.3323C13.4009 12.2268 13.315 11.7508 13.3199 11.5901L13.3177 8.6811C13.2614 8.26638 13.1681 8.08041 12.7529 7.99976H10.1193C9.76873 7.99976 9.59174 8.13563 9.40365 8.35354C9.2965 8.48034 9.26297 8.56159 9.48559 8.60379C9.9221 8.68603 10.1699 8.96744 10.2346 9.40267C10.3388 10.099 10.3316 10.7981 10.2711 11.4964C10.2538 11.7003 10.2185 11.9034 10.1374 12.0943C10.0102 12.3947 9.80384 12.455 9.534 12.2702C9.29055 12.1034 9.11872 11.8683 8.94968 11.6323C8.31793 10.7448 7.81455 9.7886 7.40304 8.78365C7.28479 8.49316 7.07963 8.31745 6.7703 8.31233C6.00999 8.3003 5.24887 8.29852 4.48756 8.31331C4.03062 8.3214 3.89411 8.54246 4.08121 8.95541C4.90919 10.787 5.83122 12.5674 7.03519 14.1892Z" fill="#939393"/>
<path d="M0 -0.000244141V24.9998H24V-0.000244141H0ZM22.5155 23.4534H1.48454V1.54615H22.5155V23.4534Z" fill="#939393"/>
</svg>
