<svg width="25" height="25" viewBox="0 0 25 25" fill="none" xmlns="http://www.w3.org/2000/svg">
<path fill-rule="evenodd" clip-rule="evenodd" d="M21.3575 3.63287C19.0074 1.29126 15.882 0.00112915 12.5523 -0.000244141C5.69114 -0.000244141 0.107172 5.55685 0.104412 12.387C0.103492 14.5704 0.676608 16.7017 1.76596 18.5804L0 24.9998L6.59881 23.277C8.41705 24.2641 10.464 24.7843 12.5472 24.7849H12.5524C19.4128 24.7849 24.9974 19.2274 25 12.3969C25.0014 9.08667 23.7078 5.97433 21.3575 3.63287ZM12.5523 22.6928H12.548C10.6916 22.692 8.87088 22.1955 7.28216 21.2575L6.90453 21.0343L2.9887 22.0566L4.03389 18.257L3.78781 17.8675C2.75212 16.2281 2.20522 14.3333 2.20614 12.3878C2.20829 6.71072 6.84964 2.09204 12.5564 2.09204C15.3199 2.09296 17.9176 3.16534 19.8709 5.1116C21.8242 7.05786 22.8993 9.64484 22.8984 12.3961C22.896 18.0736 18.2549 22.6928 12.5523 22.6928ZM18.2273 14.9811C17.9164 14.8261 16.3872 14.0775 16.102 13.9741C15.8171 13.8708 15.6095 13.8193 15.4024 14.1291C15.1949 14.4388 14.599 15.1362 14.4174 15.3426C14.2359 15.5492 14.0547 15.5752 13.7436 15.4201C13.4325 15.2653 12.4304 14.9383 11.2423 13.8837C10.3178 13.063 9.6936 12.0493 9.51207 11.7396C9.33084 11.4295 9.51054 11.2781 9.64853 11.1078C9.98522 10.6917 10.3224 10.2555 10.426 10.049C10.5298 9.84244 10.4778 9.66162 10.4 9.50674C10.3224 9.35187 9.70035 7.82828 9.44123 7.20831C9.18856 6.60498 8.93236 6.68646 8.74132 6.677C8.5601 6.668 8.35265 6.66617 8.14521 6.66617C7.93792 6.66617 7.60092 6.74353 7.31574 7.05359C7.03071 7.36349 6.22731 8.11224 6.22731 9.63583C6.22731 11.1594 7.3418 12.6313 7.49727 12.8379C7.65274 13.0445 9.69054 16.171 12.8105 17.5117C13.5526 17.8309 14.1318 18.0211 14.5836 18.1638C15.3288 18.3994 16.0066 18.3661 16.5426 18.2865C17.1403 18.1975 18.3826 17.5376 18.6421 16.8146C18.9012 16.0915 18.9012 15.4719 18.8233 15.3426C18.7457 15.2135 18.5383 15.1362 18.2273 14.9811Z" fill="#939393"/>
</svg>
