<svg width="28" height="28" viewBox="0 0 28 28" fill="none" xmlns="http://www.w3.org/2000/svg">
<path d="M8.73968 15.4492C9.42803 16.3716 10.219 17.1873 11.2408 17.7644C12.3979 18.4184 13.6437 18.6157 14.9576 18.5555C15.5715 18.5265 15.7561 18.3681 15.7844 17.7633C15.8034 17.3489 15.8518 16.9356 16.0581 16.5631C16.2609 16.1979 16.5685 16.1288 16.9234 16.356C17.1001 16.4709 17.2489 16.6145 17.3897 16.7683C17.7356 17.1416 18.0703 17.5282 18.4286 17.8892C18.879 18.3428 19.4132 18.61 20.0834 18.5555L22.6803 18.5566C23.0982 18.5287 23.3156 18.022 23.0757 17.5592C22.9067 17.2362 22.6849 16.9489 22.4505 16.6701C21.9198 16.0396 21.2945 15.5023 20.7032 14.932C20.1703 14.4174 20.1365 14.1187 20.5646 13.525C21.0332 12.8764 21.5355 12.2536 22.0076 11.6085C22.4481 11.0058 22.9001 10.404 23.1307 9.6832C23.2784 9.22309 23.1477 9.02037 22.6725 8.93902C22.5903 8.92568 22.5047 8.92568 22.4214 8.92568L19.5956 8.92218C19.2476 8.91672 19.0561 9.06717 18.9332 9.37223C18.7664 9.78466 18.5953 10.1969 18.3967 10.5936C17.9485 11.4961 17.447 12.3684 16.7441 13.106C16.5886 13.2685 16.4161 13.4747 16.1572 13.3901C15.8339 13.2731 15.7382 12.7452 15.7437 12.567L15.7413 9.34118C15.6785 8.88129 15.5745 8.67507 15.1117 8.58563H12.1768C11.7861 8.58563 11.5888 8.7363 11.3792 8.97795C11.2598 9.11856 11.2224 9.20866 11.4705 9.25545C11.957 9.34664 12.2332 9.6587 12.3053 10.1413C12.4214 10.9135 12.4134 11.6887 12.346 12.4631C12.3267 12.6892 12.2874 12.9144 12.1969 13.1261C12.0552 13.4592 11.8252 13.5261 11.5245 13.3212C11.2532 13.1362 11.0617 12.8755 10.8733 12.6137C10.1692 11.6297 9.60824 10.5693 9.14964 9.45489C9.01785 9.13277 8.78921 8.93793 8.44448 8.93224C7.59714 8.9189 6.74892 8.91694 5.90048 8.93334C5.39124 8.9423 5.2391 9.18744 5.44762 9.64536C6.37036 11.6765 7.39791 13.6507 8.73968 15.4492Z" fill="white"/>
<path d="M0.545593 0V27.1515H28V0H0.545593ZM26.3018 25.472H2.24381V1.67948H26.3018V25.472Z" fill="white"/>
</svg>
