<svg width="26" height="27" viewBox="0 0 26 27" fill="none" xmlns="http://www.w3.org/2000/svg">
<path fill-rule="evenodd" clip-rule="evenodd" d="M21.8832 4.38289C19.4753 1.9987 16.2729 0.685114 12.8612 0.683716C5.83123 0.683716 0.10981 6.34185 0.106982 13.2962C0.106039 15.5193 0.693262 17.6894 1.80943 19.6022L0 26.1383L6.76123 24.3842C8.62423 25.3893 10.7216 25.9189 12.8561 25.9195H12.8614C19.8906 25.9195 25.6127 20.2609 25.6154 13.3063C25.6168 9.93585 24.2914 6.76692 21.8832 4.38289ZM12.8612 23.7893H12.8569C10.9547 23.7886 9.08923 23.283 7.46141 22.328L7.07448 22.1007L3.06226 23.1416L4.13318 19.273L3.88104 18.8763C2.81986 17.2071 2.2595 15.2778 2.26045 13.297C2.26265 7.5167 7.01824 2.81404 12.8655 2.81404C15.697 2.81498 18.3586 3.90686 20.36 5.88851C22.3614 7.87015 23.463 10.5042 23.4621 13.3055C23.4595 19.0862 18.7043 23.7893 12.8612 23.7893ZM18.676 15.9375C18.3574 15.7796 16.7905 15.0174 16.4983 14.9121C16.2064 14.8069 15.9937 14.7546 15.7815 15.0699C15.5689 15.3853 14.9583 16.0953 14.7723 16.3055C14.5863 16.5159 14.4006 16.5423 14.0819 16.3845C13.7631 16.2268 12.7364 15.8938 11.519 14.8201C10.5717 13.9844 9.9322 12.9524 9.7462 12.637C9.56052 12.3213 9.74463 12.1672 9.88602 11.9938C10.231 11.5701 10.5765 11.1259 10.6826 10.9157C10.789 10.7054 10.7357 10.5213 10.6559 10.3636C10.5765 10.2059 9.93912 8.65458 9.67362 8.02334C9.41473 7.40904 9.15223 7.492 8.95648 7.48237C8.7708 7.4732 8.55825 7.47134 8.3457 7.47134C8.1333 7.47134 7.78801 7.55011 7.49581 7.8658C7.20377 8.18134 6.38059 8.9437 6.38059 10.495C6.38059 12.0463 7.52252 13.5449 7.68181 13.7553C7.84111 13.9656 9.92906 17.149 13.1258 18.514C13.8861 18.839 14.4796 19.0328 14.9426 19.178C15.7061 19.4179 16.4006 19.384 16.9498 19.3029C17.5622 19.2124 18.8351 18.5404 19.1009 17.8043C19.3664 17.0681 19.3664 16.4371 19.2866 16.3055C19.2071 16.1741 18.9946 16.0953 18.676 15.9375Z" fill="white"/>
</svg>
